<?xml version="1.0" encoding="UTF-8"?><svg xmlns="http://www.w3.org/2000/svg" viewBox="0 0 608.62 711.45"><defs><style>.d{fill:#0c0505;}.e{fill:#4b3e38;}.f{fill:#48403a;}.g{fill:#d8181c;}.h{fill:#c61e23;}.i{fill:#ceb98e;}.j{fill:#b5181e;}.k{fill:#c0181e;}.l{fill:#b59968;}.m{fill:#c31a20;}.n{fill:#df181c;}.o{fill:#a5181d;}.p{fill:#de181c;}.q{fill:#dbd5d5;}.r{fill:#0f0909;}.s{fill:#c9181e;}.t{fill:#bd181e;}.u{fill:#861c1e;}.v{opacity:.9;}.w{fill:#0e0807;}.x{fill:#493f39;}.y{fill:#c3181e;}.a`{fill:#d3181e;}.aa{fill:#d2171d;}.ab{fill:#d3181c;}.ac{fill:#ce171e;}.ad{fill:#312b27;}.ae{fill:#821619;}.af{fill:#ae191e;}.ag{fill:#ad191e;}.ah{fill:#a51b1f;}.ai{fill:#b8181e;}.aj{fill:#c2171c;}.ak{fill:#b3191e;}.al{fill:#ca171d;}.am{fill:#100a0a;}.an{fill:#ba181e;}.ao{fill:#cd181f;}.ap{fill:#cd171e;}.aq{fill:#130707;}.ar{fill:#d6171d;}.as{fill:#ad1b1e;}.at{fill:#120b0a;}.au{fill:#ae2024;}.av{fill:#81171a;}.aw{fill:#7f1619;}.ax{fill:#b7181e;}.ay{fill:#d4181d;}.b`{fill:#bc181e;}.ba{fill:#c6191f;}.bb{fill:#cd181c;}.bc{fill:#0d0606;}.bd{fill:#bf181e;}.be{fill:#cc171d;}.bf{fill:#483f3a;}.bg{fill:#c4181e;}.bh{fill:#7e6f63;}.bi{fill:#bd191f;}.bj{fill:#b22528;}.bk{fill:#b9181e;}.bl{fill:#f5c625;}.bm{fill:#d6181c;}.bn{fill:#a0181d;}.bo{fill:#c41c22;}.bp{fill:#88171a;}.bq{fill:#b4191e;}.br{fill:#ce181f;}.bs{fill:#0e0808;}.bt{fill:#cf171e;}.bu{fill:#110b0b;}.bv{fill:#dc181c;}.bw{fill:#c5171e;}.bx{fill:#b9181d;}.by{fill:#bd191e;}.c`{fill:#b2191e;}.ca{fill:#9d1a1e;}.cb{fill:#b4181e;}.cc{fill:#a01c20;}.cd{fill:#cb191e;}.ce{fill:#be181e;}.cf{fill:#210708;}.cg{fill:#91171b;}.ch{fill:#bf2227;}.ci{fill:#0f0908;}.cj{fill:#86161a;}.ck{fill:#0b0505;}.cl{fill:#140e0e;}.cm{fill:#af1c21;}.cn{fill:#0f0808;}.co{fill:#da181c;}.cp{fill:#db181c;}.cq{fill:#dd181c;}.cr{fill:#100606;}.cs{fill:#d5171d;}.ct{fill:#d7181c;}.cu{fill:#ae1a1f;}</style></defs><g id="a"/><g id="b"><g id="c"><path class="aw" d="M342.17,375.65c-2.18-3.89-4.73-7.56-6.67-11.59-.78-1.63-.4-2.24,1.21-2.81,2.69-.95,5.35-2.04,7.92-3.27,1.48-.71,1.83-.31,2.26,1.11,2.81,9.3,7.39,17.6,14.25,24.57-.19,.7-.53,1.28-1.18,1.64-.38,.25-.79-.38-.79-.25,.03,.5,.59,.76,.78,1.23-1.04,2.23-2.12,1.32-3.2,.04-.11-.46-.02-.86,.33-1.19,.39-.15,.66-.44,.79-.85,.06-.19,.26-.44,.21-.54-.08-.19-.17-.1-.11,.19,.08,.4,.01-.11-.1,.28-.06,.19-.14,.38-.23,.56-1.53,.17-1.08,1.38-1.2,2.3-.11,.27-.25,.52-.42,.75-1.01,1.41-2.14,1.29-3.41,.36-1.24-.91-2.31-2.02-3.42-3.06-2.4-2.18-4.17-4.91-6.36-7.28-.57-.62-.95-1.31-.65-2.19Z"/><g><path class="ad" d="M105.85,698.52c-5.56-12.21,1.37-24.08,.13-37.96,4.24,6.09,.17,12.77,6.63,17.1,1.53-9.87,2.98-19.27,4.82-31.13,1.37,4.5,2.08,6.87,2.8,9.24,.7,.54,1.39,1.09,2.09,1.63-.18,4.49-2.64,8.86-.39,14.66,3.66-6.69,7.31-12.01,7.38-19.52,.12-12.29,1.08-24.6,2.39-36.82,.48-4.48-2.97-5.48-4.61-8.08,5.53-7.16-1.64-5.29-4.57-6.43-.14-3.8,2.94-4.99,5.28-7,1.82-1.56,3.18-5.4-.61-5.34-15.46,.24-5.9-9.27-8.85-16.25,5.95,2.74,4.75,6,5.6,8.42,.45,1.27-1.8,3.71,1.22,3.74,2.39,.02,5.18-.3,6.17-3.12,.65-1.86,1.8-5.2-.66-5.45-6.57-.65-4.67-5.29-5.53-9.06-2.01-8.79-4.53-17.46-6.82-26.13-11.77,9.11-5.42,28.4-18.84,32.07,1.05,21.9,8.59,41.49,8.7,62.85,7.46-4.17,7.4-10.91,8.1-17.31,3.81-1.14,2.1-4.44,2.67-6.84l-.16,.14c1.22-.68,2.43-1.36,3.65-2.04-2.89,11.28,2.02,25.2-11.77,32.84-4.48,2.48-12.55,.29-15.16-5.32,10.85-4.46,5.7-10.63,2.86-17.73-7.62,6.16-3.74,12.2-2.6,17.99-3.01,9.39-1.35,19.16-2.34,28.72-.29,2.85,1.36,7.49-3.64,7.07-4.88-.41-2.35-4.88-2.48-7.65-.06-1.27,.78-2.61,1.33-3.87,10.06-22.9-7.57-30.85-21.97-40.41-1.75-1.16-3.9-1.6-4.5-3.96q5.85-.35,24.14,10.49c2.42-6.52,6.35-12.59,4.98-20.17-.51-2.79-.51-5.5-2.45-7.85-4.82-5.85-12.78-8.8-11.73-19.66,.48-4.94-8.11-10.01-15.55-4.55l.28-.14c-21.81-2.41-42.5-8.48-61.82-18.98v-6.37c21.91,5.77,44.42,9.28,65.36,18.65,5.4,2.42,10.03,1.35,9.23-7.04-.81-8.54-.18-17.21,.98-25.92,3.08,10.09,6.22,20.15,9.2,30.27,1.05,3.57,2.57,6.88,6.74,6.26,3.72-.55,3.6-3.88,4.23-7.21,.84-4.46,7.67-5.08,8.26-11,.55-5.57,2.86-11.88,7.2-14.85,7.36-5.04,4.58-11.35,1.9-15.35-3.2-4.77-2.89-9.87-4.7-14.61-.58-1.51-.09-3.43-.09-7.87,13,16.4,14.85,35.77,25.2,50.74,2.33-2.07,1.89-5.08,1.97-7.79,.91-31.77,1.76-63.54,2.52-95.32,.22-9.15,1.28-19.29-4.9-26.4-7.96-9.17-2.08-18.66-3.27-27.87-4.08-31.65-7.9-63.33-11.86-94.99-1.05-8.38-2.32-16.73-3.32-25.11-1.7-14.14-6.32-27.48-10.82-40.88-.87-2.59-4.85-5.38-.42-8.11,2.89-1.78,5.88-4.03,9.72-2.38,3.41,1.46,4.45,4.35,4.41,7.69-.21,19.74,1.64,39.98,8.79,57.7,11.82,29.28,7.61,60.18,14.2,89.73,2.47,11.09,9.18,21.45,5.93,33.56,.7,.05,1.4,.09,2.1,.14,.4,.53,.85,1.03,1.33,1.49,3.9,10.61,3.81,21.82,2.54,32.57-2.08,17.62-.92,35.22-1.65,52.8-.76,18.49-1.64,36.97-7.99,54.66-.5,1.38,.12,3.17,.24,5.05,19.6-11.11,38.08-22.77,59.46-28.28-7.15,7.2-15.61,12.84-23.35,19.28-6.98,5.81-14.1,13.36-23.86,14.18-12.98,1.09-14.86,8.47-13,19,.51,2.91-1.34,7.15,2.22,8.38,4.52,1.56,2.36-5.37,5.74-6.34,1.6,12.78,3.07,25.1,4.7,37.39,1.48,11.16,1.92,11.33,12.95,6.38,5.59-2.87,11.92-4.28,16.76-8.61,3.85-1.54,8.07-2.53,11.47-4.77,4.36-2.87,11.78-1.68,13.53-6.48,4.3-11.77,15.78-14.14,23.98-20.73,2,4.47-2.55,9.02-3.82,9-9.84-.2-11.24,8.78-15.28,13.97-5.56,7.14-13.17,10.9-20.41,14.89-6.03,3.33-3.74,11.93-10.71,13.64-1.09-3.96-3.37-4.76-6.84-2.64-3.79,2.32-7.61,4.57-11.42,6.85-7.2,1.45-11.79,5.19-11.48,14.48,3.94-3.38,10.09,.13,12.43-6.15,6.28-.47,6.48-11.59,14.82-8.46-5.86,8.54,6.48,.9,4.88,5.84-2.79,2.79-6.17,5.45-8.6,8.8-2.91,4.01-5.26,9.85-2.78,13.59,2.06,3.11,9.4,1.34,11.27-1.4,3.64-5.32,9.85-8.62,11.56-15.5,1.43-5.77,5.93-9.66,9.71-14.18,12.85-15.4,31.08-24.91,43.05-41.19-1.64-.79-3.76-1.82-5.88-2.84-.27-.42-.53-.85-.79-1.28,2.46-4.44,3.96-9.14,10.4-10.54,3.31-.72,5.76-5.64,4.77-10.29-.21-.97,.94-2.87-1.7-2.46-3.82,.59-7.13,1.02-8.95,5.56-1.25,3.12-3.86,6.31-8.17,6.41,.6-5.65,5.51-10.39,4.21-15.67-13.72-.87-12.95,14.27-21.75,19.19,1.46-6.04,9.55-11.34,2.62-17.16-6.28-5.28-8.05-12.7-12.38-18.79-4.32-3.99-.36-12.58-8.13-14.67-.52-2.22,.32-4.87-2.04-6.51-.61-4.88-2.15-9.52-3.86-14.29,5.56,3.05,7.95,8.57,11.63,12.95,1.19,3.94,2.03,8.09,6.19,10.23-.89,5.91,1.55,10.98,4.47,15.73,1.51,2.45,3.71,5.19,6.41,.35,4.09-7.34,7.4-15.03,12.48-21.93,7.67-10.43,6.34-15.48-3.75-22.24-2.06-3.35-4.12-6.71-6.18-10.06,4.32-.81-9.14-11.03,3.85-7.26,1.32,4.98,5.13,5.47,9.36,5.19-1.61,5.59,2.98,7.96,5.95,11.01,1.36,1.39,2.95-.74,3.24-1.5,1.92-5.12-2.62-7.33-5.18-10.37-.59-.7-1.79-.87-2.71-1.29-.13-3.57-1.39-6.55-4.47-8.59-6.62-15.44-10.92-31.67-16.48-47.46-3.25-9.23-5.88-18.34-7.63-30.72,16.93,19.3,23.07,41.24,32.85,61.2,1.48,3.89,.19,9.37,6.16,10.66-.54,5.68,4.61,10.84,1.05,17.15,19.95-21.66,41.76-40.33,64.78-57.63,.51,.48,1.08,.87,1.71,1.18-11.86,15.71-25.08,30.12-38.71,44.36-10.48,10.95-25.59,17.52-32.53,33.09,10.4,.05,12.16-11.73,21.08-13.58,.54,4.81-.04,9.03-2.01,12.95,14.92,2.87,28.47-5.94,42.22-3.32,18.27,3.49,32.41-2.27,45.12-14.41,.57-.55,1.87-.34,3.81-.64-6.1,10.85-16.3,17.65-20.99,28.4-.44,1-2.99,1.42-1.2,2.92,.94,.79,2.71,.61,3.55-.99,10.53,3.98,18.03-2.4,26.72-6.77,41.24-20.77,81.56-43.78,127.71-54.23-7.52,5.04-14.78,10.54-22.62,15.01-16.69,9.52-33.97,18.04-50.41,27.97-6.19,3.74-14.13,6.65-16.3,15.15l.22-.22c-7.03-1.5-13.1,2.74-19.79,3.37-1.65,.16-3.18,1.36-4.74-.2q-6.76-6.79-14.11,.56c18.36,5.47,36.17,11.88,49.06,27.91-10.95,1.63-17.73-9.3-28.05-7.59-7.63-9.39-17.51-8.33-27.57-6.36,8.65,5.11,18.37,4.98,27.84,6.09-9.2,3.86-19.81,1.66-28.38,6.99,9.08,8.09,21.06,13.06,28.87,24.05,3.74,5.27,12.35,6.99,18.59,10.6,6.69,3.87,13.19,8.09,19.31,12.92-27.84-4.85-53.17-19.87-84.89-18.48,6.19,5.49,10.41,9.22,14.62,12.96-1.47,1.86-1.76,4.01-1.58,6.28,10.92,17.85,15.01,37.62,16.69,59.8-18.35-23.65-33.16-47.28-36.21-76.41-.56-5.35-2.97-6.48-7.46-5.94-.83-.19-1.67-.37-2.5-.56,.04,.87,.08,1.73,.12,2.6,1.68,8.17,7.73,15.2,5.82,27.54-11.43-17.67-26.73-27.91-43.71-38.14,11.86-3.61,16.12,6.06,24.3,10.12-5.77-17.65,8.71-10.45,13.89-11.22,13.34-1.98,27.08-1.52,41.24,.18-7.36-4.27-14.63-8.7-22.11-12.74-5.07-2.74-9.42-5.55-9.17-12.26,.1-2.57-.38-3.09-5.02-2.56-4.85,.56-12.62-3.12-13.86,2.2-1.12,4.84,7.67,4.24,11.45,7.12,1.27,.96,3.62,.18,4.38,3.29-13.24-.94-26.21-1.87-39.2-2.79-.07-.72-.3-1.94-.17-1.98,15.97-4.86,21.04-21.06,32.23-30.86,1.71-1.5,3.68-2.71,7.27-5.32-16.14,1.12-29.31,6.13-43.02,8.2-.69,.1-1.33,.56-2.02,.61-13.12,.9-25.9,2.67-35.38,13.27,.39-2.68,.29-5.56,1.31-7.96,1.01-2.4,2.35-5.21-.34-6.08-2.22-.72-5.46,.17-7.57,2.65-3.24,3.81-.04,8.8-3.63,12.21,4.5,2.34,6.73-4.11,10.43-1,2.25,2.74-.23,3.93-1.95,4.11-9.31,.98-14.47,8-20.71,13.75,9.49,8.9,14-3.28,21.76-5.25-.04,10.95,4.24,8.96,11.73,5.32,5.61-2.73,10.68-11.23,19-5.28-7.17,.46-2.51,4.15-1.85,6.75,2.73,8.54,9.68,5.66,15.51,5.69,3.73,.02,7.08-3.59,11.62-.91-10.42,11.87-24.84-1.83-35.57,6.74,2.4,6.12,11.2,5.51,14.56,11.34-.28,.26-.55,.51-.84,.76-1.4-.18-2.82-.29-4.2-.55q-14.31-2.71-25.1,9.65c10.68,4.11,21.22,8.17,31.77,12.23-10.45,1.08-20.51-.13-29.74-3.98-4.63-1.93-8.07-.68-9.52,2.11-9.04,17.44-23.03,31.15-34.24,46.92-2.46,3.45-5.37,7.42-4.08,13.65,4-4.28,8.47-4.85,13.41-3.99,2.12,.37,6.01,1.54,4.07-3.45,.88-.26,2.24-1.02,2.57-.71,13.12,12.48,30.38,5.53,45.4,9.35,9.73,2.47,19.15,6.04,29.09,8.38-33.48,1.15-66.88,1.8-100.29-2.67-.13,1.22-.26,2.44-.39,3.67,9.03,3.06,18.06,6.12,27.09,9.18-15.95-1.43-28.07,6.2-40.12,16.81,6.65,2.96,12.74,5.68,18.84,8.39-9.65,1.36-19.05,3.12-28.35-1-6.13-2.72-6.99-5.61-2.52-10.93,5.72-6.82,14.32-8.42,21.55-12.83-16.02-6.75-17.67-6.41-23.95,9.43-1.63,4.12-4.74,4.49-7.25,6.49-6.41-3.69,4-6.71,.79-10.04-5.37-2.34-8.03,2.17-11.71,3.78-4.8-2.33-8.55-5.21-2.82-10.16,5.43-4.7,1.7-11.83,7.81-18.96-5.28,2.07-7.7,2.03-9.5,4.59-1.38,1.96-3.33,3.62-5.3,5.02-2.86,2.02-5.06-1.57-8.45-1.37,.8,4.36-1.09,7.83,3.54,12.64,4.84,5.03,1.73,14.47,0,21.8-1.2,5.06-5.91,2.01-8.99,2.74-5.8,1.37-5.35-3.55-6.45-7.66-5.45,8.59-12.49,8.81-20.33,5.5,1.33-4.79-5.66-5.79-4.73-10.39Z"/><path class="ad" d="M74.15,1.58c2.87,2.16,3.38,2.37,3.37,2.56-.55,14.05,7.71,27.15,5.16,41.19-2.46,13.53,5.68,24.37,7.59,36.73,1.07,6.9,3.06,13.58,3.66,20.67,.92,10.88,12.1,14.49,18.02,21.94,1.48,1.87,4.28,3.44,6.08,5.5,1.95,2.23,1.97,8.18,6.63,5.06,4.88-3.27,8.24-8.51,6.64-15.09-1.38-5.66-5.6-1.79-8.52-2.08-1.63-.16-3.34,.61-5.02,.97-.94-8.48,7.76-26.9,20.13-39.79-7.59,23.88-5.38,44.01,6.21,63.94,6.16-15.84,20.44-22.04,30.32-32.75-4.33,12.38-9.3,23.77-22.57,28.72-2.96,1.1-10.42,5.97-.71,10.01,2.94,1.22,2.13,3.13,.6,4.89-1.15,1.33-2.31,3.05-3.82,3.58-4.77,1.68-8.68,9.51-13,6.21-4.15-3.17,1.79-8.33,4.02-12.17,3.18-5.47-.59-8.11-4.52-14.15,.51,10.49-4.61,11.94-10.84,12.15,.85-15.78-17.41-11.42-21.78-22.01-1.48,27.35,2.36,53.55,7.08,79.39,5.37-3.07,5.24-3.01,2.34-8.74-.71-1.4-.94-4.59-.35-4.89,6.12-3.1,10.17-7.37,10.04-14.65,3.31,0,4.33-7.42,8.17-3.28,1.76,1.9,2.24,7.57-.71,9.5-8.29,5.44-8.33,14.47-11.94,22.08-2.97,6.27-8.83,12.64-16.59,15.09-3.62,1.14-5.51,.72-5.16-4.58,2.25-33.5,1.45-66.9-5.83-99.86-.82-3.7-3.07-7.09-3.88-10.79-.72-3.3-13.85-6.4-.56-10.88,.43-.15-1.18-10.06-3.77-14.21-1.85-2.96-2.85-5.93-2.66-8.65,.64-9.27-.92-16.25-12.16-16.6-1.71-.05-3.82-.35-4.25-2.37-.69-3.26,2.51-2.54,4.09-3.47,4.92-2.92,6.37-7.06,6.61-12.89,.48-11.5,2.8-22.9,1.89-36.29Z"/><path class="bh" d="M254.56,482.4c-5.98-1.29-4.68-6.77-6.16-10.66,11.13-8.86,16.8-22.04,24.71-33.21,10.3-14.55,22.23-28.09,30.68-44.2,2.22-4.23,6.23-9.25,9.63-13.75,2.43-3.21,7.04-2.83,10.26-4.33,11.48-5.34,19.46-15.68,29.61-23.07,1.09-.79-.06-1.76-.85-2.39l-.12,.11c7.01,2.88,7.54-7.23,14.46-4.78-1.94-5.66-7.07-1.78-7.82-5.92,.13-.39,.2-1.44,.57-1.56,10.94-3.56,23.6-3.95,28.64-17.61,.99-2.68,4.25-5.52,11.42-3.11-10.91-7.08-17.57-.42-26.4,1.07,5.42-5.47,10.77-9.11,10.95-16.64h-11.47l-1.25-2.47c15.85-15.05,34.47-26.01,54.81-34.43,.58,.59,1.17,1.19,1.75,1.78-12.82,10.72-23.99,23.48-38.95,31.58-2.37,1.28-3.87,3.63-2.45,6.19,1.58,2.86,3.46,.42,5.15-.41,1.21-.59,2.76-1.94,3.63-1.6,16.66,6.54,26.11-5.88,36.07-14.66,7.08-6.23,15.77-10.36,21.72-17.96-1.16,16.15-16.94,19.89-25.71,31.07h20.87c-9.96,6.34-20.67,9.73-31.87,11.3-10.26,1.44-14.86,9.84-21.54,15.87-3.18,2.87,9.39,5.1-.29,7.08-3.69,.76-7.75,2-10.58,4.32-15.12,12.39-29.91,25.19-44.82,37.84-6.82,5.79-12.83,12.71-21.76,15.58-.93,.3-2.49,.86-2.53,1.4-1.49,18.01-19.02,24.3-27.58,37.27-9.18,13.89-18.22,27.82-26.74,42.12-1.71,2.87-1.94,6.99-6.03,8.15Z"/><path class="bh" d="M606.66,276.97c-20.23-1.83-39.2-7.77-56.98-17.51-1.19-.65-3.13-1.61-3.16-2.48-.63-17.32-9.81-3.47-14.93-4.07-.9-.11-1.92,.75-2.95,1.18,1.36,6.49,10.01,5.17,12.31,12.78-12.77-5.31-25.97-5.78-37.59-10.18-5.91-2.24-8.83-.45-13.11,.68l.19,.18c3.33-1.34-5.99-2.16,.02-4.48,6.8-2.62,12.11-9.99,20.82-4.73,2.05,1.24,3.55-1.22,5.2-2.54,14.02-11.19,29.3-20.22,46.37-25.93,3.76-1.26,7.57-3.8,13.67-1.18-11.26,9.31-21.8,18.03-33.67,27.86h21.25c-4.12,1.66-6.16,1.91-6.35,2.65-.81,3.11,2.04,1.63,3.2,1.97,14.27,4.1,26.19,13.13,39.7,18.83,2.73,1.15,5.5,3.19,6.52,6.51l-.5,.47Z"/><path class="ad" d="M200.55,118.8c13.27-5.34,26.87-7.77,41.46-5.12-2.34,5.2-9.35,3.05-10.95,9.5,13.49-1.95,23.07,6.32,33.76,12.73-16.37-1.04-33.16-7.54-48.03,5.61,10.21,8.18,19.81,16.89,30.38,28.36-22.52-6.59-46.08-27.74-40.01-35.25-8.14,.61-15.87-1.13-23.45,2.97,3.01,.58,6.01,1.16,9.02,1.74-7.52,0-14.71,7.04-23.48,.49,8.68-2.61,11.72-9.5,15.02-16.07,3.36-6.68,11.3-9.35,13.84-18.97,2.31,5.51,1.91,8.63,.56,11.77-.19,.75-.38,1.49-.56,2.24l2.43-.02Zm7.04,13.13c4.79,.3,12.39,.41,12.28-3.91-.22-8.39-7.05,.98-10.37-1.88-.39-.33-1.35,0-2.05,.02-2.67,.06-6.06-.63-5.73,3.67,.35,4.52,4.03,1.03,5.87,2.1Z"/><path class="ad" d="M407.53,529.03c39.17,1.91,71.7,20.51,104,39.65-.26,.84-.52,1.68-.78,2.52-9.84-2.08-19.83-3.68-29.5-6.39-10.08-2.83-20.3-5.82-29.67-10.38-13.21-6.43-27.84-9.23-40.5-17.1-4.22-2.62-5.2-4.49-3.34-8.52l-.22,.21Z"/><path class="bh" d="M495.34,241.34c-3.52,2.35-5.22,12.89-11.58,2.56-.91-1.49-1.97-.27-2.46,.35-5.69,7.26-15.01,11.47-18.59,21.89,6.82-.4,11.85-8.46,19.74-1.79-8.13,.39-13.69,7.67-21.84,3.69-3.81-1.86-6.06-4.04-1.65-7.67,.27-.22,.44-.57,.72-.77,15.09-10.67,18.99-25.43,15.98-42.89-.47-2.71,.09-5.64,.42-8.44,.73-6.1,1.62-12.18,3.35-18.29,5.72,12.19,7.78,24.87,6.28,38.15-.16,1.4-2.31,3.29,.69,4.01,1.69,.41,3.69,.44,3.95-2.03,1.33-12.71,13.04-14.68,21.3-19.45,6.4-3.7,14.48-4.49,22.72-6.84-12.7,17.78-34.23,21.96-48.28,36.24,3.08,2.91,5.73-.37,8.39,.35,.28,.32,.57,.63,.85,.95Z"/><path class="bh" d="M256.31,246.78c17.46,3.75,32.7,12.29,48.34,19.93,5.65,2.76,11.25,5.66,17.05,8.06,4.67,1.93,5.74,5.82,5.04,9.73-.91,5.05-4.91,2.29-7.65,1.76-25.97-5.06-44.76-21.65-62.78-39.48Z"/><path class="ad" d="M26.9,491.2c12.55,10.2,21.36,23.7,30.74,36.56,6.95,9.53,6.89,20.32-.22,30.7-7.82-2.48-10.39-7.16-11.13-16.16-.79-9.73-5.31-19.72-10.33-28.36-4.15-7.14-6.75-14.62-9.05-22.74Z"/><path class="ad" d="M317.51,79.23c-18.45,17.83-38.85,32.7-62.72,42.27-1.99,.8-4.82,3.51-7.43,.61-2.92-3.24,.1-5.48,1.96-6.95,20.47-16.23,42.81-28.97,68.19-35.92Z"/><path class="bh" d="M438.81,316.36c20.97,9.49,39.46-4.8,59.37-5.13,13.1-.22,26.04-4.36,39.42-1.66-26.67,4.26-51.27,19.74-79.97,14.36,1.56,4.52,7.42,6.93,7.46,13.22-11.27-3.96-18.87-12.01-26.29-20.79Z"/><path class="bh" d="M320.11,268.64c6.45-22.4-1.39-46.17,7.1-71.64,6.32,26.66,16.48,50.44-7.1,71.64Z"/><path class="ad" d="M334.72,151.31c-23.59-5.43-48.18-8.29-66.61-24.61,16.52-5.17,23.32-.33,66.61,24.61Z"/><path class="ad" d="M23.36,0c11.43,10.28,28.5,13.06,31.57,31.6,3.67-2.39,2.03-5.75,3.59-7.96,.3,1.86,.2,3.69,.91,5.11,1.92,3.85,4.65,9.13,.32,11.17-6.05,2.86-2.82-6.06-6.15-7.72-3.78,1.86,2.13,5.52-1.8,6.72-2.07,.63-4.4,.39-5.44-1.95-5.13-11.62-13.99-20.47-21.96-30-1.25-1.49-2.18-3.46-1.06-6.97Z"/><path class="ad" d="M138.8,174.08c20.86-7.22,42.18-11.28,64.52-4.62-21.36,2.45-41.93,12.28-64.52,4.62Z"/><path class="bh" d="M312.86,357.73c-19.17-12.15-23.84-33.18-35.26-51.46,12.06,5.41,35.53,40.13,35.26,51.46Z"/><path class="bh" d="M229.62,501.53c2.06,3.35,4.12,6.71,6.18,10.06-7.58,8.64-11.13,20.09-19.62,28.1-4.16-2.14-5-6.29-6.19-10.23,6.27-9.5,10.94-20.12,19.62-27.93Z"/><path class="bh" d="M320.52,353.77c-3.78-6.67-2.49-12.45,2.02-16.52,8.91-8.05,8.93-15.78,1.32-24.45-1.23-1.4-1.55-3.6-2.62-6.25,8.43,3.55,15.47,6.9,11.31,17.56,4.51,1.34,6.82-5.34,11.24-1.42-5.28,11.83-17.98,18.36-23.26,31.08Z"/><path class="bh" d="M523.49,360.35c-16.52-8.47-31.89-18.62-46.98-31.52,14.04-.98,37.23,14.6,46.98,31.52Z"/><path class="ad" d="M37.1,661.54c16.59,10.23,36.43,11.69,53.27,20.76,2.05,1.11,3.76,1.54,3.35,4.16-.3,1.89-1.77,2-3.13,1.59-19.34-5.81-38.24-12.55-53.49-26.51Z"/><path class="bh" d="M161.09,694.77c3.69-1.6,6.34-6.12,11.71-3.78,3.22,3.34-7.19,6.35-.79,10.04-1.58,4,.35,10.76-7.47,9.89-3.17-.35-7.79,2.05-9.14-2.19-1.14-3.58-1.44-8.19,3.37-10.67,1.06-.55,1.56-2.17,2.31-3.29Z"/><path class="bh" d="M329.86,298.4c11.43-6.89,10.54-22.69,21.95-29.97-.2,16.15-10.02,30.13-21.95,29.97Z"/><path class="ad" d="M116.57,5.41c-9.58,5.56-14.22,16.1-23.23,21.79-1.75,1.1-3.76,2.44-5.63,1-1.64-1.27-.79-3.31,.32-4.67,7.5-9.2,17.2-15.01,28.54-18.12Z"/><path class="bh" d="M352.43,350.8c-5.05-2.48-9.04,3.98-14.07,1.67q3.2-11.44,17.57-16.1c1.32,5.58-5.21,9.18-3.62,14.54l.12-.11Z"/><path class="bh" d="M515.34,282.04c-7.74-2.78-16.59-2.47-21.64-9.86-1.17-1.7-2.7-3.77-1.17-5.53,.74-.86,3.37-.74,4.84-.21,7.95,2.84,14.76,7.18,17.97,15.6Z"/><path class="bh" d="M366.89,292.88c1.21,9.6-.74,18.78-.56,27.95,.09,4.46-2.44,1.94-3.48,2.14-4.12,.78-4.84-2.07-4.12-5.1,2-8.44,1.48-17.76,8.16-25Z"/><path class="bh" d="M356.93,607.93c-.18-2.27,.11-4.43,1.58-6.28,8.65-.19,12.43,5.34,14.76,12.57l.15-.14c-6.17-.24-9.48-8.17-16.49-6.14Z"/><path class="bh" d="M242.83,499.46c-4.23,.27-8.04-.22-9.36-5.19,1.28-2.72,1.87-6.22,6.19-5.54,3.08,2.04,4.33,5.02,4.47,8.59,.17,1.08,.04,1.98-1.29,2.15Z"/><path class="bh" d="M105.85,698.52c-.92,4.6,6.06,5.6,4.73,10.39-4.35,.35-9.37,.91-10.9-4.2-1.25-4.18,2.35-5.83,6.17-6.18Z"/><path class="bh" d="M282.68,561.28c-.66-2.6-5.32-6.29,1.85-6.75,1.59-.14,2.43-1.03,2.6-2.59,2.13,.26,.78,1.95,1.02,2.86,1.19,4.55-1.47,6.14-5.47,6.48Z"/><path class="bh" d="M122.51,601.2c2.94,1.14,10.1-.73,4.58,6.43-1.13,.01-2.26,.03-3.39,.04-1.01-.13-2.02-.26-3.03-.39,.95-1.92-.98-4.72,1.84-6.08Z"/><path class="bh" d="M373.27,614.21c2.91,.69,5.68,1.56,6.65,5.2-4.35,.48-2.94-5.38-6.5-5.34l-.16,.15Z"/><path class="ad" d="M120.67,607.28c1.01,.13,2.02,.26,3.03,.39-.47,.68-.93,1.37-1.4,2.05-1.18,.73-2.35,1.46-3.52,2.19l.16-.14c-1.01,.03-2.02,.06-3.02,.1l1.4-8.87c2.7,.44,.39,4.33,3.36,4.28Z"/><path class="bh" d="M369.29,327.44c-2.04,4.34-6.55,3.5-10.04,4.81-.44-.45-.89-.89-1.33-1.34,3.39-2.76,7.06-4.55,11.6-3.31l-.22-.16Z"/><path class="ad" d="M148.55,412.32l.76-3.78c.77,.53,1.73,.91,2.28,1.61,1.73,2.2-1.01,2.49-1.71,3.66-.49-.46-.93-.96-1.33-1.49Z"/><path class="ad" d="M120.23,655.76c.47-1.76,.95-3.51,1.56-5.81,1.81,2.93,1.32,5.18,.52,7.44-.69-.54-1.39-1.08-2.09-1.63Z"/><path class="ad" d="M61.54,575.79c1.64,.26,2.16,1.29,1.75,2.77-.05,.17-1.3,.33-1.54,.07-.87-.92-1.76-2.04,.07-2.98l-.28,.14Z"/><path class="bh" d="M426.22,265.47c.75-1.49,2.34-2.09,3.29-1.05,1.33,1.46-.9,1.91-1.54,2.83-.58-.59-1.16-1.18-1.75-1.78Z"/><path class="bh" d="M490.25,257.36c.31,1.66-.33,2.63-2.07,2.48-.48-.04-.9-.69-1.35-1.07,1.2-.41,2.4-.82,3.61-1.23l-.19-.18Z"/><polygon class="ad" points="202.28 101.64 201.44 101.21 201.34 101.75 202.28 101.64"/><path class="bh" d="M369.51,327.61l-.06-1.53c.44,.14,.87,.28,1.31,.42-.49,.32-.98,.63-1.47,.95l.22,.16Z"/><path class="bh" d="M359.25,332.25l-2,1.01c.23-.78,.45-1.56,.67-2.34,.44,.44,.88,.89,1.33,1.33Z"/><path class="ad" d="M320.39,441.93c.26-1.08,.84-1.95,1.97-1.31,.29,.17-.16,1.62-.27,2.49-.63-.31-1.19-.7-1.7-1.18Z"/><path class="bh" d="M481.45,254.56l-.69,.61c-.2-.24-.56-.48-.55-.71,0-.23,.38-.45,.6-.67l.65,.77Z"/><path class="bh" d="M118.78,611.91c1.17-.73,2.34-1.46,3.52-2.19,0,0,.12,.14,.12,.14-1.21,.68-2.42,1.36-3.64,2.04Z"/><path class="bh" d="M478.93,259.08l-.68-.32,.72-1.11,.75,.72c-.26,.23-.51,.47-.79,.72Z"/><path class="bh" d="M494.5,240.38l1.17-1.53c1.08,.99,.65,1.77-.34,2.48-.27-.31-.55-.63-.84-.94Z"/><path class="bh" d="M607.16,276.5c.49,.48,.97,.97,1.46,1.45-1.09,.54-1.66,.04-1.95-.99,0,0,.49-.46,.49-.46Z"/><path class="ad" d="M288.8,584.14c.9,.15,1.82,.28,1.33,1.59-.72-.28-1.44-.56-2.17-.84,.28-.24,.56-.5,.84-.75Z"/><path class="bh" d="M212.39,551.98c-8.21,9.08-12.94,20.02-16.87,31.39-.21,.61-1.36,1.11-1.3,1.55,.42,2.92,4.8,0,5.07,3.32,.25,3.18-2.96,2.23-4.3,3.54-1.72,1.69-4.58,2.87-5.27,4.85-2.66,7.63-6.8,15.05-5.06,23.65-4.84,4.32-11.17,5.74-16.76,8.61-1.04-8.96,1.7-17.44,3.35-26.05,1.24-6.48,1.62-12.66-4.71-16.35,18.35-12.2,28.81-30.09,37.74-49.18,7.77,2.09,3.8,10.67,8.13,14.67Z"/><path class="bh" d="M165.16,644.03c3.81-2.28,7.63-4.54,11.42-6.85,3.47-2.12,5.75-1.32,6.84,2.64l-.4-.25c-2.22,.64-3.17,1.99-2.4,4.29l.31,.05c-8.34-3.14-8.54,7.99-14.82,8.45-.32-2.78-.63-5.55-.95-8.33Z"/><path class="bh" d="M116.27,618.61c-1.31-2.19-2.42-4.38-.35-6.75,1.01-.03,2.01-.06,3.02-.1-.57,2.41,1.14,5.7-2.67,6.84Z"/><path class="ad" d="M233.37,588.54c.82-3.52,3.24-4.67,6.59-4.43,.45,5.42-3.22,4.71-6.59,4.43Z"/><path class="ad" d="M244.13,597c-.34,1.64-2.33,2.68-2.87,2.02-1.89-2.32,1.27-2.2,2.08-3.29,.26,.42,.52,.85,.79,1.27Z"/><path class="ad" d="M180.62,643.85c-.77-2.31,.18-3.65,2.4-4.29,1.47,2.7-.48,3.48-2.4,4.29Z"/></g><g class="v"><path class="ag" d="M528.02,452.86c-.44,5.68-.27,11.4-1.46,17.02-4.74-.5-9.01-2.59-13.36-4.25-9.38-3.58-18.79-7.08-28.13-10.76-11.59-4.17-22.97-8.87-34.55-13.05-.58-.21-1.11-.51-1.57-.93-.57-.59-.55-1.3-.41-2.03,.21-.84,.68-1.56,1.13-2.28,.13-.3,.27-.6,.4-.9,1.16-2.81,3.47-2.13,5.51-1.61,5.36,1.36,10.76,2.53,16.16,3.74,1.94,.6,4.03,.53,5.95,1.24,15.04,3.51,30.12,6.8,45.15,10.36,1.19,.28,2.4,.53,3.57,.92,1.24,.41,1.86,1.2,1.61,2.55Z"/><path class="ag" d="M517.71,479.31c-.7,3.24-1.39,6.47-2.11,9.7-.14,.62,.22,1.49-.78,1.73-1.35,.15-2.33-.67-3.36-1.31-8.55-5.28-16.98-10.76-25.51-16.06-1.51-.9-2.86-2.02-4.42-2.85-11.08-7.14-22.31-14.06-33.42-21.17-1.52-.97-2.29-2.24-2.57-3.93,.14-1.59,.77-2.87,2.26-3.62,3.33,1.98,6.84,3.62,10.28,5.38,8.73,4.47,17.31,9.24,26.11,13.58,10,5.26,20.02,10.47,29.95,15.85,1.33,.72,2.84,1.2,3.58,2.7Z"/><path class="ce" d="M528.02,452.86c-.72-2.68-3.28-2.15-5.04-2.59-8.63-2.16-17.32-4.08-26-6.06-6.52-1.48-13.05-2.91-19.58-4.37-.51-2.49-3.88-3.29-3.64-6.22-2.25,.5-3.61-2.21-5.88-1.61-.93,.18-1.3,1.25-2.47,1.56-.14-1.33-.56-2.38-2.08-2.57-.74-.1-1.64-.59-.67-1.62,9.12,1.31,18.24,2.63,27.37,3.93,10.44,1.5,20.88,3,31.32,4.48,2.91,.41,5.82,.81,8.74,1.15,4.06,.48,4.16,.73,2.23,4.47-1.59,3.07-3.3,6.09-4.3,9.43Z"/><path class="ce" d="M285.01,476.98c-1.92-4.92-2.92-10.1-4.37-15.16-.35-1.22,.17-1.71,1.16-2.03,13.81-4.44,27.62-8.87,41.43-13.3,1.55,1.25-.51,1.57-.63,2.4-.1,.69-1.32,1.47,.61,1.7,1.73,.21,1.05,1.71,.77,2.81-.83,.92-1.64,.23-2.48,0-3.05-.83-5.1,.96-4.25,3.96,.57,2.02-.54,3-1.62,4.18-6.89,4.05-14.04,7.61-21.27,11-3.12,1.46-5.76,3.97-9.35,4.44Z"/><path class="ag" d="M506.61,497.72c-1.5,3.19-3,6.38-4.5,9.57-1.45,.53-2.28-.54-3.21-1.28-4.81-3.78-8.96-8.31-13.82-12.04-8.68-8.13-17.67-15.92-26.51-23.88-1.74-1.57-3.7-2.92-4.93-5,.46-1.53,1.65-3-.36-4.51-.62-.47-1.63-2.02,.07-2.96,4.09,1.78,7.34,4.81,10.81,7.46,5.29,4.04,10.71,7.9,16.03,11.89,1.09,.89,2.24,1.7,3.4,2.49,6.9,5.22,14.03,10.14,20.8,15.52,.93,.74,2.13,1.3,2.2,2.75Z"/><path class="ag" d="M311.02,508.69c-3.73-1.76-7.46-3.52-11.2-5.28,0-2.3,1.88-3.31,3.32-4.45,4.41-3.5,8.4-7.49,12.78-11.02,8.11-6.99,16.32-13.86,24.24-21.05,.82-.75,1.65-1.53,2.78-1.84,2.1,.53,2.35,2.38,1.33,3.46-1.53,1.62-1.29,2.62,.04,3.96,.25,.25,0,.78-.16,1.16-5.14,6.37-11.15,11.93-16.62,17.99-3.28,3.63-6.49,7.34-10.01,10.76-2.37,1.89-3.6,4.96-6.51,6.3Z"/><path class="ag" d="M492.24,512.54c-2.4,3.1-4.79,6.2-7.19,9.3-1.52,.28-2.14-.93-2.87-1.83-2.28-2.85-4.57-5.69-6.97-8.44-5.82-7.29-11.65-14.58-17.65-21.73-.97-1.15-2.22-2.18-2.36-3.86,.28-1.1,1.21-1.83,1.76-3.08-1.86,.18-2.48-1.04-2.2-2.4,.31-1.53-1.36-3.78,1.42-4.54,2.57,1.39,4.34,3.66,6.3,5.71,5.21,5.45,10.64,10.67,15.84,16.12,4.05,4.01,8.07,8.06,12.16,12.02,.79,.77,1.76,1.44,1.75,2.73Z"/><path class="ag" d="M285.01,476.98c9.79-5.72,20.03-10.55,30.19-15.55,.1,.1,.19,.2,.29,.31,.43,1.08,.73,2.16,.06,3.26-2.06,1.7-4.57,2.48-7.05,3.28-1.56,.51-2.97,1.21-4.08,2.43-3.38,2.52-3.65,3.74-1.24,5.84,1.01,.88,2.18,1.86,3.52,.81,1.42-1.11,1.77-2.68,1.02-4.4-.4-.92-1.47-1.47-1.45-2.62,1.19-1.97,3.48-1.81,5.22-2.72,1.53-.79,3.17-1.34,4.72-2.07,.28-.07,.56-.06,.84,0,1.13,.5,2.02,1.35,3.06,2,.81,.64,1.71,.25,2.58,.22,1.26,.19,2.6,.03,3.69,.9,.23,1.54-1.08,2.02-1.98,2.69-2.34,1.73-4.64,3.52-7.03,5.18-1.78,1.18-3.54,2.4-5.24,3.7-4.12,3.02-8.24,6.06-12.4,9.02-1.02,.73-2.04,1.82-3.53,.97-.6-.09-1.17-.18-1.59-.74-3.19-4.19-6.41-8.36-9.62-12.53Z"/><path class="ag" d="M323.77,521.54c-2.55-.82-5.1-1.64-7.66-2.46-.13-2.3,1.98-3.3,2.94-4.97,.54-.94,1.37-1.71,2.04-2.58,8.13-9.93,16.14-19.97,24.02-30.11,.69-.88,1.26-1.87,2.28-2.44,1.92,.04,1.62,1.56,1.54,2.64-.1,1.36-.91,2.57-2.13,3.18-1.54,.78-1.6,.66-1.38,3.63,1.13-3.01,3.25-5.07,5.17-7.92,1.7,5.08-2.26,7.65-3.37,11.15-3.1,1,.1,2.59-.35,3.85-.12,1.4-.94,2.47-1.66,3.58-4.87,7.44-9.58,14.98-14.33,22.49-.86,1.22-1.93,1.55-3.37,1.01-1.2-.45-2.4-.98-3.72-1.05Z"/><path class="ce" d="M517.71,479.31c-7.88-4.13-15.8-8.2-23.64-12.42-3.35-1.81-6.99-3.11-10.02-5.5-1.18-.55-2.02-1.57-3.01-2.34-1.29-1-1.08-2.74-.46-4.2,.63-1.49,1.85-1.25,3.09-.84,.67,.22,1.36,.4,2.07,.15,9.25,3.6,18.49,7.23,27.76,10.79,4.35,1.67,8.95,2.67,13.08,4.92-2.64,3.44-5.83,6.36-8.85,9.43Z"/><path class="aw" d="M363.28,376.62c-14.5-6.73-16.5-4.73-29.52-13.49-1.73-1.16,.78-1.52,1.52-1.63,3.69-.52,6.82-3.03,10.5-3.61,.53-.08,.82-.02,1.03,.21,2.51,2.7,5.34,5.09,8.88,6.12,8.66,2.52,11.98,2.95,15.62,9.77-1.51,2.1-1.83,.63-2.19-.72-.11-1.06-.57-1-1.19-.34-.82,.78-1.62,1.54-2.01,2.67-.45,1.31-1.36,1.72-2.64,1.03Z"/><path class="ac" d="M355.93,541.85c-2.44-2.38-4.88-4.76-7.32-7.15-.49-.89-.34-1.8,.02-2.66,3.24-7.79,5.78-15.86,9.33-23.53,.81-1.76,1.14-3.7,2.04-5.42,.25-.41,.57-.77,.94-1.08,1.43-2.63,4.1-2.28,6.47-2.67,.83,.76,.54,1.7,.34,2.57-.36,1.54-.57,1.6-2.59,1.04,2.68,.47,2.09,2.13,1.66,3.76-.65,2.46-1.85,4.77-2,7.37,0,1.49-.5,2.92-.61,4.4-1.87,7.2-4.57,14.16-6.23,21.43-.23,1.01-.79,1.91-2.05,1.95Z"/><path class="ce" d="M506.61,497.72c-6.95-5.23-13.91-10.45-20.85-15.68-.87-.66-1.95-1.09-2.48-2.15-2.43-1.66-.14-2.18,.8-3.03-.9,.62-1.51,.46-1.64-.59-.2-1.65,2.03-3.8,3.88-3.81,8.93,5.67,17.87,11.34,26.8,17.02,.6,.38,1.14,.84,1.71,1.27-2.57,2.53-5.3,4.86-8.21,6.98Z"/><path class="af" d="M360.88,502.6c-4.09,10.7-8.18,21.41-12.26,32.11-3.97-1.11-8.14-1.44-11.98-3.04-.49-1.32,.34-2.3,.85-3.37,5.18-9.57,10.06-19.3,15.34-28.81,.82-.9,1.41-.76,1.61,.45,.19,1.16-.27,2.18-.77,3.23-.92,1.93-.68,3.85,.47,5.6,.65,.99,.36,1.91,.18,3.23,.45-1.2,.89-2.11,.82-3.06-.15-2.21,1.09-2.78,2.95-2.77,.78-1.41,.83-3.13,1.94-4.37,.32-.36,.76-.76,1.2-.17,.31,.41-.02,.72-.34,.98Z"/><path class="ac" d="M376.35,546.91c-3.03-1.79-5.62-4.15-8.23-6.48-.78-1.01-.53-2.15-.3-3.23,1.12-5.16,1.77-10.43,3.44-15.46,.78-3.18,1.07-6.47,2.18-9.57,1.89-.65,1.74-2.76,2.73-4.08,.8-1.06,1.32-2.25,2.64-1.65,1.32,.6,.3,1.68-.03,2.61-.71,1.99-1.67,4.17,1.17,5.35,.85,.35-.43,1.92,1.13,1.64,.19,.25,.29,.52,.33,.83-.4,3.6-1.18,7.15-1.39,10.77-.59,5.47-1.37,10.91-2.35,16.32-.19,1.08-.2,2.28-1.33,2.95Z"/><path class="af" d="M413.17,546.91c-4.89-.06-9.48,1.82-14.31,2.17-1.33-.46-1.07-1.67-1-2.57,.36-4.24-.36-8.5,.37-12.76,.32-1.88-.79-3.95,.2-5.91,3.33,.57,3.53,.95,2.4,4.33,.24-1.07,.92-1.95,1.09-3.11,.39-2.78,1.14-3.13,3.94-2.11,.71,.26,1.34,.24,2.14,.16-.88-.93-2.17-.63-3.03-1.27-.79-.6-2.31-.99-1.09-2.5,2.27-1.02,4.2-.66,5.72,1.39,.28,.37,.49,.78,.63,1.22,.67,4.1,.98,8.24,1.39,12.36,.28,2.92,.52,5.82,1.54,8.6Z"/><path class="ac" d="M398.71,527.7c.26,7.13-.42,14.26,.16,21.39-3.68-.83-6.73-3.04-10.09-4.57-.62-.64-.7-1.46-.66-2.28,.34-6.6,.47-13.21,1.31-19.78,.09-.28,.22-.56,.37-.82,1.06-3.07,3.26-3.15,5.85-2.2,.92,.79,2.05,1.13,3.12,1.62,.9,2.22,.86,4.43-.05,6.64Z"/><path class="ce" d="M296.23,490.24c4.86-1.93,8.37-5.87,12.72-8.56,1.02-.63,1.69-1.79,3.01-1.94,2.29-.58,3.11,.42,3.02,2.65-.06,1.38-.23,2.86,.87,4.02,.52,.52,.71,1.13,.49,1.85-4.08,3.62-8.11,7.28-12.25,10.84-1.54,1.33-3.05,2.66-4.27,4.3-1.47-4.31-3.43-8.49-3.59-13.16Z"/><path class="ac" d="M413.17,546.91c-1.23-.64-1.55-1.76-1.67-3.04-.56-5.99-1.16-11.98-1.75-17.97,2.84-.31,4.43-1.99,5.13-4.65,2.72,1.94,2.92,5.06,3.71,7.91-.11,1.82-.05,3.53,2.4,3.7,1.89,2.3,3.75,13.18,2.69,15.7l-10.51-1.65Z"/><path class="bd" d="M492.24,512.54c-4.81-4.7-9.78-9.24-14.23-14.3,.11-.63,.48-1.52,.96-1.39,1.75,.47,1.48-.43,.79-1.17-.87-.94-1.11-2.17-1.86-3.14-.66-.86-.42-1.7,.25-2.5,.8-.95,1.37-.16,2.08,.17,1.87,.87,3.41,2.23,5.15,3.28,5.47,3.49,9.49,8.68,14.71,12.47,.65,.47,1.35,.88,2.03,1.32-3.02,2.25-6.49,3.68-9.87,5.26Z"/><path class="ag" d="M473.25,525.14c-2.16,2.55-4.33,5.1-6.49,7.65-3.02-.19-3.09-3.09-4.43-4.82-1.35-2.17-2.9-4.22-3.7-6.7-.06-.28-.1-.56-.11-.84,0-.59-.04-1.2,.06-1.78,.42-2.51-.6-3.8-3.17-3.85-.29-.07-.57-.18-.83-.33-.98-.7-1.28-1.71-1.27-2.84,.04-.31,.14-.6,.3-.87,.79-.91,1.82-1.61,2.41-2.72,.8-1.51,2.11-2.12,3.8-1.95,1.7,.38,2.35,1.89,3.2,3.12,2.48,3.62,5.01,7.21,7.63,10.74,.6,1.86,2.89,2.89,2.61,5.19Z"/><path class="af" d="M372.14,521.76c-1.91,6.1-2.85,12.41-4.02,18.67-4.05,.6-7.98,2.17-12.19,1.42,2.13-2.16,2.04-5.19,2.77-7.81,1.53-5.49,3.42-10.85,5.06-16.29,.68-.67,1.25-.56,1.65,.28,.36,.75,.17,1.62,.42,2.37,.33,1.01,.83,3.04,1.04,2.85,1.2-1.09,3.21,.79,3.98-1.25,.16-.42,.76-.65,1.29-.25Z"/><path class="af" d="M369.64,372.84c.36,.66,.07,2.29,1.67,1.15,2.64,3.48,5.95,6.13,9.56,8.62,6.47,4.48,10.55,10.92,13.43,18.16,.16,.47,.09,.91-.12,1.35-.53,.55-.99,1.28-1.93,.68-2.85-3.14-5.7-6.27-8.55-9.41-.38-1.87-.78-3.7-1.51-5.5-1.61-3.97-4.03-4.52-6.93-1.35-.3,.33-.65,.45-1.02,.1-4.04-1.79-6.9-4.93-9.59-8.28,.58-1.9,1.48-3.61,2.98-4.95,.61-.41,1.13-1.14,2.01-.57Z"/><path class="af" d="M423.69,548.56c-.11-5.11-1.78-9.97-2.41-14.99,0-.05-.17-.12-.26-.13-.09,0-.19,.07-.28,.11-.27,.09-.51,.04-.71-.18-.35-.62-.36-1.27-.21-1.94,.3-.72,.32-1.55,.8-2.22,2.23-1.61,4.68-2.62,7.46-2.67,.98,.78,1.56,1.94,2.62,2.64,.53,.51,.93,1.09,1.1,1.81,.61,2.67,1.62,5.22,2.26,7.89,.25,1.06,.79,2.13,.11,3.22-3.5,2.14-6.59,4.94-10.48,6.45Z"/><path class="cu" d="M356.91,386.23c.85,.05,1.61,1.78,2.55,.13-.19-.49-.12-.9,.37-1.17,.25-.67,.37-1.45,1.31-1.54,.59,.24,1.32,.29,1.48,1.1,0,.85,.56,.64,1.05,.56,2.06,1.29,4.16,2.51,6.53,3.16,7.85,2.16,13.67,7.13,18.62,13.34,.18,.57,.29,1.15,.49,1.72,.97,2.73,.75,2.95-2.36,2.53-3.17-2.12-6.35-4.21-9.19-6.77,.56-5.01,.45-5.18-4.7-6.53-.69-.18-1.43-.62-2.01-.57-1.13,.11-2.73,.3-1.66,2.21,.39,.7,.32,1.13-.49,1.36-2.36,.24-4.56-.25-6.64-1.36-.91-.7-1.99-1.07-3.05-1.45-1.18-.36-1.83-1.46-2.9-2.04-1.75-.95-1.44-2.35-.37-3.71v-.02c.49-.14,.45-.82,.96-.96Z"/><path class="af" d="M390.26,521.76c-.49,7.59-.99,15.17-1.48,22.76-4.12,.91-8.18,2.12-12.43,2.4,1.03-6.53,2.06-13.06,3.09-19.59,.53-.16,1.37-.05,1.38,.28,.08,2.18,1.54,2.5,3.23,3.19,2.61,1.07,3.69,.62,3.88-2.47,.02-.31,.03-.61,.08-.91,.28-1.27,.27-2.58,.53-3.85,.17-.87,.14-2.17,1.71-1.8Z"/><path class="ac" d="M434.17,542.11c-.69-3.79-2.55-7.29-2.78-11.2,4.65-1.11,4.94-1.76,3.33-7.62,.36-1.33,1.58-1.68,2.58-2.29,1.07-.44,2.06-1.25,3.35-.8,.34,.27,.67,.75,.37,1.03-2.08,1.92-.74,3.79-.04,5.71,1.56,4.33,3.24,8.63,4.78,12.97,.39,1.11,1.11,2.33-.31,3.31-3.76-.37-7.52-.74-11.27-1.11Z"/><path class="bu" d="M403.85,423.23c1.28,.65,2.62-.65,3.89,.11,.64,.97,1.93,.72,2.71,1.43,.23,.14,.45,.31,.65,.49,.31,.28,.59,.59,.85,.93,.54,.73,.71,1.55,.58,2.44-.2,.94-.14,1.93-.46,2.85-.43,.64-.7,1.33-.64,2.13-.08,.55-.29,1.04-.63,1.47-.55,.6-1.17,1.1-1.9,1.47-.72,.1-1.48-.05-2.17,.31-.75,.19-1.48,.45-2.24,.59-.27,.03-.53,.02-.79-.02-.53-.1-1-.32-1.45-.6-.53-.36-1.06-.69-1.7-.83-.52-.11-1.05-.21-1.49-.55-1.07-.96-1.75-2.17-2.17-3.52-.05-.27-.06-.54-.05-.81,.03-.53,.08-1.05,.04-1.58-.03-.26-.04-.53-.05-.79,.1-1.18,.05-2.41,.89-3.4,.22-.15,.46-.22,.72-.2,1.1,.21,1.43-.83,2.1-1.32,.63-.59,1.31-1.09,2.21-1.2,.46,.03,.83,.25,1.12,.6Z"/><path class="af" d="M445.44,543.22c.56-3.26-1.64-5.76-2.44-8.64-.81-2.92-1.91-5.83-3.33-8.5-1.22-2.3-.1-3.87,.8-5.66,.81-2.25,2.87-2.2,4.7-2.57,.29,.03,.57,.12,.83,.26,1.3,.86,1.5,2.38,2.18,3.61,.3,.49,.65,.95,.87,1.49,.25,.72,.3,1.46,.24,2.21-.75,4.98-.66,9.93,.34,14.87-1.09,1.41-2.21,2.77-4.18,2.92Z"/><path class="k" d="M473.25,525.14c-.76-1.75-2.68-2.78-2.98-4.81,.03-.41-.09-.81-.09-1.21,.02-1.46,1.25-2.25,1.86-3.39,.6-1.12-2.03-.22-1.18-1.75,.26-.47,.1-1.2,.32-1.77,.95-2.46,2.26-2.77,4.63-1.09,3.3,3.39,5.66,7.58,9.24,10.73-3.79,1.61-7.88,2.14-11.8,3.29Z"/><path class="bd" d="M321.64,511.95c-1.84,2.38-3.68,4.75-5.52,7.13-1.7-3.47-3.4-6.93-5.1-10.4,1.88-2.33,3.53-4.86,6.05-6.6,.87-.95,1.7,.41,2.55,.05,2.22-.82,2.25-.83,2.58,1.77,.13,1.02,.35,1.98,.9,2.86,1.85,2.38-1.24,3.38-1.45,5.19Z"/><path class="ao" d="M462.66,429.39c-.27,1.51,1.08,.93,1.61,1.06,1.43,.38,1.9,1.09,1.25,2.43,1.2,.08,.35-2.74,2.26-1.31-.06,1.43,.32,2.14,2,2.61,2.96,.83,3.37,2.47,1.58,4.35-5.79-1.32-11.58-2.61-17.36-3.98-1.78-.42-2.97-.15-3.31,1.85-2.07-2.04,.14-3.83,.33-5.74,.25-.83,.63-1.59,1.2-2.25,3.57-.6,6.96,.72,10.45,.99Z"/><path class="bu" d="M452.21,428.41c.32,.71-.04,1.32-.28,1.95-.7,.46-1.45,.75-2.3,.69-10.58-.73-21.19-1.13-31.75-2.33-1.55-.47-2.14-1.21-.66-2.49,11.66,.73,23.33,1.45,34.99,2.18Z"/><path class="s" d="M323.76,453.34c-.58-.49,.97-2.74-1.52-1.75-.58,.23-1.33-.14-1.07-1.48,.3-1.57,1.89-2.16,2.07-3.63,3.57-1.19,7.13-2.38,10.7-3.58,.25,3.87-2.36,6.42-4.26,9.31-1.91,.67-3.9,.97-5.92,1.12Z"/><path class="ck" d="M341.56,440.14c1.64-.42,3.28-.85,4.93-1.27,.59,.12,.96,.52,1.27,1,.66,1.37,1.62,2.6,1.82,4.18-.06,.29-.18,.55-.37,.77-.85,.7-1.79,.99-2.87,.58-.66-.25-.94-.93-1.51-1.39-.31,.93,.05,1.92-.38,2.79-.12,.27-.29,.51-.48,.73-1.49,.95-2.87,2.18-4.84,1.84-1.74-2.04-.39-4.8-1.61-6.96-.05-.3,.05-.56,.28-.76,1.25-.5,2.51-1.01,3.76-1.51Z"/><path class="av" d="M387.51,405.68c.84-.18,2.68,.51,1.35-1.56-.48-.75-.42-1.52-.05-2.3,1.33,1.71,2.66,3.42,3.99,5.12,.26,.33,.44,1,.99,.37,.13-.15-.02-.56-.05-.85,.53-1.47-.19-2.99,.15-4.47,.13-.41,.27-.82,.4-1.22,2.33,3.69,3.34,7.88,4.55,11.99-1.21,.85-2.62,1.15-4.04,1.42-2.66-2.63-5.7-4.95-7.3-8.5Z"/><path class="ba" d="M462.75,527.61c1.48,1.61,1.76,4.15,4,5.17-3.29,1.67-6.91,2.24-10.45,3.1-.86-1.97,.29-3.74,.58-5.59,.6-.94,1.26-1.84,1.65-2.92,.31-.85,.62-1.9,1.77-1.84,.95,.05,1.35,.93,1.44,1.74,.12,1.06,.69,.19,1,.34Z"/><path class="bi" d="M374.24,386.63c1.06-2.96,3.09-3.52,5.91-2.59,.76,.25,1.68,.7,1.78,1.12,.66,2.72,3.06,5.1,1.77,8.23-2.78-2.77-6.33-4.48-9.46-6.75Z"/><path class="bc" d="M337.8,441.65l-.13,.63c.62,1.65-.37,2.92-1.03,4.27-1.38,2.82-2.97,5.52-4.92,7.99-.24,.22-.52,.37-.84,.45-.5-.04-.87-.32-1.18-.68-.44-.6-.96-1.17-.74-2.02,1.66-3.13,3.32-6.25,4.98-9.38,1.29-.42,2.57-.84,3.86-1.26Z"/><path class="bu" d="M417.22,426.23c-.18,.67-1.48,1.56,.37,1.81,.46,.03,.75,.24,.82,.72-.21,.54-1.23,.81-.55,1.66-.37,1.16-1.53,.67-2.25,1.1-.59,.29-1.05,.74-1.46,1.24-.46,.53-.86,1.14-1.57,1.4-.64,.07-1.19-.06-1.58-.62-.17-.73-.15-1.42,.55-1.9,.84-.97,.71-2.05,.32-3.14,.31-.87,.07-1.58-.59-2.19-.14-.25-.28-.5-.43-.74-.18-.06-.36-.13-.54-.2-.38-1.05,.26-1.33,1.1-1.47,1.04,.12,2.08,.24,3.13,.36,.56,1.06,1.57,.58,2.4,.7l.3,1.28Z"/><path class="i" d="M457.32,529.82c.63,2.18-.68,4.04-1.01,6.06-.4,.54-.92,.33-1.42,.24-2.68-1.52-3.35-4.2-4-6.91,2.55-2.32,4.74-2.1,6.44,.61Z"/><path class="m" d="M323.77,521.54c1.16-.46,2.17,.18,3.15,.56,1.43,.56,2.5,.31,3.4-.89,.91-1.39,2.31-1.35,3.45-.72,1.19,.66,.9,1.88,.28,2.98-.35,.62-.75,1.08,.2,1.89,.82,.69,.99,2.21,.34,3.44-.12,.07-.25,.14-.37,.21-.52-.46-1.15-.84-1.53-1.39-2.18-3.21-5.1-5.29-8.92-6.07Z"/><path class="x" d="M449.62,540.3c-1.72-1.18-1.22-3.12-1.46-4.72-.52-3.51-.23-7.05,.54-10.52,.74-.17,1.16,.29,1.56,.79,.75,1.46-.05,2.98,.16,4.47-.08,1.61,.13,3.2,.17,4.81-.31,1.55,.3,3.12-.15,4.67-.14,.38-.4,.57-.82,.52Z"/><path class="l" d="M450.06,535.13c-.14-1.55-.28-3.09-.42-4.64,.5-.25,.46-1.45,1.46-.85,1.26,2.16,2.52,4.32,3.79,6.47l-1.62,1.24c-1.52-.09-2.67-.72-3.2-2.23Z"/><path class="ct" d="M400.14,414.97c.7,.62,0,1.29,.06,1.93,.03,.76-.49,1.1-1.06,1.4-.64,.24-1.28,.25-1.9-.08-1.51-1.03-2.58-2.35-1-3.96,1.39-1.42,2.91-1.25,3.9,.71Z"/><path class="h" d="M400.14,414.97c-1.19-1.27-2.54-1.52-3.68-.13-1.36,1.67,.8,2.14,1.33,3.17-3.13,.17-4.04-1.16-2.66-3.92,.94-1.29,2.19-1.71,3.73-1.35,.48,.71,1.53,1.08,1.29,2.21Z"/><path class="cl" d="M399.14,417.81c.35-.3,.7-.61,1.06-.91,2.2,1.55,2.98,3.91,3.65,6.33-.43-.07-.87-.13-1.31-.2-1.98-1.19-2.75-3.17-3.41-5.23Z"/><path class="cc" d="M368.07,373.64c-1.14,1.57-2.28,3.15-3.42,4.72-.46-.58-.92-1.16-1.37-1.74,.88-.26,1.95,.02,2.06-1.59,.09-1.31,1.39-2.1,2.52-2.78,.46,.4,.76,.83,.22,1.39Z"/><path class="au" d="M450.06,535.13c1.07,.75,2.13,1.49,3.2,2.23-.94,.81-1.88,1.61-2.82,2.42-.61-1.51-1.02-3.04-.38-4.65Z"/><path class="bo" d="M338.17,528.91c-.51,.92-1.03,1.84-1.54,2.76-1.17-.55-1.89-1.51-2.41-2.66l.15-.13c2.06-2.46,2.6-2.46,3.8,.03Z"/><path class="ca" d="M393.9,401.99c.28,1.5,2.34,3.06-.15,4.47-.83-1.08-1.83-2.1-1.49-3.66,.55-.27,1.1-.53,1.65-.8Z"/><path class="bu" d="M411.4,423.88l-1.1,1.47c-.79-.75-2.42-.42-2.55-2.01,1.22,.18,2.43,.36,3.65,.54Z"/><path class="bu" d="M416.92,424.94c-.89,.08-2.19,1.56-2.4-.7,.8,.23,1.6,.47,2.4,.7Z"/><path class="aw" d="M363.67,385.31c-.42,1.23-1.34,.43-1.66,.16-.39-.34,.22-.6,.61-.71,.35,.19,.7,.37,1.05,.56Z"/><path class="ap" d="M485.72,454.17c-.71,.57-1.5,.29-2.29,.33-.76,.04-1.77-.78-2.39,.52-.57,1.21,.34,2.34-.06,3.49,2.16-.67,1.41,2.61,3.24,2.4,0,0,.07,.2,.04,.28-.03,.08-.14,.14-.22,.21-5.53-2.13-10.56-5.27-15.84-7.89-6.36-3.16-12.4-6.94-19.02-9.57-1.01-.4-.74-1.36-1.24-1.93-.63-1.09,.24-1.31,.95-1.62,9.93,3.63,19.91,7.14,29.76,10.99,2.35,.92,4.67,1.97,7.07,2.8Z"/><path class="bu" d="M417.72,428.69c10.9,2.75,21.8,5.5,32.69,8.24-.36,.55-.72,1.11-1.08,1.66-10.65-2.67-21.29-5.34-31.94-8.01-.51-.5-1.8-.24-1.61-1.36,.22-1.26,1.33-.15,1.94-.53Z"/><path class="bg" d="M471.35,438.53c.84-1.97-.1-3.7-2.24-4.11-2.58-.5-2.62-.58-1.33-2.85,1.46-.83,2.65-.51,3.61,.83,.27,.37,.54,1.13,1.06,.59,2.08-2.19,1.97,.53,2.17,1.14,.51,1.51,.88,2.82,2.63,3.46,.86,.31,1.08,1.42,.15,2.24-2.02-.44-4.03-.87-6.05-1.31Z"/><path class="ac" d="M480.14,477.58c-5.13-3-9.65-6.84-14.44-10.32-4.29-3.12-8.56-6.29-12.83-9.44-4.06-1.71-7.12-4.79-10.39-7.57-.38-1.44,.73-2.22,1.42-3.18,.48-.59,1.16-.9,1.79-1.3l.02-.03c2.06-.31,.53,2.18,2.17,2.65,1.79,.51,3.31,1.94,4.95,2.97,9.73,6.14,19.45,12.27,29.18,18.41,.17,2.51-1.26,4.87-.57,7.5,.27,1.05-.64,.99-1.28,.3Z"/><path class="bw" d="M480.14,477.58c.42,.02,1.22,.38,.79-.54-.26-.57-1.34-.39-1.68-1.44,1.88-.3,2.39-1.4,1.54-3.14-.64-1.32,.31-2,1.21-2.67,1.44,.89,2.88,1.78,4.32,2.67-2.24,.52-2.55,2.54-3.56,4.14,1.27,.51,.84-1.06,1.61-.94,.95,1.75-2.13,2.45-1.09,4.23-1.27-.47-2.39-1.13-3.14-2.31Z"/><path class="i" d="M328.96,452.29l1.1,1.53c-1.4,2.27-4.45,2.2-6.01,4.24-.35,.25-.74,.42-1.16,.51-1.78,.2-3.22,1.24-4.79,1.94-.87,.38-1.56,1.44-2.74,.88l-.15,.04c.88-1.6,2.12-2.83,.92-5.15-1.06-2.05,2.8-4.66,5.33-3.91,.83,.25,1.16,1.6,2.3,.98,1.59-1.05,3.2-2.01,5.2-1.06Z"/><path class="ac" d="M485.38,493.49c-.89,.17-1.87-1.9-2.71,.11-.13,.31-.59,.26-.46-.12,1.06-3.07-2.71-1.44-3.04-3.17-.1-.51-.43-.2-.54,.04-.24,.51-1.09,1.36-.52,1.53,1.71,.51,.72,2.64,2.45,3.3,1.35,.52-.15,1.86-.34,2.84-.11,.54-.34,.75-.69,.19-.15-.23-.11-.58-.15-.88-.45,.3-.91,.6-1.36,.9-5.18-5.16-10.36-10.31-15.53-15.47-2.17-2.16-4.33-4.33-6.49-6.5-3.83-2.34-6.43-6-9.61-9.04-2.56-2.77-5.46-5.19-7.94-8.03-.85-.97-1.99-1.8-2.11-3.27,.26-1.3,1.28-2.06,2.12-2.95,.61-.51,1.23-.98,2.1-.79,4.37,4.23,9.45,7.7,13.37,12.42,8.84,7.99,17.7,15.96,26.51,23.98,1.71,1.56,3.72,2.84,4.95,4.89Z"/><path class="ak" d="M453.91,464.62c-4.88-3.63-9.54-7.5-13.55-12.11-.14-.26-.16-.54-.05-.82,.54-.84,.99-1.81,2.25-1.72,3.69,2.29,7.07,4.97,10.3,7.85,.59,1.1,.54,2.33,1.96,3.24,1.13,.72,1.17,2.8-.92,3.55Z"/><path class="ac" d="M321.64,511.95c-.75-1.12,.39-1.69,.86-2.23,.84-.98,.58-1.74,.07-2.63,1.94-2.2,2.05-4.81,1.4-7.66-1.66,.37-3.58,.63-4.37,2.83-.92,1.12-1.66-.58-2.53-.17,4.42-4.91,8.8-9.88,13.29-14.73,4.43-4.78,8.97-9.45,13.47-14.17,.95-.79,.88-2.53,2.52-2.67,2.93,.99,4.17,3.04,3.83,6.09-.45,1.14-.99,2.2-2.39,2.38-8.34,11.28-17.17,22.17-26.13,32.96Z"/><path class="ac" d="M316.33,488.27l-.8-1.55c-.01-1.21,.95-2.26,1.72-2.25,2.47,.02,2.44-1.87,2.99-3.3,.36-.31-.47-.38-.09-.22,.11,.05,.07,.14-.1,.28-.75,.61-1.46,1.82-2.52,.73-.86-.88-.82-2.02,.06-3.05,.8-.94,1.86-1.61,2.5-2.74-1.06,.17-1.97,1.45-3.21,.55-.05-.04-.06-.17-.04-.26,.02-.1,.09-.18,.14-.27,3.16-2.45,6.31-4.9,9.47-7.36-.04-1.07,.74-1.51,1.5-1.97,4.28-3.1,9.02-5.6,12.39-9.85,.76,.27,1.07,.95,1.45,1.57,.75,1.87,2.26,3.44,2.17,5.63-.12,.45-.38,.8-.81,1-8.82,7.83-17.54,15.76-26.82,23.05Z"/><path class="bk" d="M343.16,465.22l.43-1.26c.3-.04,.57,.03,.81,.21,1.22,1.76,3.02,3.22,2.93,5.65-.13,.45-.37,.79-.82,.98-1.16,.5-1.38,2.06-2.69,2.38-1.17-.96-1.12-2.46-1.65-3.71-.53-1.25-.76-2.28,1.03-.9,.29,.22,.53,.28,.65-.1,.37-1.21,.43-2.37-.7-3.26Z"/><path class="ac" d="M475.81,511.12c-.09,.18-.25,.52-.28,.52-3.08-1.2-3.75-.63-3.89,3.43l1.03-1.26c.49,2.75-2.07,4.22-2.42,6.51-3.48-3.75-6.01-8.19-8.98-12.32-.43-.59-.78-1.2-1.51-1.45-.14-.26-.22-.53-.25-.82,.74-3.22-1.55-5.69-2.23-8.57-.39-1.65-2.27-1.23-3.67-.82-.29,.02-.57-.03-.84-.15-2.41-2.48-4.11-5.49-6.12-8.27-1.72-3.1-4.54-5.51-5.64-8.99,.04-1.78-1.63-2.69-2.13-4.2,.44-.93-.51-1.38-.72-2.09-.5-1.71-.39-3.16,1.71-3.66,.9,.85,1.9,1.49,3.19,1.51,.28,.09,.52,.23,.74,.42,3.43,4.06,6.62,8.31,10.07,12.35,.66,.77,1.43,1.48,1.61,2.55,6.26,7.8,12.51,15.59,18.77,23.39,.51,.64,1.03,1.27,1.54,1.9Z"/><path class="ak" d="M455.5,485.83c-4.56-4.51-8.53-9.51-12.05-14.86,1.34-1.18,1.21-3.53,3.28-4.12,3.26,2.98,6.4,6.07,9.25,9.44-1.14,2.7-.7,4.64,1.34,6.02,.32,.22,.96,.44,.18,1.07-.81,.65-.84,2.02-2,2.45Z"/><path class="l" d="M328.19,467.52c-.58,.44-1.17,.88-1.75,1.32-1.44,.12-2.84-.09-4.19-.61-.38-.15-.72-.37-1.02-.65-1.26-.87-2.98-.54-4.18-1.58-.16-.13-.34-.21-.55-.24-.8,0-1.02-.47-.95-1.17-.23-1.06-.75-2.09-.2-3.2,2.39-1.33,4.51-3.24,7.42-3.43,.8,.73-.08,2.34,1.4,2.7,.2,.05,.4-.09,.5-.28,.75-1.38-.93-1.81-1.11-2.83,1.76-1.94,4.18-2.73,6.48-3.73l.56,.79c.72,1.46,1.17,3.02,2.04,4.44,1.25,2.03,.83,3.94-1.1,5.4-1.22,.92-2.44,1.82-3.35,3.07Z"/><path class="y" d="M316.98,476.19c1.7,.6,2.63-.85,4.04-1.53,.83,1.75-.98,2.32-1.53,3.37-.24,.45-.86,.83-1.3,1.15-1.05,.78-.82,1.75-.29,2.31,.76,.8,1.22-.45,1.84-.74,.33-.15,.53-.59,.97-1.12,.16,2.38,.4,4.73-2.12,5.53-1.18,.38-2.13,.84-3.05,1.56-2.19-.44-1.19-2.23-1.26-3.39-.11-1.74,.23-3.52-2.32-3.59,1.45-1.51,3.12-2.7,5.03-3.56Z"/><path class="l" d="M306.6,470.28c1.99,1.72,3.23,3.61,1.85,6.37-.66,1.32-1.6,2.46-3,2.08-2.19-.59-3.93-2-4.79-4.28-.58-1.54,.45-2.27,1.41-3.02,.64-.5,1.37-.88,2.05-1.31,.84-.18,1.7-.64,2.48,.16Z"/><path class="f" d="M306.6,470.28c-.84,.15-1.67,.23-2.48-.16,.68-1.05,1.57-1.83,2.8-2.12,3.05-.72,5.76-2.27,8.64-3.41,.32,.39,.63,.78,.95,1.17-2.82,2.56-6.65,2.92-9.91,4.53Z"/><path class="bj" d="M317.06,466c1.34,1.28,3.74-1.21,4.72,1.33-.35,.69-.91,.96-1.67,.83-1.23-.42-2.24-1.15-3.05-2.16Z"/><path class="ac" d="M338.17,528.91c-1.25-2.58-2.53-.59-3.8-.03-.14-.78-.49-1.59-.39-2.33,.22-1.58-.58-.75-1.13-.59,.08-.68,.06-1.39,.25-2.03,1-3.28,1.02-3.28-2.78-2.72,4.64-8.24,10.08-15.97,15.04-24,.48-.77,.82-1.62,1.22-2.44,.03-.15,.05-.29,.07-.44,.58-2.22,2.39-3.8,3.06-5.97,1.49-2.81,3.69-5,6.13-6.98,1.09-.1,1.73,.51,1.97,1.47,.2,.79,.05,.89,1.28,.99,2.72,.22,1.09,2.19,.42,3.54-2.79,1.46-1.66,4.39-2.47,6.6-.96,1.8-1.18,4.09-3.4,5.03-2.75,6.43-6.35,12.43-9.51,18.65-1.92,3.79-3.97,7.51-5.97,11.26Z"/><path class="an" d="M356.08,481.66c-1.57,2.65-4.67,4.11-5.67,7.22-1.5,.52-1.39,2.74-3.14,3.01-.11-.08-.23-.16-.34-.24,.07-1.43,.37-2.79,1.43-3.83,1.71-1.69,2.19-3.78,2.01-6.14-.7,2.83-4.06,4.1-4.13,7.35,0,.31-1.02,.89-1.47,.82-.91-.15-.25-.85-.27-1.37-.08-2.07-.42-4.14,1.72-5.48l.08,1.75c1.7-1.85,2.85-3.49,1.48-5.76,.7-.86,1.4-1.72,2.1-2.58-.28-.99,.36-1.41,1.09-1.79,2.74,.69,3.89,3.2,5.7,4.97,.13,.29,.17,.6,.14,.91-.09,.48-.35,.86-.73,1.15Z"/><path class="b`" d="M346.58,494.77c-.17-.09-.48-.16-.5-.27-.19-1-1.88-1.02-1.58-2.15,.35-1.33,1.78,.15,2.44-.7,.68,1.13,.14,2.13-.35,3.13h0Z"/><path class="o" d="M368.07,373.64c-.07-.46-.14-.93-.22-1.39,.97-.95,1.57-.76,1.79,.59-.52,.27-1.05,.53-1.57,.8Z"/><path class="bn" d="M356.91,386.23c-.17,.47-.41,.87-.97,.96-.02-.49,0-.98-.06-1.46-.08-.63-1.08-1.33-.28-1.84,1.1-.7,1,.93,1.7,1.17h0l-.38,1.18Z"/><path class="ag" d="M359.82,385.2l-.37,1.17c-.92-.82-.94-1.72-.23-2.77,.21,.57,.41,1.08,.6,1.6Z"/><path class="ag" d="M357.3,385.05l.85-2.65c.46,1.45,.11,2.17-.86,2.64h0Z"/><path class="t" d="M360.88,502.6c.01-.1,.07-.22,.03-.3-.06-.14-.18-.26-.28-.38-1.27,1.67-.74,4.19-2.62,5.57-1.01-3.18-.62-6.08,2.02-8.68-1.13-.57-2.23,1.04-3.03-.27-.73-1.21-1-2.5-.38-3.74,.42-.84,.2-1.54,.1-2.32,.61-1.36,1.01-2.81,1.75-4.11,1.5-.99,1.45-2.97,2.66-4.14,.25-.19,.53-.29,.84-.29,1.81,.71,3.64,1.41,4.67,3.25,.96,2.82-.33,5.19-1.56,7.57-.25,.37-.54,.7-.83,1.03-.95,1.49-1.59,3.09-1.77,4.86-.15,.59-.29,1.18-.83,1.55l-.77,.4Z"/><path class="bq" d="M372.14,521.76c-1.73,.34-.98,2.62-2.62,3.2l-.68-1.88c-.77,.67-1.51,2.07-2.37,1.55-1.56-.93-.95-2.99-1.49-4.51-.31-.87,.83-2.39-1.22-2.37-.39-1.32,.46-2.46,.53-3.71,.5-3.76,2.23-7.16,3.09-10.81,.15-.36,.21-.89,.7-.89,.83,0,1.07,.84,.89,1.3-2.07,5.3,.39,9.73,2.58,14.24,.1,.21-.3,.46,.07,.88,0-2.36-.33-4.66,.97-6.66,.45-.7,.61-1.9,1.94-1.25,.07,.49-.09,.86-.51,1.13-.63,3.26-1.26,6.51-1.89,9.77Z"/><path class="p" d="M368.07,502.33l-3.77,11.72c-.59-2.48,1.1-4.44,1.51-6.69,.2-1.08,.92-2.05,.74-3.25-.83-.47-.96,1.58-1.85,.53-.44-.52-.99-1.37,.01-1.71,.45-.16,.5-2.39,1.49-.44,1.22-.76,1.33-1.83,.87-3.07-.37-.97,.56-1.98-.19-3.14-1.09,.08-1.04,2.61-2.43,1.61-1.23-.89-.63-2.13,.23-3.13,.31-2.46,2.17-4.56,1.65-7.21,.31-.16,.64-.24,1-.25,2.05,.63,3.93,1.47,4.81,3.64-.88,3.96-1.2,8.12-4.06,11.38Z"/><path class="ar" d="M364.68,494.76c-.1,.94-.2,1.88-.29,2.76,.68,.25,1,.05,1.12-.38,.21-.71-.63-1.76,.42-2.11,.5-.17,1.38,.25,1.84,.67,.77,.7,.59,1.61,.03,2.44-.27,.4-.49,.85-.73,1.28-1.22-.1-1.79,3.34-3.48,.64-.77,.6-.7,1.96-1.94,2.14,.18-.6,.37-1.19,.55-1.79,.16-1.88,.68-3.64,1.7-5.24l.78-.41Z"/><path class="ai" d="M356.88,492.91c1.32,1.29-.38,2.64,.09,3.96,.35,.95,.3,2.73,1.92,1.02,.95-1,1.06,.35,1.63,.43,.58,.08,.78,.8,.18,1.11-3.46,1.85-1.87,5.36-2.7,8.06-.93-.13-2.5-1.89-2.04,1.12,.25,1.68-.61,3.51-2,4.92-.92-1.12,.08-2.16-.06-3.18-.07-.49,.56-1.11-.62-1.18-1.9-.11-2.2-.9-.64-2.17,.8-.65,.6-.8-.31-1.38-.75-.48-.07-1.91,.57-2.68,1-1.21,1.19-2.48,.75-3.92,1.01-1.85,2.02-3.69,3.03-5.54-.12-.18-.12-.33-.02-.43,.1-.1,.17-.14,.23-.13Z"/><path class="ce" d="M357.12,509.28c-.18,1.29-.24,2.5-1.17,3.52-.07-1.48,.57-2.56,1.17-3.52Z"/><path class="ce" d="M390.26,521.76c-1.37,.6-.78,1.88-1.07,2.87-.29,.99,.53,2.3-.8,2.99-.94-.63-1.19-1.69-1.26-2.64-.1-1.43-.77-2-2.08-2.19-.81-.12-1.71-.41-1.8-1.36-.18-2-1.63-3.41-2.19-5.22-.19-.06-.38-.13-.57-.19-.39-3.69,.55-7.26,1.06-10.86,1.49-2.64,1.73-5.44,1.08-8.36,.13-.1,.27-.19,.4-.29,.32-.1,.65-.14,.99-.12,2.76,.34,4.87,2.34,7.53,2.94,.76,.35,1.51,.71,1.66,1.66-.93,1.02-1.23,2.21-1.25,3.59-.06,4.24-.22,8.48-.59,12.71-.19,1.53-.31,3.08-1.08,4.47h-.02Z"/><path class="ak" d="M381.06,516.2c1.47,1.33,2.9,2.67,2.74,4.92-.03,.37,.06,.88,.61,.84,4.46-.31,2.98,3.54,3.98,5.65,1.95,3.83-2.51,3.95-3.67,6.27,.6-2.64-1.44-2.27-2.7-2.99-.45-.26-3.55-.48-1.2-2.52l-1.38-1.05c-.12-3.8,.45-7.51,1.62-11.12Z"/><path class="cp" d="M381.96,504.79c.35,3.85-.57,7.53-1.47,11.22-.04,.09-.06,.21-.13,.27-.14,.11-.31,.19-.46,.29,.23-1.36-.2-1.74-1.69-1.77-1.25-.03-1.37-4.32-.24-6.04,.36-.55,1.29-.83,.91-1.73-.07-.17-.53-.33-.74-.26-.79,.27-1.01,1.01-1.44,1.65-.81,1.21-.51,3.39-2.67,3.56,.11-.39,.23-.77,.34-1.16-1.11-3.22,.09-5.99,1.69-8.68,2.31,.11,3.86,1.91,5.89,2.65Z"/><path class="t" d="M398.71,527.7c-.62-2.17,.4-4.46-.46-6.61-1.19-2.66-.32-5.43-.37-8.15-.06-3.42,.01-6.85-.23-10.27,.47-.22,.97-.25,1.48-.18,1.34,.26,2.61,.71,3.8,1.36,1,.75,2.18,1.12,3.33,1.54,1.22,.45,2.23,1.09,2.19,2.6-.02,.32-.14,.59-.35,.83q-4.02,1.35-3.49,5.58c.06,.51,.33,1.16-.06,1.47-2.88,2.38-1.54,5.08-.67,7.76,.27,1.68,1.92,1.68,2.99,2.23,.66,.34,1.63,.19,1.95,1.09,.19,.55-.3,.92-.69,1.24-.82-1.4-1.87,1.23-2.95-.26-1.02-1.41-2.83-.91-2.56,.54,.43,2.32-1.72,3.23-1.65,5.12-1.14-.17-1.23-.93-1.4-1.38-.35-.91,.73-.25,.94-.66,1.02-2.05-.39-2.96-1.82-3.86Z"/><path class="i" d="M415.08,521.35c-.53,4.28-1.2,4.84-5.32,4.55-.16-.24-.32-.48-.49-.72-.99-5.42-2.12-10.82-1.2-16.38l-.03-.15c1.96-.79,2.76,1.13,4.13,1.74,.6,.23,1.2,.46,1.79,.7,3.52,2.35,4.3,5.04,2.65,9.04-.37,.58-.88,.99-1.53,1.21Z"/><path class="l" d="M408.07,508.81c.35,5.46,1.41,10.88,1.2,16.38-1.38-1.95-3.4-1.65-5.37-1.55-2.72-3.09-2.78-4.1-.05-7.61,.85-1.09-.16-1.65-.35-2.42-.87-3.44,1-5.43,4.57-4.8Z"/><path class="p" d="M397.61,502.89c.39,.8,1.22,1.31,1.18,2.39-.22,5.26-.37,10.53-.54,15.8-1.72,.93-2.32-.13-2.74-1.53-.26-1.52,1.71-2.6,.75-4.42-2.01,.44-3.79,1.62-5.8,2.12,.6-4.54,.58-9.1,.76-13.66,.03-.87-.78-3.12,1.79-2.32,1.94-.62,3.52-.18,4.61,1.62Z"/><path class="cs" d="M390.46,517.26c1.64-2.26,4.57-1.9,6.5-3.69,1.05,2.68,.21,4.45-1.44,5.98l-.48,1.1c-2.23-2.47-3.46-.59-4.74,1.09,.06-1.5,.12-3,.17-4.49Z"/><path class="aq" d="M415.08,521.35c.03-.64,.41-1.02,.95-1.29,.94,.22,1.27,1,1.45,1.78,.73,3.23,2.62,6.12,2.84,9.5-.05,.65-.1,1.3-.15,1.95-1.62-.78-2.05-2.22-2.16-3.85-.61-2.83-1.81-5.44-2.92-8.09Z"/><path class="n" d="M418,529.44c.67,1.31,1.1,2.76,2.16,3.85,.19,.09,.38,.17,.57,.26-2.23-.28-3.09-1.57-2.73-4.1Z"/><path class="l" d="M452.89,496.03c.17,.03,.34,.05,.51,.07,3.01,2.73,5.35,5.9,6.54,9.85-.05,.21-.11,.41-.16,.62-1.55,.25-3,.53-3.4,2.48-.28,1.36-1.74,1.6-2.71,2.3-.29,0-.56-.1-.81-.26-2.25-2.26-3.55-5.14-5.17-7.81-.78-1.29-1.4-2.71-2.65-3.66-.34-.3-.52-.67-.53-1.13,.03-.44,.18-.84,.42-1.21,.33-.47,.73-.89,1.15-1.28,2.28-2.09,4.54-.71,6.81,.04Z"/><path class="ap" d="M451.1,529.64c-.49,.28-.97,.56-1.46,.85,.02-1.5,.04-2.99,.06-4.49-.46-2.24-.58-4.42,.91-6.38,.55-.55,1.18-.41,1.6,.06,1.93,2.2,4.25,2.48,6.87,1.57,1.22,2.12,2.45,4.23,3.67,6.35-.3,.6-.6,1.19-.9,1.79-.15-.1-.4-.17-.44-.3-.34-1.07,.35-2.92-1.14-3.03-.98-.07-1.26,1.76-1.45,2.84-.19,1.08-.76,1-1.5,.91-2.02-1.78-4.09-2.13-6.22-.18Z"/><path class="i" d="M459.08,521.26c-2.91,2.55-5,2.02-7.74-1.96-.89-1.4-.14-2.59,.48-3.79,.76-1.03,1.8-1.43,3.04-1.39l.26,.08,.23,.14c1.93,1.69,2.76,4.04,3.72,6.3v.62Z"/><path class="ck" d="M452.61,515.38c-.42,1.31-.84,2.61-1.27,3.92-1.23,2.06-.84,4.53-1.65,6.7-.33-.32-.66-.63-1-.95-.05-.68-.09-1.36-.14-2.04-.36-1.44,.03-2.85,.21-4.27,.09-.69-.03-.98-.77-.7-.76,.17-1.47,.76-2.3,.27l.06-.16c-.79-.57-.79-1.26-.32-2.03,2.44-1.59,5.12-2.92,6.54-5.69,.49-.06,.91,.07,1.22,.46,.15,.15,.3,.3,.45,.45-.08,.14-.09,.28-.02,.42,.18,1.36-.09,2.58-1.04,3.62Z"/><path class="l" d="M459.09,520.63c-1.83-1.75-2.78-4.03-3.72-6.3,3.44-.27,4.27,.49,4.01,3.67-.07,.88-.19,1.76-.28,2.64Z"/><path class="ay" d="M452.61,515.38c.35-1.21,.69-2.41,1.04-3.62,.41,.78,.81,1.57,1.22,2.35-.75,.42-1.5,.85-2.26,1.27Z"/><path class="r" d="M370.07,432.6c7.06-1.46,14.13-2.92,21.19-4.37,1.59,.62,1.14,1.51,.33,2.44-.37,.3-.79,.47-1.25,.56-9.51,1.83-18.91,4.15-28.39,6.14-1.57,.33-3.11,1.1-4.79,.5-.7-.48-1.21-1.03-.7-1.95,4.54-1.11,9.07-2.21,13.61-3.32Z"/><path class="br" d="M356.46,435.93c.24,.54,.49,1.08,.73,1.62,.76,.51,.86,1.22,.62,2.04-1.92,2.45-4.56,3.67-7.51,4.37-1.79-.67-1.6-2.87-2.99-3.86-.28-.41-.56-.81-.84-1.22,3.27-1.19,6.38-2.88,9.98-2.94Z"/><path class="bk" d="M427.94,526.75c-.82,.72-2.67-.19-2.73,1.75,0,.15-.25,.3-.39,.44-1.7-1.83-2.63,1.03-4.09,.66-1.24-.11-1.22-1.21-1.48-2.01-1.67-5.11-1.47-10.58-3.08-15.71-.24-.76-.14-1.62,.5-2.27,1.96-.78,3.56,.13,5.15,1.09,.84,.99-.09,1.65-.48,2.4-.69,1.35-1.7,2.78-.6,4.21,1.04,1.33,2.72,1.08,4.24,.89,.79-.1,1.56-.45,2.39-.28,1.75,1.49,1.68,3.68,2.17,5.66,0,.28-.06,.56-.14,.84-.49,.77-.52,1.85-1.48,2.33Z"/><path class="co" d="M416.62,510.18c1.07,5.75,2.15,11.49,3.22,17.24,.15,.8,.2,1.62,.89,2.19-.07,.59,.59,1.36-.41,1.73-1.99-3.55-2.6-7.62-4.29-11.28,1.35-4.15,.74-6.25-2.44-8.37-.15-.24-.29-.49-.47-.71-.29-.36-.26-.9-.7-1.17,.03,.5-.11,.93-.54,1.23-1.58-.31-2.07-2.39-3.84-2.39,0-1.54-.84-2.27-2.28-2.66-1.01-.27-2.22-.29-2.83-1.42,1.74-.94,3.25,.17,4.84,.55,2.55,.82,5.13,1.52,7.62,2.54,.32,.15,.6,.35,.86,.59,.62,.55,.31,1.27,.37,1.93Z"/><path class="i" d="M428.91,524.46c.02-.18,.07-.35,.15-.52,1.28-1.65,2.87-2.39,4.96-1.72,.44,.21,.78,.52,.98,.97,.62,1.13,1.45,2.13,1.52,3.55,.17,3.33-1.67,4.87-5.13,4.16-.31-.46-.63-.93-.94-1.39-.89-1.57-1.72-3.16-1.53-5.06Z"/><path class="l" d="M428.91,524.46c.72,1.62,1.71,3.16,1.53,5.06-1.54-.28-2.06-1.48-2.5-2.76-.1-.95,.03-1.79,.97-2.3Z"/><path class="bi" d="M378.06,398.85l-8.57-3.52c-.27-.79-1.14-.77-1.66-1.21-.5-.43-.79-.83-.01-1.4,1.91-1.39,4.11-1.48,6.08-.74,1.09,.41,2.17,1.03,3.33,1.45,3.53,1.26,1.7,3.43,.83,5.42Z"/><path class="x" d="M445.6,516.45c.06,.57,.12,1.14,.18,1.7-1.79,.7-3.8,.91-5.31,2.26-.94,.36-1.89,.71-2.83,1.07-.29-.39-.29-.82-.15-1.26,1.78-2.31,4.52-2.98,7.01-4.05,.41-.09,.85-.24,1.1,.29Z"/><path class="ck" d="M437.92,520.25c-.09,.41-.19,.83-.28,1.24-.88,.57-1.76,1.14-2.64,1.71-.34-.14-.69-.29-1.03-.43,.42-1.71,1.81-2.33,3.25-2.88,.29,0,.53,.11,.7,.36Z"/><path class="r" d="M410.99,433.53c.57,.12,1.14,.24,1.71,.36,.61,.12,1.06,.48,1.47,.92,5.88,6.55,11.59,13.25,17.52,19.75,.89,.97,1.93,1.87,2.09,3.31-.04,.31-.15,.59-.34,.85-.49,.45-1.07,.6-1.71,.47-1.71-.68-2.6-2.26-3.74-3.53-5.31-5.91-10.58-11.85-15.75-17.89-.5-.81-1.23-1.44-1.73-2.25-.03-.13-.07-.26-.1-.39,.19-.53,.39-1.07,.58-1.6Z"/><path class="r" d="M406.7,436.42c.56-.52,1.13-.94,1.77-.1,1.04-.08,1.26,.69,1.53,1.43,1.52,6.74,4.07,13.18,6.06,19.78,.79,2.62,1.97,5.12,2.26,7.88-.15,.67-.61,1.05-1.24,1.24-.48,.06-.92-.04-1.33-.28-.81-.58-1.01-1.5-1.29-2.37-2.77-8.65-5.66-17.27-8.24-25.99-.15-.62-.15-1.21,.47-1.6Z"/><path class="r" d="M406.7,436.42c-.13,.52-.19,1.04,.24,1.47,1.15,7.96,2.09,15.94,2.79,23.96,.15,1.73,.41,3.44,.32,5.18-.2,.93-.88,1.19-1.72,1.23-.32-.05-.55-.23-.69-.52-1.06-10.22-2.12-20.43-3.18-30.65,.56-.83,1.34-.94,2.23-.67Z"/><path class="bu" d="M399.28,435.33c.42,.48,.84-.13,1.26,0,1.4,1.05,.73,2.36,.46,3.62-2.81,9.21-6.48,18.09-10.26,26.94-.38,.47-.88,.75-1.48,.83-1.28-.15-1.49-1.01-1.39-2.08,1.34-6.68,4.54-12.7,6.83-19.05,1.03-2.87,2.14-5.76,3.36-8.57,.19-.5,.42-.98,.78-1.39,.15-.1,.29-.2,.44-.29Z"/><path class="am" d="M403.99,437.02c-.85,6.29-1.7,12.57-2.54,18.86-.53,3.98-1.06,7.96-1.58,11.95-.53,.53-1.14,.66-1.84,.4-.28-.22-.46-.5-.55-.84-.38-3.29,.53-6.47,.92-9.7,.73-6.06,1.3-12.15,2.38-18.16,.18-1.01,.31-2.01,.98-2.84,.15-.08,.3-.17,.45-.25,.64,.06,1.3,.05,1.79,.59Z"/><path class="w" d="M409.47,437.83c-.33-.5-.67-1.01-1-1.51,.32-.92,1.03-1.23,1.94-1.19l-.06-.07c.57,.78,1.12,1.56,1.77,2.27,3.76,6.15,7.41,12.35,10.57,18.82,1.05,2.15,3.26,3.74,3.15,6.45-.21,.63-.65,1.01-1.27,1.21-.3,.03-.6,0-.89-.1-.36-.19-.72-.43-.91-.79-4.27-7.89-8.99-15.53-12.89-23.62-.23-.47-.3-.97-.41-1.47Z"/><path class="bu" d="M391.32,430.25c1.3-.71,.33-1.36-.06-2.02,.43-1.27,1.37-.75,2.2-.63,.43,.57,.37,1.54,1.36,1.65,.68,.56,1.17,1.34,2.02,1.69,.2,.17,.35,.38,.45,.62,.66,1.26,1.32,2.51,1.99,3.77l-.02,.25c-.79,.26-1.58,.29-2.36,0-.36-.18-.63-.47-.88-.77-.54-.72-1.22-1.28-1.97-1.76-.22-.14-.42-.31-.61-.48-.69-.78-1.71-1.26-2.1-2.31Z"/><path class="bu" d="M394.43,426.75c.95-1.03,2.33-.97,3.52-1.37-.17,1.21-.35,2.42-.52,3.63-.27,.28-.51,.6-.87,.77-.97,.5-1.41-.33-1.99-.79-.63-.71,.13-1.5-.13-2.23Z"/><path class="bu" d="M398.56,425.38c.5-.98,1.3-1.37,2.38-1.16-.56,.87-1.03,1.92-2.38,1.16Z"/><path class="bu" d="M411.85,428.48c1.73,1.23,.76,2.19-.32,3.14,.11-1.05,.21-2.1,.32-3.14Z"/><path class="bu" d="M400.85,437.87c.19-.88,.09-1.73-.32-2.54,.75,.08,1.49,.16,1.67,1.11h-.03c-.75,.43-.48,1.5-1.22,1.95-.35,.21-.69-.07-.28-.11-.07-.1-.01-.24,.18-.41Z"/><path class="bu" d="M397.27,429.6c.44,.38,.36,.85,.22,1.33-.12,.06-.24,.11-.36,.17-.25-.12-.4-.31-.45-.58,.01-.27,.09-.51,.24-.73,.12-.06,.23-.12,.35-.18Z"/><path class="bu" d="M396.69,429.4c.25-.13,.49-.26,.74-.39-.05,.2-.1,.4-.16,.6l.03-.02-.38,.14-.23-.33Z"/><path class="bl" d="M410.83,425.55c.14,.25,.29,.49,.43,.74-.14-.25-.29-.49-.43-.74Z"/><path class="bu" d="M396.9,430.75c.2,.06,.4,.12,.59,.18-.07,.21-.13,.41-.2,.62-.18-.07-.36-.14-.54-.21-.1-.16-.12-.31-.04-.43,.08-.12,.14-.18,.18-.16Z"/><path class="be" d="M445.72,518.32c.75-.06,1.16-1.08,2.05-.75,1.7,.94,1.69,2.05-.06,4.55l-1.99-3.8Z"/><path class="bb" d="M447.71,522.12c.03-1.52,2.11-3,.06-4.55,.61-.46,1.19-1,2.23-.87-.49,2.14-.96,4.23-1.43,6.31-.44-.15-.78-.39-.86-.89Z"/><path class="bw" d="M319.6,502.25c-.19-2.04,.12-3.43,2.79-2.88,.59,.12,1.42-.97,2.27-1.6,.97,2.39-.55,5.21,1.38,7.33,.01,.02-.5,.57-.51,.55-2.43-1.94-.98,.57-1.3,1.09-.39,.62-1.05,.49-1.65,.34-1.58-1.38-.93-3.33-1.17-4.97-1.07-.27-.89,1.61-2.02,.98-.06-.03,.14-.55,.22-.84Z"/><path class="f" d="M341.24,458.82l-.75-1.54c-1.41-1.13-1.3-2.83-1.66-4.36-.01-1.26-.83-2.59,.33-3.75,1.57-.63,3.13-1.25,4.7-1.88,2.07,1.87,2.84,4.36,3.3,6.99-1.32,2.37-3.55,3.56-5.93,4.54Z"/><path class="c`" d="M350.12,443.53c2.67-.99,5.18-2.25,7.24-4.27,2.12,1,2.45,3.14,3.19,5.02,0,.31-.07,.61-.18,.89-1.57,2.05-3.41,3.59-6.22,3.34-2.04-.84-4.12-1.64-4.87-4.04,.04-.18,.05-.37,.04-.55,.16-.35,.52-.3,.8-.4Z"/><path class="al" d="M339.17,449.17l.14,3.82q-1.19,.11-2.03-1.78c-1.74,.84-3.47,1.67-4.59,3.38-.48,.73-1.16,1.23-1.82,.09,2.47-4.02,5.28-7.86,6.81-12.4,1.72,.75,.91,2.4,1.24,3.63,.28,1.03,.19,2.17,.26,3.26Z"/><path class="cb" d="M346.78,454.07c-.97-2.26-1.94-4.52-2.91-6.78,.07-.2,.13-.39,.2-.59,.66-.75,1.33-1.47,2.47-1.32,1.21,1.11,2.68,1.79,4.11,2.56,.32,1.08,1.53,1.42,1.99,2.39-1.39,1.64-3.38,2.61-4.73,4.29-.49,.05-.89-.08-1.12-.55Z"/><path class="f" d="M350.54,448.27c-1.95-.12-3.5-.83-4.21-2.81-.12-.12-.15-.23-.09-.33,.06-.11,.11-.15,.16-.14,1.06,.38,1.91-.47,2.89-.5,1.66,1.33,3.27,2.72,5.24,3.6,.34-.06,.54,.08,.64,.41-.33,1.01-1.07,1.41-2.07,1.42-.81-.62-1.99-.65-2.55-1.65Z"/><path class="ab" d="M346.39,444.99c-.03,.16-.05,.32-.06,.47-.63,.65-1.38,1.06-2.26,1.24,0-1.49,0-2.98,0-4.6,1.54,.58,1.41,2.13,2.32,2.89Z"/><path class="p" d="M350.12,443.53l-.8,.4c-.94-1.14-1.59-2.43-2-3.84,1.91,.35,1.49,2.59,2.8,3.44Z"/><path class="af" d="M330.86,454.68c1.64,.69,1.37-1.05,1.94-1.63,1.4-1.43,3.25-1.93,4.78-2.82,1.24,.66-.04,2.59,1.72,2.75,.4,1.43,.79,2.86,1.19,4.29-.56,2.28-2.37,3.44-4.14,4.65-2.73,1.86-5.44,3.73-8.16,5.59,.43-1.31,.72-2.45,2.38-3.13,2.37-.97,2.91-3.72,1.13-5.5-1.38-1.38-1.35-2.7-1.09-4.28l.25,.07Z"/><path class="am" d="M445.68,445.78c.04,.86-.74,1.1-1.2,1.58-1.54,.59-2.77-.24-4.05-.87-7.81-3.81-15.45-7.98-23.31-11.69-1.01-.88-2.93-.57-3.21-2.43,.13-.74,.58-1.23,1.2-1.6,6.92,3.4,13.84,6.8,20.76,10.2,3.27,1.61,6.55,3.2,9.82,4.8Z"/><path class="r" d="M413.9,432.37c.55,1.22,2.01,.4,2.74,1.22,7.26,4.84,14.25,10.08,21.27,15.26,1.1,.81,2.58,1.4,2.62,3.14-.06,.17-.11,.34-.16,.52l-1.26,.93c-.68-.21-1.39-.33-1.98-.78-7.79-5.91-16.14-11.09-23.37-17.74-.5-.2-.95-.44-1.05-1.03,.27-.61,.26-1.44,1.2-1.52Z"/><path class="cm" d="M323.57,457.55c.56,.24,1.15,.44,1.68,.74,1.01,.57,.97,1.46,.56,2.38-.42,.95-1.2,1.45-2.19,1.26-.94-.18-1.2-1.1-1.25-1.89-.04-.68,.26-1.39,.4-2.08,.26-.14,.53-.27,.8-.41Z"/><path class="b`" d="M433.48,458.06c1.07-.72,2.14-1.45,3.22-2.17,2.77,4.18,7.04,6.97,10.04,10.94-1.37,1.15-.97,3.72-3.28,4.12l-.59-.18c-1.23,.03-1.66-1.01-2.33-1.74-2.4-2.48-4.32-5.35-6.56-7.96-.61-.7-1.11-1.47-.76-2.47,.08-.19,.17-.37,.27-.55Z"/><path class="ab" d="M351.09,474.81c-.4,.54-.8,1.07-1.21,1.61-.22-2.41-1.42-4.24-3.37-5.61,.14-.41,.28-.82,.42-1.23,.27-.1,.55-.11,.82-.03,1.59,1.21,2.76,2.76,3.65,4.54,.03,.3-.08,.54-.31,.73Z"/><path class="d" d="M346.78,454.07l1.26,.31c1.26,.93,2.45,1.92,3.03,3.45,0,.3-.05,.58-.15,.86-.94,1.54-2.14,2.78-3.87,3.42-.89-.31-1.22-.05-.9,.88-.43,.87-1.09,1.33-2.09,1.21-.17-.06-.33-.15-.48-.25-.78-1.72-1.57-3.43-2.35-5.15,1.34-2.17,4.21-2.56,5.54-4.75Z"/><path class="f" d="M344.07,464.21c.63-.46,1.26-.92,1.88-1.38,2.15,.97,2.48,3.08,3.12,5-.06,1.03-.64,1.64-1.58,1.96-.2-.04-.39-.12-.57-.22-.95-1.79-1.91-3.57-2.86-5.36Z"/><path class="ce" d="M424.47,463.52l1.08-.89c.94-1.26,2.09-2.05,3.76-1.66,3.66,4.05,6.48,8.69,9.36,13.3,.78,1.63,2.24,2.82,2.93,4.51,1.2,3.37,4.19,5.62,5.56,8.88-.52,.71-1.84,.8-1.84,1.81,0,3.43-1.94,3.14-4.22,2.35-2.04-1.28-2.58-3.63-3.72-5.5-4.23-6.98-8.23-14.1-12.5-21.06-.32-.52-.54-1.1-.41-1.75Z"/><path class="bv" d="M438.46,474.52c-3.37-4.29-6.39-8.81-9.31-13.41,.33-1.49,1.54-1.83,2.78-2.12l1.28-.38c2.56,3.42,5.13,6.83,7.69,10.25,0,.61-.26,.74-.76,.39-2.27,1.18-2.16,2.6-.43,4.21,.47,.44,.44,.46-.68,1.25-.27,.18-.47,.13-.58-.19Z"/><path class="ax" d="M441.36,491.61c1.09-.94,1.95-.26,2.81,.5,.59-1.84-1-5.05,2.99-4.45,2.02,2.71,4.24,5.29,5.74,8.37-.42,.75-.83,.93-1.63,.31-1.62-1.25-3.33-1.04-4.96,.09-.64,.28-1.3,.33-1.97,.2-1.1-.28-2.19-.6-3.08-1.35-.42-1.68,.39-1.36,1.33-.91-.45-.83-1.52-1.51-1.22-2.76Z"/><path class="i" d="M459.94,505.94c-2.18-3.28-4.36-6.56-6.54-9.85,2.89-1.77,4.86-.87,5.17,2.38,.1,1,.01,2.03,.91,2.79,1.64,1.4,1.31,3.02,.45,4.68Z"/><path class="bv" d="M438.46,474.52c.19,.06,.38,.13,.58,.19,1.35,1.04,2.83,2.01,2.57,4.08-1.54-1.06-2.37-2.64-3.14-4.26Z"/><path class="n" d="M440.15,469.25l.76-.39c.65,.64,1.31,1.28,1.96,1.92-1.85,1.15-2.21-.33-2.72-1.54Z"/><path class="g" d="M361.62,484.26c-1.33,1.1-1.16,3.15-2.65,4.15-.19-.49-.1-.9,.38-1.18-.08-.62,0-1.17,.4-1.7,.33-.42,.13-1.37-.13-1.25-2.97,1.44-1.83-2.51-3.54-2.62,.1-.42,.2-.84,.3-1.26,2.71-.03,4.17,1.66,5.24,3.86Z"/><path class="bv" d="M359.35,487.23l-.38,1.18c-.24,1.71-1.57,2.92-2.09,4.5-.07,.19-.14,.37-.21,.56-.56-1.7,.39-3.28,.42-4.95,.02-1.17,1.08-1.56,2.25-1.28Z"/><path class="ag" d="M346.58,494.77c.12-1.04,.24-2.08,.35-3.13,1.61-.36,1.41-2.99,3.48-2.77-1.09,2.09-2.13,4.2-3.83,5.89Z"/><path class="f" d="M351.09,474.81c0-.15,.03-.31,.06-.46,.24-.69,.44-1.4,1.16-1.77,.3-.04,.58,.01,.85,.15,1.56,1.93,3.92,3.19,4.75,5.72-.08,.9-.51,1.44-1.47,1.43-2.16-1.29-3.47-3.48-5.35-5.06Z"/><path class="ck" d="M356.44,479.88l1.25-1.47c.14-.04,.29-.08,.44-.13,2.07,.79,3.64,2.1,4.4,4.25,0,.67-.22,1.21-.88,1.49l-.02,.24c-1.75-1.29-3.49-2.57-5.24-3.86,.03-.17,.05-.35,.05-.53Z"/><path class="f" d="M361.65,484.03l.56-1.66c.43-.25,.86-.2,1.29-.03,1.04,.59,1.96,1.37,3.07,1.87,.58,.31,1.11,.66,1.38,1.3,.16,.93-.13,1.65-.95,2.15-.22-.03-.44-.07-.66-.1-1.17-1.7-3.46-1.9-4.68-3.53Z"/><path class="ag" d="M363.9,495.17c-.57,1.75-1.14,3.49-1.7,5.24-.34-2.04,.21-3.8,1.7-5.24Z"/><path class="ce" d="M376.43,502.43c-.99,2.73-1.78,5.5-2.06,8.4-1.38,1.52-2.19,3.24-2.02,5.36,.12,1.44-.62,2.65-1.12,4.43-.55-3.4-1.83-5.82-3.47-8.27-1.38-2.07-.33-4.84,.17-7.23,.2-.97,.88-1.8,.13-2.79,1.25-3.89,2.5-7.78,3.75-11.67,.15-.07,.29-.14,.44-.22,2.41,.13,3.95,2.17,6.13,2.79,1.32,1.36,4.08,.87,4.47,3.44l-.14,.1c-.17,.11-.36,.2-.56,.21-4.97,.24-5.5,.75-5.74,5.44Z"/><path class="ck" d="M366.99,487.66c.23-.73,.47-1.46,.7-2.19,1.75,.05,2.83,1.41,4.23,2.15,.2,.22,.34,.49,.41,.78,.07,.75,.1,1.5-.52,2.08v.18c-1.6-1-3.21-2-4.82-3Z"/><path class="i" d="M376.43,502.43c-.86-1.59-1.34-3.15,.24-4.64,1.8-1.7,3.78-2.22,6.06-1.01,1.79,2.87,1.54,5.54-.76,8.02-2.51,.77-3.74-1.46-5.53-2.36Z"/><path class="f" d="M391.43,500.09c-2.91-.54-5.24-2.47-8.02-3.31-.21-.77-.1-1.42,.67-1.84,2.76-.08,4.86,1.89,7.43,2.38,1.1,.42,2.34,.64,2.83,1.94-.6,1.59-2.09,.06-2.92,.83Z"/><path class="ck" d="M391.43,500.09c.62-1.56,1.73-.51,2.65-.5,1.74-.6,3.16,.15,4.56,1.05,.69,.76,.82,1.57,.2,2.44-.41-.06-.81-.12-1.22-.19-1.54-.54-3.07-1.08-4.61-1.62-.23-.78-1.08-.75-1.58-1.19Z"/><path class="cr" d="M383.96,495.17c-.19,.54-.37,1.07-.56,1.61-.19,0-.37-.03-.54-.11-1.31-1.54-3.63-1.32-4.96-2.84-.28-.7-.15-1.32,.41-1.83,1.87-.5,3.09,.88,4.55,1.57,.55,.41,.98,.9,1.09,1.6Z"/><path class="f" d="M398.83,503.08c-.02-.59-.04-1.18-.06-1.77,.28-.23,.6-.35,.96-.38,2.45,.22,4.69,1.17,6.95,2.03,.31,.15,.59,.36,.84,.6,.59,.75,.7,1.52,.15,2.35-1.58-.44-3.16-.88-4.74-1.33-1.37-.5-2.74-.99-4.1-1.49Z"/><path class="cn" d="M411.88,511.05l-.33-3.24c2.08,.88,1.98,2.43,2.04,3.89-.57-.22-1.14-.43-1.71-.65Z"/><path class="ae" d="M407.11,520.38c.01-.35-.07-.74,.06-1.04,.54-1.19-2.06-.94-1.01-2.28,.13-.16,.67-.24,.77-.13,.92,.98,1.2,2.13,1.16,3.32l-.98,.12Z"/><path class="bt" d="M445.6,516.45l-.71,.17c-2.15-1.24-2.24-3.74-3.21-5.64-1.16-2.26-2.21-4.61-3.28-6.94-.21-.54-.31-1.11-.25-1.69,.07-.6,.11-1.2,.19-1.8,.4-2.83,.61-2.94,3.44-1.81-.22-.12-1.34-1.48-1.42-1.75,1.83-.44,3.35,0,4.5,1.52l.37,.86c1.35,.99,1.18,2.11,.53,3.5-1.5,3.2-.74,4.63,2.65,5.02,1.87,.21,3.02,1.09,3.65,2.78-.39,3.9-3.82,4.39-6.47,5.76Z"/><path class="i" d="M452.07,510.69c-1.46-1.09-2.54-2.42-4.95-1.97-2.3,.43-3.88-3.65-2.18-5.81,1.04-1.32,.84-2.3,.3-3.52,2.21,.13,2.2,2.28,3.08,3.55,1.78,2.55,3.29,5.3,4.91,7.97l-1.16-.21Z"/><path class="ck" d="M444.86,498.53c-1.61-.28-3.1-1.22-4.82-.86-1.87,.56-3.49-.06-5.03-1.05-.79-1.09-1.78-2.12-1.26-3.67,.8-.43,1.67-.4,2.54-.38,1.7,.41,3.57,.45,4.74,2.08,1.16,.42,2.31,.85,3.47,1.27,.29,.5,.93,.82,.81,1.55l-.46,1.08Z"/><path class="ah" d="M453.18,501.22c2.77-.25,.5,2.27,2.1,2.88-4.73,.42-4.89,.29-4.04-2.81,.64-.32,1.27-.78,1.94-.07Z"/><path class="cj" d="M453.18,501.22c-.65,.02-1.29,.05-1.94,.07,.17-.87,.68-1.41,1.58-1.24,.67,.12,.39,.73,.36,1.17Z"/><path class="f" d="M445.32,497.45c-.49-.4-.77-.91-.81-1.55,.6,.18,1.2,.35,1.79,.53-.2,.46-.35,.97-.98,1.02Z"/><path class="bu" d="M394.43,426.75c1.65,.45-.17,1.47,.35,2.1,.2,.14,.26,.24,.17,.32-.1,.08-.18,.12-.25,.09-.34,.19-.94,.6-.99,.54-.55-.66-.39-1.44-.25-2.21,.32-.28,.65-.56,.97-.85Z"/><path class="bs" d="M360.15,444.11c7.04-3.75,14.66-6.2,21.86-9.59,2.83-1.33,5.99-1.96,8.55-3.88,.26-.13,.51-.26,.77-.39,1.38,.05,1.96,1.06,2.5,2.1-.39,.4-.9,.51-1.41,.64-1.05,.18-1.99,.64-2.91,1.17-9.42,4.01-18.68,8.41-28.37,11.79-.72-.09-.97-.58-1.03-1.23,.05-.2,.06-.4,.03-.61Z"/><path class="bt" d="M437.39,520.18c-1.15,.86-2.29,1.73-3.44,2.59-1.89-.68-3.29,.69-4.91,1.17-.48-1.92-.96-3.83-1.45-5.75-.14-.24-.23-.49-.28-.76,.25-1.35-.9-2.61-.26-3.99,.44-.42,.89-.82,1.5-.99,.55-.16,1.66,.51,1.47-.82-.12-.84-.18-1.66-1.38-2.07-3.7-1.27-3.92-1.83-3.6-5.52,.11-1.24,.8-1.72,1.77-2.19,1.1-.53,1.49,.19,2.26,.73,.84,.59,1.13,1.94,2.46,1.85,1.61,1.38,1.85,3.44,2.62,5.23,1.05,2.64,2.06,5.29,3.03,7.96,.3,.82,.92,1.64,.2,2.56Z"/><path class="l" d="M427.75,517.58c-.05,.2-.09,.41-.14,.61-.47,.18-.95,.36-1.42,.54-2.55,.95-6.28,.44-6.65-1.12-.61-2.58,.25-4.8,2.6-6.27,.43-.46,.99-.59,1.58-.63,.75,0,1.43,.22,2.01,.7,.2,.2,.36,.44,.47,.7,.4,1.86,1.26,3.59,1.54,5.48Z"/><path class="ap" d="M423.47,511.15c-.4,.4-.87,.28-1.33,.18-1.84-.36-3.47-1.78-5.51-1.15-.37-.37-.36-.81-.23-1.28,2.42-.92,4.39,.4,6.43,1.32,.31,.24,.52,.55,.65,.92Z"/><path class="ck" d="M407.67,505.9l-.07-1.75c2.58-.97,4.68,.76,7,1.24,.69,.29,1.38,.6,1.84,1.24,.34,.8,.15,1.44-.6,1.91l-8.17-2.63Z"/><path class="f" d="M415.84,508.53c.17-.53,.34-1.06,.52-1.6,3.23-.81,5.85,.83,8.56,2.14,.44,.42,.54,.92,.31,1.48-.68,1.03-1.61-.07-2.37,.27-2.16-.64-4.32-1.28-6.48-1.92-.18-.12-.36-.25-.54-.37Z"/><path class="c`" d="M437.39,520.18c-1.28-3.46-2.55-6.91-3.83-10.37-.04-1.02,1.03-1.09,1.49-1.7,1.28-1.71,2.17-1.65,2.33,.69,.03,.4,.19,.68,.09,.28,0-.02,.06-.05,.26-.2-.39-1.77-1.45-3.85,1.01-5.16,2.71,3.98,4.18,8.56,6.14,12.9-2.36,1.14-4.83,2.06-6.97,3.62-.17-.05-.34-.07-.52-.07Z"/><path class="n" d="M407.64,467.74l.25,.15,.28,.09c1.11,.01,1.28,.95,1.42,1.68,.85,4.37,1.89,8.71,2.43,13.14,.07,.61-.02,1.22-.46,1.71-1.73,.56-2.09-.76-2.36-1.89-.52-2.21-1.78-3.27-4.07-3.01-.29-.08-.54-.24-.74-.47-.48-3.69-1.74-7.32-.69-11.11l3.94-.28Z"/><path class="bd" d="M403.7,468.02c.27,3.73,1.21,7.41,.93,11.19-.57,2.02-1.26,1.93-2.48,.34-2.02-2.65-3.58-5.41-3.49-8.86-.27-.86-.56-1.72-.09-2.61,.43-.09,.86-.17,1.29-.26,1.28,.07,2.56,.13,3.84,.2Z"/><path class="q" d="M412.35,437.03l-.76,.38"/><path class="ce" d="M435.74,493.06c-.65,.5-1.31-.01-1.97,.02-2.77,.49-5.16-.57-7.51-1.8-1.2-1.29-1.87-2.88-2.48-4.5-2.18-5.79-4.27-11.62-6.58-17.36-.41-1.01-.97-2.07-.06-3.13,.3-.23,.6-.47,.91-.7,.74-.98,1.72-1.14,2.84-.84,1.22,1.03,1.82,2.48,2.36,3.89,2.62,6.78,6.63,12.9,9.28,19.66,.73,1.87,2,3.27,3.21,4.76Z"/><path class="n" d="M417.14,466.29c1.66,6.19,4.5,11.95,6.53,18,.71,2.11,1.65,4.15,2.48,6.22-.1,.14-.19,.27-.29,.41-2.29,1.03-4.17-.35-6.18-1.02-.94-.51-1.56-1.32-1.85-2.32-1.97-6.7-4-13.38-5.77-20.14,.87-1.74,2.39-1.56,3.93-1.31l1.14,.15Z"/><path class="ce" d="M409.68,467.43c.84-.04,1.69-.09,2.54-.13,2.69,5.52,3.6,11.61,5.51,17.38,.5,1.52,.51,3.26,1.81,4.46,.07,.37-.06,.63-.41,.78-1.99,.2-3.82-.46-5.65-1.06-.94-1.36-1.5-2.9-2.12-4.41-.49-5.6-1.52-11.09-3.18-16.47,.5-.18,1.01-.37,1.51-.55Z"/><path class="at" d="M398.94,436.5c-3.8,4.04-6.28,9.01-9.47,13.48-3.03,4.26-5.85,8.68-8.76,13.02-.3,.19-.62,.25-.97,.2-.51-.15-.9-.43-1.05-.98-.12-1.35,.76-2.28,1.43-3.29,4.99-7.46,9.94-14.94,14.95-22.38,.56-.62,.99-1.39,1.94-1.51,.83-.17,1.58,0,2.24,.53-.1,.31-.21,.61-.31,.92Z"/><path class="p" d="M384.04,464.84c1.37-.02,2.5,1.16,3.94,.79,.43,.28,.86,.56,1.29,.83,.6-.11,.77,.4,.43,.59-.89,.48-1.47,1.37-2.44,1.71-1.48-.07-2.89,.58-4.39,.4-.28-.21-.43-.48-.48-.82,.01-1.42,.28-2.73,1.65-3.5Z"/><path class="ch" d="M387.41,468.29c.62-.61,1.24-1.22,1.86-1.82,.09-.2,.23-.28,.41-.23,1.49,.42,2.98,.83,4.47,1.25,.03,.67-.42,1.04-.86,1.41q-3.24,2.49-5.61,.2c-.18-.24-.26-.51-.27-.81Z"/><path class="i" d="M393.21,468.37c.31-.3,.63-.59,.94-.89,1.25,.12,2.5,.24,3.76,.36,.22,.08,.44,.16,.66,.24,.19,.72,.39,1.43,.58,2.15,.4,5.73,.45,11.47,.43,17.22,0,.91-.04,1.83-.74,2.56-.33-.15-2.78,.44-3.5,.81-1,.53-2.02,.94-3.12,.27-1.57-2.87-.12-5.86-.32-8.78,.03-.59,.06-1.17,.21-1.74,.55-.99,1.33-1.94,.64-3.18,.24-.91-.33-1.7-.37-2.58,.17-2.16-.12-4.38,.84-6.43Z"/><path class="n" d="M420.83,464.94c1.03-.49,2.06-.98,3.09-1.47,.18,0,.37,.02,.55,.05,4.2,6.09,7.72,12.6,11.46,18.96,1.8,3.05,3.62,6.09,5.42,9.13,.6,.89,1.21,1.79,1.89,2.81-.82,.08-1.52,.14-2.21,.21-1.77-.53-3.53-1.05-5.3-1.58-3.55-.69-3.82-4.15-4.87-6.52-1.91-4.3-4.25-8.37-6.18-12.64-1.34-2.96-2.58-5.97-3.86-8.96Z"/><path class="ci" d="M394.34,432.7c1.01,.26,1.63,.98,2.15,1.82,.08,.86-.52,1.37-1.01,1.93-5.58,6.07-11.81,11.46-17.81,17.09-1.74,1.63-3.06,3.89-5.67,4.45-.5-.02-.92-.21-1.24-.59-.19-.45-.19-.92-.07-1.39,3.25-4.33,7.63-7.53,11.38-11.36,3.48-3.55,7.31-6.75,10.79-10.3,.36-.67,.74-1.32,1.48-1.65Z"/><path class="bs" d="M394.34,432.7l-.71,2.2c-4.99,2.94-9.63,6.44-14.68,9.29-4.5,2.54-8.41,6.11-13.42,7.77-.97-.27-1.62-.79-1.55-1.9,3.16-3.11,7.21-4.91,10.87-7.27,4.88-3.14,9.7-6.37,14.87-9.03,.84-.48,1.69-.94,2.65-1.13,.42-.44,.92-.41,1.45-.27l.52,.35Z"/><path class="bu" d="M394.69,429.26c.05-.13,.08-.27,.08-.41,.58,.39,1.15,.8,1.92,.55l.02,.03c.27,.42-.09,.94,.2,1.36v-.03c-.07,.2-.12,.39-.16,.59-1.72,.32-1.75-1.02-2.06-2.08Z"/><path class="bu" d="M396.91,430.79c-.42-.4-.36-.87-.2-1.36,.2,.05,.4,.11,.59,.16-.13,.4-.26,.8-.39,1.2Z"/><path class="cd" d="M360.11,444.73l.91,.96c1.54,.37,2.26,1.29,1.93,2.9-1.91,3.12-4.41,1.75-6.84,.89-.48-.24-.9-.54-1.11-1.06-.16-.1-.32-.22-.48-.34,2.29-.42,4.05-1.7,5.59-3.36Z"/><path class="j" d="M350.66,458.47c.01-.17,.06-.33,.14-.48,.24-.16,.51-.26,.8-.3,3.52,.17,3.87-.14,4.25-3.74-.01-2.21-2.42-2.33-3.29-3.8-1.02-.26-2.57,.05-2.03-1.88,1.11,.1,2.01,.64,2.82,1.37,2.07-.45,3.87,.53,5.76,1.06,1.29,.46,2.62,.8,3.87,1.39,.29,.16,.55,.37,.77,.61,.21,.26,.26,.56,.18,.88-2.37,2.14-4.7,4.33-6.76,6.79-.69,.84-1.47,1.52-2.63,1.57-1.72-.67-3.24-1.57-3.87-3.45Z"/><path class="i" d="M352.57,450.16c1.94,.63,4.34,.78,3.93,3.82-1.45,1.74-2.85,3.56-5.27,4.04-.14,0-.29-.02-.43-.03-.93-1.2-2.45-1.94-2.76-3.61,.33-2.67,2.81-3.05,4.53-4.23Z"/><path class="cf" d="M359.2,451.67c-1.95-.68-3.9-1.35-5.84-2.03,.55-.41,1.1-.81,1.65-1.22,.4,.1,.8,.2,1.2,.3,.9,1.07,2.47,.75,3.45,1.65,.13,.53-.01,.96-.45,1.3Z"/><path class="ck" d="M352.48,472.68c-.35,.63-.43,1.48-1.33,1.67-1.22-1.52-2.43-3.04-3.65-4.56,.44-.68,.88-1.36,1.32-2.04,.14-.02,.28-.05,.41-.07,1.42,1.45,3.17,2.68,3.25,5Z"/><path class="f" d="M350.66,458.47c1.36,1.06,2.72,2.11,4.09,3.17,.01,.15,.02,.3,.04,.44-.62,1.59-1.55,2.88-3.25,3.46-.31,0-.6-.06-.88-.18-1.41-1.07-3.28-1.66-3.83-3.63,1.28-1.09,2.56-2.18,3.84-3.27Z"/><path class="bx" d="M346.82,461.74c1.3,1.22,3.08,1.87,4.1,3.42,.44,1.76-.49,2.34-2.04,2.38l-.06,.21c-.96-1.64-1.91-3.28-2.87-4.92-.17-.73-.15-1.31,.87-1.09Z"/><path class="b`" d="M357.69,478.41c-1.41-1.98-3.84-3.08-4.74-5.5-.29-3.36,2.06-3.13,4.24-3.14,1.56,.18,3.06,.57,4.43,1.38,.42,.31,.71,.7,.76,1.24-1.26,2.18-2.2,4.62-4.67,5.83l-.02,.18Z"/><path class="g" d="M356.96,470.43c-1.85,0-3.55,.24-4.01,2.48-.16-.07-.32-.14-.48-.22-1.2-1.71-2.4-3.43-3.6-5.14,.9-.6,1.87-1.15,2.04-2.38,.22,.02,.44,.05,.66,.07,2.23,.41,2.69,2.82,4.35,3.87,.46,.35,.95,.68,1.03,1.32Z"/><path class="bv" d="M357.71,478.23c1.59-1.79,2.2-4.34,4.43-5.63,2.22-.57,3.43,.76,4.48,2.38,.09,.31,.11,.63,.06,.95-.94,2.29-2.41,4.38-2.78,6.91,0,.02-.16,.04-.23,.01-.09-.03-.17-.1-.26-.15-.4-.11-.8-.22-1.2-.33-1.5-1.38-2.99-2.76-4.49-4.14Z"/><path class="p" d="M371.94,488.09c-1.7-.41-3-1.48-4.25-2.62-.53-.25-1.06-.51-1.59-.76,3-2.3,3.76-5.31,2.84-8.87,.85-.26,1.66-.08,2.47,.19,1.56,.55,3.05,1.21,3.82,2.83,.18,3.22-1.29,6.01-2.31,8.91-.15,.41-.55,.52-.98,.32Z"/><path class="t" d="M368.76,476.17c.63,.96,2.51,1.19,1.6,3.07-1.05,2.14-.72,5.28-4.26,5.47-1.06-.45-2.1-.93-2.69-2.01-.36-2.81,1.43-4.73,2.81-6.82,.9-.36,1.79-.7,2.54,.29Z"/><path class="f" d="M378.46,492.18c-.19,.55-.37,1.1-.56,1.65-2.32-.6-4.01-2.33-6.1-3.35,.04-.61,.08-1.23,.12-1.84,2.57-.34,4.26,1.35,6.12,2.66,.23,.25,.37,.55,.42,.89Z"/><path class="ce" d="M377.96,491.78c-2.01-1.05-4.02-2.1-6.04-3.15,0-.18,0-.36,.01-.54,1.02-3.11,2.04-6.21,3.07-9.32,.1-.1,.21-.2,.31-.3,1.99-.78,3.78-1.64,1.73-4.12-.69-1.11-.73-2.28-.36-3.49,.58-1.93,1.16-3.85,1.49-5.85,.17-1.04,.63-1.93,1.87-2.05,.22,.02,.45,.03,.67,.05,1.11,.61,2.22,1.22,3.33,1.84-.44,1.36-.88,2.73-1.32,4.09-.64,2.33-3.04,4.45-.83,7.11,.45,.91,.25,1.69-.46,2.37-2.13,1.78-2.36,3.95-1.28,6.38,.19,.63,.25,1.26,.17,1.91-.51,1.82-.57,3.85-2.35,5.08Z"/><path class="p" d="M392.5,490.86c2.25,.24,3.47-1.36,5.07-2.99,.34,.86,.63,1.57,.91,2.28,.44,.22,.69,.59,.81,1.05,.18,3.37,.17,6.75,.1,10.13-.21,0-.41-.01-.62-.02-1.57-.57-3.13-1.14-4.7-1.72-.62-.99-1.87-.77-2.67-1.41-.58-2.27-.18-4.49,.36-6.7,.18-.29,.43-.49,.74-.62Z"/><path class="ce" d="M392.28,491.31c-.26,2.29,.03,4.66-.88,6.87-2.69-.49-4.93-2.08-7.44-3.01-.33-.33-.67-.65-1-.98,.94-2.01,.53-4.34,1.55-6.33,.18-.24,.38-.44,.62-.62,1.04-.6,2.11-.86,2.96,.23,1.19,1.53,2.97,2.37,4.19,3.85Z"/><path class="p" d="M385.05,487.8c-.35,1.9-.74,3.79-1.03,5.7-.11,.75-.52,.74-1.06,.69-1.5-.67-3-1.34-4.5-2.01-.17-.13-.33-.26-.5-.39,.62-1.93,1.24-3.87,1.85-5.8,1.85,.31,3.65,.75,5.23,1.81Z"/><path class="p" d="M414.67,506.23c-2.36-.69-4.71-1.39-7.07-2.08-.18-.12-.36-.24-.53-.35-.86-2.28-.61-4.69-.85-7.05,.05-.3,.15-.59,.29-.87,.34-.53,.8-.9,1.46-.94,2.39,1.93,1.68,5.01,2.87,7.39-1.12-2.54-.32-5.79-3.01-7.77-.88-1.66-.21-2.67,1.41-3.16,1.22-.36,2.4-.98,3.75-.74,.44,.23,.71,.61,.87,1.06,.34,3.88,1.58,7.62,1.89,11.5,.09,1.09,.83,2.55-1.06,3Z"/><path class="ce" d="M406.74,496.61c.33,2.39,.93,4.76,.33,7.19-2.56-.82-5.12-1.64-7.68-2.47-1.59-3.35-.53-6.84-.54-10.27,.88-.38,1.55,.24,1.64,.83,.55,3.67,3.24,4.39,6.25,4.72Z"/><path class="b`" d="M438.75,503.72c0,1.44-2.03,2.73-.02,4.43,.62,.53-1.29,1.23-1.79,2.64-.12-1.43-.2-2.36-.28-3.31-1.21,.56-1.34,2.52-3.08,2.32-.73-1.74-1.47-3.49-2.2-5.23-2.42-2.98-2.99-6.82-4.66-10.15,.28-.43,.71-.58,1.19-.61,1.88,.27,3.84,.17,5.57,1.15,2.59,1.84,4.73,4.01,5.08,7.39l.2,1.36Z"/><path class="bm" d="M438.55,502.36c-1.74-2.15-2.2-5.25-4.95-6.64,.46-.31,.87-.24,1.24,.17,1.74,.59,3.47,1.18,5.21,1.77l4.48,1.44c-2.42,.64-3.79-1.1-4.87-.55-1.23,.64-.14,2.66-1.1,3.8Z"/><path class="bf" d="M434.83,495.89c-.41-.06-.83-.11-1.24-.17-2.01-.49-4.02-.97-6.03-1.46-1.02-.96-2.07-1.91-1.41-3.54v-.2c2.54,.86,5.08,1.72,7.62,2.57,.3,.96,1.57,1.54,1.06,2.8Z"/><path class="p" d="M426.77,494.68c2.5,1.31,2.08,4.21,3.33,6.21,.67,1.08,.86,2.45,1.27,3.68-.54,0-1.19,2.64-1.73-.16-.15-.76-1.26-2.35-3.02-1.75-.53,.18-1,.19-.94,.86,.13,1.55,.3,3.1,.45,4.65,1.2-.59,1.89,1.96,3.52,.52,.29-.26,.99,2.24,1.32,3.49,.21,.79-.44,1.74-1.45,.94-1.1-.87-1.42,1.12-2.34,.46-.9,.11-1.1-.69-1.55-1.18,.05-.18,.09-.35,.12-.53-.08-.19-.09-.36-.01-.52,.08-.16,.14-.23,.17-.22,.43-.21,.9-.14,1.36-.16,.4-.01,.58-.31,.22-.13s.06-.51-.19-.18c-2.08-.92-3.32-2.28-3.87-4.64-.71-3.03-1.89-5.97-2.77-8.98-.31-1.06-1.1-2.28,.19-3.31,2,.18,4.18-.79,5.92,.94Z"/><path class="i" d="M425.63,512.4l1.55,1.18c.2,1.33,1.5,2.51,.57,4.01-1.33-1.47-1.35-3.48-2.12-5.19Z"/><path class="aw" d="M426.02,511.39c-.08,.16-.17,.32-.26,.47-.76-.24-1.52-.47-2.29-.71-.2-.11-.4-.22-.6-.33,.67-.49,1.33-.1,1.99,0,.55-.16,.94,.03,1.16,.56Z"/><path class="ce" d="M420.53,494.07c1.12,4.5,3.12,8.75,3.83,13.36,.35,2.23,2.9,1.65,3.8,3.13-1.23,.65-2.15,.13-2.98-.77-2.94-.95-5.88-1.9-8.83-2.85-.56-.23-1.13-.47-1.69-.7,1.17-3.24-.37-6.27-.79-9.38-.23-1.69-.93-3.31-.41-5.06,2.31-.78,4.47-.32,6.53,.85,.42,.38,.63,.85,.53,1.43Z"/><path class="ck" d="M425.19,509.78c.99,.26,1.99,.51,2.98,.77,.44,.44,1.62,.24,1.36,1.21-.22,.81-.99,.24-1.5,.14-.68-.12-1.34-.34-2.01-.52-.39-.19-.77-.37-1.16-.56,.11-.35,.22-.7,.33-1.04Z"/><path class="l" d="M406.74,496.61c-3.84,1.18-5.59,.24-6.53-3.68-.22-.9-.73-1.37-1.35-1.87-.12-.3-.24-.61-.36-.91,.11-5.34,.22-10.68,.35-16.03,.03-1.3-.31-2.64,.32-3.89,.16,.25,.5,.53,.47,.75-.55,3.42,1.8,5.64,3.23,8.29,.94,1.75,1.21,.13,1.78-.05,.18,.02,.36,.04,.53,.06,1.61,2.94,.64,6.4,1.9,9.41,.14,.57,.22,1.15,.24,1.74-.18,1.85,0,3.74-.42,5.58l-.14,.61Z"/><path class="i" d="M406.49,488.75c-1.4-3.02-1.12-6.28-1.33-9.48,2.79-1.59,3.66,.4,4.53,2.43,.42,.99-.17,2.6,1.66,2.75,1.51,.89,2.14,2.2,1.93,3.93,.71,.93,1.05,1.81-.25,2.54-1.29,.16-2.27,1.16-3.68,1.15-1.61,0-1.63,1.14-1.22,2.35,.25,.34,.17,.57-.22,.69-.34,.29-.68,.59-1.03,.88-.8-1.9-.57-3.8,0-5.7,.22-.6,.71-1.27-.38-1.55Z"/><path class="ck" d="M420.53,494.07l-.49-.82c-.69-1.14-1.78-2.2-.84-3.71,.11-.14,.22-.27,.34-.4,2.17,.68,4.32,1.42,6.61,1.57,.47,1.18,.94,2.36,1.41,3.54-.27,.14-.53,.28-.8,.42-2.05-.5-4.24,.49-6.23-.61Z"/><path class="e" d="M419.2,489.54c.28,1.24,.56,2.47,.84,3.71-2.19-.49-4.38-.97-6.57-1.46-.15-.29-.3-.58-.45-.87,.66-.79,.17-1.69,.25-2.54,2.06-.04,3.98,.62,5.92,1.16Z"/><path class="p" d="M377.35,461.44c.54,.32,1.07,.64,1.61,.96,.36,.19,.72,.37,1.08,.56-1.38,3.68-3.18,7.28-2.31,11.42-.45,.25-.92,.33-1.43,.26-1.37-.3-2.54-.93-3.29-2.18-.13-.33-.19-.67-.19-1.03,.78-3.66,1.62-7.29,4.53-9.98Z"/><path class="i" d="M385.05,487.8c-2.03,.22-3.8-.31-5.23-1.81-.11-.42-.22-.84-.33-1.27-.25-2.41,.46-4.61,1.51-6.74,.65-.4,.86-.93,.54-1.65-.48-2.7-.16-5.21,1.73-7.35,1.22-1.19,2.66-1.05,4.14-.7,.17,.13,.34,.26,.51,.38,.75,1.44,.09,2.85-.25,4.17-.51,1.96-.02,3.12,1.97,3.6,.22,.95-.07,1.77-.63,2.52-.53,.68-1.53,.74-1.98,1.53-1.22,2.23-.57,4.98-2,7.15l.03,.15Z"/><path class="l" d="M383.26,468.98c-.58,2.45-1.15,4.9-1.73,7.35-2.26-2.47-1.97-4.31,1.19-7.4,.18,.03,.36,.04,.54,.05Z"/><path class="l" d="M389.18,476.21c-.73,.27-1.71,.97-2.12,.72-.78-.47-.54-1.54-.35-2.44,.43-1.93,.8-3.88,1.2-5.82,1.94,2.91,3.57,.43,5.3-.3,.33,2.36,.1,4.7-.34,7.03-.44,.27-.86,.58-1.38,.71-.76,.25-1.53,.41-2.31,.1Z"/><path class="l" d="M385.02,487.65c.03-2.71,.48-5.35,1.35-7.92,.74,.33,1.32-.48,2.05-.28,.93,.19,1.46,1.03,2.29,1.38,.71,.27,1.58,.18,2.04,.95,.05,3.03-.8,6.03-.25,9.07-.08,.15-.15,.3-.22,.45-1.78-.3-3.43-1.25-4.16-2.68-.88-1.73-1.93-1.13-3.1-.98Z"/><path class="as" d="M390.23,481.58l-1.94-1.93c-.26-.32-.21-.56,.18-.73,.24-.9,.48-1.81,.71-2.71,.77-.23,1.54-.45,2.32-.68,.83,.33,1.29,.97,1.49,1.81,1.31,1.27,.91,2.27-.49,3.11-.58,.73-1.52,.75-2.27,1.13Z"/><path class="bp" d="M392.99,477.34c-.6-.52-1.28-.97-1.49-1.81,.42-.44,.88-.44,1.37-.13,.96,.59,1.08,1.23,.12,1.94Z"/><path class="aw" d="M390.23,481.58c.4-1.1,1.44-.91,2.27-1.13,.08,.44,.16,.89,.24,1.33-.84-.07-1.68-.14-2.52-.21Z"/><path class="bt" d="M437.44,489.72c.79,.25,1.86-.13,2.25,1.06,.21,.64,.22,1.14-.28,1.63-.54,.52-1.09,.87-1.86,.51-.67-.31-.8-.83-.63-1.48,.16-.58,.35-1.15,.52-1.72h0Z"/><path class="aa" d="M437.44,489.72c.21-1.34-1.93,.07-1.73-1.54,.1-.81-.6-2,.64-2.08,.47-.03,1.88,.82,1.81,2.01-.03,.55-.47,1.07-.72,1.61h0Z"/><path class="by" d="M367.4,454.17c1.29,.55,1.81,2.26,3.44,2.29,.02,.29,.04,.58,.05,.87,.6,3.3-2.27,4.99-3.47,7.46-1.07,2.19-2.79,3.13-5.23,2.49-1.33-.26-2.45-.9-3.4-1.85-.19-.27-.26-.57-.21-.89,1.3-2.56,3.21-4.66,5.18-6.72,.23-.15,.49-.23,.77-.24,.25,.12,.66,.39,.77,.27,.31-.33-.3-.12-.3-.35-.13-.21-.19-.42-.2-.67,.02-.26,.06-.5,.14-.75,.16-.49,.21-.95-.27-1.31-.41-.29-.83-.56-1-1.07,.05-.14,.09-.27,.13-.41,1.51-1,2.47,.3,3.61,.87Z"/><path class="cq" d="M362.12,466.65c2.4,.42,3.79-.61,4.92-2.77,1.17-2.23,3.05-4.08,3.86-6.55,.37,.14,.73,.27,1.1,.41,.24,1.09,1.82,.76,2.02,1.9,.35,3.35-2.86,9.35-5.59,10.48-1.11-.06-2.12-.46-3.08-.98-1-.93-2.69-.95-3.23-2.49Z"/><path class="aj" d="M365.54,451.68c.05,.19,.03,.38-.05,.56-.68,.53-1.39,.25-2.1,.06-1.32-.55-2.91-.54-3.87-1.84-1.09-.62-2.52-.59-3.33-1.75,2.25,.71,4.56,2.11,6.58-.46,.48,.64,.95,1.27,1.43,1.91,.45,.51,.89,1.01,1.34,1.52Z"/><path class="a`" d="M363.67,453.71l1.79,.58c.4,.58-.01,1.15-.03,1.73l-.31,.9c-.62,.07-1.58-.59-1.62,.75-.95,1.67-2.23,3.1-3.19,4.71-1.07-.5-.65-1.09-.46-1.63-.27,.34-.26,.77-.41,1.15-.36,.88-1.03,.79-1.78,.63-1.72-.37-.82-1.76-1.09-2.7,2.44-1.96,3.76-5.22,7.12-6.12Z"/><path class="cp" d="M356.55,459.83c1.2,.25-.08,2.27,1.57,2.2,1.94-.08,1-2.21,2.12-2.94,.58,.89-.47,1.64-.17,2.64,1.29-1.38,1.63-3.41,3.32-4.37,.45-.05,.79,.06,.86,.57-1.65,2.28-3.29,4.57-5.36,6.52-2.22,.37-3.39-.94-4.3-2.68l.17-.15c.59-.62,1.55-.87,1.8-1.82Z"/><path class="l" d="M351.24,458.02c1.84-1.24,3.07-3.26,5.27-4.04,.08,4.35-1.41,5.5-5.27,4.04Z"/><path class="f" d="M359.53,450.47c1.37,.46,2.74,.91,4.11,1.37,.2,.49,.08,.86-.41,1.1-1.34-.42-2.69-.84-4.03-1.26,.11-.4,.22-.8,.33-1.2Z"/><path class="ck" d="M363.23,452.93c.14-.37,.27-.73,.41-1.1,.62,.14,1.24,.28,1.85,.41,.84,.44,1.49,1.07,1.91,1.93-1.2-.29-2.4-.58-3.6-.87-.19-.12-.38-.25-.57-.37Z"/><path class="ck" d="M354.58,461.79c1.43,.89,2.87,1.78,4.3,2.68,.02,.18,.04,.35,.04,.53-.49,2.13-1.66,3.71-3.65,4.66-1.23-1.47-2.46-2.95-3.69-4.42,1-1.15,2-2.3,3-3.45Z"/><path class="f" d="M355.28,469.66c1.22-1.55,2.43-3.11,3.65-4.66,1.07,.55,2.13,1.1,3.2,1.66,1.05,.63,2.4,.68,3.23,1.72-1.24,1.1-1.72,3.01-3.61,3.43-1.59-.45-3.18-.91-4.77-1.36-.56-.26-1.13-.51-1.69-.77Z"/><path class="ck" d="M361.73,471.79c1.4-.94,1.23-3.53,3.62-3.42,.98,.35,1.95,.71,2.93,1.06,.32,.39,.71,.73,.74,1.28-.3,1.89-1.03,3.54-2.7,4.64-1.2-1.22-2.55-2.21-4.19-2.75-.14-.27-.27-.54-.41-.81Z"/><path class="f" d="M366.33,475.35l2.37-5.13c2.07-.62,3.45,.38,4.58,1.96l-.11,.18c.5,1.99-.36,3.36-2.01,4.36-.8-.18-1.6-.36-2.4-.55-.85-.1-1.69-.19-2.54-.29,.02-.18,.06-.35,.11-.53Z"/><path class="ck" d="M371.16,476.71c.67-1.45,1.34-2.9,2.01-4.36,1.1,.58,2.21,1.16,3.31,1.74,.64,1.86,.17,3.37-1.47,4.49v.19c-1.29-.69-2.57-1.37-3.86-2.06Z"/><path class="f" d="M375.01,478.58c.49-1.5,.98-2.99,1.47-4.49,.42,.09,.84,.19,1.26,.28,.13,1.11,2.69,1.39,1.34,2.74-.92,.92-2.11,2.71-4.06,1.47Z"/><path class="l" d="M381,477.98c.12,2.39-.7,4.56-1.51,6.74-1.61-2.72-1-4.94,1.51-6.74Z"/><path class="ck" d="M407.91,495.12c.07-.23,.15-.46,.22-.69,1.51,.1,2.05,1.15,2.33,2.42,.45,2.07,.87,4.16,1.33,6.23,.12,.54,.68,1.23-.28,1.44-.6,.13-1.04-.24-1.24-1-.73-2.81-1.57-5.6-2.36-8.39Z"/><path class="u" d="M406.49,488.75c.48-1.21,1.13-.85,1.6-.07,.84,1.41-.65,1.19-1.22,1.62-.13-.52-.25-1.04-.38-1.55Z"/><path class="ce" d="M373.28,472.18c-1.65-.37-2.84-1.8-4.58-1.96l-.42-.8c.52,.06,1.13,.1,1.34-.45,1.27-3.21,3.5-5.96,4.4-9.34,1.36,.14,2.15,1.34,3.33,1.8-1.39,3.57-3.25,6.95-4.07,10.73Z"/><path class="cg" d="M388.47,478.92c-.06,.24-.12,.49-.18,.73-.64,.15-1.24,1.18-1.93,.08,.46-.9,1.23-1.01,2.11-.81Z"/></g></g></g></svg>