<?xml version="1.0" encoding="UTF-8"?><svg xmlns="http://www.w3.org/2000/svg" viewBox="0 0 694.21 827"><defs><style>.d{fill:#48403a;}.e{fill:#911a1e;}.f{fill:#c61f24;}.g{fill:#d8181c;}.h{fill:#b30916;}.i{fill:#d4181c;}.j{fill:#ceb98e;}.k{fill:#af181c;}.l{fill:#be171c;}.m{fill:#cf181c;}.n{fill:#fdfcfc;}.o{fill:#c2181e;}.p{fill:#c8181b;}.q{fill:#c4171c;}.r{fill:#ce1d24;}.s{fill:#df181c;}.t{fill:#d0171d;}.u{fill:#de181c;}.v{fill:#0f0909;}.w{fill:#bd181e;}.x{fill:#cb171d;}.y{opacity:.9;}.a`{fill:#c3181e;}.aa{fill:#b1191e;}.ab{fill:#d0171e;}.ac{fill:#d3181e;}.ad{fill:#d3181c;}.ae{fill:#cc171e;}.af{fill:#b6181e;}.ag{fill:#ce171e;}.ah{fill:#c5171b;}.ai{fill:#af191e;}.aj{fill:#ae191e;}.ak{fill:#c7181e;}.al{fill:#ad191e;}.am{fill:#be171d;}.an{fill:#b8171d;}.ao{fill:#130d0d;}.ap{fill:#b8181e;}.aq{fill:#b3191e;}.ar{fill:#100a0a;}.as{fill:#c6181c;}.at{fill:#ba181e;}.au{fill:#d1171e;}.av{fill:#d1181b;}.aw{fill:#cd171e;}.ax{fill:#a5a298;}.ay{fill:#cb171e;}.b`{fill:#ba181d;}.ba{fill:#0d0707;}.bb{fill:#c9181c;}.bc{fill:#81171a;}.bd{fill:#7f1619;}.be{fill:#d7171d;}.bf{fill:#b5191e;}.bg{fill:#811512;}.bh{fill:#bc181e;}.bi{fill:#1c1717;}.bj{fill:#0e0b09;}.bk{fill:#bf171b;}.bl{fill:#bf181e;}.bm{fill:#c9171d;}.bn{fill:#bd191f;}.bo{fill:#c3171d;}.bp{fill:#8d171a;}.bq{fill:#b0191e;}.br{fill:#d2181c;}.bs{fill:#d6181c;}.bt{fill:#d8171d;}.bu{fill:#88171a;}.bv{fill:#0e0808;}.bw{fill:#ad1a1f;}.bx{fill:#820613;}.by{fill:#bb171d;}.c`{fill:#c6171e;}.ca{fill:#cf171e;}.cb{fill:#d7181d;}.cc{fill:#110b0b;}.cd{fill:#c5171d;}.ce{fill:#dc181c;}.cf{fill:#b21a1f;}.cg{fill:#bc191f;}.ch{fill:#b9181d;}.ci{fill:#f8f1d6;}.cj{fill:#d9181c;}.ck{fill:#b4181e;}.cl{fill:#be181e;}.cm{fill:#ab181d;}.cn{fill:#0f0908;}.co{fill:#ca8c1e;}.cp{fill:#0b0505;}.cq{fill:#bc181d;}.cr{fill:#bb181d;}.cs{fill:#d90724;}.ct{fill:#c2181c;}.cu{fill:#c5181e;}.cv{fill:#db181c;}.cw{fill:#dd181c;}.cx{fill:#100606;}.cy{fill:#d7181c;}.d`{fill:#ae1a1f;}.da{fill:#c3191f;}</style></defs><g id="a"/><g id="b"><g id="c"><g class="y"><path class="ci" d="M157.93,100.82c-.51,.86-1.02,1.71-1.53,2.56,.51-.86,1.02-1.71,1.53-2.56Z"/><g><path class="h" d="M76.93,41.52c5.03,2.99,9.99,6.04,11.16,12.48-.11,.7-.41,1.43-.3,2.1,2.06,12.46-7.69,15.91-15.93,18.75-8.46,2.91-3.19-8.88-8.69-10.3,.42-3.13-.88-3.78-3.57-2.5-7.65,3.64-8.09,11.13-1.25,21.66-1.58,6.34-7.56,8.09-12.02,13.3h39.06c-.71,1.42-1.43,2.85-2.14,4.27v-.02c-5.71,3.97-11.99,5.23-18.83,3.95-7.24-1.35-14.47-2.84-21.77-3.85-6.54-.91-10.43-4.21-10.54-10.85-.09-5-3.13-9.58-6.64-9.63-7.08-.09-12.27-5.34-19.06-5.22-1.38-.64-2.77-1.28-4.15-1.92-5.06-7.93-.76-13.87,4.16-19.68,3.87,.19,5.63,5.83,10.32,3.95,17.44-6.99,34.54-15.37,54.29-12.43,2.82,.42,3.74-2.95,5.88-4.07Z"/><path class="bg" d="M2.27,73.75c1.38,.64,2.77,1.28,4.15,1.92-.73,6.13,2.08,12.02,7.55,12.1,9.81,.13,11.08,7.45,13.48,13.32,2.61,6.4,6.51,11.71,10.66,16.92,4.01,5.03,9.29,6.64,14.93,2.75,5.3-3.65,11.59-3.63,17.19-3.82,13.36-.45,16.26-3.15,13.04-15.68v.02c5.16,.79,10.33,1.58,15.51,2.38-6.61,11.92-15.3,20.12-30.36,17.14-5.7-1.13-10.1,2.87-14.87,4.67-15.73,5.94-33.44-7.56-33.53-22.3-.04-6.24-2.3-8.3-7.55-10.34-10.01-3.9-13.21-10.68-10.2-19.07Z"/><path class="cs" d="M76.93,41.52c-2.14,1.12-3.06,4.49-5.88,4.07-19.75-2.94-36.85,5.43-54.29,12.43-4.69,1.88-6.45-3.76-10.32-3.95,14.27-7.88,28.32-16.48,44.41-20,8.49-1.86,16.65,2.27,24.78,4.6,.43,.95,.87,1.9,1.3,2.85Z"/><path class="bg" d="M151.55,109.81c-.52,0-.85,.26-.99,.75-8.57,2.7-15-.5-20.37-7.15-6.13-7.59-13.7-10.71-23.26-6.78,2.29-6.18,4.59-12.02,12.27-4.76,1.01,.95,3.38,.46,5.12,.63,5.68-1.26,9.85,2.34,14.47,4.5,6.28,6.69,10.68,5.63,16.78-4.04,2.92,.18,2.53,2.39,2.64,4.29-.09,1.18-.18,2.37-.27,3.56-.51,.85-1.02,1.71-1.53,2.56-2.46,1.51-3.81,3.86-4.86,6.43Z"/><path class="bx" d="M124.31,92.51c-1.74-.18-4.11,.32-5.12-.63-7.69-7.26-9.99-1.42-12.27,4.76-1.32,.89-2.65,1.78-3.98,2.67-.8,.83-1.6,1.65-2.4,2.48-.59,.62-1.18,1.24-1.77,1.85-5.17-.79-10.34-1.58-15.52-2.38,.71-1.42,1.43-2.85,2.14-4.27h0c3.14,.06,6.31,.18,6.28-4.33l.06-.05c2.86,.09,4.27-1.32,4.31-4.16,1.51-.76,3.04-1.46,4.51-2.29,9.35-5.25,19.82-2.47,23.74,6.34Z"/><path class="bg" d="M100.55,101.79c.8-.83,1.6-1.65,2.4-2.48-.8,.83-1.6,1.65-2.4,2.48Z"/><path class="cs" d="M124.31,92.51c-3.93-8.81-14.39-11.6-23.74-6.34-1.47,.82-3.01,1.53-4.51,2.29-2.72,.06-4.19,1.4-4.31,4.16l-.06,.05c-3.12-.04-6.11,.09-6.29,4.33h0c-13.02,0-26.04,0-39.06,0,4.47-5.21,10.45-6.97,12.02-13.3,14.07,6.6,27.55,6.39,40.18-3.51,.59-.08,1.14-.29,1.63-.62,3.1,.29,5.13-1.42,6.88-3.65,.6,0,1.18-.13,1.74-.36,18.05-5.07,26.8,8.01,36.71,18.83-2.24,.88-4.48,1.75-6.72,2.63-4.62-2.16-8.79-5.76-14.47-4.5Z"/><path class="bg" d="M86.93,77.55c-4.98,2.39-9.69,5.5-15.7,4.54-9.8-1.57-13.44-9.39-8.04-17.55,5.49,1.42,.23,13.21,8.69,10.3,8.23-2.83,17.99-6.29,15.93-18.75-.11-.67,.19-1.4,.3-2.1,8.55,8.3,4.11,15.94-1.16,23.55Z"/><path class="h" d="M138.78,97.02c2.24-.88,4.48-1.75,6.72-2.63,3.18-1.71,6.58-1.88,10.07-1.41-6.1,9.67-10.5,10.73-16.78,4.04Z"/><path class="bx" d="M83.27,101.26c3.21,12.54,.32,15.23-13.04,15.68-5.6,.19-11.89,.17-17.19,3.82-5.64,3.88-10.92,2.28-14.93-2.75-4.15-5.21-8.05-10.52-10.66-16.92-2.4-5.88-3.66-13.2-13.48-13.32-5.47-.07-8.28-5.97-7.55-12.1,6.79-.12,11.98,5.13,19.06,5.22,3.51,.05,6.55,4.64,6.64,9.63,.12,6.64,4,9.94,10.54,10.85,7.29,1.01,14.52,2.5,21.77,3.85,6.84,1.27,13.12,.01,18.84-3.95Z"/><path class="h" d="M85.41,96.99c.18-4.23,3.17-4.37,6.29-4.33,.02,4.52-3.15,4.4-6.29,4.33Z"/><path class="h" d="M91.75,92.61c.12-2.75,1.59-4.1,4.31-4.16-.04,2.84-1.46,4.24-4.31,4.16Z"/></g></g><g><path class="ax" d="M429.01,384.85c-9.77,50.02-13.96,100.67-14.39,151.8-.16,18.97-6.92,36.68-9.78,55.17-2.55,16.48-6.58,32.82-7.65,49.41-1.04,16.02,.11,32.37,1.7,48.4,1.44,14.49,.34,28.61-3.52,42.07-6.45,22.47-1.46,45.6-4.69,68.21-1.4,9.81-3.36,18.95-8.48,27.1h-38.66c-9.35-6.44-7.91-15.38-3.71-24.01,15.97-32.85,18.91-68.64,19.87-104.95,.14-5.21-.43-10.09-2.72-14.79-5-10.3-3.65-20.72,.12-31.05,11.29,0,22.58,0,33.87,0-2.52-2.63-5.07-3.02-7.64-3.17q-21.87-1.28-20.5-24.93c6.39-10.36,13.54-20.26,15.8-33.07,4.85-27.41,10.4-54.72,9.08-82.97,8.17-22.55-2.3-42.68-6.68-63.6,10.25,1.18,13.37-5.39,14.06-15.35,.63-9.13,2.23-18.18,2.83-27.31,.95-14.28,.85-27.91-7.38-40.82-7.12-11.17-1.7-19.39,11.25-19.5,1.34,1,2.68,2.01,4.02,3.01l.13-.54c5.52,6.43,11.35,4.1,17.22,.75,11.35-3.99,14.52,3.13,14.12,13.64-.28,7.44-1.81,14.82-2.78,22.23-.34,3.81-7.68-3.52-5.5,4.29Z"/><path class="bj" d="M694.21,577.98c-6.59-2.01-13.1-4.43-19.77-5.96-18.99-4.37-24.03,1.03-20.08,21.91-8.1-1.06-11.12-13.07-20.95-10.6-6.72,1.69-9.97,1.61-5.5,10.42,9.19,18.09,11.84,37.84,9.54,61.29-16.91-18.14-26.92-38.97-37.89-59.19-5.37,4.24-8.25,9.97-11.08,15.74-6.44-2.13-7.16,4.86-9.59,8.17-6.45,8.82-12.02,18.45-20.41,25.34-5.26-7.14,2.41-11.32,3.25-17.1,.77-5.31,2.56-10.44,3.91-15.69-21.28-5.42-28.38,16.75-42.49,24.26-.68-.72-1.37-1.44-2.05-2.16,7.41-19.94,22.43-28.41,40.05-32.97,13.57,4.92,14.78-8.38,18.13-16.5,4.25-10.32,9.03-13.01,17.38-6.11,2.09,3.28,3.18,11.23,7.85,6.74,5.11-4.9,15.05-4.09,15.38-14.83,.11-3.56-.07-7.14-.32-10.69-.3-4.37,.62-8.7,3.71-10.96,4.06-2.97,6.83,1.61,9.01,4.34,5.39,6.74,9.34,10.19,16.35,.93,5.44-7.19,14.21-5.82,21.68-1.99,8.08,4.14,15.93,8.85,23.88,13.31v12.3Z"/><path class="ax" d="M558.48,645.1c8.38-6.89,13.95-16.52,20.41-25.34,2.42-3.31,3.15-10.3,9.59-8.17,6.02,7.52,2,17.09-.16,22.71-7.63,19.83-5.54,40.1-4.59,59.99,1.11,23.16-9.13,42.86-12.95,64.43-4.02,22.72-9.47,45.16-11.87,68.28h-22.09c-3.5-5.66-2.85-10.75-.1-17.01,12.65-28.72,18.78-59.38,19.04-91.29,.18-21.47,2.48-42.68,4.37-63.96,.31-3.54,1.77-7.02-1.65-9.65Z"/><path class="ax" d="M661.07,0c-.22,7.17,.57,13.7,3.52,20.63,5.5,12.9,8.16,26.9,5.86,43.09-12.55-7.71-21.63-17.43-27.07-34.87-9.7,33.46-13.9,64-15.45,95.07-7.03,3.87-14.26,7.11-22.11,8.29C605.66,87.52,611.03,43.55,619.65,0h41.42Z"/><path class="bj" d="M472.9,11.94c-5.48,3.67-.15,5.95,1.17,8.07,8.37,13.33,14.77,27.41,16.12,46.04-14.45-9.16-19.7-25.31-30.15-35.89-.74-2.35-1.19-4.89-2.28-7.02-8.99-17.5-18.7-18.61-29.61-3.61-2.16,2.97-4.73,5.57-7.11,8.35-14.1,15.81-29.37,30.06-48.26,45.94C381.37,45.14,391.07,21.66,404.28,0h52.46c2.4,8.98,11.49,6.74,16.15,11.94Z"/><path class="ax" d="M694.21,209.06c-4.69-10.94-9.18-22-14.13-32.79-3.25-7.09-6.21-14.31-14.64-16.52-5.88-1.54-8.63-8.55-7.18-14.16,2.77-10.7,7.42-20.79,11.55-31.82,4.77,5.48,1.03,10.68,2.22,15.26-.38,.56-.77,1.13-1.16,1.69,.32-.05,.79,.02,.92-.19,.24-.36,.27-.88,.39-1.33,9.47-1.21,10.7,7.47,13.13,14.12,2.79,7.66,2.21,16.91,8.9,22.69v43.04Z"/><path class="ax" d="M180.55,734.86c18.4,8.02,31.06,20.3,34.07,44.27,2.09,16.65,7.02,33.32,15.71,47.87h-11.04c-1.18-4.93-2.82-9.79-3.45-14.8-3.47-27.67-10.15-53.42-31.95-70.88-1.64-1.31-2.15-4.37-3.19-6.62l-.16,.17Z"/><path class="ax" d="M472.9,11.94C468.24,6.74,459.15,8.98,456.75,0h13.81c.58,2.22,.08,5.13,3.26,5.57C477.72,6.11,476.32,.91,478.83,0h2.76c2.94,9.25-1.21,12.11-8.7,11.94Z"/><path class="ax" d="M672.12,0c-.6,.9-1.2,1.8-1.8,2.69L669.35,0c.92,0,1.84,0,2.76,0Z"/><path class="bj" d="M381.05,444.47c4.38,20.92,14.85,41.05,6.68,63.6-5.85-1.78-7.89-7.71-10.27-12.72-2.74-5.78-6.42-7.63-11.82-6.56,5.06-8.09,.05-12.41-4.89-17.1-6.61-6.28-5.52,5.74-9.75,4.84-.98-9-5.09-16.33-9.17-24.11-13.71,20.68-27.16,40.26-20.49,67.23-1.05,3.34-1.33,8.77-5.86,2.68,.94-4.06,.07-7.89-.76-11.89-4.07-19.55-12.21-36.98-20.36-54.75-4.89-10.66-7.64-11.2-14.34-3.79-5.54,3.48-12.21,4.58-16.85,9.94-10.79,5.24-21.58,10.47-32.38,15.71-8.21,.24-15.33,4.27-22.5,8.1-6.03,1.64-12.05,3.28-18.08,4.92-.64-.84-1.27-1.68-1.91-2.51,25.7-28.23,54.5-52.24,83.4-76.13,11.16-5.1,26.57,1.73,33.66-14.83,.7-.32,1.31-.78,1.83-1.39,4.75,1.33,9.5,2.66,14.25,3.99,11.81,8.17,20.92,19,25.85,33.75,16.21-10.89,24.19-8.11,33.75,11.03Zm-67.88-7.97c6.47,7.83,11.98,1.29,18.71-1.33-7.66-9.88-15.5-16.7-27.46-12.98-3.94-3.99-8.2-5.48-13.05-2.78,2.15,14.5,11.03,17.36,21.8,17.09Z"/><path class="ax" d="M431.1,234.37c-8.53-7.41-13.1-19.94-24.59-23.52,6.6-34.04,4.92-68.88,7.6-103.29,1.94-24.86,4.83-49.48,8.07-74.11,.23-1.76-.74-3.71-1.15-5.57,2.38-2.77,4.95-5.38,7.11-8.35,10.91-15,20.62-13.89,29.61,3.61,1.09,2.13,1.54,4.67,2.28,7.02-8.95,8.89-6.15,21.77-8.72,32.76-12.24,52.36-17.72,105.68-17.35,159.79,.03,3.88-1.87,7.78-2.87,11.67Z"/><path class="ax" d="M296.86,223.9c-1,.2-2,.4-3,.6-6.32-21.21-9.62-43.18-22.21-62.37-8.6-13.11-19.16-27.03-19.32-45.39,.97,0,1.95,0,2.92,0l.9,4.19,1.46-1.31c-.84-.9-1.69-1.8-2.53-2.7,.33-2.73,.69-5.48-2.68-6.23,.56-2.85,.45-5.35-2.69-6.22,.46-2.82,.23-5.26-2.78-6.13-.2-1.42-.4-2.84-.6-4.27l-1.7,1.08c.74,1.09,1.48,2.18,2.23,3.27-.09,2.61,.13,5.05,2.75,6.16-.13,2.64,.12,5.07,2.82,6.09,.02,2.08,.04,4.16,.06,6.24-9.14-2.74-7.42-14.02-12.54-19.79-16.14,26.32-32.36,52.58-56.18,75.94,3.01-31.39,24.05-51.33,29.06-79.57-6.97-1.93-12.15,7.14-19.41,3.23-6.16-3.32-10.68-6.01-3.37-12.37,10.76-9.37,21.99-18.08,33.24-26.74,3.55-2.74,8.16-2.41,12.06-1.06,20.52,7.07,31.2,23.39,33.03,49.57,.89,12.71,1.53,25.46,3,38.08,1.02,8.71,3.35,9.25,11.49,2.88,.8,26.92,10.98,51,14,76.82Zm-53.68-141.91c-.39,.92-1.02,1.77-1.04,2.64-.02,.9,.53,1.82,.84,2.74,.39-.87,1.05-1.72,1.08-2.6,.04-.89-.55-1.81-.88-2.77Z"/><path class="ax" d="M315.48,522.32c4.53,6.1,4.81,.66,5.86-2.68,13.86-2.79,16.61-14.96,18.56-27.59,1.17-7.58,2.14-15,11.1-15.53,4.23,.9,3.13-11.12,9.75-4.84,4.94,4.69,9.95,9.01,4.89,17.1-.63,5.49-1.72,10.98-1.81,16.48-.64,38.8-1.08,77.6-1.59,116.41-2.21,.55-3.21-1.08-4.15-2.83-2.57-34.06,1.42-68.07,1.21-103.23-19.84,20.27-32.79,42.17-30.37,73.11,1.38,17.64,1.49,35.7-1.95,53.38-.7,3.58-.92,7.91-4.74,8.16-4.5,.3-4.37-5.18-4.58-8.01-.92-12.18-2.14-24.53-1.25-36.64,1.99-26.94-5.35-52.33-8.99-78.33-.66-4.7-3.64-8.32-7.3-10.61-4.53-2.83-6.7-6.73-6.28-12.46l.04-.03c9.18,3.13,14.93,11.34,21.62,18.14Z"/><path class="bj" d="M256.7,645.79c-11.9-4.85-21.07-17.27-29.94-13.51-7.74,3.29-11.97,16.83-17.88,26.06-5.51-2.96-3.98-8.28-2.7-11.82,1.83-5.04,3.04-10.84,1.42-14.85-5.45-13.51,3.66-23.78,5.18-35.63,.89-6.96,3.63-13.88,11.43-15.32,8.4-1.55,12.61,4.11,16.02,11.29,.83,1.74,1.85,3.37,2.83,5.13,12.24-14.1,18.21-13.4,28.22,3.07,6.75,11.1,11.6,27.32,11.31,40.69-8.18-10.83-15.03-20.34-22.33-29.41-3.93-4.88-10.91-12.9-14.06-9.91-6,5.7-13.25,12.25-14.44,22.71-.82,7.15,4.11,6.15,7.07,5.75,9.65-1.27,13.69,4.96,17.87,15.74Z"/><path class="ax" d="M25.36,574.22c1.54-20.31,14.76-34.53,22.93-52.99-15.24-4.21-30.1,.05-48.08-2.77,19.26-8.52,35.67-14.29,52.75-16.35,8.37-1.01,14.7-4.37,20.8-10.09,3.84-3.6,8.7-10.7,12.8-1.28,3.11,7.15,8.33,17.3-.81,22.64-8.32,4.87-13.52,11.87-18.35,19.81-10.75,17.66-24.66,31.38-41.11,42.07l-.93-1.04Z"/><path class="bj" d="M186.06,688.37l-1.32-.08-1.23,.57-.81-1.2-1.33,.21c.63-19.95-8.81-37.64-9.77-59.26-16.63,11.05-34.8,11.14-51.48,17.4-5.91-.13-11.82-.26-17.72-.39,19.97-12.43,39.52-25.7,59.37-38.28,10.8-6.84,22.31,1.15,32.76,9.27-5.79,4.14-8.41,8.87-6.9,17.53,3.15,18.09,1.66,36.46-1.8,54.53l.23-.31Z"/><path class="ax" d="M304.97,256.65c6.91-.57,14.88-8.49,20.29-1.38,5.04,6.63-2.65,13.75-5.08,20.5-1.12,3.11-2.26,5.68,1.43,7.39-5,38.83-4.83,77.67-.17,116.52-4.75-1.33-9.5-2.66-14.25-3.99-.74-46.35-1.48-92.7-2.22-139.04Z"/><path class="ax" d="M305.99,162.62c-1.52-39.37-7.01-78.53-1.85-117.87,.26-2.01,.16-4.1,.05-6.14-.96-17.71-1.11-16.96,15.38-13.22,6.04,1.37,5.94,4.29,4.15,7.87-8.97,17.96-8.14,37.57-7.65,56.87,.64,24.95-5.13,48.64-10.09,72.5Z"/><path class="ax" d="M102.4,645.63c5.91,.13,11.82,.26,17.72,.39-1.85,15.08-11.36,24.11-21.37,32.28-14.25,11.62-29.8,20.75-49.71,30.14,15.21-27.98,31.12-48.71,53.36-62.8Z"/><path class="ax" d="M193.41,551.47c-11.69-4.94-18.88-15.84-27.78-26.02-5.87,18.84,4.99,40.75-9.77,57.88-5.27-4.97-2.29-11.78-2.75-17.7l-.19,.18c6.65-1.02,5.52-6.99,5.9-11.81,.83-10.64,1.59-21.29,2.1-31.96,.14-2.94,2.29-6.43-3.09-8.1-8.54-2.66-5.07-8.67-1.62-13.9,4.25-6.42,8.49-6.45,13.38-.5,12.01,14.63,19.04,32.25,25.15,50.47-.45,.47-.9,.96-1.33,1.46Z"/><path class="bj" d="M262.22,417.12c-26-23.19-48.53-.68-73.07,1.86,27.41-30.25,64.67-40.82,73.07-1.86Z"/><path class="ax" d="M143.39,689.85c-.85-1.19-2.1-2.24-2.5-3.6-2.07-7.1-12.38-14.63-4.8-20.92,6.98-5.79,17.33-2.88,25.68,3.31,8.16,6.05,9.6,18.58,18.95,23.19l-.19-.21c.38,5.18,1.79,11.05-6.36,6.42-8.08-4.59-16.59-8.23-24.84-12.47-2.65-1.36-4.19-1.55-3.94,2.44-.65,.64-1.32,1.26-2,1.86Z"/><path class="ax" d="M103.09,574.66c.11-8.41,6.13-13.44,9.49-19.93,2.58-4.97,5.83-9.31,3.47-15.48,.53-.61,1.05-1.23,1.58-1.84,7.3-1.32,3.91-7.94,4.65-12.27,.87-5.05,.63-10.81,6.29-12.16,4.77-1.14,7.3,3.38,9.87,6.91,3.49,4.78,5.23,10.34,6.37,16.91-14.3-5.2-16.22-3.11-15.51,15.36-.64,.67-1.26,1.36-1.88,2.07-9.79,4.39-12.3,19.2-24.04,20.8l-.31-.35Z"/><path class="ax" d="M263.16,461.83c4.64-5.36,11.31-6.46,16.85-9.94-2.93,10.7,4.22,20.31,2.68,30.86l.19-.2c-9.06-15.33-13.41-3.49-19.72,8.66v-29.38Z"/><path class="ax" d="M305.36,397.09c-7.09,16.56-22.49,9.72-33.66,14.83,2.47-18.98,5.96-21.72,20.87-14.47,4.84,2.35,8.53-2.8,12.78-.36Z"/><path class="bj" d="M358.08,618.84c.94,1.75,1.95,3.39,4.15,2.83-.03,.88,.17,1.69,.6,2.42q-1.37,23.66,20.5,24.93c2.56,.15,5.12,.54,7.64,3.17-11.29,0-22.58,0-33.87,0-2.92-2.71-8.17-4.56-3.43-10.31,5.58-6.76,3.72-15.18,4.41-23.04Z"/><path class="ax" d="M208.29,485.63c7.17-3.83,14.28-7.87,22.5-8.1-9.29,8.25-14.8,20.8-25.64,28.74-1.46-8.12,4.72-13.67,3.14-20.63Z"/><path class="bj" d="M293.06,718.59c-2.05-13.47-20.28-25.88-2.47-39.46,1.79,11.96,4.22,25.41,2.47,39.46Z"/><path class="bj" d="M321.43,816.48c-11.58-8.36-10.18-22.5-12.25-35.18,6.47,10.57,10.86,22.09,12.25,35.18Z"/><path class="bj" d="M302.82,740.73c1.62,4.01,1.05,5.95-2.27,5.34-6.48-1.18-3.24-8.41-5.81-12.22-1.34-1.98-.4-5.38,2.73-5.09,7.98,.74,3.1,8.99,5.35,11.97Z"/><path class="ax" d="M150.87,697.24c6.94,4.57,13.55,9.51,16.53,18.47-.6,.62-1.17,1.27-1.73,1.94-6.32-5.23-13.39-9.63-16.48-18.44,.54-.68,1.09-1.34,1.67-1.97Z"/><path class="ax" d="M185.83,688.69c8.81,.82,5.38,7.76,6.4,15.8-5.49-5.96-6.57-10.69-6.17-16.11l-.23,.31Z"/><path class="ax" d="M149.2,699.22c-3.49-1.94-4.88-5.48-5.81-9.37,.67-.59,1.34-1.21,1.99-1.86,2.89,2.31,4.59,5.48,5.48,9.26-.57,.63-1.13,1.29-1.67,1.97Z"/><path class="bj" d="M190.21,490.56c-2.55,.41-5.1,.83-8.25,1.34,1.48-4.21,4.48-2.69,6.34-3.85,.64,.84,1.27,1.68,1.91,2.51Z"/><path class="ax" d="M288.37,494.88c-2.38-1.21-2.8-3.52-2.75-6.09l-.16,.12c3.18,.79,2.8,3.57,2.77,6.15l.14-.17Z"/><path class="ax" d="M320.86,667.66l-.96,.35c-.11-.45-.29-.91-.27-1.35,0-.14,.59-.23,.91-.35l.32,1.35Z"/><path class="ax" d="M153.1,565.62c-.73-1.02-1.45-2.03-2.18-3.05,.49-.32,.98-.64,1.46-.96,.17,1.4,.35,2.79,.52,4.19l.19-.18Z"/><path class="ax" d="M285.62,488.78c-2.29-1.32-2.73-3.66-2.74-6.23l-.19,.2c3.09,.84,2.86,3.53,2.77,6.15l.16-.12Z"/><path class="ax" d="M113.13,536.32c-1.62-.49-3.99-1.77-3.08-3.22,1.58-2.56,3.56-.91,4.81,1.32-.6,.61-1.17,1.25-1.73,1.9Z"/><path class="ax" d="M293.82,504.21c-2.92-1.03-2.91-3.59-2.62-6.28l-.17,.16c2.09,1.37,2.96,3.44,2.83,6.09l-.04,.03Z"/><path class="ax" d="M173.85,723.76c-.57,.55-1.24,1.56-1.58,1.44-.6-.21-1.04-1.09-1.43-1.78-.06-.11,.59-.99,.73-.93,.78,.32,1.51,.82,2.28,1.27Z"/><path class="ax" d="M148.58,552.82c.28,.15,.79,.29,.79,.46,.02,.45-.17,.91-.28,1.37-.28-.15-.8-.29-.81-.45-.02-.45,.18-.91,.29-1.37Z"/><path class="ax" d="M194.74,550.01c.51,.63,1.55,1.67,1.44,1.83-1.04,1.69-1.93,.65-2.77-.39,.42-.49,.87-.97,1.32-1.45Z"/><path class="ax" d="M116.06,539.25c-.97-.99-1.94-1.97-2.92-2.94,.55-.64,1.13-1.28,1.72-1.89,.93,1,1.85,2,2.78,3-.52,.61-1.05,1.23-1.58,1.84Z"/><path class="ax" d="M129.32,552.15l1.01,3.47c-.96-.47-1.92-.94-2.89-1.41,.61-.7,1.23-1.39,1.87-2.07Z"/><path class="ax" d="M103.4,575.02l-1.5,1.2c.4-.51,.8-1.03,1.2-1.55,0,0,.31,.35,.31,.35Z"/><path class="ax" d="M181.37,687.87l1.33-.21,.81,1.2c-.07,2.16-.89,3.31-2.99,2.75l.19,.21c.22-1.32,.44-2.64,.65-3.95Z"/><path class="ax" d="M291.19,497.93c-1.87,.04-2.48-1.35-2.82-3.06l-.14,.17c.93,1.01,1.87,2.03,2.8,3.04l.17-.16Z"/><path class="ax" d="M167.41,715.71c.37,1.07,.75,2.13,1.12,3.2-.95-.43-1.9-.85-2.85-1.27,.55-.66,1.13-1.31,1.72-1.93Z"/><path class="ax" d="M271.54,258.71h3.17c-1.06,1.33-2.11,1.31-3.17,0Z"/><path class="ax" d="M177.9,731.65c-.58-.51-1.15-1.02-1.73-1.53,2.12-1.42,1.5,.57,1.64,1.63l.08-.1Z"/><path class="ax" d="M180.71,734.7c-1.73-.11-2.63-1.17-2.8-3.05l-.08,.1c1.96-.11,2.89,.92,2.73,3.12l.16-.17Z"/><path class="ax" d="M26.29,575.26c-.59,.38-1.18,.75-1.77,1.13,.29-.72,.57-1.43,.85-2.16,0,0,.92,1.03,.92,1.03Z"/><path class="ax" d="M617.1,154.1c.25,3.52,1.08,7.13,.66,10.56-2.25,18.43,4.44,30.9,20.91,35.97,3.22,.99,3.24,1.75,3.16,4.32-.1,3.45-.8,6.32-2.44,9.63-4.96,10.04-15.79,15.43-13.54,31.78,1.34,9.72-7.79,21.77-10.02,34.06-5.82,32.01-10.86,63.92-12.41,96.71-1.56,32.95-4.26,66.08-9.78,98.44-2.16,12.68-.55,22.79,2.79,34.49,6.21-1.82,8.24-7.62,10.17-13.82,.5-1.61,2.51-2.94,4.09-3.68,.67-.31,3.02,1.46,2.94,1.87-1.08,5.42-.99,12.53-4.1,15.73-5.55,5.73-.07,22.69-14.94,18.49-5.3-5.68-13.32-4.81-18.24-3.68-7.08,1.63-10.65-.54-14.66-5.33,6.75-31.31,7.17-63.56,11.41-95.24,2.56-19.12,5.13-38.27,4.68-57.68-.59-25.04,2.55-49.93,6.38-74.23,2.55-16.18,6.51-32.17,7.73-48.75,.53-7.27-1.39-11.19-8.12-13.2-11.87-3.53-23.48-8.1-35.2-12.24-4.02-7.07-8.05-14.13-12.07-21.2,1.88-1.01,3.77-2.02,5.65-3.02,27.45,12.05,56.09,17.41,87.91,20.73-11.46-15.39-28.04-16.41-38-28.39,4.75-5.44,5.83-12.11,5.19-19.34,7.29-3.05,11.9-11.2,19.87-12.96Z"/><path class="bj" d="M536.49,197.08c4.02,7.07,8.05,14.13,12.07,21.2,1.77,17.17,12.46,30.96,14.56,48.13,.74,6.03,1.66,11.87,.8,18.88-11.7-6.11-17.54-18.91-27.1-26.88-5.56-9.83-10.68-20.03-16.86-29.35-3.67-5.53-9.49-14.14-13.53-13.62-12.02,1.56-7.01-7.8-8.69-12.86,.74-6.49,1.48-12.99,2.32-20.4-12.06,6.84-19.29,22.07-35.57,24.66,18.37-32.71,32.53-66.06,58.57-89.93,16.02-3.06,9.42,11.09,11.45,18.66-10.36,10.44-13.77,27.24-27.07,35.57,18.92-3.18,21.14,15.23,29.04,25.93Z"/><path class="bj" d="M496,291.35c-2.79-2.61-5.57-5.22-8.36-7.83-2.93-4.07-5.36-8.7-9.85-11.05-.14-.66-.52-1.02-1.13-1.07-2.35-2.06-3.2-.57-3.65,1.9-10.56,12.05-24.38,18.26-37.36,25.99-.41-.45-.83-.9-1.24-1.35,14.18-24.05,22.07-52.98,44.25-70.84,3.13,6.74,17.45,5.17,12.17,17.28-4.95,11.35,0,16.45,6.93,21.89,7.36,5.78,13.77,13.19,22.65,16.33l8.27,9.31c.87,3.1,2.23,5.68,5.43,6.3,1.35,5.7,2.7,11.4,4.65,19.65-12.03-6.87-22.16-12.67-32.3-18.46-3.1-3.31-6.13-6.73-10.46-8.05Z"/><path class="ax" d="M520.41,282.6c-8.89-3.14-15.3-10.56-22.65-16.33-6.93-5.44-11.88-10.54-6.93-21.89,5.28-12.11-9.05-10.53-12.17-17.28-1.38-10.4,4.79-17.74,8.72-25.87,4-8.27,6.98,0,10.37,1.35,1.68,5.06-3.33,14.42,8.69,12.86,4.04-.52,9.86,8.09,13.53,13.62,6.18,9.32,11.3,19.52,16.86,29.35-.42,13.31,3.74,27-2.71,39.79-3.2-.61-4.56-3.2-5.43-6.3,2.06-11.91-3.5-22.46-4.11-35.34-6.38,8.97-4.26,17.67-4.16,26.03Z"/><path class="ax" d="M388.05,249.27c-.85-4.44,.82-7.8,4.76-6.03,11.69,5.25,24.95,3.02,36.19,9.94-.67,25.6-10.33,49.15-13.73,74.13-1,7.37-6.48,8.49-11.56,7.87-8.19-1.01-14.9-4.91-15.92-15.51l-.15,.15c5.7,.52,10.44-1.29,10.83-8.41,1.18-21.63,4.4-43.8-10.42-62.14Z"/><path class="ax" d="M596.66,578.83c-8.35-6.9-13.13-4.21-17.38,6.11-3.34,8.12-4.56,21.42-18.13,16.5-.09-2.01-.97-4.67-.14-5.94,10.34-15.79,4.79-30.78-2.14-45.22-3.78-7.88-1.96-13.37,3.1-18.81,10.61,8.42,20.04-4.82,30.34-2.06,13.36,8.26,15.69,15.14,10.46,30.84-2.06,6.19-4.08,12.39-6.12,18.59Z"/><path class="bj" d="M429.01,384.85c-2.18-7.81,5.16-.48,5.5-4.29,17.32-4.13,34.98-.36,52.37-2.87,12.32,.69,25.26-3.22,36.39,6.19,12.68,12.48,12.48,14.37-2.93,28.19-14.31,4.64-26.23,14.5-39.09,22.3-8.11-3.32-1.72-7.52,.05-10.12,5.14-7.54,11.01-14.47,16.6-21.63,2.1-.45,3.59-1.44,3.09-4.24,1.65-1.08,3.61-1.92,3.1-4.75l-.13,.36c1.45-.63,2.9-1.27,4.35-1.9-1.51-.5-3.02-1-4.53-1.49-9.36-.78-18.73-1.56-28.09-2.34-15.56-1.13-31.11-2.27-46.67-3.4Z"/><path class="bj" d="M495.51,451.77c10.94,11.17,13.35,26.67,15.23,41.58,2.53,20.09,3.1,40.52-2.64,61.98-7.47-14.15-8.5-29.07-11.92-43.08-3.46-14.17-4.38-29.11-10.55-42.44-1.92-4.15-.31-7.92,.77-11.78,2.68-2.73,5.06-5.99,9.11-6.26Z"/><path class="bj" d="M592.05,186.41c9.96,11.98,26.54,12.99,38,28.39-31.82-3.33-60.46-8.69-87.91-20.73-2.58-5.23-6.36-10.69-2-16.48,3.67-4.87,9.26-3.57,14.01-2.36,7.76,1.97,15.64,3.32,22.76,8.23,4.27,2.94,9.36,6.8,15.13,2.97Z"/><path class="bj" d="M617.1,154.1c-7.97,1.76-12.58,9.91-19.87,12.96-7.48,4.07-14.52,9.76-23.97,8.31,2.87-14.88,11.2-24.34,21.54-32.51,3.9-3.08,9.07-4.94,11.02-10.66,7.85-1.17,15.07-4.41,22.11-8.29,9.05-1.25,16.98-8.68,29.63-6.64-14.81,13.47-27.63,25.15-40.46,36.82Z"/><path class="bj" d="M500.1,648.79c-8.35-9.76-11.99-21.99-18.19-32.38-3.99-6.7-2.17-19.92-15.36-17.5-2.59,.48-1.98-5.43-1.33-7.77,1.7-6.14,3.29-12.97,10.57-14.12,10.31-1.63,16.52,4.65,20.62,14.01,8.04,18.35,9.4,37.38,3.7,57.77Z"/><path class="ax" d="M351.7,255.05c2.45-5.56,6.73-8.74,12.3-11.92,1.39,12.75,2.71,24.83,4.03,36.9-11.56,12.36-14.31,31.42-27.23,44.75,.41-20.59,5.76-38.36,10.85-56.25,1.19-4.21,6.02-9.02,.05-13.48Z"/><path class="ax" d="M534.52,135.59c-2.03-7.58,4.57-21.73-11.45-18.66,1.5-3.61-1.81-10.83,6.65-9.32,2.72,.49,6.56-3.34,9.14-6.07,4.16-4.4,9.7-9.83,14.12-7.11,5.05,3.12,3.79,11.38,2.18,17.73-3.04,11.96-6.46,23.59-20.64,23.43Z"/><path class="bj" d="M422.52,654.94c14.26-31.56,17.98-35.23,39.32-41.34,0,19.03,0,38.05,0,57.08-1.38-.07-2.76-.14-4.13-.21,2.74-14.14,1.06-28.16,1.3-45.52-11.74,14.03-23.07,23.74-36.49,29.99Z"/><path class="ax" d="M495.51,451.77c-4.04,.27-6.43,3.52-9.11,6.26-7.99,2.17-13.51,1.62-7.41-9.48,2.53-4.61,4-8.95,2.24-14.18,12.86-7.79,24.78-17.66,39.09-22.3,.07,8.03-4.83,12.35-9.4,17.6-5.79,6.64-14.75,10.94-15.42,22.1Z"/><path class="ax" d="M475.68,388.25c9.36,.78,18.73,1.56,28.09,2.34,.06,1.13,.12,2.26,.18,3.39l.13-.36c-2.5,.4-3.17,2.27-3.1,4.75,.5,2.8-1,3.79-3.09,4.24-8.24-3.2-11.96,4.6-17.33,8.64-7.01,5.29-12,13.6-20.36,16.85l-.92-.98c1.87-14.83,14.77-23.91,16.39-38.87Z"/><path class="ax" d="M523.26,383.89c-11.12-9.4-24.07-5.5-36.39-6.19,4.01-10.29,11.92-21.06,20.23-19.2,8.24,1.85,15.98,12.7,16.16,25.38Z"/><path class="bj" d="M447.59,716.3c4.3-30.11,7.9-35.58,24.18-37.57-7.38,13.73-20.26,22-24.18,37.57Z"/><path class="ax" d="M408.22,643.23c4.18-13.91,9.08-27.44,16.74-40.95,3.39,19.99-3.69,36.36-16.74,40.95Z"/><path class="bj" d="M418.33,781.37c-3.42,12.95-5.78,26.9-20.37,36.71,3.66-16.71,14.54-25.05,20.37-36.71Z"/><path class="ax" d="M477.79,272.48c4.49,2.35,6.92,6.98,9.85,11.05-2.33,6.03-2.12,16.83-9.34,15.37-4.95-1-1.86-11.6-2.33-17.88-.21-2.77,1.16-5.69,1.82-8.54Z"/><path class="ax" d="M496,291.35c4.34,1.31,7.36,4.73,10.46,8.05-2.41,6.98-4.82,13.97-7.95,23.03-4.63-11.55-.91-21.6-2.52-31.08Z"/><path class="ax" d="M437.99,337.6c-6.23-15.19-5.23-17.33,12.54-28.75,3.03,13.84-11.86,17.49-12.54,28.75Z"/><path class="bj" d="M592.32,529.4c-10.3-2.76-19.73,10.48-30.34,2.06-1.43-3.91-1.34-7.86-.29-11.84,4.01,4.79,7.57,6.96,14.66,5.33,4.92-1.13,12.94-2,18.24,3.68-.78,.19-1.53,.45-2.27,.77Z"/><path class="ax" d="M500.99,17.09c-.13,4.12-1.14,7.19-3.77,6.03-3.64-1.6-7.77-4.02-7.56-9.47,.1-2.75,2.4-4.22,5.01-3.64,4.06,.91,6.28,3.7,6.32,7.08Z"/><path class="ax" d="M382.17,295.1c-1.32-3.72-5.02-7.9,1.56-10.12,1.31,11.61,2.61,23.22,3.92,34.84l.15-.15c-10.1-5.85-4.88-16.06-5.63-24.57Z"/><path class="ax" d="M436.06,567.52c.53-9.68,3.41-17.77,12.61-22.95,1.05,11.5-5.37,18.02-10.3,25.28-.77-.78-1.54-1.55-2.31-2.33Z"/><path class="bj" d="M423.17,344.7c-5.87,3.36-11.7,5.68-17.22-.75,6-7.16,11.38,3.28,17.22,.75Z"/><path class="bj" d="M523.16,636.57c-.83,2.66-3.14,4.09-4.61,2.25-2.22-2.76,1.72-2.84,2.56-4.41,.68,.72,1.37,1.44,2.05,2.16Z"/><path class="ax" d="M438.37,569.86c-.75,.47-1.81,1.56-2.19,1.32-1.52-.97-1.09-2.38-.11-3.65,.76,.78,1.53,1.55,2.3,2.33Z"/><path class="bj" d="M405.82,344.49c-1.34-1-2.68-2.01-4.02-3.01,1.34,1,2.68,2.01,4.02,3.01Z"/><path class="ax" d="M453.52,305.66l-1,1.81c-.27-.31-.82-.71-.76-.93,.15-.64,.54-1.21,.84-1.8,.29,.29,.58,.58,.92,.92Z"/><path class="ax" d="M473.01,273.31c.45-2.47,1.31-3.96,3.65-1.9-1.22,.63-2.43,1.26-3.65,1.9Z"/><path class="bj" d="M435.64,299.29c-1,.38-2.78,1.22-2.87,1.05-.87-1.8,.38-2.16,1.63-2.4,.41,.45,.83,.9,1.24,1.35Z"/><path class="ax" d="M460.2,428.1c-.61,1.09-1.17,2.52-2.39,.71-.07-.1,.96-1.1,1.47-1.69l.92,.98Z"/><path class="ax" d="M638.91,393.47c-2.87,7.82,.97,14.75,2.67,21.81,3.25,13.52,2.91,26.93,1.03,44.1-6.35-12.21-18.24-15.73-15.02-31.68,1.8-8.92-6.04-17.56-9.73-26.17-2.3-5.35-5.21-10.96-1.18-15.28,3.73-4,8.68,.18,12.64,2.51,3.19,1.88,5.76,5.12,9.79,4.9l-.2-.18Z"/><path class="ax" d="M639.1,393.65c.23-1.45,.45-2.91,.68-4.36,2.72,2.18,.68,3.12-.88,4.18l.2,.18Z"/><path class="n" d="M672.18,129.2c-.12,.45-.15,.98-.39,1.33-.14,.2-.6,.13-.92,.19,.39-.56,.77-1.12,1.16-1.69l.16,.17Z"/><path class="ax" d="M304.41,422.19c11.96-3.72,19.8,3.1,27.46,12.98-6.73,2.63-12.24,9.17-18.71,1.33-.81-6.37-9.63-6.66-8.75-14.31Z"/><path class="ax" d="M234.52,287.75c5.06,.02,10.11,.05,15.17,.07,4.09,.02,7.47,3.15,7.85,7.22,1.79,19.28,5.73,38.16,8.97,57.17,1.69,9.91,1.87,19.63,.2,30.73-8.06-3.97-8.21-11.43-9.71-17.08-6.45-24.27-12.7-48.5-26.26-69.45-.52-.81-.84-1.77-1.07-2.82-.65-3.03,1.75-5.87,4.85-5.86Z"/><path class="bj" d="M382.17,295.1c-7.47-1.01-3.29,14.04-10.13,10.48-5.37-2.8-2.07-11.85-3.46-17.96-.55-2.43-.39-5.06-.55-7.59-1.32-12.07-2.64-24.15-4.03-36.9-5.58,3.18-9.85,6.36-12.3,11.92-10.03,9.37-20.06,18.74-30.09,28.12-3.69-1.71-2.55-4.28-1.43-7.39,2.42-6.75,10.12-13.87,5.08-20.5-5.41-7.11-13.38,.81-20.29,1.38-10.08,.68-20.17,15.37-30.25,16.05h-3.17c-7.19,.05-14.38,.11-21.57,.16-9.4-.05-13.37,8.18-22.77,8.14-1.38-2.62-12.02,.92-7-8,7.18-4.05,14.21-7.94,20.41-14.51,18.42-5.66,34.83-28.32,53.25-33.99,1-.2,2-.4,3-.6,14.13,1.47,30.4-5.18,41.15,16.86,3.93-21.32,21.88-20.07,31.2-31.35,.88-1.06,4.35-1.27,5.15-.33,10.31,12.11,21.34,3.87,32.15,1.77,11.49,3.58,16.06,16.11,24.59,23.52,1.95,7.97,11.37,12.31,8.84,23.23-3.77-1.53-7.36-2.98-10.94-4.43-11.24-6.92-24.5-4.69-36.19-9.94-3.95-1.77-5.61,1.59-4.76,6.03-2.81,11.7-3.69,23.69-4.33,35.71-6.58,2.22-2.88,6.4-1.56,10.12Z"/></g><g class="y"><path class="cp" d="M369.06,465.97c-3.61,1.68-7.08,3.79-11.26,3.73-.17-1.84-.99-2.1-2.38-.98-1.34-.54-2.68-1.09-4.01-1.63-1.19-1.12-1.91-2.52-2.34-4.08-.43-1.45-.89-2.88-1.92-4.05-.32-.39-.64-.78-1-1.15-2.46-3.28-5.69-5.17-9.81-5.47-1.42-.22-2.73-.76-4.04-1.33-2.62-1.39-5.15-2.94-7.77-4.33-1.66-1.24-3.3-2.5-5.1-3.53-1.74-1.5-3.57-2.89-5.12-4.62-.59-.91-1.7-1.88-1.06-2.94,.71-1.16,1.98-.48,3.02-.11,2.54,1.53,5.37,2.52,7.96,3.95,.64,.18,1.37,.98,1.8-.27,.02-2.67,.05-5.32-.32-7.96-1.61-2.25-3.78-4.1-4.91-6.7-.3-.64-.6-1.27-.94-1.88-1.51-2.22-1.66-4.98-2.91-7.3-3.6-.52-6.98-1.75-10.28-3.21-1.85-.82-3.71-1.61-5.39-2.74-1.15-.77-2.38-1.54-2.05-3.26,2.32-1.43,4.14,.77,6.05,.83-3.14-.94-5.17-3.76-7.9-5.61-.88-.83-1.86-1.57-2.56-2.59-.24-.46-.35-.96-.39-1.47-.07-2.23-2.61-2.94-3.05-4.95,.03-.37,.21-.64,.53-.81,2.46-.2,4.18,1.56,6.26,2.37,2.42,1.5,4.89,2.94,7.11,4.7,.2,.17,.57,.32,.61,.23,.14-.36-.06-.73-.11-1.11-.04-.34-.04-.67-.01-1.01,.15-.72,.38-1.37,1.25-1.49,.33,.15,.59,.37,.81,.66,1.15,2.24,1.84,4.79,4.09,6.32,1.51,1.35,3.17,2.44,5.07,3.12,1.35-1.73,.62-3.52,.19-5.3-.85-1.84-1.63-3.7-2.42-5.57-.55-2.28-1.96-4.45-.9-6.93,2.79-.65,2.43,2.18,3.63,3.29,.69,1.31,1.54,2.52,2.47,3.81-.67-1.43-1.07-2.85-1.61-4.21-.59-2.32-1.82-4.48-1.91-6.94,.11-.59,.38-1.06,.96-1.28,1.87,.36,2.48,2.11,3.61,3.28,1.39,1.9,2.94,3.69,4.22,5.67,4.03,6.35,7.13,13.18,10.74,19.82-4.54-8.2-9.91-16.18-7.29-26.29,.43-1.88,.24-3.7-.42-5.5-.28-1-.34-2-.17-3.02,.37-1.09,.16-2.58,1.56-2.98,.82-.23,1.06,.74,1.36,1.36,.33,1.24,.35,2.52,.47,3.79,.24,2.27,.06,4.59,.95,6.76,.4,2.62,1.32,5.14,1.67,7.77,.75,3.15,1.99,6.11,3.35,9.03,.37,.79,.6,1.64,1.09,2.59,3.3-5.04,3.91-11.14,7.26-15.99,1.13-1.64,1.85-3.59,3.62-4.75,.39-.06,.7,.06,.95,.37,.87,2.63-.45,5.08-.59,7.63-.07,.36-.17,.71-.29,1.06-1.49,3.67-2.62,7.47-3.57,11.31-1.47,3.61-1.14,6.86,1.93,9.56,.31,1.16-1.6,2.3-.16,3.39,1.26,.95,2.3-.29,3.39-.73,.32-.18,.64-.32,.98-.45,2.85-.52,5.22-2.67,8.29-2.45,.32,.2,.5,.5,.54,.88-1.26,2.65-4.18,3.77-5.68,6.19-1.31,1.16-2.85,1.97-4.39,2.76-1.49,.77-1.86,1.85-1.41,3.36,.16,.77,.25,1.55,.31,2.33,.32,5.72,1.19,11.4,1.4,17.12,.07,.99-.38,1.84-.77,2.71,.32-.6,.68-1.17,.78-1.86,0-4.32,2.08-7.95,3.88-11.67,.93-1.92,1.99-3.78,2.82-5.75,.72-1.7,.69-2.9-1.61-3.1-1.02-.09-2.74,.24-2.1-1.88,1.25-.88,2.7-.83,4.12-.96,1.08-.09,2.14-.06,3.11,.52,1.18,1.25,.75,2.75,.67,4.2-.12,1.54,.28,3.11-.19,4.64-.94,.7-2.14,1.24-1.84,2.77-1.6,5.73-2.76,11.57-4.02,17.38-.65,3.02,.29,3.55,3.64,2.46,1.02,.33,1.17-.2,1.19-1.1,.06-3.14,.05-6.27-1.1-9.27-.54-2.73-.91-5.46-.01-8.19,1.99-.82,1.96,1.07,2.66,1.97,.58,1.71,.56,3.51,.74,5.27,.18,2.57,.36,5.15,.56,7.71,.06,1.79,.75,3.49,.72,5.29-.09,.91-.63,1.68-.83,2.55,.03,.75,.01,1.87,.8,1.86,.92,0,.42-1.22,.71-1.86,.09-1.9-.45-3.78-.07-5.67,.14-.71,.27-1.62,1.2-1.63,.68-.01,1.07,.71,1.18,1.32,.7,4.04,2.37,7.96,1.7,12.19Z"/><path class="al" d="M233.96,376.92c-2.75-5.7-5.5-11.39-8.25-17.09-.79-2.98,1.77-2.97,3.33-3.33,4.69-1.08,9.29-2.53,13.96-3.65,15.15-3.63,30.14-7.84,45.26-11.56,3.27-.53,6.41-1.58,9.65-2.21,.81-.08,1.55-.38,2.32-.63,4.13-.69,8.01-2.5,12.22-2.85,.63,.1,1.13,.43,1.54,.91,.79,1.43,1.08,3.01,1.3,4.61,0,.41-.1,.79-.28,1.15-1.91,2.21-4.71,2.9-7.21,3.97-8.01,3.41-15.9,7.07-23.98,10.3-.53,.21-1.06,.45-1.59,.68-.52,.25-1.07,.45-1.6,.68-14.33,6.26-28.75,12.29-43.09,18.5-1.12,.48-2.22,1.4-3.56,.53Z"/><path class="cl" d="M300.03,339.2c-.3,.63-.86,.8-1.48,.86-.71-.86-.53-1.84-.48-2.27,.12,.87-.18,1.66-1.9,2.2-2.46,.77-5.32,.39-7.41,2.31-13.15,3.43-26.24,7.12-39.48,10.16-6.75,1.55-13.23,4.14-20.15,5.01-1.3,.16-3.17,.32-3.43,2.36-1.61-6.08-.31-12.37-1.34-18.49-.23-1.35,.76-1.23,1.64-1.4,5.12-.99,10.31-1.33,15.49-1.81,10.23-.93,20.46-1.94,30.69-2.92,2.3,.26,4.57,.09,6.81-.49,10.88-1.36,21.76-2.72,32.72-3.2-.62,2.3-1.97,3.34-4.5,3.48-2.39,.13-5.88-1.2-6.29,3.14-.06,.58-1.77-.27-.89,1.06Z"/><path class="al" d="M261.62,419.3c-4.05-2.33-8.57-3.9-11.95-7.32-.18-2,1.41-2.83,2.63-3.85,7.55-6.3,15.16-12.54,22.86-18.67,14.01-10.96,27.71-22.3,41.52-33.51,1.07-.87,1.93-2.05,3.39-2.38,1.88,.5,2.73,1.87,3.06,3.66,.02,1.89-.76,3.44-2.09,4.73-4.73,4.6-9.32,9.34-14.08,13.9-1.05,1.01-2.1,1.97-3.52,.56-.3,.02-.58,.08-.85,.23-1.04,6.52-6.85,9.59-10.32,14.34-.22,.28-.45,.54-.68,.8l.12,.25c-.56,.2-.96-.06-1.33-.44-.28-.36-.45-.79-.73-1.14-.31-.4-.66-.53-.27-.2,.03,.02-.05,.17-.06,.29,.24,.62,.38,1.22,.18,1.85-3.61,5.4-8.78,9.35-13.17,14.02-1.53,1.9-3.64,3.22-5.16,5.14-2.14,2.34-4.63,4.32-6.68,6.76-.68,.8-1.49,1.9-2.86,.98Z"/><path class="al" d="M245.55,399.05l-9.95-7.62c-.43-2.57,1.68-3.13,3.27-3.99,14.07-7.56,28.01-15.37,42.1-22.91,9.03-4.28,17.58-9.48,26.42-14.11,2.99-1.57,5.94-3.3,9.22-4.26,1.02,.43,1.45,1.23,1.46,2.3-.16,2.05-1.2,3.5-2.89,4.65-12.66,8.67-25.36,17.27-38.06,25.88-8.86,6.18-17.82,12.22-26.77,18.27-1.44,.98-2.79,2.32-4.81,1.78Z"/><path class="al" d="M471.65,429.24l-1.17,.17c-3.99-3.33-7.49-7.15-11.12-10.85-.86-.86-1.8-1.63-2.73-2.42-8.82-8.98-17.67-17.91-26.72-26.65-.82-.8-1.72-1.53-2.08-2.68-.59-2.44-.18-4.93-.35-7.4-.09-1.22,.25-2.23,1.72-2.36,6.36,4.14,11.86,9.35,17.7,14.15,6.05,4.98,11.9,10.18,17.88,15.25,3.14,2.72,6.52,5.16,9.62,7.94,1.26,1.13,2.34,2.29,2.6,4.03-1.24,3.88-2.31,7.84-5.35,10.83Z"/><path class="s" d="M377.05,467.09l-1.11-.26c-1.43-1.6-.8-3.4-.5-5.59-.4,1.48-.24,2.68-.72,3.7-.41,.87-1.04,1-1.63,.08-.34-2.83,.3-5.49,1.09-7.81-1.49,2.34-.39,5.76-2.15,8.38l-.77,.06c-.62-.51-.97-1.19-1.04-1.96-.45-5.12-.53-10.26-.32-15.39,2.78-2.42,2.31,1.18,3.73,1.91,.43-1.36,4.12-1.28,1.56-4.21-.44-.5,.52-1.29,1.12-1.77,.83-.67,1.52-1.42,.91-2.58-.49-.93-1.41-.97-2.32-.91-1.16,.08-2.31,.16-2.56,1.68-.13,.81,.11,2.05-1.11,2.1-1.48,.06-1.62-1.33-1.97-2.4-1.8-19.61-2.98-39.25-4.41-58.88-.11-1.52-.06-3.06,.99-4.35,.96-.98,2.15-1.18,3.45-1.05,1.01,.18,1.82,.66,2.37,1.54,1.76,7.42,2.55,15.01,3.7,22.53,2.22,14.44,3.73,28.98,6.17,43.4,.49,2.88,.02,5.87,1.09,8.67,.65,3.57,1.06,7.18,1.78,10.74,.32,1.58,.5,3.25-.68,4.66-1.24,.08-2.32-.3-3.24-1.13-.49-.6-.98-1.27-.92-2.04,.47-6.52-.95-13.04-.01-20.09,0,.02-.88,.71-.42,.51,.09-.04,.13,.05,.14,.28,.21,6.08-1.59,12.05-1.01,18.15,.08,.81-.05,1.83-1.22,2.07Z"/><path class="cl" d="M381.91,454.27c-2.04-3.93-1.23-8.38-2.22-12.56-1.01-4.25-1.33-8.75-1.9-13.14-1.79-13.91-3.55-27.83-6.05-41.64-.45-2.49-.45-5.07-.65-7.6,.2-.39,.49-.7,.87-.92,1.96-.8,3.91-1.88,6.05-.5-1.74,2.6-.84,5.21-.23,7.92,4.51,19.8,9.4,39.51,13.94,59.31-1.6,7.47-2.57,15.06-4.14,22.53l-.81,.61c-2.65-4.18-1.22-8.57-.6-12.89,.12-.85,.7-1.63,.62-2.55,.48-2.04,1.03-4.07,1.16-6.12-.33-.38-.16-.34-.17,.06-.05,1.6-.44,3.17-.66,4.76-.38,1.84-.83,3.65-1.57,5.38-.32,.76-.45,1.93-1.62,1.72-1.05-.19-1.06-1.34-1.26-2.15-.53-2.17,.86-4.04,1.21-6.24-1.6,1.03-.62,3.07-1.96,4.02Z"/><path class="cl" d="M366.49,378.97c-.99,1.54-.53,3.22-.41,4.84,1.43,19.93,2.88,39.86,4.33,59.79-.42,.66,.04,1.38-.14,2.05-.68,5.37-.23,10.74-.02,16.11,.06,1.38,.43,2.76-.52,4-.19,.16-.42,.23-.67,.2-.99-4.38-1.98-8.75-2.97-13.13-1.01,2.59,1.03,5.42-.59,7.97-.13-.11-.26-.21-.39-.31-.56-.84-.85-1.79-1.13-2.74-.31-1.76-1.46-3.32-1.24-5.21,.43-2.62-.25-5.2-.28-7.81-.4-1.92,.23-4-.83-5.83l-1.56-2.05c-.77-.26-.41-1.1-.81-1.56,.93-.27-.51-3.26,1.99-1.74,.63-1.8,.19-3.55-.28-5.3,.12-1.31,.25-2.61,.37-3.92-3.2-3.08-2.35-6.47-.77-9.91v-.8c-1.88-2.63-1.14-5.62-1.02-8.47,.38-8.82-.27-17.68,1.12-26.45,.56-.87,1.46-.71,2.29-.74,1.26,.02,2.59-.17,3.51,1.02Z"/><path class="cl" d="M281.23,365.08c-6.12,4.25-12.93,7.32-19.37,11-7.89,4.5-15.99,8.62-24.02,12.88-1.07,.57-1.79,1.38-2.23,2.47-1.19-.48-.74-1.49-.76-2.34,.15-3.83-.12-7.62-.83-11.38-.02-.26-.04-.52-.06-.78,15.56-6.74,31.11-13.49,46.67-20.23,1.65,.81,2.03,2.22,1.36,3.72-.69,1.53-.55,3.11-.75,4.67Z"/><path class="ag" d="M442.65,446.8l-.8,.45c-2.77,.16-3.51-2.18-4.65-3.9-3.93-5.92-7.5-12.06-11.37-18.02-.22-.26-.41-.54-.59-.82-.58-.97-1.06-2-1.8-2.87-.42-.5-.78-1.04-1.08-1.63-.31-.6-.67-1.16-1.06-1.71-1.84-3.89-4.65-7.25-6.09-11.35-.21-2.78-.19-5.56,.47-8.97-.9,1.31-.79,2.78-2.14,2.69-1.31-.09-1.48-1.2-1.61-2.23-.2-1.51-.39-3.02,.18-4.52,.56-1.48,2.45-.08,3.04-1.45,2.02,.32,2.81,2.04,3.83,3.44,2.85,3.89,5.42,7.97,8.48,11.71,8.3,10.91,16.02,22.24,24.03,33.37,.39,.54,.53,1.14,.37,1.8-1.37,1.33-2.5,.87-3.42-.52-.85-1.3-1.88-1.27-2.82-.3-.85,.88-.6,4.73-2.85,.86-.17,.16-.18,.43-.15,.57,.09,.39-1.5,.51-.14,1.1,1.37,.59,1.19,1.44,.17,2.29Z"/><path class="ag" d="M431.01,455.88c-4.54,.86-9.14,.17-13.7,.44-3.02-3.7-4.07-8.34-5.86-12.61-2.38-5.69-5.07-11.28-6.66-17.28,.55-2.15,.51-4.25-.55-6.28-1-1.9-1.29-3.85-.21-5.83,.66-1.21,.26-3.6,2.47-3.16,2.02,.41,3.26,2.22,2.89,4.33-.45,2.54,.86,3.42,2.86,3.98,.35-.02,.69,.04,1.01,.18,1.45,1.29,2.05,3.1,2.89,4.77,.16,.3,.29,.62,.42,.93,.61,1.8,1.46,3.48,2.67,4.96,3.94,7.33,7.61,14.8,11.23,22.29,.49,1.03,.94,2.08,.55,3.27Z"/><path class="al" d="M295.07,398.73c1.37-.1,1.86,1.01,2.54,1.86,1.15,1.64,1.96,3.38,1.48,5.46,.85,4.32-1.8,7.38-3.97,10.54-3.63,5.31-7.01,10.8-10.66,16.09-1.23,1.46-1.65,3.85-4.26,3.74-4.34-1.64-8.65-3.36-12.49-6.05,1.03-3.25,3.92-5.1,5.77-7.75,1.72-1.92,3.39-3.87,5.04-5.85,4.32-4.93,8.56-9.93,12.88-14.86,1.07-1.22,2.08-2.55,3.68-3.18Z"/><path class="al" d="M451.56,443.07c-5.72-8.17-11.43-16.35-17.18-24.5-2.48-3.52-5.05-6.98-7.57-10.46-.39-1.07,.39-1.03,.93-.81,.93,.38,1.01,.56,.92-.73-.13-1.89-.33-3.72-.99-5.49-.46-1.26-.68-2.45,.76-3.26,1.87,.19,2.68,1.77,3.72,2.96,6.41,7.28,12.75,14.63,19.15,21.92,2.01,2.44,4.11,4.81,6.08,7.3,1.05,1.56,3.08,2.57,2.83,4.88-2.43,3.31-4.37,7.03-7.77,9.55-.51-.31-.86-.71-.87-1.34Z"/><path class="bd" d="M323.41,281.7c-6.73-6.18-9.82-14.48-13.04-22.67-1.24-3.14-3.39-6.36-2.96-9.72,.8-6.31,17.8-24.31,19.8-24.31,3.16,0,11.91,2.67,15,2,2.22-.48-19,16-21,20-3.41,6.81,3.48,20.53,9.5,29.53-1.5,.49-1.53,.53-1.81,.24-.33-.34-.82-.66-.53-1.27-.47,.32-.11,.84-.3,1.21-.22,.42-.37,1-1.06,.68-.22-.1-.37-.31-.44-.57-.1-.35,.02-.76-.15-.97,.27,2.06-.3,3.97-1.52,5.62-1.77,.15-.56-1.84-1.62-1.98,.72,.65,.57,1.42,.13,2.22Z"/><path class="bl" d="M245.55,399.05c10.06-6.11,19.57-13.01,29.3-19.61,.61-.41,1.32-.69,1.98-1.03,1.3,2.79,.49,9.32-1.45,11.61-4.97,4.99-10.91,8.83-16.11,13.55-3.16,2.87-6.9,5.06-9.61,8.42-2.53-2.47-1.88-6.06-3.12-9-.52-1.23-.67-2.62-.99-3.93Z"/><path class="ag" d="M443.58,354.8c4.13,2.48,8.32,4.87,12.74,6.81,0,1.6-.59,2.71-2.38,2.13-1.08-.35-1.72-.07-2.15,.8-.52,1.05,.07,1.86,.7,2.71,.95,1.28,3.51,1.32,2.93,3.77-1.46,.77-2.74,.02-3.94-.59-10.71-5.38-21.8-9.96-32.44-15.49-1.23-.64-2.54-1.15-3.33-2.4-.56-1.54,.27-2.81,.82-4.14,.42-.83,1.13-1.34,1.95-1.74,6.55,1.16,12.36,4.44,18.63,6.4,2.13,.66,4.02,2.25,6.46,1.71Z"/><path class="aj" d="M431.01,455.88c-4.19-8.57-8.37-17.15-12.56-25.72,1.45-.48,1.96,.58,2.53,1.48,.76-2.94,.58-6.53,4.71-7.38,3.84,3.6,5.43,8.71,8.58,12.77,2.6,3.35,3.79,7.74,7.57,10.21-4.08,2.29-6.92,6.14-10.84,8.63Z"/><path class="aj" d="M300.24,448.03c-4.34-.83-8.83-.22-13.14-1.35-1.11-3.03,1.92-4.52,2.58-6.89,3-5.23,5.96-10.49,8.95-15.73,.8-1.4,1.45-2.98,3.31-3.37,2.95,1.03,5.53,2.64,7.67,4.93,.18,.33,.28,.69,.31,1.07-.12,1.22-.77,2.08-1.81,2.68-2.34,.46-4.66-.04-6.96-.2,1.51,1.45,3.43,2.14,5.26,2.98,.62,.57,.86,1.28,.53,2.04-2.02,4.71-3.6,9.64-6.7,13.83Z"/><path class="bw" d="M323.41,281.7c-.01-.81-.02-1.63-.05-3.06l1.11,2.19c1.37-5.34,2.15-5.87,6.23-4.3,2.99,3.11,6.28,5.74,10.01,8,7.7,4.68,12.5,11.93,16.27,19.92-.2,.78,.14,1.46,.38,2.17,.35,1,1.41,2.18,.12,3.01-1.04,.67-1.53-.99-2.47-1.21-3.03-3.61-6.06-7.22-9.09-10.83,0-2.05-.9-3.93-1.12-5.96-.25-2.26-2.18-3.23-4.12-3.07-2,.16-4.25-.14-5.97,1.41-4.57-1.67-8.6-4.06-11.31-8.27Z"/><path class="ca" d="M402.54,463.75c-2.56,.06-5.11,.12-7.67,.17-1.38-1.07-1.75-2.67-2.23-4.22-.04-.36-.01-.72,.09-1.07,1.09-2.21,1.18-4.63,1.35-7.01,.49-6.71,.4-13.43,.41-20.14,0-1.77,.04-3.3,2.2-3.68,2.49,2.74,2.6,6.46,4.02,9.64,1.1,3.76,2.44,7.45,3.66,11.17,.6,2.21,1.46,4.34,2.04,6.55,.11,.56,.12,1.11,.03,1.67-.9,2.33-1.92,4.61-3.42,6.64-.15,.09-.31,.18-.46,.27Z"/><path class="d`" d="M337.34,268.16c.46-.75,.87-.16,2.23-.91s3.64-.37,3.87,2.27c.11-.04,.3-.05,.33-.12,.09-.23,.11-.48,.16-.72,2.16,4.11,4.86,7.73,8.08,11.15,4.78,5.07,7.48,11.44,9.19,18.18-.05,.8-.61,1.67,.35,2.32,.82,.54,.78,1.36,.74,2.19-.57,1.5,.63,3.17-.4,4.68-2.3-.2-2.12-2.52-3.27-3.66-2.07-4.33-4.32-8.57-6.93-12.6-.04-.12-.15-.33-.13-.34,2.93-1.82,2.46-3.99,.81-6.44-1.89-2.8-4.4-3.1-7.32-2.11-.58,.2-1.06,.72-1.75,.4-2.49-2.28-4.67-4.8-6-7.95-1.47-2.33-1.17-4.4,.03-6.35Z"/><path class="ag" d="M300.24,448.03c1.14-4.79,3.98-8.87,5.67-13.44,.32-.88,.69-1.55,.11-2.38-.28-.37-.24-.69,.12-.98,4.03,.22,8,.72,11.52,2.95,.52,1.38-.44,1.68-1.43,1.96-.89-.21-1.77-.42-3.08-.72,.79,1.26,1.33,2.12,1.87,2.99-1.56,6.4-4.42,12.35-6.57,18.55-4.1-1.72-5.38-6.04-8.22-8.92Z"/><path class="ba" d="M366.88,328.96c1.98,.28,3.69,1.26,5.43,2.16,1.19,.73,1.53,2.04,2.15,3.17,.18,.29,.34,.58,.49,.88,.26,.46,.48,.93,.64,1.44,1,3.36-1.75,4.97-3.33,7.13-.4,.4-.86,.72-1.38,.94-1.04,.37-2.13,.43-3.22,.46-1.18-.02-2.35-.16-3.52-.3-.92-.19-1.81-.54-2.78-.53-.33-.05-.61-.18-.87-.39-.78-.86-1.31-1.9-2.06-2.78-.44-.57-.78-1.19-.98-1.89-.39-1.86-.53-3.71,.07-5.56,.07-.17,.14-.34,.21-.52,.16-.33,.36-.64,.59-.93,1.06-1.68,3.22-1.25,4.57-2.38,.77-1.07,1.97-.58,2.97-.83,.31-.44,.65-.46,1.02-.07Z"/><path class="aj" d="M308.45,456.94c-.19-.45-.66-1.04-.52-1.33,2.66-5.62,3.67-11.91,7.09-17.21,1.61,1.41,3.23,2.83,4.84,4.24,.07,.25,.16,.49,.35,.66,5.36,4.63,5.63,7.3,1.4,13.86-4.39-.07-8.77-.14-13.16-.21Z"/><path class="aj" d="M402.54,463.75l.11-.17c.75-1.31,2.85-.8,3.31-2.48,.51-1.41,.2-3.09,.88-4.33,1.19-2.16-1.15-.41-1.1-1.15-1-2.16-1.87-4.36-2.02-6.77-.35-.59,.02-.8,.47-1.13,.53-.38,1.54,1.74,1.75-.51,.18-1.94,1.46-3.22,4.07-2.09-.55-4.05-2.77-7.17-3.21-10.8-.05-.41-1.14,.28-1.6-.34-1.33-2.99-2.42-5.99-.38-9.11,.47,.17,.57,.46,.31,.89,4.06,10.19,8.12,20.38,12.17,30.56-2.74,2.22-5.46,4.47-8.22,6.67-2.01,1.59-4.34,.78-6.56,.76Z"/><path class="bl" d="M273.95,423.05c-1.73,2.73-3.93,5.07-6.24,7.32-2.03-3.69-4.06-7.38-6.09-11.07,3.69-2.06,5.6-6.08,9.15-8.29,1.1-.21,2.2-.14,3.32-.08,2.33,.11,3.02,1.12,2.56,3.39-.61,3.01-.57,6.19-2.69,8.72Z"/><path class="ai" d="M343.71,464.7c-4.43,.46-8.82,.18-13.19-.56-.19-3.56,1.27-6.81,1.94-10.2,.31-1.57,1.56-2.15,3.13-1.95,4.11,1.04,4.04,1.1,9.11,5.75,.45,.41,1.83,.26,2.29,1.35,.43,4.61-.07,5.47-3.28,5.6Z"/><path class="ag" d="M335.81,452.27c-1.73,.4-2.63,1.31-2.9,3.24-.41,2.95-.94,5.93-2.39,8.62-2.97-2.33-5.94-4.66-8.9-6.99,.18-.86,.24-1.78,.57-2.59,1.71-4.25,2.72-8.28-2.46-10.99-.37-.19-.19-.67,.15-.94,1.88,.76,3.58,1.77,4.8,3.45,2.45,1.75,4.77,3.76,7.91,4.23,1.3,.43,2.6,.86,3.9,1.28,.14,.58,.08,.97-.66,.67Z"/><path class="bl" d="M460.21,434.87c-1.14-1.47-2.29-2.95-3.43-4.42-.37-1.06-.58-2.21-1.16-3.16-.85-1.4-1.25-2.54,.83-3.07,1.5-.38,1.16-1.76,1.5-2.74,.44-1.25,.19-2.83,1.76-3.51,3.59,3.82,8.17,6.7,10.77,11.44-3.28,2.09-6.64,4.02-10.27,5.46Z"/><path class="cp" d="M393.09,458.8l-.08,.78c.29,2.12,.42,4.21-1.06,6.02-1.46,.69-2.92,1.38-4.38,2.07-.73-7.81,1.59-15.16,3.49-22.56-.49-3.06-.11-6.02,1.01-8.89,.23-.58,.56-1.22,1.31-1.07,.5,.1,.76,.63,.93,1.12,.17,.48,.33,.96,.29,1.48-.54,7.02,.32,14.14-1.52,21.06Z"/><path class="v" d="M418.48,346.68c-.41,.59-.83,1.18-1.24,1.77-1.45,1.08-2.9,.4-4.35-.01-8.76-2.48-17.52-4.97-26.25-7.58-.97-.29-1.92-.64-2.95-.64-1.63-.25-3.1-.82-4.23-2.06-.28-1.32-.16-2.43,1.5-2.68,11.92,3.53,23.84,7.05,35.76,10.58,.6,.18,1.18,.41,1.76,.62Z"/><path class="ao" d="M312.55,331.57c13.23,.01,26.46,.02,39.7,.03,1.3,1.7,.42,2.61-1.19,3.25-8.53,.51-17.08,.14-25.62,.26-2.5,.03-5.04,.08-7.55-.15-1.7-.5-3.58-.12-5.22-.98-.74-.76-.76-1.56-.13-2.39Z"/><path class="ak" d="M290.49,440.21c-.83,2.32-3.04,3.9-3.4,6.47-3.13-2.86-4.44-6.94-6.89-10.25,1.73-.92,2.39-2.77,3.61-4.13,3.14,1.87,6.28,3.74,6.68,7.92Z"/><path class="bc" d="M358.62,303.56c1.21,.77,2.27,1.68,2.56,3.51,1.39-1.65-.07-3.36,1.11-4.53,.9,4.75,2.02,9.48,1.87,14.37-1.42,.51-2.87,.62-4.36,.37-1.59-2.95-3.19-5.9-4.78-8.85,.77,.18,1.53,.37,2.37,.57,.21-1.55-1.66-2.93-.41-4.53,.45,.96,.9,1.92,1.35,2.88,.45,.3,.9,.6,.94,1.22,0-.95,.28-1.93-.37-2.79-.1-.74-.19-1.47-.29-2.21Z"/><path class="cg" d="M343.31,282.46c4.06-3.12,8.46-2.73,10.44,2.78,.04,.11-.02,.3,.05,.37,3.98,3.63-.29,4.01-2.11,5.35-2.79-2.83-5.59-5.67-8.38-8.5Z"/><path class="ai" d="M381.91,454.27c-.25-2.26,.46-4.16,2.35-5.8,2.33,3.27-3.19,6.44-.21,9.52,1-2.12,2.02-4.26,3.03-6.4h0c.14,5.57-1.35,11.1-.31,16.69-.99,.42-1.76,1.47-3.04,1.07-.61-5.03-1.22-10.05-1.82-15.08Z"/><path class="bn" d="M334.71,289.97c1.9-2.36,6.72-3.15,9.39-1.53,1.77,1.07,2.94,6.94,1.82,9.15-3.74-2.54-7.48-5.08-11.22-7.62Z"/><path class="cp" d="M377.05,467.09c-.48-7.45,.65-14.73,2.4-21.96,.75,7.68,1.85,15.34,1.04,23.09-1.31,.12-2.38-.5-3.44-1.13Z"/><path class="ae" d="M312.55,331.57c.08,.7,.15,1.41,.23,2.11,.57,.74,.66,1.49,.08,2.27-4.18,1.47-8.36,2.91-12.83,3.25-.88-.57-.87-2.21-.75-2.19,2.53,.55,.84-6.12,4.85-2.82,.74,.61,1.66,.52,2.34-.38,.22-.29,.56-.66,.87-.68,2.8-.17,2.8-.15,4.38-1.62l.84,.05Z"/><path class="ba" d="M380.95,335.48c-1.05,.51-.77,1.76-1.39,2.52,0,1.15-.56,2.04-1.34,2.82-1.54,.92-2.94,2.09-4.62,2.79-.77,.18-1.49,.16-2.08-.46,1.61-2.13,4.25-3.78,3.31-7.1-.24-.22-.48-.44-.72-.65-.05-.26-.09-.52-.14-.77-.78-1.16-.28-2.07,.56-2.92,2.17,.1,3.32,3.1,5.89,2.05,.18,.58,.35,1.15,.53,1.73Z"/><path class="da" d="M451.56,443.07c.61,.24,.8,.75,.87,1.34-3.21,1-6.42,1.99-9.78,2.38,.08-.24,.25-.69,.22-.7-3.82-1.71,.41-3.69-.39-5.49,.91,.9,.21,2.34,1.66,3.3,.1-1.48-.38-3.51,1.39-3.71,1.53-.17,3.61-.2,3.96,2.34,.04,.27,1.35,.36,2.07,.53Z"/><path class="ba" d="M351.3,334.19c1.94-.27,.94-1.62,.95-2.59,1.34-1.22,3.02-.93,4.61-1.01,.36,.18,.76,.27,1.12,.45,.36,.22,.64,.51,.82,.89,.07,.29-.01,.53-.23,.73h-.05c-.18,.16-.25,.3-.19,.46,.06,.16,.11,.24,.17,.23-.94,2.05-.16,4.18-.3,6.27-.38,.46-.9,.61-1.47,.61-.76-.07-1.37-.43-1.9-.95-1.12-1.68-2.12-3.47-3.98-4.52-.14-.42,.02-.6,.44-.57Z"/><path class="ai" d="M369.73,465.77c-1.31-5.87,.35-11.83-.51-17.72-.14-.98-.36-2.04,.54-2.85,1.22,.72,.42,2.08,.97,3.01-.21,5.82,.1,11.63,.52,17.43-.51,.04-1.01,.09-1.52,.13Z"/><path class="f" d="M359.8,317.27c1.37-1.11,2.82-1.2,4.36-.37,1.23,1.4,1.39,2.89,.43,4.5-.01,.51-.28,.82-.76,.97-4.29-.09-5.07-1.08-4.03-5.1Z"/><path class="ay" d="M343.71,464.7c3.72-.96,2.33-3.94,2.5-6.31-.31-.69,.01-.86,.64-.77l.7,.73c.62,1.48,1.53,2.83,2.06,4.35,.6,1.46,1.21,2.92,1.81,4.39-2.57-.8-5.14-1.59-7.7-2.39Z"/><path class="e" d="M338.21,268c0,3-2.12,3.68-.9,6.51-.84-.95-1.51-1.98-2.07-3.08-.76-1.52,.24-3.41,1.94-3.43h.03c.86-1.18,2,2,1,0Z"/><path class="ba" d="M363.83,322.37c.25-.32,.51-.64,.76-.97,1.49,2.3,2.59,4.71,2.28,7.55-.34,.02-.68,.05-1.02,.07-.67-2.22-1.35-4.44-2.02-6.66Z"/><path class="cf" d="M391.96,465.6c.3-2.02,.14-4.11,1.06-6.02,1.19,1.2,1.64,2.72,1.86,4.34-.97,.56-1.94,1.12-2.92,1.68Z"/><path class="cp" d="M372.02,465.58c.52-3.18,.52-6.47,2.22-10.13,.67,3.62-1.21,6.44-.75,9.39-.14,.31-.34,.58-.6,.8l-.88-.06Z"/><path class="r" d="M372.89,465.64l.6-.8c1.49-.89,1.02-2.66,2.01-3.92,.14,1.97,.29,3.94,.43,5.91-1.01-.4-2.23-.27-3.04-1.19Z"/><path class="al" d="M234.01,377.71c1.31,3.72,1.59,7.51,.83,11.38-.28-3.79-.55-7.59-.83-11.38Z"/><path class="as" d="M355.43,468.72c.59-1.04,1.18-2.07,1.78-3.14,1.96,1.23,.89,2.72,.59,4.12-.79-.33-1.59-.65-2.38-.98Z"/><path class="ba" d="M357.7,331.19c-.28-.2-.56-.4-.84-.6,2.01-.24,4.02-.48,6.03-.72-.85,1.85-3.08,1.55-4.32,2.8-.04-.28-.08-.55-.13-.83-.25-.21-.5-.42-.74-.64Z"/><path class="al" d="M279,334.72c-2.2,1.16-4.47,1.32-6.81,.49,2.27-.16,4.54-.33,6.81-.49Z"/><path class="ba" d="M374.54,331.7c-.19,.97-.38,1.95-.56,2.92-1.03-.94-1.26-2.27-1.67-3.5,.88-.31,1.52,.26,2.24,.58Z"/><path class="bd" d="M361.55,300.34c-.18,.23-.09,1.33-.61,.46-.45-.75-.51-1.92,.26-2.78,.12,.77,.23,1.55,.35,2.32Z"/><path class="ag" d="M290.49,440.21c-1.4-3.34-4.66-5.1-6.68-7.92,4.45-6.88,8.89-13.77,13.37-20.64,.94-1.45,2.41-2.58,.49-4.51-.84-.84,1.19-.39,1.25-1.21l.24-.27,.31,.19c1.12,3.64,4.91,3.7,7.39,5.51-.72,3.63-3.27,6.35-4.73,9.61-3.46,3.26-4.83,7.85-7.36,11.71-1.58,2.41-2.86,5.01-4.28,7.52Z"/><path class="s" d="M361.07,378.57c-.18,9.07-.23,18.14-.62,27.2-.11,2.64,.27,5.23,.15,7.85-3.08,.75-5.7,2.86-8.98,3.03-1-.88-.86-2.03-.71-3.16,1.44-10.89,2.4-21.83,3.95-32.7,.14-1.01,.32-2,1.04-2.79,1.34-1.14,2.79-.86,4.26-.3,.39,.19,.7,.48,.91,.87Z"/><path class="cl" d="M356.46,378.09c-1.14,8.86-2.29,17.71-3.41,26.57-.51,4-.95,8-1.43,12l.04,.04c-2.2,.25-2.37-2.21-3.87-2.89-2.13-.15-4.12-3.62-3.71-6.77,.14-1.07,.73-2.09,1.11-3.14,1.86-3.69,2.65-7.74,3.84-11.66l-.03,.06c1.1-2.45,.95-5.2,1.79-7.72,.1-.29,.85-1.39-.57-.94l-.19-.11c-2.07-2.48-1.12-4.7,.59-6.85,.52-.38,1.11-.57,1.74-.61,1.59,.21,3.3,.2,4.1,2.02Z"/><path class="aw" d="M295.07,398.73c-5.16,6.4-10.47,12.67-16.18,18.59-1.98-1.3-.17-2.49,.33-3.41,.89-1.63,1.11-2.57-.95-3.33-2-.74-2.44-2.58-2.49-4.52,4.45-4.65,8.9-9.31,13.34-13.96,.81-.05,1.24,.48,1.64,1.06,.59,1.22,1.48,2.1,2.81,2.49,.63,.3,1.13,.73,1.3,1.45l.2,1.63Z"/><path class="cl" d="M336.89,402.38c-1.85-2.75-2.69-5.9-3.67-9-1.43-7.94,3.18-14.37,5.35-21.42,.2-.35,.5-.58,.88-.7,1.01-.05,1.8,.55,2.67,.9,1.45,.81,3.4,.98,3.89,3.02-1.68,8.48-4.4,16.67-6.94,24.9-.32,1.03-.72,2.24-2.19,2.29Z"/><path class="u" d="M336.89,402.38c2.98-5.39,3.67-11.54,5.6-17.27,1.13-3.36,2.03-6.79,3.03-10.19,1.76-1.2,3.2,.15,4.77,.57,.49,.32,.92,.68,.72,1.36-1.09,2.11-1.55,4.32-1,6.67-5.55,6.66-7.3,15.18-11.2,22.8-1.23-1.07-1.54-2.53-1.93-3.95Z"/><path class="bh" d="M328.98,379.21c1.29,1.71,1.37,3.5,.41,5.38-1.09,1.41-.8,3.36-1.85,4.79-.79,1.08-1.31,2.59-3.14,1.67-1.32-1.72-2.64-3.45-3.96-5.17,2.58-7.14,5.67-13.99,11.19-19.44,.37-.1,.74-.12,1.11-.06,1.45,.64,2.53,1.62,3.03,3.17-.27,3.39-1.56,6.33-3.84,8.85-.36,.1-.7,.04-.98-.22-.44-1.16,.02-2.49-.66-3.6-.14-.33-.18-.82-.42-.96-.66-.36-.42,.35-.44,.55-.09,.72,.02,1.49-.67,2-.54,1.06-.47,2.07,.22,3.03Z"/><path class="cw" d="M350.84,447.32c-1.11-6.27-1.98-12.56-2.1-18.93,2.01,.56,.71,2.13,1.17,2.88,.41-1.84-.75-4.07-.06-6.26,1.03-.85,2.18-.96,3.4-.51,.16,.13,.32,.25,.48,.38,.27,.79,.93,.68,1.55,.68,5.13,.02,5.18,.04,3.01,4.94-2.45,5.51-5.88,10.61-6.92,16.7-.1,.37-.27,.41-.53,.13Z"/><path class="ce" d="M340.43,421.25l.86,1.54c-.99,5.42-2.59,10.71-3.75,16.09-.62,.81-1.37,.49-2.1,.23-2.35-1.46-4.14-3.29-4.04-6.33-1.75-4.59-1.21-9.21-.15-13.84,.24-.64,.42-1.35,1.38-1,2.62,1.11,5.24,2.23,7.86,3.34l-.05-.04Z"/><path class="w" d="M337.14,439.27c.38-5.75,1.27-11.36,4.15-16.48,2.49,1.92,2.9,4.6,2.74,7.48-.45,1.5,.12,2.99,.05,4.49,0,.07,.11,.15,.18,.23l.23-.21c1.29,1.57,.84,3.5,1.08,5.29-.85,1.56,.78,3.42-.58,4.92-.5,.31-1.04,.41-1.62,.35-.92-.18-1.61-.77-2.31-1.34-.86-.79-1.8-1.49-2.81-2.09-.28-.2-.52-.44-.73-.71-.36-.6-.66-1.21-.38-1.94Z"/><path class="af" d="M307.17,395.35c-.86,.21-.65,.97-.79,1.55-2.54-.81-1.57-3.22-2.23-4.88,.07-1.34,.09-2.68,.32-4,1.73-5.19,5.17-9.01,9.68-11.95,2.8,.38,4.17,2.01,4.19,4.82-.04,.57-.2,1.09-.64,1.48-.53,.04-.76,.39-.86,.86-.55,1.26-.5,3.11-2.71,2.68-.82-.46-.87-1.43-1.33-2.14-.29-.42-.56,.1-.28,.14,.74,.11,.62,.96,.81,1.54,.31,2.14,.45,4.24-1.11,6.02-1.61,1.38-1.75,4.68-5.04,3.88Z"/><path class="ck" d="M302.13,420.98c.06-3.95,2.66-6.65,4.73-9.61,3.54,1.35,7.1,2.61,10.88,3.13-.6,.97-1.96,1.09-2.42,2.21-.66,1.18-1.14,2.48-2.13,3.46-.91,.83-.79,2.05-1.19,3.07-.48,1.22-.72,2.75-2.59,2.6-2.56-1.43-5.11-2.85-7.29-4.85Z"/><path class="cb" d="M317.7,382.36l-.09-1.55c3.34-5.92,6.55-11.93,11.64-16.62,.8-.09,1.48,.21,2.09,.7,.5,.57,1.07,1.13,.53,1.98-3.49,3.43-5.08,8.04-7.57,12.09-1.38,2.25-2.58,4.61-3.86,6.92-.92-1.17-1.83-2.35-2.75-3.52Z"/><path class="ce" d="M331.2,378.29c2.03-2.63,3.22-5.65,4.07-8.83,2.04-.64,3.41-.08,3.84,2.15-.06,3.61-1.9,6.69-3.18,9.9-1.54,3.85-2.51,7.75-2.71,11.87-.51-2.73-1.02-5.47-1.54-8.2-.72-2.26-.92-4.55-.48-6.89Z"/><path class="br" d="M324.4,391.06c1.96-.13,2.1-1.87,2.87-3.12,.69-1.12,.31-2.94,2.12-3.34-1.77,9.55,1.68,17.54,7.39,24.88,1,1.28,.92,2.73-.17,5.2-4.24-8.43-7.8-16.25-12.21-23.61Z"/><path class="cj" d="M359.27,435.3c.27,.52,.54,1.04,.81,1.56,.18,2.99,.36,5.99,.54,8.98,.59,1.01,.79,2.03,.08,3.09-1.48-.16-.91-1.31-1.17-2.09,.66,2.94,.85,5.89,.19,8.84-1.05,.73-1.12,3.17-3.3,1.9-1.77-1.03-2.03-2.39-1.48-4.42,1.6-5.91,2.91-11.9,4.34-17.86Z"/><path class="w" d="M341.47,443.45c.48,.44,.96,.89,1.43,1.33,.88,.75,2.17,.79,2.96,1.7,.09,.14,.17,.28,.26,.42,.67,1.22,2,2.08,1.96,3.67-.28,.76-.74,1.19-1.61,.9-3.75-2.25-7.81-4-11.24-6.79-.52-1.78-.43-3.26,1.77-3.76,.41,.04,.78,.19,1.1,.46l-.05-.04c1.18,.64,2.16,1.59,3.42,2.1Z"/><path class="bh" d="M317.04,406.17c-2.17-.6-4.06-1.67-5.55-3.39-.54-.84-.21-1.64,.07-2.46,.59-1.4,1.35-2.71,2.08-4.04,.48-.72,1-1.4,1.92-1.6,.85,1.76,1.7,3.51,2.54,5.27-.15,1.62-.05,3.23,.04,4.84,.04,.74,.05,1.56-1.11,1.37Z"/><path class="w" d="M321.41,424.22c1.72,2.16,3.45,4.32,5.17,6.48-.67,2.73,.64,5.54-.32,8.25-.24,.33-.56,.53-.97,.6-1.77-.3-3.16-1.27-4.36-2.56-1.61-2.32-4.94-3.58-4.5-7.19,.42-.41,.93-.57,1.51-.53,2.18,1.2,3.12,3.9,6.01,4.83-.38-2.77-2.98-4.01-3.57-6.36-.38-1.51-1.17-2.87,1.02-3.53Z"/><path class="aq" d="M321.41,424.22c-1.99,2.93,.62,6.04,1.85,6.55,2.73,1.12,1.2,2.95,1.61,4.29,.27,.88-.9,.93-1.55,.3-1.84-1.77-4.32-2.96-5.26-5.58-.41-.38-.65-.85-.69-1.41,.16-1.83,.96-3.4,1.95-4.9,.35-.42,.78-.73,1.34-.82,.59,.36,.79,.9,.74,1.57Z"/><path class="g" d="M337.41,441.38c-2.04,.24-1.4,2.23-2.17,3.3-1.35-1.17-4.04-.22-4.55-2.57-.64-2.92-.85-5.91-.58-8.91,.02-.18,.84-.29,1.29-.43,1.33,1.87,1.96,4.26,4.13,5.49,.42,1.16,1.96,1.64,1.88,3.1Z"/><path class="ab" d="M314.14,396.4c-.07,1.63-1.12,2.75-2.01,3.96-1.78,1.17-2.47-.22-3.08-1.42-.5-1-.77-2.11-1.72-2.83l-.17-.76c2.61-.16,2.47-3.16,4.29-4.14,2.93-.28,3.82,1.45,2.69,5.19Z"/><path class="cv" d="M360.59,414.42c-.07,3.33-1,6.73,.77,9.91-1.02,0-2.04,0-3.06-.01-1.85-.77-3.18-1.96-3.35-4.1,.91-2.89,3.52-4.11,5.65-5.8Z"/><path class="i" d="M354.94,420.23c1.12,1.37,2.24,2.73,3.35,4.1-1.52,.18-3.04,.36-4.57,.54l.04,.06c-1.48-.47-2.93-.66-4.22,.49-.17,.32-.43,.5-.8,.52-.8-1.06-.74-2.38,.39-2.75,2.12-.7,3.51-2.71,5.8-2.96Z"/><path class="ch" d="M346.85,457.62c-.21,.26-.43,.51-.64,.77-.86-.47-2.64,.81-2.63-1.51,0-.58-.63-2.84-2.06-.63-.45,.69-1.06,.22-1.07-.12-.11-3.06-3.39-2.24-4.64-3.86,.22-.22,.44-.45,.66-.67,4.53,.16,7.99,2.15,10.37,6.01Z"/><path class="bh" d="M304.62,391.66c1.36,1.49,.39,3.76,1.76,5.24,.03,.28,.07,.55,.1,.83-.31,.61-.51,1.31-1.29,1.52-2.43-1.58-4.87-3.15-7.3-4.73,.08-.58,.41-.96,.94-1.18,.35-.06,.7-.05,1.05,.03,1.45,.33,2.35,1.48,3.43,2.34-2.34-2.02,.08-4.48-.62-6.64,0-1,0-2,.76-2.79,.45-.14,.82-.02,1.1,.35,.19,1.68,.58,3.35,.06,5.03Z"/><path class="aa" d="M359.72,455.68c-2-3.12,.53-6.46-.74-9.71,1.54,.29,.45,1.7,1.44,2.09,.63-.61,.02-1.47,.2-2.22,1.45,3.33,1.62,6.75,.71,10.25-.13,.5-.25,1.18-.84,.98-.43-.15,.09-1.23-.78-1.39Z"/><path class="p" d="M299.47,405.86c-.18,.02-.37,.05-.55,.08-.08-1.87-2.02-3.28-1.3-5.34,3,2.26,6,4.52,9.29,7.01-2.91,.21-5.13-.95-7.43-1.74Z"/><path class="cy" d="M314.08,385.63c1.65,.04,1.56-1.92,2.76-2.4,.83,2.44,2.04,4.77,2.26,7.4-.12,1.71-1.19,1.09-2.1,.87l-2.81-4.34c-1.27,.3-1.07-.59-1.07-1.32,.27-.32,.59-.39,.96-.21Z"/><path class="cq" d="M324.11,419.35c1.15,2.66,2.3,5.31,3.45,7.97-2.87-1.72-4.75-4.18-6.13-7.04-.17-1.76-.49-3.57,1.43-4.72,1.53,.94,.49,2.66,1.25,3.79Z"/><path class="by" d="M347.78,413.8c2.83-1.11,2.17,2.48,3.87,2.89-4.1,2.82-4.64,2.67-5.58-.27-.68-2.11,1.54-1.53,1.71-2.62Z"/><path class="m" d="M324.11,419.35c-1.15-.69-.44-2.1-1.26-3.16-.5,1.45-.96,2.77-1.42,4.09-.93-.96-1-2.27-1.42-3.44-.45-1.25-1.13-2.35,1-2.69,1.53-.24,2.57-.32,3.06,1.62,.32,1.27,.3,2.39,.04,3.59Z"/><path class="am" d="M321.62,436.38c1.1,.96,2.2,1.92,3.3,2.88,.19,.7,.07,1.12-.79,.85-2.69-1.22-5.56-2.08-7.9-3.99,.48-.5,.96-1,1.43-1.5,1.95-.84,2.46,1.55,3.95,1.75Z"/><path class="ad" d="M313.36,385.69c.05,.61,.21,1.17,.82,1.46-.46,2.68,1.24,4.97,1.39,7.54-.24,.76-.71,1.33-1.43,1.7-.15-2.12,.77-4.79-2.69-5.19,1.54-1.88,1.36-4.05,1.09-6.24,.67-.21,1.03-.06,.82,.73Z"/><path class="bo" d="M349.02,392.24c-.26,4.22-.98,8.29-3.84,11.66,.88-4.02,1.83-8.01,3.84-11.66Z"/><path class="bs" d="M320.67,422.66c-.24,.3-.47,.6-.71,.9-2.48-.23-2.08-2.49-2.6-3.95-.53-1.47-.9-2.85-2.57-3.36,.12-2.05,1.76-1.51,2.95-1.74,.98,2.72,1.95,5.44,2.93,8.16Z"/><path class="cx" d="M294.87,397.1l-1.34-.78c-1.39-.64-2.52-1.58-3.33-2.9-.36-.44-.72-.88-1.08-1.32-.32-.8-.65-1.61-.97-2.41,1.54-.53,1.91,.8,2.59,1.64,.32,.24,.63,.48,.95,.72,.85,1.81,3.98,2.19,3.18,5.05Z"/><path class="cr" d="M328.72,422.2c-.7-1.74-2.67-3.45-.37-5.33,.43-.35,.95-.64,1.28-.18,1.49,2.06-.57,3.63-.91,5.51Z"/><path class="cm" d="M316.99,391.5c.7-.29,1.4-.58,2.1-.87,.8,1.86,1.6,3.72,2.79,6.45-2.67-1.81-3.94-3.56-4.89-5.59Z"/><path class="bs" d="M332.57,450.32c-3.79,.74-5.82-1.8-7.91-4.23,2.92,.87,5.26,2.84,7.91,4.23Z"/><path class="br" d="M307.33,396.11c1.16,.01,1.79,.4,1.98,1.74,.2,1.45,1.08,2.58,2.82,2.51-.21,.81-.43,1.62-.64,2.43-2.51-1.53-3.46-4.02-4.16-6.68Z"/><path class="cd" d="M350.21,383.64c.43,.04,1.4-1.77,1.16-.03-.42,2.94-.31,6.16-2.38,8.69-.26-2.98,1.1-5.73,1.22-8.66Z"/><path class="an" d="M365.51,460.8l.2,2.77c-2.1-.71-3.64-1.57-3.29-3.96,1.86-1.68,2.41,0,3.14,1.22l-.05-.04Z"/><path class="bk" d="M340.48,421.3c-.33-2.1,1.15-3.7,1.62-5.57-.62,1.82,3.2,4.95-1.68,5.53l.05,.04Z"/><path class="a`" d="M348.76,425.94c.17-.14,.29-.32,.37-.53,.21-.47,.49-.51,.83-.12,1.84,2.22-.59,4.53,.41,6.78-1.33-1-.28-2.79-1.62-3.69,0-.81,.01-1.63,.02-2.44Z"/><path class="x" d="M325.67,439.19c1.58-2.69-.75-5.8,.91-8.48,.31,3.08,.99,6.17,.02,9.25-.75,.27-1.06,.03-.93-.77Z"/><path class="u" d="M298.62,393.68c-.25,.28-.49,.56-.74,.83-2.11-.9-4.21-1.81-6.32-2.71-.03-.23-.04-.45-.03-.68,3.41-2.05,5.07,.76,7.09,2.55Z"/><path class="l" d="M344.33,444.79c1.69-1.23-.17-3.4,1.23-4.71-.26,2.31,1.97,4.42,.56,6.82l.05,.02c-.71-.63-1.98-.77-1.84-2.14Z"/><path class="bm" d="M317.04,406.17c1.84-1.82-.46-4.34,1.07-6.21,1.13,1.84,.28,3.93,.67,5.91,.34,1.71-1,.89-1.74,.3Z"/><path class="be" d="M362.79,444.16c-.14,2.79,1.17,5.59-.04,8.38-.2-2.78-.39-5.55-.59-8.33,.18-.36,.39-.37,.63-.05Z"/><path class="ct" d="M325.93,412.49c-1.7-.54-1.63-2.19-2.78-3.71,1.99,.61,2.6,1.92,3.61,2.73,.28,.8-.08,1.05-.83,.98Z"/><path class="av" d="M349.6,462.71c0,.12,.02,.27-.04,.37-.11,.18-.27,.32-.41,.48,.14-1.94-2.1-3.15-1.61-5.2,1.5,1.07,2.25,2.49,2.06,4.35Z"/><path class="bh" d="M331.2,378.29c.16,2.3,.32,4.59,.48,6.89-1.53-2.1-.67-4.59-1.11-6.87,.2-.33,.4-.34,.62-.02h0Z"/><path class="s" d="M344.49,434.79l-.09,1.43c-.43-1.98-1.46-3.92-.37-5.94,.15,1.5,.3,3.01,.45,4.51Z"/><path class="cp" d="M365.56,460.84c-.94-.69-1.72-1.79-3.14-1.22,.18-.91,.78-1.48,1.57-1.87,2.16,.2,1.24,1.96,1.57,3.09Z"/><path class="be" d="M362.79,444.16c-.21,.02-.42,.03-.63,.05l-.52-5.31c1.87,1.43,.58,3.55,1.15,5.26Z"/><path class="be" d="M360.99,428.26c1.32,1.56,.81,3.44,.88,5.21,0,.06-.16,.18-.26,.19-.11,.01-.23-.06-.35-.1-.09-1.77-.18-3.53-.28-5.3Z"/><path class="bd" d="M325.93,412.49c.28-.33,.55-.66,.83-.98,.46,.91,2.64,1.39,1.45,2.53-1.25,1.2-1.42-1.1-2.29-1.54Z"/><path class="bb" d="M305.19,399.24c.43-.51,.86-1.01,1.29-1.52,.31,.77,.61,1.54,1.06,2.69-1.08-.11-1.8-.42-2.36-1.17Z"/><path class="au" d="M328.98,379.21c-1.25-.93-1.31-1.94-.22-3.03,.07,1.01,.15,2.02,.22,3.03Z"/><path class="bp" d="M346.48,451.47c.54-.3,1.07-.6,1.61-.9,1.02,.6,.6,1.38,0,1.81-.95,.69-1.19-.39-1.62-.9Z"/><path class="k" d="M325.67,439.19c.31,.26,.62,.51,.93,.77,.13,.42,.25,.85,.38,1.27-1.2,.27-1.99-.53-2.86-1.11,.26-.28,.53-.57,.79-.85,.25-.03,.5-.06,.76-.07Z"/><path class="bd" d="M332.62,417.95c-.46,.33-.92,.67-1.38,1-.25-1.13-.03-2.17,1.27-2.21,.65-.02,.04,.79,.11,1.21Z"/><path class="s" d="M331.2,378.28c-.21,0-.41,.01-.62,.02-.1-1.24-.2-2.48-.29-3.72,1.2,1.01,.65,2.46,.91,3.7Z"/><path class="bu" d="M350.84,447.32c.17-.06,.35-.11,.53-.13-.23,.91-.47,1.82-.78,3-.57-1.26-.86-2.17,.25-2.88Z"/><path class="aw" d="M281.23,365.08c-1.09-1.19-1.75-2.44-.51-3.92,1.28-1.53,.86-3-.09-4.47,.5-.04,1.01-.08,1.51-.12,.76,1.27,.5,2.98,1.99,4.02,1.06-1.94-3.17-2.75-1.28-4.83,10.69-4.33,21.29-8.87,31.74-13.77,.81,.16,1.24,.77,1.67,1.38,.46,.98,1.27,1.94,.25,3.05-7.47,4.12-14.89,8.33-22.44,12.32-4.22,2.23-8.14,5.08-12.84,6.34Z"/><path class="bv" d="M315.24,343.49c-.22-.5-.44-1-.65-1.5,.03-.26,.07-.52,.1-.78,.66-1.21,1.78-1.79,3.06-2,11.16-1.79,22.14-4.93,33.57-4.77,3.16-.11,2.72,2.94,3.95,4.52-1.43,1.01-3.16,1.28-4.71,2.02-9.11,3.07-18.07,6.51-27.16,9.64-1.31,.45-2.58,1.06-4.03,.87-1.88-.56-2.36-1.6-1.1-3.23,5.37-3.28,11.53-4.55,17.31-6.79,3.42-1.33,6.95-2.32,10.48-3.3,1.05-.03,1.99-.87,2.66-.59-1.54,.19-3.42,.67-5.25,1.45-7.85,2.02-15.85,3.31-23.81,4.74-1.52,.27-2.99,.54-4.43-.27Z"/><path class="o" d="M282.85,355.77c.36,.48-.67,2.82,1.47,1.02,.59-.49,1.8,.53,1.44,1.09-1,1.56,.46,4.52-1.8,4.78-1.66,.19-.84-2.56-1.59-3.84-.35-.59-.17-1.48-.23-2.24l.71-.81Z"/><path class="ay" d="M288.76,342.3c1.1-3.35,4.4-1.38,6.48-2.59,1.23-.72,2.78-.67,3.09-2.6,.07,.98,.14,1.97,.21,2.95-3.26,.75-6.52,1.5-9.79,2.24Z"/><path class="ag" d="M318.3,348.71c-.84,1.04-.11,1.66,.62,2.27,1.5,.49,1.72,1.52,1.19,2.85-4.38,4.97-9.99,8.51-15.01,12.73-9,7.57-18.3,14.78-27.45,22.16-.7,.56-1.31,1.21-2.26,1.29,.75-1.91,.84-3.66,.39-5.83-.33-1.56,1.79-3.57,1.06-5.78,10.7-8.12,22.24-15.03,33.09-22.92,2.76-2,6.49-3.05,7.68-6.86,.27-.25,.5-.23,.7,.09Z"/><path class="ag" d="M303.85,386.35l-.37,.02c-.77-.53-.99-1.33-1.15-2.18-.15-1.25-.21-2.49-.03-3.74,.49-1.54,0-3.32,1.13-4.7,2.34,1.1,3.12-.93,4.35-2.13,4.08-3.96,8.12-7.95,12.3-11.8,1.38-1.27,1.78-2.99,2.76-4.43,.17,.03,.33,.06,.5,.09,.65,.27,1.18,.7,1.68,1.19,.84,.93,1.57,1.92,1.64,3.25-3.25,5.61-7.51,10.36-12.45,14.53-3.37,3.5-7.04,6.76-9.01,11.37-.64-.31-.54-1.31-1.35-1.47Z"/><path class="aw" d="M303.3,384.18c.06,.73,.12,1.46,.17,2.2,.06,1.02,.12,2.03,.18,3.05-1.28,1.54-2.25,3.41-4.27,4.19-.25,.02-.5,.04-.76,.06-2.53-.39-4.11-3.4-7.09-2.55,.5-3.4,3.86-4.47,5.72-6.77,1.65-2.05,3.84-3.5,3.64-6.59-.03-.53-.16-2.63,1.83-1.93,.24,.74,.03,1.5,.12,2.24,.16,2.04-.71,4.15,.46,6.11Z"/><path class="c`" d="M275.78,406.06c1.61,.89,1.58,2.92,4.03,3.87,2.69,1.04-.7,4.77-.91,7.4-1.33,2.19-2.98,4.09-4.95,5.72,.74-3.55,1.48-7.09,2.28-10.93-1.73-.68-3.93,.41-5.46-1.11,1.07-2.26,3.42-3.22,5.01-4.95Z"/><path class="an" d="M290.74,391.33c-.86-.55-1.73-1.09-2.59-1.64-.4-.87,.32-1.27,.81-1.15,1.39,.33,1.59,1.59,1.78,2.79Z"/><path class="d" d="M302.23,377.33c.17-.5,.33-1,.5-1.5l.35-.06h.35c-.16,1.48,.45,3.03-.29,4.48-1.09-.73-.28-2.05-.9-2.92Z"/><path class="ag" d="M450.89,423.22c-6.84-6.82-12.73-14.47-19.19-21.62-1.09-1.21-2.21-2.38-3.31-3.58-5.04-4.66-9.57-9.77-13.44-15.46-.38-2.77-2.77-5.61,.24-8.29,.96-.22,1.79,.19,2.39,.81,3.63,3.77,8.05,6.81,10.74,11.46,8.41,8.35,16.82,16.68,25.2,25.05,1.33,1.33,2.49,2.83,3.73,4.25-.74,1.35-2.45,1.83-2.75,3.73-.3,1.93-1.43-1.49-2.04,.03-.49,1.22-.15,2.79-1.58,3.61Z"/><path class="bl" d="M488.23,409.81c-3.94,2.82-7.89,5.64-11.83,8.46-1.93-3.49-5.38-5.38-8.26-7.86-1.32-1.13-2.85-2.02-3.87-3.49-2.97-2.13-3.44-5.24-3.26-8.59-.04,1.43,.41,2.87-.07,4.22-1.62,.12-2.31-.81-2.9-1.8-.44-.73,.1-1.6-.18-2.39-.1,2.44-.99,1.77-1.74,.36-.51-.96-1.26-1.51-2.08-2.11-.95-.69-1.18-1.94-1.84-2.86-.83-1.16-.73-2.38-.31-3.63,.46-1.37,.99-2.87,2.82-2.37,1.59,.43,1.9,1.75,1.51,2.57,.07-.24,.52-1.02,1.35-1.55,1.53-.25,2.69,.62,3.82,1.39,7.96,5.44,16.13,10.53,24.07,16.01,1.29,.89,3.07,1.5,2.8,3.63Z"/><path class="ag" d="M457.6,389.02c-.78,1.32-1.61,2.61-1.37,4.47-1.15-.67-.96-1.16-.92-1.67,.09-1.17,1.03-2.46-.51-3.41-.72-.45-1.4-.22-1.57,.38-.4,1.39-1.16,2.56-.52,4.38,.88,2.53,4.47,2.73,4.25,5.88,1.05-.6,.09-1.66,.99-2.5,.74,1.91-.32,4.73,2.73,5.57-.02-2.02-.04-3.84-.06-5.66,.48,3.78,1.31,7.36,3.64,10.45l-35.09-29.62c-1.13-.34-2.12-.97-3.14-1.54-3.73-2.59-7-5.72-10.37-8.73-2.05-2.19-5.34-3.32-5.82-6.85,.28-1.44,.96-2.47,2.58-2.55,13.91,9.47,28.1,18.52,41.95,28.07,1.27,.87,3.1,1.3,3.22,3.33Z"/><path class="ap" d="M410.33,360.31c.98,3.02,4.43,3.8,5.83,6.44,2.63,3.58,7,5.38,9.46,9.15,.11,.17,.67-.54,1.1-.71,1.06,.43,1.89,1.12,2.45,2.12-1.78,2.94-.21,6.2-.85,9.24-3.2-3.11-6.36-6.26-9.6-9.32-1.08-1.02-2.34-1.85-3.52-2.77-3.54-2.78-7.39-5.26-9.04-9.79,0-.38,.05-.74,.16-1.1,1.05-1.43,1.67-3.42,4.02-3.26Z"/><path class="cu" d="M450.89,423.22c.43-2.07,.86-4.15,1.3-6.29,1.04,.52,.34,1.99,1.76,2.47-.64-2.84,.44-4.14,3.3-3.55,1.06,.43,1.87,1.14,2.45,2.12-.39,1.69-.83,3.37-1.14,5.07-.3,1.63-.86,2.74-3.34,1.73,2.03,1.93,2.08,3.74,1.55,5.67-1.96-2.41-3.92-4.82-5.88-7.23Z"/><path class="ba" d="M367.04,344.39c1.24-.49,2.51-.6,3.82-.33,.87,.24,1.44,.83,1.84,1.61,3.34,9.38,5.92,19,8.75,28.54,.25,.85,.34,1.73,.17,2.62-.1,.43-.3,.81-.59,1.15-.8,.52-1.62,.56-2.46,.09-1.29-1.49-1.73-3.36-2.25-5.17-2.31-8-5.08-15.88-6.53-24.1-.04-.85-.75-1.6-.56-2.13-.07,1.22,.96,2.61,.99,4.18,1.98,8.2,1.9,16.6,2.55,24.93,.09,1.14-.01,2.29-.85,3.22l-.81,.32c-.5-.21-1.01-.42-1.51-.63-1.48-1.47-1.51-3.4-1.65-5.28-.56-7.42-1.15-14.83-1.48-22.26-.04-1.85-.4-3.71-.08-5.57,.15-.44,.38-.84,.68-1.2Z"/><path class="bt" d="M370.73,448.2c-1.13-.74-.77-1.97-.97-3.01-.02-.63,.07-1.21,.65-1.58,1,1.03,1.24,.58,1.04-.56-.31-1.71-.63-3.38,2.04-3.17,1.85,.15,4.26-1.06,5.09,1.73,.72,2.4-.96,3.32-2.9,3.82-.6,1.71,2.87,.7,1.71,2.92-.87,1.65-3.76,1.06-3.61,3.57-1.89-.66-1.47-2.74-2.44-3.96-.05-.06-.25-.06-.35-.02-.11,.04-.18,.17-.26,.26Z"/><path class="s" d="M378.77,377.76c.7,0,1.4-.01,2.11-.02,5.68,15.47,10.16,31.33,15.42,46.94,.37,1.09,.63,2.22-.2,3.26-.81,2.78-.76,5.54-.74,8.45,.05,7.38,.52,14.87-1.57,22.13-.04,.14-.45,.18-.69,.27,.41-7.7,.97-15.4,.01-23.21-.68,3.17-1.36,6.34-2.04,9.51-2.74-6.41-3.4-13.36-5.1-20.04-2.98-11.71-5.7-23.49-8.5-35.24-.61-2.57-.81-5.28-1.72-7.73-.93-2.51,.12-3.37,2.18-3.95,.16-.39,.44-.53,.84-.38Z"/><path class="aa" d="M387.08,451.59c-1.4-2.48,.42-4.71,.25-7.86,1.94,3.3,1.6,5.64-.25,7.86h0Z"/><path class="cc" d="M365.98,348.26c-1.1,10.23-2.21,20.46-3.31,30.68-.53-.12-1.06-.25-1.59-.37-.25-.07-.51-.15-.76-.22-1.18-1.12-.97-2.55-.78-3.92,1.18-8.4,1.72-16.88,3.13-25.24,.37-1.3,.47-2.66,.75-3.98,.13-.38,.36-.67,.71-.87,.99-.82,1.95-.14,2.93,.06,.02,.23,.04,.46,.04,.69-.66,.96,.1,2.41-1.1,3.18Z"/><path class="cl" d="M413.1,419.83c-.25,.01-.49,.03-.74,.04-.98-.19-1.5-.92-1.88-1.74-6.05-13-13.19-25.44-19.37-38.37-.75-1.57-1.85-3.11-1.26-5.04,.13-.38,.34-.71,.6-1.01,1.48-.89,2.86-2.08,4.8-1.67,6.17,10.37,12.59,20.58,19.04,30.77,.76,1.21,.83,2.66,1.69,3.79,2.07,3.93,4.15,7.86,6.22,11.79,.34,1.08,.24,2.12-.34,3.1-2.32,.2-1.92-1.77-2.39-3.04-.17-.45-.1-1.1-.81-1.06-.75,.04-1.13,.56-1.07,1.27,.14,1.65,.06,3.29-.04,4.93-.07,1.08-.23,2.13-1.76,1.41h0c-.67-1.84-1.17-3.77-2.68-5.17Z"/><path class="at" d="M415.73,382.13c3.11,5.11,7.64,9.04,11.34,13.66,.56,.7,1.25,1.27,1.32,2.23-.16,.7-.81,1.37-.26,2.11,2.07,2.81,.88,6.24,2.18,9.32-1.75,.28-1.81-2.47-3.5-1.35-3.38-3.64-5.79-7.99-8.75-11.93-.89-1.18-1.51-2.7-3.05-3.3-2.95-2.62-5.03-5.95-7.18-9.17-3-4.49-6.69-8.49-9.31-13.25-.09-1.11,.67-1.68,1.43-2.25,.8-.5,1.62-.92,2.6-.93,4.94,3.25,8.14,8.13,11.68,12.67,.54,.68,.93,1.5,1.49,2.18Z"/><path class="cw" d="M398.77,370.3c6.07,7.06,11.34,14.68,16.25,22.57-4.05,1.73-2.05,4.7-1.86,7.45,1.18-.24,1.05-.82,1.13-1.47,.11-.84-.87-2.42,.69-2.42,1.56,0,2,1.84,1.57,2.86-1.03,2.44-.2,4.89-.56,7.3-6.4-8.53-11.54-17.87-17.12-26.92-1.42-2.3-3.97-4.11-3.71-7.29,.06-1.68,1.44-1.88,2.6-2.34,.37-.06,.71,.02,1.02,.25Z"/><path class="af" d="M415.78,425c1.88-2.06,.6-4.51,.86-6.78,.09-.76-1.14-2.39,.9-1.87,.94,.24,2.96-.95,2.87,1.4-.05,1.44,.06,2.75,1.24,3.75,.65-.39-.11-1.99,1.41-1.63l.88,1.46c.32,1.14,.9,2.12,1.75,2.94h0c-2.55,2.38-4.32,5.13-3.59,9.16-2.04-.87-2.02-2.94-3.66-3.27-2.04-1.13-2.28-3.19-2.67-5.16Z"/><path class="aj" d="M425.7,424.27c-1.2-.61-2.57-1.12-1.75-2.94,1.05,.7,1.54,1.74,1.75,2.94Z"/><path class="aj" d="M423.07,419.87c-.47,.54-.94,1.09-1.41,1.63-.2-1.11,.1-2.12,.54-3.12,.63,.29,.81,.85,.87,1.48Z"/><path class="cl" d="M464.81,361.7c.12,4.76,4.18,3.24,6.69,4.21,.78,.49,1.72-.03,2.52,.41,9.47,2.82,18.49,6.83,27.76,10.19,3.16,1.14,3.46,1.99,1.35,4.59-2.65,3.27-4.25,7.54-8.53,9.34-4.87-1.16-9.11-3.78-13.46-6.05-7.43-3.87-15.2-6.98-22.71-10.64-1.28-.62-3.03-.89-2.91-2.95-1.44-1.15-2.93-2.25-4.31-3.47-1.22-1.08-.9-2.2-.25-3.63,.84-1.84,2.15-1.32,3.16-.89,1.5,.64,1.48-.83,2.21-1.2,1.65,.61,3.33,1.14,4.94,1.84,1.96,.86,2.89-.11,3.55-1.75Z"/><path class="s" d="M390.68,374.7c-.3,3.54,2.05,6.12,3.45,8.96,5.94,12.14,12.14,24.15,18.24,36.21-.42,.79-1.29,1.99-1.76,.69-.61-1.7-3.53-2.42-1.94-5.27,.7-1.24-1-2.91-2.68-3.86-1.35,3.44-2.73,6.67-.21,10.22,.86,1.21,.79,2.92-.64,4.1-.04-.24-.07-.48-.09-.73-1.2-.67-1.7-1.85-2.2-3.02-6.01-14.02-11.45-28.27-17.35-42.34-.39-.94-.73-1.9-.58-2.96,.49-1.69,2.02-1.94,3.38-2.43,.85-.21,1.65-.1,2.38,.41Z"/><path class="al" d="M413.1,419.83c2.43,.92,2.44,3.1,2.68,5.17-1.16-1.58-2.09-3.29-2.68-5.17Z"/><path class="al" d="M455.51,370.79c2.65,2.46,6.07,3.55,9.29,4.86,9.58,3.9,18.52,9.1,27.91,13.35,.67,.3,1.22,.86,1.83,1.3,.19,.11,.28,.24,.26,.4-.02,.16-.06,.25-.11,.25-2.33,6.22-2.96,13.03-6.45,18.86-3.29-3.59-7.65-5.71-11.64-8.33-6.32-4.16-12.66-8.31-18.99-12.46-10.74-7.36-21.52-14.67-32.55-21.59-3.82-2.4-7.48-5.05-11.25-7.55-.81-.54-1.3-1.18-1.39-2.13-.16-.17-.25-.36-.26-.56-.02-.21,0-.32,.03-.32,.35-.91,.84-1.75,1.28-2.62,.72-.78,.83-2.32,2.45-2.01,10.53,5.08,21.04,10.23,31.62,15.21,2.6,1.22,4.96,3.11,7.99,3.35Z"/><path class="cp" d="M321.62,436.38c-1.78,.46-2.4-1.69-3.95-1.75-3.89-1.02-7.79-2.05-11.68-3.08-2.42,.2-3.95-1.37-5.56-2.78,2.58-1.09,5.12,.11,7.68,.12,1-.74,2.1-.44,3.18-.3,.68-.17,2.31,1.34,1.73-1-.24-.98-.69-1.93-.63-2.95,.06-1.02-.29-2.49,1.63-2.17,1.3,2.32,3.1,4.45,2.75,7.38,.42,3.06,3.21,4.37,4.85,6.52Z"/><path class="t" d="M313.73,422.46c-1.85,2.93,1.15,5.42,.75,8.25-1.32,.11-1.92-1.62-3.3-1.32-1.02-.65-1.26-1.75-1.59-2.8-.06-.25-.12-.51-.18-.76,1.47-1.01,1.94-2.51,1.94-4.18,0-1.07,.05-2.01,1.41-2.15,.74,.23,1.24,.7,1.42,1.47,.07,.56-.03,1.07-.45,1.48Z"/><path class="b`" d="M300.42,428.78c1.85,.93,3.71,1.86,5.56,2.78,0,.21,.02,.43,.03,.64-3.03,.44-4.72-1.9-6.79-3.39-.09-.06,.78,0,1.2-.04Z"/><path class="q" d="M309.59,426.59c1.26,.52,1.57,1.58,1.59,2.8-1.14,.56-2-.65-3.08-.49,.5-.77,.99-1.54,1.49-2.31Z"/><path class="cl" d="M385.5,376.62c6.31,15.54,12.63,31.08,18.94,46.63,.24,.58,.41,1.19,.61,1.78-.73,3.11,0,6.12,.68,9.12-.67,.31-1.18,.05-2.16-1.13,1.32,3.11,1.21,5.49-1.28,6.74-1.63,.82-1.69-1.29-2.44-2.11-1.69-3.06-1.8-6.74-3.76-9.69-4.93-15.29-9.84-30.59-14.81-45.87-.47-1.45-1.28-2.8-.41-4.34,.05-.19,.17-.33,.35-.41,1.14-1.93,2.64-1.72,4.27-.71Z"/><path class="ck" d="M399.86,437.64c1.03,.16,1.14,2.58,2.49,1.34,.8-.73,2.2-2.02,1.13-3.49-.75-1.02-.83-2.12,0-2.62,.91-.56,1.23,1.26,2.26,1.28,.57,.05,.88-1.82,1.48-.41,1.5,3.5,2.97,7.05,4,10.7,.52,1.84-1.75,1.83-2.42,1.35-1.36-.98-1.29-.26-1.6,.71-.53,1.62-1.24,3.16-3.47,2.36-1.88-3.53-2.85-7.38-3.87-11.21Z"/><path class="bi" d="M406.96,461.61c-.33,3.09-2.88,1.3-4.31,1.97,.52-2.41,1.52-4.59,3.2-6.42,1.81,1.13-.6,3.3,1.11,4.46Z"/><path class="ah" d="M406.96,461.61c-1.04,.05-1.72-.19-1.45-1.49,.2-.97,.24-1.98,.35-2.97-.04-.51-.07-1.02-.11-1.53,.56,.43,2.38-1.76,1.88,.94-.31,1.67-.45,3.36-.66,5.05Z"/><path class="cn" d="M331.87,366.88c-.33-.51-.67-1.02-1-1.53,1.68-4.31,5.68-6.58,8.71-9.66,4.88-4.96,10.22-9.46,14.9-14.62,.51-.85,1.41-1.02,2.25-1.31,.49-.05,.98-.09,1.47-.14,.32,.46,.63,.92,.95,1.38,.56,1.82-.89,2.64-1.83,3.71-6.45,6.08-12.87,12.19-19.26,18.33-1.6,1.54-2.91,3.57-5.42,3.87l-.76-.03Z"/><path class="v" d="M357.09,344.15c.69-1.05,1.37-2.1,2.06-3.15,.6,1.01,2,1.52,1.84,2.99-.08,.89-.58,1.61-.95,2.39-5.08,8.41-10.84,16.38-16.18,24.62-.57,.87-1.31,1.53-2.32,1.83-.85-.08-1.32-.67-1.78-1.28-.84-1.38,.04-2.44,.74-3.45,5.49-8.01,10.47-16.37,16.59-23.95Z"/><path class="ar" d="M390.68,374.7l-2.01,.27c-2.57-1.35-3.27-4.07-4.53-6.33-4.25-7.6-8.51-15.2-12.36-23.02-.31-.52-.62-1.04-.93-1.56,.22-.3,.45-.6,.67-.91l2.29-.16c1.62-.41,2.07,.79,2.61,1.88,2.21,6,5.91,11.23,8.87,16.84,1.54,2.92,3.27,5.74,4.74,8.7,.56,1.12,1.41,2.18,.74,3.56-.05,.24-.08,.48-.1,.73Z"/><path class="v" d="M351.01,376.85l-.88-.76c-.91-1.07-.42-2.21-.03-3.24,3.27-8.66,5.58-17.68,9.57-26.08,.43-.94,.87-1.88,1.47-2.73,1.15-1.56,2.03-.36,2.97,.3-.09,.11-.16,.22-.23,.34-.47,.82,.04,1.78-.39,2.6-2.47,8.81-6.07,17.23-8.95,25.9-.44,1.33-.83,2.69-2.18,3.45-.45,.07-.9,.15-1.35,.22Z"/><path class="j" d="M374.11,335.4c.24,.22,.48,.43,.72,.65-.24-.22-.48-.43-.72-.65Z"/><path class="ba" d="M358.5,333.35c-.09-.16-.2-.32-.26-.49,0-.02,.19-.12,.29-.18,.02,.23,0,.45-.03,.67Z"/><path class="v" d="M383.49,339.25c4.11,3.3,9.09,4.98,13.68,7.39,5.51,2.89,11.12,5.58,16.69,8.36-.14,.96-.58,1.7-1.49,2.12-1.69,.66-2.93-.45-4.27-1.11-9.49-4.64-18.77-9.69-28.36-14.14-.7-.32-1.33-.71-1.59-1.5-.05-1.1,.36-1.93,1.42-2.37,1.31,.42,2.61,.83,3.92,1.25Z"/><path class="ba" d="M378.15,340.37c.56,.23,1.13,.46,1.69,.69,8.48,6.22,16.55,12.95,24.59,19.73,.95,.8,2.07,1.52,2.28,2.92,0,.18,.02,.36,.05,.54-.37,.96-.95,1.6-2.09,1.44-4.71-3.18-9.27-6.58-13.48-10.41-2.71-2.46-5.68-4.6-7.99-6.58,4.97,5.1,9.84,11.12,14.93,16.94,.88,1.01,2.16,1.84,2.15,3.44-.5,.41-1,.81-1.51,1.22-.23,.02-.45,.07-.68,.12-1.28,.51-1.87-.55-2.46-1.25-6.74-8-14.28-15.33-20.14-24.07-.05-1.11-.66-1.77-1.68-2.12,1.22-1.24,2.4-2.55,4.33-2.62Z"/><path class="cp" d="M356.73,339.76c-.47,.37-.94,.74-1.41,1.12-.89,1.44-2.29,2.29-3.66,3.17-7.75,4.97-15.79,9.47-23.68,14.22-1.08,.65-2.19,1.32-3.54,.74-.7-.35-1.36-.73-1.59-1.56,9.34-5.53,18.68-11.06,28.01-16.62,.26-.15,.38-.54,.56-.81,1.15-.84,2.41-1.28,3.85-1.05,.49,.26,.97,.53,1.46,.79Z"/><path class="co" d="M357.7,331.19c.25,.21,.5,.43,.74,.64-.25-.21-.5-.43-.74-.64Z"/><path class="s" d="M362.31,318.96c.81,.11,1.32,.51,1.2,1.22-.07,.38-.71,1.02-.86,.96-.53-.21-1.22-.58-1.38-1.05-.28-.82,.7-.78,1.05-1.12Z"/><path class="s" d="M290.2,393.42c1.11,.97,2.22,1.93,3.33,2.9-1.92-.04-3.04-.98-3.33-2.9Z"/><path class="cp" d="M349.95,425.29c-.28,.04-.55,.08-.83,.12,1.37-1.88,2.99-1.34,4.65-.48-1.27,.12-2.55,.24-3.82,.36Z"/><path class="au" d="M332.75,425.48c.86,1.12,.83,2.25,.88,3.53,1.11-.79,2.1-1.81,3.42-1.27,.47,.19,.85,1.2,.33,1.66-1.11,.98-2.4,1.77-3.61,2.63-.49-.81-1.35-1.59-1.39-2.42-.06-1.31-.69-2.73,.36-4.13Z"/><path class="cp" d="M337.41,441.38c-.55-1.08-2.17-1.52-1.88-3.1,.54,.33,1.08,.66,1.61,.99,.34,.7,1.15,1.18,.97,2.11-.23-.01-.47-.01-.7,0Z"/><path class="cp" d="M341.47,443.45c-1.71,.22-2.54-.97-3.42-2.1,1.7-.21,2.46,1.1,3.42,2.1Z"/><path class="cp" d="M344.33,444.79c.61,.71,1.23,1.42,1.84,2.14-1.65,.15-2.48-.97-3.27-2.14,.48,0,.95,0,1.43,0Z"/><path class="bf" d="M314.21,376.45c4-4.91,8-9.83,11.99-14.74,2-.04,3.26,.74,3.24,2.94-3.82,4.13-6.29,9.22-9.66,13.67-.68,.89-1.16,1.92-2.18,2.5-.2-2.18-1.6-3.42-3.39-4.36Z"/><path class="cp" d="M303.85,386.35c1.12-.13,1.12,.78,1.35,1.47-.35,1.26,.76,2.73-.58,3.84-.26-1.77-.51-3.54-.77-5.31Z"/><path class="bd" d="M313.36,385.69c-.27-.24-.54-.49-.82-.73,.08-.56,.16-1.12,.23-1.68,.86,.55,1.2,1.38,1.3,2.34-.24,.04-.48,.07-.72,.07Z"/><path class="ca" d="M313.62,420.93c-.29-.48-.57-.95-.86-1.43,.68-1.09,1.35-2.17,2.03-3.26,1.81-.74,2.87-.13,3.18,1.79,.31,1.97,.78,3.89,2,5.53-.66,1.57-1.32,3.14-1.99,4.71-2.22,.01-2.09-1.97-2.74-3.27-.66-1.31-.79-2.83-1.61-4.07Z"/><path class="g" d="M313.62,420.93c2.62,1.76,1.75,5.58,4.36,7.34,.03,.51,.06,1.01,.1,1.52-.44,.02-.87,.05-1.31,.07-.79-2.56-2.92-4.57-3.04-7.4-.04-.51-.07-1.02-.11-1.53Z"/><path class="ca" d="M331.6,436.27c1.29,1.74,2.03,2.72,2.74,3.72,.52,.72,1.16,1.65-.09,2.08-.67,.24-1.75,.03-1.91-1.19-.15-1.21-.39-2.41-.75-4.61Z"/><path class="bq" d="M299.38,393.62c1.1-1.73,2.09-3.57,4.27-4.19,.05,1.11,.39,2.25-.33,3.27-.38,.54-.51,1.04-.27,1.72,.31,.89,2.96,.29,1.55,1.8-1.04,1.11-2.33-.62-3.41-1.34-.61-.41-1.22-.84-1.83-1.26Z"/><path class="cp" d="M302.23,377.33c.97,.77,.55,1.96,.9,2.92,.06,1.31,.11,2.62,.17,3.93-1.64-2.08-1.33-4.47-1.07-6.85Z"/><path class="ac" d="M404.77,365.39c.66-.38,1.32-.76,1.98-1.14,.78,2.66,2.83,4.32,4.81,6.01,1.43,1.22,2.81,2.47,3.64,4.2-1.23,2.65-.18,5.15,.53,7.67-4.39-4.8-8.77-9.6-13.16-14.4-.32-1.77,.95-2.04,2.2-2.34Z"/><path class="aj" d="M426.72,375.18l-1.62,2.67c-.86-4.86-5.05-6.65-8.28-9.02-1.28-.94-.88-1.25-.66-2.09,3.52,2.81,7.04,5.62,10.56,8.44Z"/></g></g></g></svg>