<?xml version="1.0" encoding="UTF-8"?><svg xmlns="http://www.w3.org/2000/svg" viewBox="0 0 743.55 1023.13"><defs><style>.d{fill:#ceb98e;}.e{fill:#b59968;}.f{fill:#fadcb0;}.g{fill:#fc6464;}.h{fill:#fb5247;}.i{fill:#f7173c;}.j{fill:#ba0621;}.k{fill:#a30519;}.l{fill:#d6d2d9;}.m{fill:#fc3732;}.n{fill:#ad1729;}.o{fill:#fd8c8b;}.p{fill:#840b1f;}.q{fill:#f52d58;}.r{fill:#fc4142;}.s{fill:#fe7b7c;}.t{fill:#db3445;}.u{fill:#121324;}.v{fill:#fbde5e;}</style></defs><g id="a"/><g id="b"><g id="c"><g><path class="e" d="M598.29,383.2l-3.89-3.44-3.89-3.44-3.89-3.44-3.89-3.44-8.85-11.86-8.85-11.86-8.85-11.86-8.85-11.86,3.2-1.99,3.19-1.99,3.2-1.99,3.2-1.99,6.78,13.2,6.78,13.2,6.78,13.2,6.78,13.2,3.93,3.42,3.93,3.42,3.93,3.42,3.93,3.42-1.16,.68-1.16,.68-1.16,.68-1.16,.67Z"/><path class="d" d="M594.09,386.06l-2.9-4.31-2.9-4.31-2.9-4.31-2.9-4.31-5.59-13.7-5.59-13.7-5.59-13.7-5.59-13.7,3.59-1.13,3.59-1.13,3.59-1.13,3.59-1.13,3.25,14.48,3.25,14.48,3.25,14.48,3.25,14.48,2.94,4.3,2.94,4.29,2.94,4.29,2.94,4.3-1.29,.36-1.29,.36-1.29,.36-1.29,.36Z"/><path class="e" d="M594.66,387.66l-1.34,.03-1.34,.03-1.34,.03-1.34,.03-1.73-4.9-1.73-4.9-1.73-4.9-1.73-4.9-1.97-14.67-1.97-14.67-1.97-14.67-1.97-14.67,3.76-.19,3.76-.19,3.76-.19,3.76-.19-.48,14.83-.48,14.83-.48,14.83-.48,14.83,1.77,4.9,1.77,4.9,1.77,4.9,1.77,4.91Z"/><path class="d" d="M589.45,389.46l-1.31-.31-1.31-.31-1.31-.31-1.31-.31-.45-5.18-.45-5.18-.44-5.17-.45-5.18,1.77-14.69,1.77-14.69,1.77-14.69,1.77-14.69,3.69,.76,3.69,.76,3.69,.76,3.69,.76-4.19,14.23-4.19,14.23-4.19,14.23-4.19,14.23,.48,5.18,.49,5.18,.49,5.18,.48,5.18Z"/><path class="e" d="M583.95,389.91l-1.19-.63-1.19-.63-1.19-.63-1.19-.63,.87-5.12,.87-5.12,.87-5.12,.87-5.12,5.4-13.78,5.4-13.78,5.4-13.78,5.4-13.78,3.38,1.66,3.38,1.66,3.38,1.66,3.38,1.66-7.63,12.73-7.63,12.73-7.63,12.73-7.63,12.73-.83,5.14-.83,5.14-.83,5.14-.83,5.14Z"/><path class="d" d="M578.52,388.95l-.97-.93-.97-.93-.97-.93-.97-.93,2.1-4.71,2.1-4.71,2.1-4.71,2.1-4.71,8.69-11.98,8.68-11.99,8.68-11.99,8.69-11.98,2.86,2.46,2.85,2.46,2.86,2.46,2.85,2.46-10.58,10.41-10.58,10.41-10.58,10.41-10.58,10.41-2.1,4.77-2.1,4.77-2.09,4.77-2.1,4.77Z"/><path class="e" d="M573.5,386.67l-.73-1.12-.73-1.12-.73-1.12-.73-1.12,3.25-4.06,3.25-4.05,3.25-4.06,3.25-4.05,11.41-9.42,11.41-9.42,11.41-9.42,11.41-9.42,2.15,3.09,2.15,3.09,2.15,3.09,2.15,3.09-12.85,7.42-12.85,7.42-12.85,7.42-12.85,7.42-3.22,4.09-3.22,4.09-3.22,4.09-3.22,4.09Z"/><path class="d" d="M569.22,383.19l-.43-1.28-.43-1.28-.43-1.28-.43-1.28,4.16-3.1,4.16-3.1,4.16-3.11,4.16-3.1,13.41-6.26,13.41-6.26,13.41-6.26,13.41-6.26,1.3,3.53,1.3,3.53,1.3,3.53,1.3,3.53-14.3,3.96-14.3,3.96-14.3,3.96-14.3,3.96-4.15,3.15-4.15,3.15-4.15,3.15-4.15,3.15Z"/><path class="e" d="M585.15,370.72l-4.8,2.01-4.8,2.01-4.81,2.01-4.8,2.01-.1-1.36-.1-1.36-.1-1.36-.1-1.36,4.81-1.95,4.81-1.95,4.81-1.95,4.81-1.95,14.55-2.69,14.55-2.69,14.55-2.69,14.55-2.69,.37,3.75,.37,3.75,.37,3.75,.37,3.75-14.84,.24-14.84,.24-14.84,.24-14.84,.23Z"/><path class="n" d="M573.88,293.51l-4.59,1.29-4.59,1.29-4.59,1.29-4.59,1.29-4.46,2.6-4.46,2.6-4.46,2.6-4.46,2.6-12.43-16.66-12.44-16.67-12.44-16.67-12.44-16.67,8.67-5.06,8.67-5.06,8.67-5.06,8.67-5.06v-.02l-.02-.02v-.02l-.02-.02,.1-.03,.1-.03,.1-.03,.1-.03,.09-.05,.09-.05,.09-.05,.09-.05v.02l.02,.02v.02l.02,.02,9.47-2.67,9.47-2.67,9.47-2.67,9.46-2.67v-.07l-.02-.03h.4l.1-.03,.1-.03,.1-.03,.1-.02v.07l.02,.03,9.84-.2,9.84-.2,9.84-.2,9.84-.2v-.1l.11,.02,.1,.02,.1,.02,.1,.02h.4v.09l9.57,2.27,9.58,2.27,9.58,2.27,9.58,2.27v-.05l.02-.03v-.02l.1,.05,.09,.05,.09,.05,.09,.05,.1,.02,.1,.02,.1,.02,.1,.03v.02l-.02,.02v.03l-.02,.02,8.7,4.6,8.7,4.6,8.7,4.6,8.7,4.6v-.02l.03-.02v-.02l.03-.02,.07,.07,.07,.07,.07,.07,.07,.07,.09,.05,.09,.05,.09,.05,.09,.05v.02l-.03,.02-.02,.02v.02l7.26,6.64,7.27,6.64,7.27,6.64,7.27,6.64h.01l.02-.03h.02l.02-.03,.05,.08,.05,.08,.06,.08,.05,.08,.07,.07,.07,.07,.07,.07,.07,.07-.02,.02h-.02l-.02,.03-.02,.02,5.37,8.25,5.37,8.25,5.37,8.25,5.37,8.25h.02l.02-.02h.02l.02-.02,.03,.09,.03,.09,.03,.09,.03,.09,.05,.08,.05,.08,.05,.08,.05,.08h-.02l-.02,.02h-.02l-.02,.02,3.13,9.33,3.13,9.33,3.13,9.33,3.13,9.33h.09v.08l.02,.1v.1l.02,.1,.03,.09,.03,.09,.03,.09,.03,.08h-.07l-.02,.02,.69,9.82,.69,9.82,.69,9.82,.69,9.82h.1l-.02,.1-.02,.1-.02,.1-.02,.1v.2l.02,.1v.1h-.09l-1.84,9.87-1.84,9.87-1.84,9.87-1.84,9.87-19.88-6.08-19.89-6.08-19.89-6.09-19.88-6.08,.94-5.07,.94-5.07,.94-5.07,.94-5.07-.33-4.76-.33-4.76-.33-4.76-.33-4.76-1.52-4.52-1.52-4.52-1.52-4.52-1.52-4.52-2.6-4-2.6-4-2.6-4-2.6-4-3.52-3.22-3.52-3.22-3.52-3.22-3.52-3.22-4.22-2.23-4.22-2.23-4.22-2.23-4.22-2.23-4.64-1.1-4.64-1.1-4.64-1.1-4.64-1.1-4.77,.1-4.77,.1-4.77,.1-4.77,.1Z"/><path class="p" d="M575.87,306.87l-3.77,1.06-3.77,1.06-3.77,1.06-3.77,1.06-3.76,2.19-3.76,2.19-3.76,2.19-3.76,2.19-1.46-1.95-1.45-1.95-1.46-1.95-1.46-1.95,3.91-2.28,3.92-2.28,3.91-2.28,3.92-2.28,.35-.2,.35-.2,.35-.2,.35-.2,.39-.11,.39-.11,.39-.11,.39-.11,3.59-1.01,3.59-1.01,3.59-1.01,3.59-1.01,.39-.11,.39-.11,.39-.11,.39-.11h.4l.4-.02h.4l.4-.02,3.72-.08,3.73-.08,3.73-.08,3.72-.08h.4l.4-.02h.4l.4-.02,.39,.09,.39,.09,.39,.09,.39,.09,3.63,.86,3.63,.86,3.63,.86,3.63,.86,.39,.09,.39,.09,.39,.09,.39,.09,.36,.19,.36,.19,.36,.19,.36,.19,3.3,1.74,3.3,1.74,3.3,1.74,3.29,1.74,.36,.19,.36,.19,.36,.19,.36,.19,.3,.27,.3,.27,.3,.27,.3,.27,2.75,2.51,2.75,2.51,2.75,2.51,2.75,2.51,.3,.27,.3,.27,.3,.27,.3,.27,.22,.34,.22,.34,.22,.34,.22,.34,2.03,3.12,2.03,3.13,2.03,3.12,2.03,3.13,.22,.34,.22,.34,.22,.34,.22,.34,.13,.38,.13,.38,.13,.38,.13,.38,1.18,3.53,1.18,3.53,1.18,3.53,1.18,3.53,.13,.38,.13,.38,.13,.38,.13,.38,.03,.4,.03,.4,.03,.4,.03,.4,.26,3.72,.26,3.72,.26,3.72,.26,3.72,.03,.4,.03,.4,.03,.4,.03,.4-.07,.4-.07,.4-.07,.4-.07,.4-.83,4.46-.83,4.45-.83,4.46-.83,4.45-2.33-.71-2.33-.71-2.33-.71-2.33-.71,.8-4.28,.8-4.28,.8-4.28,.8-4.28-.27-3.91-.27-3.91-.27-3.91-.27-3.91-1.24-3.71-1.24-3.71-1.24-3.71-1.24-3.71-2.14-3.28-2.14-3.28-2.14-3.28-2.14-3.28-2.89-2.64-2.89-2.64-2.89-2.64-2.89-2.64-3.46-1.83-3.46-1.83-3.46-1.83-3.46-1.83-3.81-.9-3.81-.9-3.81-.9-3.81-.91-3.92,.08-3.92,.08-3.91,.08-3.92,.08Z"/><path class="d" d="M641.11,388.01l-14.15-4.33-14.15-4.33-14.15-4.33-14.15-4.33-5.16,.74-5.16,.74-5.16,.74-5.16,.74,.85-4.56,.85-4.56,.85-4.56,.85-4.56,4.55,2.54,4.54,2.54,4.55,2.54,4.55,2.54,14.76,1.05,14.76,1.05,14.76,1.05,14.76,1.05-.85,4.56-.85,4.56-.85,4.56-.85,4.56Z"/><path class="n" d="M656.54,372.22l-.03-.4-.03-.4-.03-.4-.03-.4-2.44-.19-2.44-.19-2.44-.19-2.44-.19,.03,.45,.03,.46,.03,.45,.03,.46-.08,.45-.08,.45-.08,.45-.08,.45,2.44,.08,2.44,.08,2.44,.08,2.44,.08,.08-.4,.07-.4,.08-.4,.08-.4Zm-1.26-18.1l-.13-.38-.13-.38-.13-.38-.13-.38-2.4,.44-2.4,.44-2.4,.44-2.4,.44,.14,.42,.14,.42,.14,.42,.14,.42,.03,.43,.03,.43,.03,.43,.03,.43,2.39-.51,2.39-.51,2.39-.51,2.39-.51-.03-.4-.03-.4-.03-.4-.03-.41Zm-15.63-32.37l-.3-.28-.3-.28-.3-.28-.3-.28-1.9,1.54-1.9,1.54-1.9,1.54-1.9,1.54,.34,.31,.34,.31,.34,.31,.34,.31,.25,.39,.25,.38,.25,.38,.25,.38,1.83-1.63,1.82-1.64,1.83-1.63,1.83-1.63-.22-.33-.21-.33-.21-.33-.22-.33Zm9.88,15.18l-.22-.34-.22-.34-.22-.34-.22-.34-2.23,1.01-2.23,1.01-2.23,1.01-2.23,1.01,.26,.4,.26,.4,.26,.4,.26,.4,.14,.42,.14,.43,.14,.42,.14,.42,2.18-1.11,2.18-1.11,2.18-1.11,2.18-1.11-.13-.37-.13-.38-.13-.38-.13-.38Zm-23.28-27.43l-.36-.19-.36-.19-.36-.19-.36-.19-1.43,1.98-1.43,1.98-1.43,1.98-1.43,1.98,.38,.2,.38,.2,.38,.2,.38,.2,.33,.29,.33,.29,.33,.29,.33,.29,1.38-2.02,1.38-2.02,1.38-2.02,1.38-2.02-.3-.27-.3-.27-.3-.27-.29-.27Zm-16.03-8.49l-.39-.09-.4-.09-.4-.09-.39-.09-.88,2.28-.88,2.28-.88,2.28-.88,2.28,.42,.1,.42,.1,.42,.1,.42,.1,.36,.19,.36,.19,.36,.19,.36,.19,.86-2.29,.85-2.28,.86-2.29,.85-2.28-.36-.19-.36-.19-.36-.19-.35-.19Zm-17.64-4.19h-.41l-.41,.02h-.41l-.41,.02-.26,2.43-.26,2.42-.26,2.43-.26,2.43h.41l.41-.02h.41l.41-.02,.45,.11,.45,.11,.45,.11,.45,.11,.2-2.44,.2-2.44,.2-2.44,.2-2.44-.39-.09-.39-.09-.39-.09-.4-.1Zm-16.72,10.03h.43l.43-.02h.43l.43-.02-.38-2.41-.39-2.41-.39-2.41-.38-2.41h-.4l-.4,.02h-.4l-.4,.02-.39,.11-.39,.11-.39,.11-.39,.11,.31,2.43,.31,2.43,.31,2.43,.31,2.43,.43-.12,.43-.12,.43-.12,.43-.12Zm-13.49,3.8l-.96-2.24-.96-2.24-.96-2.24-.96-2.24-.39,.11-.39,.11-.39,.11-.39,.11-.35,.2-.35,.2-.35,.2-.35,.2,.93,2.26,.93,2.26,.93,2.26,.93,2.26,.38-.22,.38-.23,.38-.22,.38-.22,.39-.11,.39-.11,.39-.11,.39-.11Z"/><path class="p" d="M601.77,210.25h-.3l-.1,.02-2.47,20.72-2.47,20.72-2.47,20.72-2.47,20.72h.71l.36-.02h.36l.37,.08,.38,.09,.37,.09,.37,.09,1.93-20.78,1.94-20.78,1.93-20.78,1.93-20.78-.1-.02-.1-.02-.1-.02-.09-.03Zm74.59,28.05l-.09-.05-.09-.05-.09-.05-.09-.05-12.25,16.9-12.25,16.9-12.25,16.9-12.25,16.9,.34,.18,.34,.18,.34,.18,.34,.18,.29,.26,.29,.26,.29,.26,.29,.26,11.78-17.23,11.77-17.23,11.78-17.23,11.77-17.23-.07-.06-.07-.07-.07-.06-.07-.07Zm-102.48,55.2h.39l.39-.02h.39l.39-.02-3.36-20.6-3.35-20.6-3.35-20.6-3.36-20.6h-.3l-.1,.02-.1,.02-.1,.02-.1,.02-.1,.02,2.79,20.69,2.79,20.69,2.79,20.69,2.79,20.69,.37-.11,.37-.11,.37-.11,.38-.12Zm-16.96,4.78l-8.39-19.1-8.39-19.1-8.39-19.1-8.39-19.1-.1,.02-.1,.02-.1,.02-.1,.02-.09,.05-.09,.05-.09,.05-.08,.05,7.86,19.33,7.87,19.33,7.86,19.33,7.87,19.33,.36-.21,.36-.21,.36-.21,.36-.21,.35-.1,.35-.1,.35-.1,.35-.1Zm83.93-78.76l-.1-.02-.1-.02-.1-.02-.1-.02-7.64,19.42-7.64,19.42-7.64,19.42-7.64,19.42,.41,.09,.41,.1,.4,.09,.41,.09,.4,.21,.4,.21,.4,.21,.39,.21,7.02-19.66,7.02-19.66,7.02-19.66,7.02-19.66-.09-.05-.09-.05-.09-.05-.09-.05Zm99.83,117.6l-.03-.1-.03-.09-.03-.1-.03-.1-20.49,3.79-20.49,3.79-20.49,3.79-20.49,3.79,.1,.37,.1,.37,.1,.37,.1,.38,.03,.39,.03,.39,.03,.38,.03,.39,20.41-4.35,20.41-4.35,20.41-4.35,20.41-4.35v-.1l-.02-.1v-.1l-.02-.1Zm2.8,40.04v-.09l-.02-.1v-.1l-.02-.1-20.82-1.52-20.82-1.51-20.82-1.52-20.82-1.51,.03,.43,.03,.43,.03,.43,.03,.43-.08,.4-.08,.4-.08,.4-.08,.4,20.85,.88,20.85,.88,20.85,.88,20.85,.88,.02-.1,.02-.1,.02-.1,.02-.11Zm-37.46-111.77l-.08-.07-.08-.07-.08-.07-.08-.07-16.11,13.27-16.11,13.27-16.11,13.27-16.11,13.27,.31,.28,.31,.28,.31,.28,.3,.28,.23,.35,.22,.35,.23,.35,.23,.35,15.71-13.74,15.71-13.74,15.71-13.74,15.71-13.74-.05-.08-.05-.08-.05-.08-.05-.08Zm21.91,33.64l-.06-.08-.06-.08-.06-.08-.06-.08-18.92,8.82-18.92,8.82-18.92,8.82-18.92,8.82,.21,.33,.22,.33,.22,.33,.21,.33,.13,.38,.13,.38,.13,.38,.13,.38,18.66-9.36,18.66-9.35,18.66-9.36,18.66-9.36-.03-.1-.03-.1-.03-.1-.02-.09Z"/><path class="d" d="M612.93,280.29c-.77-.15-1.53-.41-2.27-.79s-1.48-.87-2.21-1.48c-.73-.61-1.45-1.33-2.17-2.17-.72-.84-1.43-1.8-2.14-2.88-.06-.09-.12-.18-.17-.26-.06-.09-.11-.18-.17-.26l-.17-.26c-.06-.09-.11-.18-.17-.27-.32-.49-.63-.98-.95-1.45-.32-.47-.64-.93-.99-1.36s-.7-.84-1.09-1.21c-.39-.38-.81-.72-1.26-1.02l-.07-.05-.07-.05-.07-.05-.07-.05c-.41-.28-.77-.51-1.08-.69-.31-.18-.58-.33-.81-.44s-.42-.19-.57-.25-.28-.09-.38-.1c-.16,.57-.37,1.14-.62,1.67-.25,.53-.54,1.05-.89,1.53-.34,.48-.73,.93-1.17,1.34s-.92,.78-1.46,1.1c-.67,.4-1.42,.7-2.24,.89-.81,.19-1.69,.29-2.58,.27s-1.8-.12-2.7-.34c-.89-.21-1.77-.53-2.59-.95-.67-.34-1.28-.74-1.82-1.18-.54-.44-1.01-.93-1.4-1.46-.39-.53-.71-1.09-.94-1.68-.23-.59-.38-1.21-.44-1.84-.06-.65,0-1.33,.17-1.99,.17-.66,.46-1.3,.85-1.88,.4-.58,.9-1.09,1.5-1.5s1.31-.7,2.11-.85c.48-.09,.93-.08,1.35-.01,.42,.07,.82,.2,1.18,.36s.7,.36,1.01,.57c.31,.2,.58,.41,.83,.6,.05,.04,.1,.08,.15,.11,.05,.04,.1,.07,.15,.11l.14,.1s.09,.07,.14,.1c.16,.11,.29,.24,.38,.39s.16,.32,.2,.49c.03,.17,.04,.35,0,.52s-.1,.35-.21,.5-.24,.29-.39,.38-.32,.16-.49,.2c-.17,.03-.35,.04-.52,0s-.35-.1-.5-.21l-.17-.12c-.06-.04-.12-.08-.17-.13-.06-.04-.12-.09-.18-.13-.06-.05-.12-.09-.18-.14-.23-.17-.44-.33-.64-.46s-.39-.25-.57-.34c-.18-.09-.35-.15-.52-.19s-.34-.04-.51-.01c-.41,.07-.77,.23-1.08,.45-.31,.21-.57,.49-.77,.8-.2,.31-.35,.65-.44,.99-.09,.35-.12,.7-.09,1.04,.05,.54,.2,1.03,.42,1.46,.22,.43,.5,.81,.81,1.13,.31,.33,.65,.6,.97,.83,.33,.23,.65,.41,.91,.55,.61,.31,1.27,.55,1.94,.72s1.35,.26,2.01,.28c.66,.02,1.31-.04,1.9-.17s1.14-.34,1.61-.62c.92-.55,1.64-1.33,2.16-2.24,.52-.91,.85-1.96,1-3.05,.15-1.09,.12-2.23-.08-3.33-.2-1.1-.57-2.15-1.1-3.08-.71-1.24-1.52-2.28-2.42-3.08s-1.9-1.4-2.97-1.77c-1.08-.37-2.24-.52-3.48-.44s-2.55,.38-3.94,.91c-.17,.07-.35,.1-.53,.09-.18,0-.35-.04-.51-.11s-.31-.17-.43-.29c-.12-.13-.23-.28-.29-.45-.61-1.52-1.35-2.87-2.2-4.04s-1.82-2.17-2.91-3-2.29-1.47-3.61-1.94-2.75-.76-4.3-.87c-1.37-.1-2.72,.06-3.99,.43-1.27,.37-2.46,.96-3.51,1.71-1.05,.76-1.96,1.69-2.67,2.75s-1.23,2.25-1.49,3.53c-.02,.1-.05,.2-.09,.29-.04,.09-.09,.18-.15,.26s-.13,.15-.2,.22c-.08,.06-.16,.12-.25,.17-.09,.05-.19,.08-.28,.11-.1,.03-.2,.04-.3,.05-.1,0-.2,0-.3-.02-.1-.02-.2-.05-.29-.08-.36-.15-.74-.26-1.13-.32-.39-.06-.8-.08-1.22-.05-.42,.03-.85,.1-1.28,.22-.43,.12-.87,.28-1.31,.48-.55,.25-1.07,.57-1.57,.93-.49,.36-.95,.77-1.35,1.21-.4,.44-.76,.91-1.06,1.39-.29,.49-.53,.99-.69,1.5-.18,.57-.27,1.18-.28,1.79,0,.61,.07,1.23,.22,1.83,.15,.6,.38,1.18,.68,1.72s.67,1.03,1.1,1.46c.2,.2,.47,.43,.79,.64s.69,.42,1.12,.57c.43,.15,.92,.25,1.46,.26,.54,0,1.13-.07,1.78-.29,.14-.05,.28-.07,.43-.07,.14,0,.28,.02,.42,.07,.14,.04,.26,.11,.38,.19,.12,.08,.22,.18,.31,.3,.09,.12,.15,.25,.2,.38s.07,.27,.07,.42c0,.14-.02,.28-.06,.42s-.1,.27-.19,.39c-.04,.06-.1,.14-.15,.26s-.1,.27-.12,.45,0,.4,.07,.65,.2,.54,.42,.87c.43,.66,1.1,1.31,1.92,1.9,.82,.59,1.79,1.13,2.84,1.55s2.18,.74,3.3,.9,2.25,.15,3.29-.06c.7-.14,1.32-.37,1.88-.68,.56-.31,1.05-.7,1.48-1.18,.42-.47,.78-1.03,1.06-1.67,.29-.64,.5-1.36,.65-2.16,.14-.76,.15-1.49,.05-2.19-.1-.7-.32-1.35-.64-1.94-.32-.59-.75-1.12-1.26-1.57-.52-.44-1.12-.81-1.81-1.06-.3-.11-.62-.18-.95-.2s-.66,0-.99,.06c-.33,.06-.66,.16-.98,.3-.32,.14-.62,.32-.9,.53-.25,.19-.46,.4-.64,.62s-.33,.46-.45,.71c-.12,.25-.2,.51-.25,.78-.05,.27-.06,.54-.03,.82,.02,.19,0,.37-.06,.54-.05,.17-.14,.33-.25,.46-.11,.14-.25,.25-.4,.34s-.33,.14-.52,.16-.37,0-.54-.06c-.17-.05-.33-.14-.46-.25-.13-.11-.25-.25-.33-.4-.08-.16-.14-.33-.16-.52-.05-.52-.03-1.03,.05-1.52s.23-.98,.43-1.43,.47-.89,.8-1.3c.32-.4,.71-.78,1.14-1.12,.47-.36,.98-.66,1.5-.89,.53-.23,1.08-.39,1.63-.49,.56-.09,1.12-.12,1.68-.07,.56,.05,1.11,.17,1.63,.36,1.01,.38,1.9,.9,2.66,1.55s1.38,1.42,1.86,2.28c.48,.86,.8,1.81,.95,2.82s.14,2.08-.06,3.17c-.19,1.07-.5,2.05-.91,2.93s-.92,1.66-1.54,2.32c-.61,.67-1.32,1.23-2.12,1.67s-1.69,.76-2.66,.96c-.46,.09-.93,.16-1.41,.19s-.96,.04-1.44,.02-.97-.07-1.45-.14-.97-.16-1.44-.28c-.91-.22-1.79-.51-2.64-.87-.85-.36-1.65-.77-2.38-1.23s-1.4-.96-1.98-1.5c-.58-.53-1.07-1.09-1.44-1.66-.15-.23-.29-.46-.4-.7s-.21-.47-.29-.7c-.08-.23-.14-.47-.18-.7s-.06-.47-.07-.69c-.52,.02-1.03-.02-1.53-.11s-.99-.23-1.46-.42c-.47-.19-.93-.43-1.37-.72s-.85-.63-1.24-1.01c-.62-.61-1.14-1.31-1.57-2.06-.42-.76-.74-1.57-.95-2.41s-.31-1.7-.3-2.56c.01-.86,.15-1.71,.41-2.53,.04-.12,.08-.24,.12-.36,.04-.12,.09-.24,.14-.35s.1-.23,.15-.35,.11-.23,.17-.35c-.15-.22-.31-.43-.48-.6-.17-.18-.36-.34-.56-.47-.2-.14-.41-.25-.64-.34-.22-.09-.47-.16-.72-.2-.71-.14-1.51-.1-2.35,.07-.84,.17-1.73,.47-2.6,.86-.87,.39-1.73,.88-2.52,1.41s-1.51,1.12-2.11,1.71c-.14,.14-.27,.28-.41,.41-.13,.14-.26,.28-.39,.42s-.25,.28-.38,.42c-.12,.14-.25,.28-.37,.42-.42,.47-.84,.95-1.29,1.41-.45,.46-.93,.9-1.46,1.29-.53,.39-1.11,.74-1.77,1.03-.66,.28-1.4,.5-2.23,.62-.56,.08-1.09,.13-1.59,.14-.5,0-.98-.02-1.44-.08-.46-.07-.91-.17-1.35-.31-.44-.14-.87-.33-1.31-.55-.09-.05-.17-.1-.26-.15-.08-.05-.17-.1-.25-.16s-.16-.11-.24-.17-.15-.12-.23-.18c.38,.6,.89,1.23,1.48,1.85s1.25,1.24,1.93,1.83c.69,.58,1.4,1.13,2.09,1.62s1.35,.9,1.94,1.22c1.38,.74,2.81,1.27,4.26,1.59,1.46,.32,2.93,.44,4.38,.35,1.46-.09,2.89-.38,4.27-.88,1.38-.5,2.7-1.2,3.92-2.1,.09-.07,.19-.12,.29-.16s.21-.07,.32-.09c.11-.02,.22-.02,.33-.01s.22,.03,.33,.07,.21,.09,.3,.15c.09,.06,.18,.13,.25,.21,.07,.08,.14,.17,.19,.27s.1,.2,.13,.31c.2,.73,.49,1.58,.91,2.43,.42,.86,.97,1.72,1.69,2.48s1.6,1.42,2.7,1.87c1.1,.44,2.39,.67,3.94,.58,.09,0,.19,0,.28,.01s.18,.03,.27,.07c.09,.03,.17,.07,.25,.12,.08,.05,.15,.1,.22,.17,.07,.06,.13,.13,.18,.21,.05,.07,.1,.16,.14,.24s.07,.17,.09,.26,.03,.18,.03,.28c.01,1.09,.45,2.04,1.13,2.84,.67,.81,1.58,1.48,2.53,2.02,.95,.54,1.94,.96,2.78,1.26,.84,.3,1.52,.49,1.87,.58,2.08,.54,4.08,.79,6.02,.82,1.94,.03,3.84-.17,5.72-.52s3.75-.86,5.65-1.46c1.9-.6,3.83-1.29,5.82-2,.18-.06,.35-.13,.53-.19,.18-.07,.35-.13,.53-.2,.18-.07,.35-.13,.53-.2l.52-.2c1.07-.4,2.15-.81,3.24-1.17s2.21-.67,3.34-.88c1.13-.21,2.29-.33,3.48-.29,1.19,.03,2.41,.22,3.66,.6,.42,.13,.83,.29,1.22,.46,.39,.17,.77,.36,1.13,.56,.36,.2,.72,.41,1.07,.63,.35,.22,.69,.44,1.02,.65,.4,.26,.8,.52,1.2,.76s.8,.47,1.2,.67c.4,.2,.82,.37,1.25,.5,.43,.13,.87,.22,1.33,.26,.66,.05,1.36,.09,2.06,.08,.7,0,1.42-.05,2.12-.14,.7-.09,1.39-.23,2.06-.44s1.29-.47,1.87-.82c-.15,0-.3,0-.46,0-.15,0-.3-.01-.45-.02s-.3-.03-.45-.05c-.15-.02-.3-.04-.45-.07Zm80.61,15.35c-.05-.6-.17-1.18-.33-1.73s-.38-1.07-.65-1.56c-.27-.48-.58-.93-.93-1.32-.36-.39-.75-.74-1.18-1.02-.2-.13-.4-.24-.61-.34-.2-.1-.41-.18-.62-.25s-.42-.13-.65-.19c-.22-.06-.45-.11-.69-.17-.13-.03-.26-.06-.39-.09-.13-.03-.26-.06-.4-.1-.13-.04-.27-.07-.41-.11-.14-.04-.28-.09-.42-.13-.11-.04-.21-.08-.3-.14-.09-.06-.18-.13-.25-.21-.07-.08-.14-.17-.2-.26s-.1-.2-.13-.31c-.03-.11-.05-.22-.05-.33s0-.22,.03-.32c.02-.11,.06-.21,.1-.31s.11-.19,.18-.28c.39-.48,.71-.96,.96-1.45,.25-.49,.43-.98,.54-1.46s.15-.97,.12-1.44c-.03-.47-.14-.93-.32-1.38-.2-.5-.49-.96-.84-1.38s-.78-.79-1.27-1.11c-.49-.32-1.04-.59-1.64-.8s-1.25-.36-1.94-.45c-.14-.02-.27-.05-.39-.11-.12-.05-.23-.13-.34-.21-.1-.09-.19-.19-.26-.3-.07-.11-.13-.24-.16-.37-.04-.13-.05-.27-.05-.4s.03-.27,.07-.39c.04-.13,.1-.25,.18-.36s.17-.21,.28-.29c.62-.49,1.25-.99,1.85-1.52,.6-.52,1.17-1.07,1.7-1.64s1.01-1.16,1.43-1.78,.77-1.27,1.03-1.95c.66-1.72,.99-3.43,1-5.11,.01-1.67-.29-3.31-.9-4.88-.61-1.57-1.52-3.06-2.72-4.44s-2.69-2.66-4.46-3.79c-.61-.39-1.27-.72-1.98-.97-.71-.25-1.46-.44-2.26-.55-.8-.11-1.64-.16-2.53-.13-.89,.03-1.82,.13-2.79,.29-.91,.16-1.73,.45-2.47,.84-.73,.39-1.38,.89-1.95,1.46s-1.06,1.21-1.47,1.91c-.42,.69-.76,1.43-1.03,2.18,.01,.06,.02,.13,.02,.19,0,.06,0,.13,0,.19,0,.06-.01,.13-.03,.19-.02,.06-.03,.13-.06,.19-.02,.05-.04,.09-.06,.13-.02,.04-.05,.08-.07,.12-.03,.04-.05,.08-.08,.11-.03,.04-.06,.07-.09,.1-.04,.15-.07,.3-.11,.45-.03,.15-.07,.3-.09,.45-.03,.15-.06,.3-.08,.45-.03,.15-.05,.3-.07,.45-.11,.86-.09,1.77,.05,2.71,.14,.93,.4,1.89,.76,2.82,.36,.93,.83,1.84,1.38,2.7,.55,.85,1.2,1.65,1.91,2.34,.55,.53,1.12,.99,1.71,1.38s1.2,.69,1.81,.92,1.24,.38,1.87,.45c.63,.07,1.26,.05,1.89-.04,.3-.05,.61-.14,.91-.28s.6-.32,.89-.54c.29-.22,.57-.47,.82-.76s.5-.6,.71-.95c.21-.33,.38-.67,.51-1.01s.23-.68,.29-1.02c.06-.34,.08-.67,.06-.98-.02-.32-.07-.63-.16-.92-.06-.18-.23-.41-.47-.66s-.54-.51-.85-.75c-.31-.24-.64-.46-.94-.63-.29-.17-.55-.28-.73-.3-.19,.01-.37,0-.54-.07-.16-.06-.32-.15-.44-.26-.13-.11-.24-.25-.31-.41s-.13-.34-.14-.52,.01-.37,.07-.54,.15-.32,.27-.46,.26-.24,.43-.32,.34-.13,.53-.15c.44-.03,.98,.1,1.55,.34,.57,.24,1.18,.6,1.75,1.02s1.1,.9,1.53,1.4c.43,.49,.75,1,.9,1.47,.16,.48,.25,.99,.29,1.5,.04,.52,.01,1.04-.07,1.57-.08,.53-.22,1.06-.42,1.59-.2,.53-.45,1.05-.76,1.55-.32,.52-.68,.99-1.08,1.42s-.82,.81-1.27,1.14-.93,.6-1.41,.81-.99,.36-1.49,.44c-.84,.13-1.69,.15-2.53,.07-.84-.08-1.67-.28-2.49-.57s-1.61-.69-2.38-1.18c-.77-.49-1.51-1.08-2.22-1.77-.87-.85-1.65-1.81-2.32-2.84s-1.23-2.13-1.66-3.26c-.43-1.13-.73-2.29-.9-3.43-.16-1.14-.18-2.27-.04-3.35,.02-.17,.05-.35,.08-.52,.03-.17,.06-.34,.09-.51s.06-.34,.1-.5,.08-.33,.12-.49c-.08-.09-.16-.18-.23-.28s-.14-.19-.2-.29-.12-.19-.18-.29c-.06-.09-.11-.19-.17-.28-.05-.08-.09-.16-.14-.23s-.09-.15-.14-.22-.09-.14-.14-.2c-.05-.06-.09-.12-.14-.16-.21-.22-.44-.42-.69-.6s-.51-.34-.78-.48-.56-.28-.85-.4c-.29-.12-.58-.23-.87-.33-.57-.2-1.15-.35-1.72-.45-.57-.09-1.14-.12-1.7-.1-.56,.02-1.12,.1-1.66,.24-.55,.14-1.08,.33-1.6,.58-.57,.27-1.1,.62-1.58,1.01s-.92,.86-1.31,1.36c-.39,.51-.72,1.06-1,1.66s-.49,1.23-.64,1.9c-.16,.7-.24,1.4-.24,2.09s.07,1.38,.21,2.05c.14,.67,.36,1.31,.64,1.91s.63,1.17,1.05,1.69c.48,.59,1.02,1.12,1.6,1.58s1.2,.83,1.82,1.12c.63,.29,1.26,.49,1.87,.59s1.21,.1,1.76-.02c.37-.08,.72-.21,1.04-.4,.31-.19,.6-.42,.85-.71s.48-.63,.67-1.03,.36-.84,.49-1.34c.09-.33,.14-.65,.14-.95,0-.3-.02-.58-.09-.85-.07-.27-.19-.52-.34-.76-.15-.24-.35-.47-.59-.69-.18-.16-.32-.29-.46-.37s-.26-.14-.4-.17c-.14-.03-.28-.03-.46-.02s-.38,.04-.64,.07l-.22,.03-.23,.03c-.08,0-.16,.02-.24,.03-.08,0-.16,.02-.25,.02-.19,.01-.37,0-.54-.07s-.32-.15-.46-.26c-.13-.11-.24-.25-.33-.41s-.13-.33-.15-.52,0-.37,.06-.54c.06-.17,.14-.33,.26-.46s.25-.24,.41-.33,.33-.13,.52-.15c.07,0,.14-.01,.21-.02,.07,0,.14-.02,.2-.02l.19-.02c.06,0,.12-.02,.19-.03,.31-.04,.62-.08,.94-.09,.32-.01,.65,0,.99,.07,.34,.07,.69,.18,1.06,.38,.37,.19,.76,.47,1.17,.85,.42,.39,.78,.82,1.06,1.27s.5,.93,.64,1.43c.14,.5,.21,1.03,.2,1.57s-.09,1.11-.24,1.69c-.2,.75-.46,1.43-.78,2.04s-.7,1.15-1.14,1.61c-.43,.46-.92,.85-1.46,1.15-.54,.3-1.12,.53-1.75,.66-.64,.14-1.31,.17-1.99,.13-.68-.05-1.38-.19-2.08-.41s-1.39-.52-2.06-.89c-.67-.37-1.32-.82-1.93-1.33-.15-.13-.31-.26-.45-.4-.15-.14-.29-.28-.44-.42-.14-.14-.28-.29-.42-.45s-.27-.31-.4-.47c-.54-.68-1-1.42-1.37-2.21s-.65-1.62-.84-2.49c-.19-.86-.28-1.75-.28-2.65s.1-1.81,.31-2.71c.04-.18,.09-.36,.13-.54,.05-.18,.1-.36,.16-.53,.06-.18,.12-.35,.18-.52,.06-.17,.13-.34,.2-.51l-.05-.05-.05-.05s-.03-.03-.05-.05-.03-.03-.05-.05c-.12-.12-.24-.23-.36-.34s-.24-.21-.36-.31c-.12-.1-.25-.19-.39-.27-.14-.08-.28-.15-.44-.21-.31-.12-.63-.22-.97-.3-.33-.08-.68-.14-1.03-.2s-.72-.1-1.09-.13c-.37-.04-.75-.07-1.14-.1-.24-.02-.48-.04-.72-.06s-.48-.04-.72-.07c-.24-.03-.48-.06-.72-.09s-.48-.07-.71-.12c-1.22-.23-2.4-.57-3.54-1.03-1.14-.46-2.23-1.03-3.28-1.72-1.05-.69-2.07-1.5-3.05-2.43s-1.92-1.99-2.83-3.16c-.6-.78-1.15-1.42-1.68-1.95-.53-.53-1.05-.96-1.6-1.3-.55-.34-1.13-.61-1.78-.82-.65-.21-1.38-.36-2.23-.49-.45-.07-.88-.11-1.29-.13-.41-.02-.81-.02-1.2,0-.39,.02-.76,.06-1.12,.13-.36,.06-.72,.15-1.06,.25,.21,.06,.43,.13,.65,.2,.22,.07,.43,.15,.65,.23,.21,.08,.43,.18,.64,.27,.21,.1,.42,.2,.64,.32,.85,.46,1.53,.93,2.1,1.43,.57,.5,1.02,1.03,1.4,1.6,.38,.57,.69,1.17,.97,1.82,.28,.65,.54,1.34,.81,2.08l.06,.16,.06,.16,.06,.16,.06,.16c.06,.17,.13,.34,.2,.5,.07,.17,.14,.33,.22,.5,.08,.17,.16,.34,.24,.51,.08,.17,.16,.34,.25,.52,.13,.27,.26,.54,.38,.81,.13,.27,.25,.55,.37,.83,.12,.28,.23,.56,.33,.85,.1,.29,.2,.59,.28,.89,.09,.35,.17,.7,.22,1.05,.05,.35,.09,.69,.11,1.03,.02,.34,.04,.68,.04,1.01s0,.67,0,1c0,.19,0,.38,0,.57,0,.19,0,.37,0,.55,0,.18,.01,.37,.02,.55,.01,.18,.02,.36,.04,.54l.02,.24,.02,.24,.02,.24,.02,.24c.06,.67,.13,1.37,.21,2.07,.08,.7,.18,1.4,.3,2.08,.13,.68,.28,1.35,.48,1.97s.44,1.21,.73,1.74c.82,1.46,1.92,2.64,3.16,3.6,1.24,.96,2.6,1.69,3.94,2.25s2.65,.95,3.77,1.22c1.12,.27,2.05,.41,2.64,.49,1.64,.21,3.04,.66,4.25,1.29,1.21,.63,2.22,1.44,3.1,2.36s1.59,1.96,2.21,3.04c.62,1.09,1.13,2.22,1.59,3.35,.07,.17,.14,.33,.2,.5,.07,.17,.13,.33,.2,.5,.07,.17,.13,.33,.2,.49l.19,.49c.4,1.02,.79,2.01,1.2,2.95s.84,1.86,1.34,2.74,1.05,1.71,1.71,2.51c.66,.8,1.41,1.55,2.3,2.27,.8,.65,1.7,1.31,2.67,1.91,.97,.6,2,1.15,3.08,1.57,1.07,.42,2.19,.71,3.31,.81,1.12,.1,2.25,0,3.37-.36,.54-.18,1.02-.39,1.43-.62s.75-.5,1.03-.8,.48-.62,.62-.97,.21-.73,.21-1.14c0-.51-.11-1.05-.31-1.57s-.49-1.05-.84-1.52c-.35-.48-.77-.91-1.22-1.26-.45-.35-.94-.63-1.44-.79-.29-.1-.56-.15-.82-.16s-.5,.02-.73,.1c-.23,.08-.45,.2-.66,.35-.21,.16-.4,.37-.58,.62-.07,.09-.12,.23-.16,.4-.04,.17-.07,.36-.08,.57,0,.21,0,.42,.04,.62,.04,.21,.1,.4,.19,.56,.03,.06,.06,.1,.09,.13,.03,.03,.05,.05,.07,.06s.05,.02,.07,.02c.02,0,.04,0,.07,0,.19-.02,.37,0,.54,.06,.17,.05,.32,.14,.46,.25s.25,.25,.33,.41,.14,.33,.15,.52c.02,.19,0,.37-.06,.54-.06,.17-.14,.32-.26,.46s-.25,.24-.41,.33-.33,.14-.52,.15c-.31,.03-.6,0-.88-.05s-.55-.16-.8-.29c-.25-.14-.48-.31-.69-.52-.21-.21-.39-.46-.55-.74-.21-.38-.37-.81-.46-1.26-.1-.45-.14-.92-.12-1.38s.09-.92,.22-1.34,.31-.81,.55-1.14c.36-.49,.76-.9,1.2-1.23s.91-.57,1.41-.74c.5-.16,1.03-.24,1.57-.23s1.11,.11,1.68,.3c.36,.12,.7,.26,1.04,.44,.34,.18,.66,.38,.98,.6,.31,.23,.61,.48,.9,.74,.29,.27,.55,.56,.8,.86l.09-.22c.03-.07,.06-.15,.09-.22s.06-.15,.1-.22c.03-.07,.07-.14,.1-.21,.28-.56,.6-1.06,.96-1.52,.36-.45,.76-.85,1.2-1.19s.9-.62,1.4-.84c.5-.22,1.02-.37,1.57-.46,.77-.12,1.51-.09,2.22,.06,.71,.15,1.38,.42,1.99,.78,.62,.35,1.18,.79,1.67,1.28s.91,1.02,1.24,1.57c.19,.32,.37,.75,.53,1.24,.15,.49,.27,1.05,.34,1.63s.08,1.17,.03,1.74-.18,1.11-.39,1.58c-.1,.22-.22,.42-.35,.6-.13,.18-.28,.33-.45,.47-.16,.13-.34,.25-.53,.33-.19,.09-.39,.15-.61,.19-.19,.03-.37,.02-.54-.01-.17-.04-.34-.11-.48-.22-.14-.1-.27-.23-.36-.38-.1-.15-.17-.32-.2-.51-.03-.18-.03-.35,0-.52,.04-.16,.1-.32,.19-.46,.09-.14,.21-.26,.34-.36,.14-.1,.29-.18,.46-.22,.08-.14,.14-.38,.17-.68,.03-.3,.03-.66,0-1.02s-.09-.75-.17-1.09-.2-.65-.33-.88c-.21-.35-.48-.7-.79-1.01s-.65-.6-1.03-.83-.78-.41-1.21-.51c-.42-.1-.87-.13-1.32-.05-.42,.07-.79,.2-1.12,.37-.33,.17-.62,.39-.88,.62s-.47,.49-.66,.76-.34,.53-.46,.78c-.26,.52-.46,1.1-.6,1.69-.14,.6-.21,1.22-.23,1.83s.04,1.21,.15,1.77,.29,1.08,.53,1.54c.32,.6,.68,1.17,1.07,1.71,.39,.54,.83,1.05,1.29,1.51s.96,.89,1.48,1.28c.52,.38,1.06,.72,1.63,1,.79,.4,1.52,.7,2.24,.88,.72,.19,1.42,.27,2.14,.25s1.46-.15,2.26-.38c.79-.23,1.64-.58,2.58-1.03,.98-.47,1.9-1.14,2.71-1.93,.81-.8,1.53-1.73,2.11-2.73s1.03-2.08,1.31-3.17,.37-2.2,.28-3.25Zm-9.42,93.62s.03-.04,.05-.06c.02-.02,.04-.05,.06-.08s.04-.07,.06-.1c.02-.04,.04-.07,.06-.11,.06-.11,.14-.25,.23-.39s.2-.28,.34-.42c.13-.14,.3-.27,.49-.39,.2-.11,.42-.21,.69-.28,.16-.04,.33-.05,.5-.05,.17,0,.35,.03,.55,.08s.4,.1,.63,.18,.47,.16,.74,.26c.09,.03,.18,.07,.28,.1,.1,.03,.2,.07,.29,.1,.1,.03,.19,.06,.26,.08s.14,.04,.18,.04c.98,.1,2.05-.07,3.12-.46,1.07-.39,2.13-.98,3.11-1.72,.97-.73,1.86-1.61,2.56-2.56,.7-.95,1.21-1.97,1.45-2.99,.18-.78,.21-1.66,.1-2.58-.11-.91-.35-1.85-.71-2.73-.36-.88-.84-1.71-1.41-2.4-.58-.69-1.25-1.23-2.01-1.56-.11-.05-.21-.1-.3-.17-.09-.07-.17-.15-.25-.24s-.13-.19-.18-.29c-.05-.1-.08-.22-.1-.34-.02-.12-.02-.23-.01-.35,.01-.11,.04-.23,.07-.34,.04-.11,.09-.21,.16-.31s.14-.18,.23-.26c.2-.18,.42-.38,.62-.61,.21-.23,.41-.48,.58-.75,.18-.27,.33-.56,.44-.87,.11-.31,.19-.64,.2-.98,.01-.24-.01-.49-.06-.73s-.13-.49-.25-.73-.25-.49-.43-.73-.37-.48-.61-.72c-.34-.36-.7-.65-1.07-.89-.37-.25-.75-.45-1.15-.62s-.81-.31-1.24-.44-.87-.25-1.33-.37c-.16-.04-.32-.08-.48-.13s-.32-.09-.48-.13c-.16-.05-.33-.09-.49-.14-.16-.05-.33-.1-.5-.16-.11-.04-.22-.09-.31-.15s-.18-.14-.26-.22c-.08-.08-.14-.18-.2-.28-.05-.1-.1-.21-.13-.32-.02-.11-.04-.23-.04-.34,0-.11,.02-.23,.05-.34,.03-.11,.07-.22,.13-.32,.05-.1,.13-.2,.21-.28,.76-.78,1.26-1.77,1.53-2.85s.33-2.27,.2-3.46-.45-2.38-.91-3.47c-.47-1.09-1.08-2.08-1.81-2.87-.79-.86-1.82-1.53-2.96-2.01-1.15-.47-2.41-.75-3.69-.82-1.28-.07-2.56,.06-3.75,.4s-2.28,.89-3.17,1.66c-.49,.42-.9,.97-1.22,1.6-.32,.63-.56,1.35-.71,2.11s-.19,1.57-.15,2.39c.05,.82,.2,1.64,.46,2.44,.1,.3,.25,.7,.47,1.14s.51,.91,.88,1.36c.37,.44,.83,.86,1.38,1.18,.56,.32,1.21,.55,1.98,.61,.19,.02,.38,.01,.57-.02,.19-.03,.38-.08,.57-.14,.19-.07,.37-.16,.55-.26,.18-.11,.35-.24,.52-.38,.2-.17,.38-.37,.55-.57,.16-.21,.31-.43,.43-.66s.22-.47,.29-.71c.07-.24,.11-.48,.13-.72,.02-.37,.01-.67-.04-.92-.05-.25-.15-.44-.31-.62s-.38-.33-.67-.49c-.29-.16-.65-.33-1.1-.53-.05-.02-.1-.05-.15-.07s-.1-.05-.15-.07c-.05-.02-.1-.05-.16-.07s-.11-.05-.16-.07c-.17-.08-.32-.19-.44-.32-.12-.13-.21-.28-.27-.45-.06-.16-.09-.34-.08-.52s.05-.36,.13-.53c.08-.17,.19-.32,.32-.44,.13-.12,.28-.21,.45-.27s.34-.09,.52-.08c.18,0,.36,.05,.53,.13,.05,.02,.1,.05,.15,.07,.05,.02,.1,.05,.15,.07,.05,.02,.1,.04,.15,.07,.05,.02,.1,.04,.14,.06,.46,.21,.94,.42,1.39,.68s.88,.56,1.25,.95c.36,.39,.66,.85,.86,1.44s.29,1.29,.23,2.16c-.02,.42-.1,.85-.22,1.26-.12,.42-.28,.82-.48,1.22-.2,.39-.44,.77-.71,1.12-.28,.35-.58,.68-.92,.97-.31,.27-.63,.5-.97,.7s-.69,.36-1.05,.48c-.36,.12-.72,.21-1.1,.26-.37,.05-.74,.06-1.12,.03-.82-.07-1.6-.27-2.32-.58-.73-.31-1.4-.74-2.01-1.27-.61-.53-1.15-1.17-1.62-1.89s-.85-1.54-1.14-2.44c-.34-1.06-.54-2.16-.59-3.24-.06-1.08,.03-2.16,.24-3.18,.21-1.02,.56-1.98,1.02-2.84s1.05-1.61,1.75-2.21c.48-.41,.99-.78,1.54-1.1,.55-.32,1.12-.59,1.72-.82s1.22-.41,1.85-.55,1.28-.23,1.94-.27c-.39-.98-.9-1.89-1.52-2.71s-1.37-1.57-2.24-2.24c-.87-.67-1.86-1.26-2.97-1.77-1.11-.51-2.35-.96-3.71-1.32-1.74-.47-3.12-1.17-4.2-2.04-1.09-.87-1.89-1.89-2.47-2.99-.59-1.1-.96-2.28-1.19-3.46-.23-1.18-.33-2.36-.36-3.45-.16,.2-.31,.41-.45,.62-.15,.21-.28,.41-.41,.6-.12,.19-.23,.37-.32,.51-.09,.15-.16,.28-.19,.37-.15,.37-.28,.79-.39,1.23-.11,.44-.18,.92-.24,1.41s-.08,1-.07,1.5,.04,1.02,.1,1.52c.09,.71,.26,1.38,.49,2.02s.53,1.26,.87,1.87c.34,.6,.72,1.19,1.13,1.78,.41,.59,.84,1.17,1.28,1.76,.23,.31,.47,.63,.7,.96,.23,.32,.47,.65,.7,.98,.23,.33,.45,.67,.67,1.01,.22,.34,.43,.69,.62,1.05,.62,1.13,1.04,2.22,1.31,3.3s.38,2.12,.39,3.15c0,1.03-.09,2.06-.24,3.08s-.35,2.05-.56,3.09c-.05,.25-.1,.51-.15,.76s-.1,.51-.14,.77-.09,.52-.14,.78c-.05,.26-.09,.52-.13,.79-.03,.18-.06,.36-.09,.55-.03,.18-.06,.37-.1,.56-.03,.19-.07,.37-.11,.56-.04,.18-.07,.37-.11,.55-.1,.49-.19,.97-.28,1.46s-.16,.97-.22,1.44c-.06,.47-.09,.93-.09,1.37,0,.44,.03,.87,.11,1.27,.05,.24,.12,.48,.21,.71,.09,.23,.21,.46,.33,.68s.27,.45,.42,.67c.15,.22,.31,.45,.47,.68,.07,.09,.13,.19,.2,.28,.07,.09,.13,.19,.2,.29,.07,.1,.13,.19,.19,.29,.07,.1,.13,.2,.19,.3,.24-.17,.49-.33,.75-.48s.52-.28,.79-.41,.55-.23,.83-.33c.28-.1,.57-.18,.86-.24,.73-.17,1.58-.26,2.47-.26s1.83,.09,2.76,.28,1.86,.47,2.71,.84,1.65,.86,2.32,1.44c.39,.34,.73,.71,1.02,1.09s.52,.8,.7,1.23,.31,.88,.38,1.35c.07,.47,.08,.95,.04,1.45-.06,.74-.3,1.43-.65,2.07-.35,.63-.83,1.2-1.37,1.68s-1.16,.87-1.79,1.14-1.28,.43-1.91,.46c-.4,.02-.82-.03-1.23-.15s-.81-.31-1.17-.58-.69-.64-.95-1.1-.46-1.02-.57-1.69c-.03-.19-.02-.37,.02-.54s.12-.33,.22-.48c.1-.14,.23-.27,.38-.36,.15-.1,.32-.16,.51-.19,.19-.03,.37-.02,.55,.02,.18,.04,.34,.12,.48,.22,.14,.1,.27,.23,.36,.38s.16,.32,.18,.51c.05,.32,.13,.55,.22,.73,.09,.17,.19,.29,.3,.36,.11,.08,.22,.11,.32,.13,.1,.01,.2,.01,.28,0,.31-.01,.65-.11,.99-.26,.34-.16,.68-.38,.98-.65,.3-.26,.57-.57,.77-.9,.2-.33,.33-.68,.36-1.03,.02-.27,.02-.54-.02-.8-.04-.25-.11-.5-.21-.73-.1-.23-.23-.46-.4-.67-.16-.21-.36-.42-.58-.61-.48-.42-1.07-.77-1.73-1.05-.65-.28-1.36-.49-2.08-.63s-1.45-.21-2.14-.22c-.69,0-1.34,.06-1.89,.19-.61,.14-1.15,.36-1.63,.62-.48,.26-.91,.57-1.28,.9-.37,.33-.69,.69-.96,1.05s-.5,.71-.68,1.05c-.32,.58-.58,1.2-.78,1.85-.2,.64-.33,1.31-.39,1.98-.07,.67-.07,1.35,0,2.01,.07,.66,.21,1.31,.41,1.92,.14,.41,.36,.89,.64,1.38,.28,.49,.62,.99,1.01,1.47,.38,.47,.8,.91,1.24,1.27,.44,.36,.89,.64,1.34,.78,.15,.05,.29,.08,.43,.1,.14,.02,.27,.01,.4,0,.13-.02,.26-.05,.38-.11s.25-.12,.37-.21c.12-.09,.25-.15,.39-.19,.14-.04,.28-.06,.42-.06,.14,0,.28,.03,.42,.07,.14,.04,.27,.11,.38,.2,.12,.09,.22,.19,.3,.31,.08,.12,.15,.24,.19,.38s.06,.28,.06,.42-.03,.29-.07,.43l-.02,.05-.02,.05-.02,.05-.02,.05s-.01,.04-.02,.06-.02,.05-.03,.07c0,.03-.02,.05-.03,.07,0,.03-.02,.05-.03,.07,.03,.18,.06,.36,.08,.53,.02,.17,.04,.33,.05,.49,.01,.16,.02,.31,.03,.46,0,.15,.01,.29,.02,.43,.01,.31,.03,.58,.05,.82,.03,.24,.07,.45,.15,.65s.2,.39,.36,.58,.39,.39,.69,.62c.38,.28,.81,.53,1.27,.74,.47,.21,.96,.38,1.47,.51s1.02,.2,1.51,.23c.49,.03,.97,0,1.4-.08,.33-.06,.67-.16,1.02-.28,.35-.12,.7-.28,1.05-.46,.35-.18,.68-.38,1.01-.6s.64-.45,.92-.7Z"/><path class="e" d="M653.47,271.28c-.13,.03-.26,.05-.39,.07-.13,.02-.27,.04-.4,.05-.13,.01-.27,.02-.41,.02-.14,0-.27,0-.41,0l-2,2.75-1.99,2.75-1.99,2.75-2,2.75c.12,.18,.23,.37,.34,.55,.11,.19,.21,.37,.32,.56,.1,.19,.2,.38,.3,.57s.19,.38,.29,.58l2.35-3.43,2.35-3.43,2.35-3.43,2.35-3.43c-.08,.03-.17,.07-.25,.1-.09,.03-.17,.06-.26,.09-.09,.03-.17,.05-.26,.08-.09,.03-.18,.05-.27,.07Zm-32.15-2.29c.11,.19,.22,.38,.34,.57s.24,.36,.37,.54c.13,.17,.26,.35,.4,.51,.14,.17,.28,.33,.42,.49l1.75-4.9,1.75-4.9,1.75-4.9,1.75-4.9c-.14-.06-.29-.12-.43-.18s-.28-.12-.42-.19-.28-.13-.42-.2-.28-.14-.42-.21l-1.76,4.47-1.76,4.47-1.76,4.47-1.76,4.47s.03,.06,.05,.1l.04,.1s.03,.06,.05,.09c.01,.03,.03,.06,.05,.09Zm-54.26-26.92c-.14-.03-.27-.05-.41-.08s-.28-.05-.42-.07-.28-.04-.43-.05c-.14-.02-.29-.03-.43-.05l.64,4.79,.64,4.79,.64,4.79,.64,4.79c.36,.47,.66,.98,.91,1.51,.25,.54,.44,1.1,.57,1.69s.21,1.2,.22,1.83c.01,.63-.04,1.28-.16,1.93-.03,.14-.05,.27-.08,.41-.03,.14-.06,.27-.09,.4-.03,.13-.07,.26-.1,.39s-.07,.26-.11,.38l.45,3.38,.46,3.38,.46,3.38,.45,3.38c.23-.05,.45-.1,.67-.15,.23-.05,.45-.11,.67-.16,.23-.06,.45-.12,.68-.18s.45-.12,.68-.18l-1.64-10.08-1.64-10.08-1.64-10.08-1.63-10.08Zm95.31,14.86s-.02,.1-.02,.15c0,.05-.02,.1-.02,.15,0,.05-.02,.1-.02,.14,0,.05-.02,.1-.02,.14-.02,.17-.04,.34-.05,.51-.01,.17-.02,.35-.02,.53,0,.18,0,.35,.01,.54s.02,.36,.04,.54l1.98-2.89,1.98-2.89,1.98-2.89,1.98-2.89h-.06s-.04,.01-.06,.02c-.02,0-.04,0-.06,0h-.06c-.12,.03-.25,.05-.37,.08-.12,.03-.24,.06-.36,.09s-.24,.07-.35,.1c-.12,.04-.23,.07-.34,.12l-1.53,2.11-1.53,2.11-1.53,2.12-1.53,2.1Zm-120.82,8.37c-.53-.53-1-1.12-1.39-1.76-.39-.64-.7-1.32-.94-2.03-.23-.71-.39-1.45-.45-2.19s-.05-1.49,.06-2.23l-.49-1.11-.49-1.11-.49-1.11-.49-1.11c-.14-.01-.29-.02-.43-.02-.15,0-.3,0-.45,.01s-.3,.03-.46,.04c-.16,.02-.31,.05-.47,.08l2.16,5.3,2.15,5.3,2.16,5.3,2.15,5.3c.21,.11,.43,.22,.65,.32s.46,.18,.71,.26,.5,.14,.76,.2c.27,.05,.54,.1,.82,.13l-.93-2.12-.93-2.12-.93-2.12-.93-2.12c-.12-.08-.24-.16-.35-.24-.12-.08-.23-.17-.34-.26s-.23-.18-.34-.28-.21-.2-.32-.3Zm117.26-.62l.32-.48,.32-.48,.33-.48,.32-.48c-.05-.17-.1-.34-.15-.52-.05-.17-.09-.34-.13-.52s-.08-.34-.11-.52c-.03-.17-.06-.34-.09-.52l-.28,.38-.28,.38-.28,.38-.28,.38c.07,.19,.12,.38,.17,.58,.05,.2,.08,.4,.1,.6,.02,.2,.04,.41,.04,.62,0,.21,0,.43-.02,.64Zm-3.34,1.78l-.23,.32-.23,.32-.23,.32-.23,.32c.09-.08,.18-.18,.26-.27,.08-.1,.16-.19,.24-.3,.08-.11,.15-.22,.22-.33,.07-.12,.14-.24,.2-.37Zm-59.43-1.26c-.08,.3-.18,.59-.29,.88s-.23,.57-.36,.85c-.13,.28-.28,.55-.43,.81s-.33,.52-.51,.77l-.24,2.04-.24,2.04-.24,2.04-.24,2.04c.21,0,.41,.02,.62,.03,.2,.01,.41,.03,.62,.06s.41,.05,.62,.09,.42,.07,.63,.12l.26-2.85,.26-2.85,.26-2.85,.26-2.85c-.12-.06-.23-.11-.33-.15-.1-.04-.19-.08-.27-.11-.08-.03-.15-.05-.22-.07-.07-.02-.12-.03-.17-.04Zm83.71,83.4c.21,.09,.42,.19,.63,.29,.21,.1,.42,.21,.63,.32,.21,.11,.41,.24,.6,.37s.38,.28,.56,.44l1.87-.4,1.86-.4,1.86-.4,1.86-.4c-.07-.19-.14-.37-.22-.55s-.16-.36-.24-.53c-.09-.17-.17-.34-.27-.51-.09-.17-.19-.33-.29-.49l-2.53,.47-2.53,.47-2.53,.47-2.53,.47c.06,0,.11,0,.17,0,.06,0,.11,0,.17,.02,.06,0,.11,.02,.17,.04,.06,.02,.11,.04,.16,.06,.05,.02,.1,.05,.15,.07,.05,.02,.1,.05,.15,.07,.05,.02,.1,.04,.15,.07,.04,.03,.09,.05,.14,.07Zm18.54,24.91l-3.98-.29-3.98-.29-3.98-.29-3.98-.29c-.04,.24-.09,.48-.16,.71-.07,.23-.16,.45-.26,.67-.1,.22-.22,.43-.34,.63-.13,.2-.27,.4-.42,.59l4.55,.19,4.55,.19,4.55,.19,4.55,.19c-.07-.2-.14-.39-.22-.58s-.16-.38-.26-.57c-.09-.18-.19-.37-.29-.54-.11-.18-.21-.36-.32-.52Zm-29.07-23.58l-.76,.14-.76,.14-.76,.14-.76,.14c-.01,.07-.03,.13-.04,.2s-.03,.14-.04,.2-.03,.14-.04,.2-.03,.14-.04,.2c-.03,.18-.07,.37-.11,.55s-.07,.37-.1,.56-.07,.37-.1,.56-.07,.38-.1,.57l.99-.21,.99-.21,.99-.21,.99-.21c-.05-.23-.1-.46-.14-.69-.04-.23-.07-.47-.1-.7-.03-.23-.05-.46-.06-.7-.02-.23-.02-.46-.03-.69Zm3.02,2.2l1.47-.31,1.47-.32,1.47-.31,1.47-.31s-.02,0-.03-.01c-.01,0-.02,0-.03-.01-.01,0-.02,0-.03-.01-.01,0-.02,0-.03-.01-.17-.08-.32-.19-.44-.32-.12-.13-.21-.28-.27-.45-.06-.16-.09-.34-.08-.52s.05-.36,.13-.53c.04-.09,.09-.17,.15-.25s.12-.14,.19-.2c.07-.06,.15-.11,.23-.16s.17-.08,.25-.11l-1.55,.29-1.55,.29-1.55,.29-1.55,.29c0,.22,0,.45,0,.67s.02,.45,.05,.68,.05,.45,.09,.68c.03,.22,.08,.45,.13,.67Zm7.36,20.02l-3.42-.25-3.42-.25-3.42-.25-3.42-.25c-.12,.24-.24,.49-.34,.74-.1,.25-.2,.51-.28,.77-.08,.26-.15,.52-.22,.79s-.11,.54-.15,.81l1.99,.08,1.99,.08,1.99,.08,1.99,.09-.05-.18c-.01-.06-.03-.12-.05-.18s-.03-.13-.04-.19-.02-.13-.03-.2c-.03-.19-.02-.37,.02-.54s.12-.33,.22-.48c.1-.14,.23-.27,.38-.36,.15-.1,.32-.16,.51-.19,.19-.03,.37-.02,.55,.02,.18,.04,.34,.12,.48,.22,.14,.1,.27,.23,.36,.38s.16,.32,.18,.51c.05,.32,.13,.55,.22,.73,.09,.17,.19,.29,.3,.36,.11,.08,.22,.11,.32,.13,.1,.01,.2,.01,.28,0,.29-.01,.59-.09,.9-.23,.31-.14,.62-.33,.9-.55,.28-.23,.55-.49,.76-.78,.21-.29,.37-.6,.46-.92Zm-11.76-75.83l-.95,.78-.95,.78-.95,.78-.95,.78c-.04,.1-.1,.2-.16,.29-.06,.09-.14,.17-.23,.24s-.18,.13-.28,.18c-.1,.05-.21,.09-.33,.11l-.78,.64-.78,.64-.78,.64-.78,.64c.27,.09,.54,.16,.81,.23s.54,.12,.82,.17,.55,.08,.82,.11c.28,.02,.55,.03,.83,.03l1.41-1.24,1.41-1.24,1.41-1.24,1.41-1.23c-.05-.18-.1-.36-.17-.54-.07-.18-.15-.36-.23-.54-.09-.18-.18-.35-.29-.52-.11-.17-.22-.34-.34-.5Zm-4.11,32.23l-1.02,.48-1.02,.48-1.02,.48-1.02,.48c.11,.22,.22,.43,.34,.64s.24,.42,.37,.63c.13,.21,.26,.42,.4,.62,.14,.21,.28,.41,.42,.62l1.27-.64,1.27-.64,1.28-.64,1.27-.64c-.25-.13-.49-.27-.72-.42-.23-.14-.45-.3-.66-.45s-.41-.32-.6-.49-.37-.33-.54-.51Zm11.98-36.4c-.42,.07-.79,.2-1.12,.37-.33,.17-.62,.39-.88,.62s-.47,.49-.66,.76-.34,.53-.46,.78c-.03,.06-.06,.12-.09,.19s-.06,.13-.08,.19c-.03,.06-.06,.13-.08,.2-.03,.07-.05,.13-.07,.2l.95-.84,.95-.84,.95-.84,.95-.84s-.06,0-.09,0h-.09s-.06,.02-.09,.02c-.03,0-.06,.01-.09,.02Zm11.23-11.42s0-.02,0-.02v-.02l-.02-.02v-.02l-2.66,2.18-2.65,2.18-2.65,2.18-2.65,2.18c.21,0,.41,.02,.61,.04,.2,.02,.4,.05,.6,.1,.2,.04,.39,.09,.58,.15s.38,.13,.56,.2l2.16-1.88,2.15-1.88,2.15-1.88,2.16-1.88c0-.14-.01-.27-.03-.41-.01-.14-.04-.27-.06-.4-.03-.13-.06-.27-.1-.4-.04-.13-.08-.26-.14-.39Z"/></g><g><path class="f" d="M133.36,439.45c-6.65-2.32-11.29-7.72-17.15-11.3-8.15-4.97-15.76-10.84-23.6-16.32-4.02-2.81-8.42-5-12.53-7.69-11.6-7.62-16.48-19.92-23.7-30.58-5.87-8.67-11.32-17.64-16.72-26.62-4.64-7.71-10.07-14.9-14.3-22.89-3.2-6.06-6.91-12.04-11.39-17.18-8.18-9.4-7.56-20.96-8.82-31.97-1.68-14.66-.83-29.81-4.15-44.02-2.98-12.76,1.49-23.9,2.83-35.66,1.79-15.77,5.45-31.32,7.02-47.16,.22-2.21,.87-4.14,2.26-5.81,12.06-14.42,22.94-29.77,34.69-44.46,10.23-12.79,19.82-26.15,29.67-39.25,4.58-6.09,10.48-7.82,16.11-10.58,22.84-11.17,45.99-21.68,69.01-32.48,5.54-2.6,11.07-5.25,16.5-8.07C188.11,2.72,197.05-.29,207.83,.02c30.84,.9,61.74,.52,92.6,.1,5.14-.07,8.84,1.96,12.4,4.44,26.28,18.31,52.65,36.51,78.39,55.56,5.87,4.34,10.19,11.3,13.27,18.39,2.24,5.14,5.82,9.51,8.9,14.01,8.73,12.79,16.43,26.2,24.87,39.15,6.58,10.09,12.65,20.52,19.09,30.71,1.23,1.94,1.53,3.84,1.56,5.99,.15,14.42,2.72,28.6,4.12,42.88,.9,9.14,2.31,18.27,2.71,27.46,.38,8.69-2.65,16.96-4.08,25.42-2.67,15.83-5.36,31.66-7.31,47.59-.25,2.04-.91,3.58-2.19,5.14-5.58,6.8-11.03,13.7-16.53,20.56-.74-1.6-1.48-3.2-2.22-4.81,3.84-4.82,7.55-9.74,11.56-14.41,2.15-2.5,1.27-3.57-1.25-4.51-11.72-4.33-23.35-8.93-35.36-12.43-.89-.33-1.78-.66-2.67-.99l-.26-.25-.34,.12c-1.26-1.16-2.81-1.4-4.43-1.45l-.12,.32c-.26-.99-1.08-1.08-1.9-1.18l-.42,.02c-2.78-1.23-5.51-2.58-8.34-3.66-8.52-3.25-8.53-3.21-12.87,4.95-3.9,6.15-9.36,10.95-14.17,16.31-5.77,2.12-11.06,5.64-17.44,5.95-7.47,.59-14.09-2.42-20.84-4.88-10.98-9.65-18.87-21.4-23.87-35.12-2.77-14.03-.36-28.03,.46-42.02,.28-4.73-1.37-10.81,1.88-13.86,3.11-2.92,9.03-2.64,13.46-4.4,17.49-6.93,34.65-7.1,52.59-.66,14.39,5.17,14.75,4.17,16.15,19.21,.11,1.15,.34,2.3,.35,3.45,.16,13.59,3.23,27.24-.83,40.74-1.55,1.63-2.09,3.77,.35,4.41,3.37,.89,6.27,3.47,10.04,2.87v-.08c.53,.97,1.45,1.04,2.41,1,16.26,5.92,32.53,11.81,48.77,17.81,2.37,.88,2.96,.13,3.31-2.12,3.45-21.88,6.91-43.76,10.58-65.6,.64-3.84-.6-4.53-4.09-4.46-10.6,.22-21.22,.12-31.82,.15-.34-1.7-.42-3.34,1-4.66,10.19,.1,20.38,.14,30.57,.35,3.01,.06,4.04-.75,3.6-3.98-.81-5.9-1.11-11.87-1.66-17.81-1.23-13.41-2.42-26.82-3.81-40.21-.18-1.79,.76-5.43-3.49-3.99-10.89,3.68-22.13,6.33-32.68,11.02-2.14-.81-4.27-1.62-6.41-2.43,1.01-.7,2.02-1.41,3.03-2.11,11.28-2.48,21.95-6.99,33.04-10.04,4.28-1.17,3.88-2.7,1.92-5.77-11.52-18-22.89-36.09-34.34-54.14-7.01-11.06-14.07-22.09-21.08-33.16-1.76-2.77-3.13-4.55-5.88-.57-2.39,3.45-5.65,6.3-8.5,9.43-11.01,12.08-22.02,24.17-33.03,36.25-3.37,2.04-5.34,5.52-8.21,8.07-1.55-1.11-.61-2.87-1.09-4.26,.43-.84,.85-1.68,1.28-2.52,2.15-1.45,3.75-3.34,4.76-5.74l-.16-.06c.95,.16,1.32-.54,1.73-1.18,13.66-14.62,27.32-29.24,40.99-43.85,1.87-2,2.27-3.53-.56-5.25-3.78-2.29-7.28-5.03-10.91-7.56-21.32-14.85-42.62-29.72-63.98-44.51-1.54-1.07-3.57-4.04-4.93,.42-5.9,19.3-11.87,38.58-17.82,57.87-1.23,3.47-2.46,6.93-3.69,10.4-1.61,.28-2.96-.08-3.89-1.53,6.76-21.88,13.41-43.8,20.39-65.61,1.48-4.64,.8-5.84-4.23-5.8-29.1,.21-58.19,.1-87.29,.1-10.88,0-11.14,.04-9.48,10.68,3.18,20.33,6.7,40.61,10.08,60.92,.33,3.04,.53,6.1,1,9.12,3.63,23.29,7.32,46.56,10.99,69.85-.21,.34-.16,.65,.13,.93l.31,.28,.4-.11-.02,6.99c-1.4-.34-2.23,.71-3.24,1.32-1.83-10.95-3.6-21.91-5.51-32.85-3.05-17.42-4.93-35.04-8.95-52.3l-.35-1.76c-.15-1.22-.29-2.44-.44-3.66-3.28-20.92-6.7-41.82-9.71-62.79-.72-5.03-2.28-4.87-6.18-3.03-28.21,13.35-56.52,26.52-84.79,39.74-5.51,2.58-11.02,5.14-16.66,7.76,18.67,22.3,36.85,44.01,55.02,65.72,7.9,11.42,17.34,21.59,26.15,32.26,15.43,18.69,31.02,37.25,46.54,55.87,1.82,2.65,3.65,5.31,5.47,7.96-.17,1.58-.35,3.15-.52,4.73-18.12-21.78-36.16-43.63-54.4-65.32-8.79-10.45-16.82-21.57-26.54-31.23-.5-.82-.9-1.72-1.51-2.45-16.82-20.37-33.72-40.68-50.44-61.14-2.74-3.36-3.97-2.43-6.19,.48-18.34,24.07-36.83,48.04-55.28,72.03-2.21,2.87-6.65,6.12-6.2,8.47,.7,3.68,6.51,2.75,9.69,4.78,.32,.2,.7,.32,1.06,.46,25.83,10.65,51.66,21.3,77.48,31.96,1.7,.87,3.36,1.87,5.12,2.6,36.57,15.27,73.15,30.52,109.73,45.77,3.76,1.33,4.62,5.65,7.81,7.57,.17,.49,.35,.98,.52,1.47,.14-.11,.4-.29,.39-.31-.24-.43-.52-.84-.79-1.26-.1-.75-.08-1.55-.33-2.24-.96-2.58-2.05-5.42,1.34-6.8,3.44-1.41,5.21,1.09,6.43,3.89,1.59,3.63,3.12,7.29,4.68,10.93,1.03,1.65,2.06,3.3,3.08,4.95,.03,4.62,3.25,8.15,4.24,12.44,1.35,2.91,2.7,5.82,4.06,8.73-.03,.32,.06,.59,.29,.81,.34,.76,.69,1.52,1.03,2.28l.16,.26c.35,2.11,.99,4.08,2.43,5.73,.44,1.05,.87,2.1,1.31,3.15,.4,2.1,1.02,4.1,2.49,5.74,2.34,5.33,4.69,10.67,7.03,16,1.27,3.35,2.26,6.85,3.87,10.02,2.53,4.98,3.29,10.88,7.64,14.91,4.2,14.73,11.18,28.34,16.98,42.43,2.57,6.38,4.99,12.83,8.4,18.84,5.05,12.09,9.95,24.23,15.2,36.23,3.37,7.72,5.83,15.86,10.37,23.05,.12,3.78,2.94,6.54,3.77,10.1,.79,3.41-.98,5.09-3.63,6.16-3.2,1.28-3.14-1.59-3.93-3.38-1.84-4.16-3.75-8.29-5.63-12.43-11.46-26.6-22.92-53.2-34.38-79.79-.11-.95-.25-1.88-1.19-2.41l.06,.08c-.26-2.16-.82-4.2-2.44-5.8h.03c-1.17-4.92-3.23-9.45-5.94-13.7-.35-.45-.69-.9-1.04-1.35h.01c-.74-6.8-4.21-12.55-7.23-18.47-3.12-7.32-6.24-14.65-9.36-21.97-1.2-3-2.35-6.03-3.62-9-4.18-9.74-8.4-19.46-12.61-29.19-.95-2.78-1.6-5.72-4.24-8.68-.36,4.95,.56,8.74,1.89,12.46,.59,7.35,2.11,14.54,3.82,21.69-.06,1.15-.12,2.31-.18,3.47l-3.32,.12c-.44-.82-.87-1.64-1.31-2.46-1.43-8.86-2.65-17.76-4.37-26.57-1.33-6.83-1-14.05-4.46-20.41-1.59-2.05-2.25,7.54-4.25,.34-.02-3.32-1.47-1.91-2.58-.7-2.59,2.81-4.92,5.87-7.61,8.58-25.5,25.66-51.08,51.25-76.58,76.91-6.36,6.4-12.52,13.01-18.77,19.52-11.2,11.12-22.42,22.2-33.57,33.36-3.39,3.39-9.26,7.05-9.17,10.46,.11,4.37,6.97,6.27,10.99,9.09,13.69,9.6,27.55,18.95,41.35,28.4,1.27,1.16,2.53,2.32,3.8,3.47-1.25,.93-.82,2.44-1.29,3.65Zm-25.21-82.42l-.08,.08c.41-.41,.83-.82,1.24-1.23l-.08,.08,1.23-1.24-.07,.08c.41-.41,.82-.83,1.23-1.24l-.07,.07,1.25-1.23-.08,.08c.4-.42,.8-.84,1.2-1.26,.75-.75,1.5-1.51,2.25-2.26,.43-.4,.86-.8,1.29-1.2,.34-.37,.68-.73,1.02-1.1,.9-.7,1.89-1.31,2.69-2.12,29.25-29.38,58.46-58.8,87.72-88.16,5.12-5.14,10.48-10.03,16.26-15.54-1.84-.53-2.25-.8-2.56-.72-24.88,6.76-49.74,13.61-74.64,20.31-21.55,5.8-43.27,10.95-64.56,17.69-22.35,5.82-44.7,11.68-67.06,17.45-3.37,.87-2.02,2.44-.94,4.14,5.07,7.98,10.13,15.95,15.19,23.93,14.35,22.63,28.7,45.26,42.4,66.87,11.32-10.75,22.62-21.48,33.93-32.21l1.24-1.27Zm246.07-109.35c6.52,1.29,13.12-1.91,19.95,1.06-3.02-6.23-7.18-8.04-12.74-5.6-2.58,1.13-4.81,3.05-7.17,4.64l.31,.33-.36-.44ZM62.97,223.75c-4.88-1.77-10.04-1.19-15.07-1.79-12.84-1.25-25.7-2.4-38.53-3.81-3.85-.42-4.6,.98-4.24,4.47,2.22,21.67,4.35,43.34,6.37,65.03,.31,3.29,.66,4.64,4.7,3.51,27.08-7.51,54.25-14.69,81.39-21.98,.95-.14,1.92-.2,2.84-.44,31.43-8.37,62.85-16.75,94.26-25.15,7.53-2.01,15.03-4.11,22.54-6.17-.95-.94-1.7-1.07-2.46-1.13-29.15-2.62-58.29-5.34-87.46-7.8-21.47-1.81-42.98-3.27-64.47-4.88l.11,.14Zm31.22-2.53c40.28,3.71,80.56,7.42,121.45,11.19-1.23-2.59-2.91-2.66-4.26-3.23-19.88-8.32-39.75-16.69-59.66-24.92-15.64-6.47-31.35-12.77-47.04-19.14-28.06-11.78-56.14-23.52-84.16-35.4-3.7-1.57-4.6-.18-5.12,3.17-2.94,18.84-5.95,37.67-9.08,56.48-.49,2.95,.16,4.3,3.25,4.51,5,.34,9.97,.92,14.96,1.35,23.22,2,46.44,3.99,69.66,5.99Zm267.01,63.95c-11.74,0-22.09-.03-32.43,.03-1.59,0-4.47-.02-2.1,2.61,4.72,5.23,10.32,9.31,17.88,8.99,7.35-.31,12.14-4.55,16.66-11.63Zm-51.02-36.11c7.2-2.7,13.54-.86,20.42-.85-8.81-8.2-15.23-8.13-20.42,.85Z"/><path class="m" d="M286.56,368.53c11.46,26.6,22.92,53.2,34.38,79.79-21.97,2.66-43.5,7.29-64.49,14.37-1.23-.91-1.08-2.32-1.41-3.61-1.9-7.3-2.04-15.05-5.26-22.06-1.18,13.06-3.78,25.84-4.08,38.88-.1,4.05,1.68,5.57,5.13,6.03,1.71,.23,3.45,.15,5.18,.21,8.68,1.58,17.34,3.3,26.06,4.66,4.13,.65,5.61,2.28,5.57,6.71-.23,27.34-.08,54.68-.13,82.03-.02,14.43-.18,28.87-.28,43.3-1.93-.04-3.67-.22-5.36-1.58-4.62-3.73-9.13-7.81-14.29-10.61-4.81-2.61-7.7-8.22-13.79-8.63-.34-1.35-1.04-2.38-2.22-3.23-8.88-6.42-17.08-13.67-25.34-20.84-11.79-11.33-23.56-22.63-33.66-35.61-10.72-13.78-14.62-28.8-11.06-46,2.14-10.36,4.16-20.74,6.71-31.01,1.75-2.29,2.13-4.91,1.87-7.69,3.36-9.67,6.52-19.4,8.32-29.5,4.94-8.71,6.75-18.55,9.98-27.87,.11-.31-.59-.9-.91-1.36,1.56-.94,2.08-2.39,2.69-4.1,5.52-15.5,11.32-30.9,16.86-46.39,1.02-2.86,2.52-4.24,5.53-4.95,4.96-1.18,10.21-1.58,14.68-4.45,1.36-.06,2.71-.11,4.07-.17,1.84,.39,4.2-.65,5.52,.87,3.75,4.35,8.69,7.34,12.36,11.84,3.96,4.86,7.17,10.79,13.82,12.86h-.03c-.19,2.35,.32,4.41,2.44,5.79l-.06-.08c-.11,1.06,.06,1.97,1.19,2.41Z"/><path class="v" d="M287.25,618.84c.1-14.43,.25-28.87,.28-43.3,.04-27.34-.1-54.69,.13-82.03,.04-4.43-1.44-6.07-5.57-6.71-8.72-1.36-17.38-3.09-26.06-4.66-.17-4.37,.42-8.77-.73-13.09-.6-2.26-.85-4.54,1.17-6.36,20.99-7.08,42.52-11.71,64.49-14.37,1.88,4.14,3.79,8.27,5.63,12.43,.79,1.79,.74,4.66,3.93,3.38,2.65-1.06,4.42-2.75,3.63-6.16-.83-3.55-3.65-6.32-3.77-10.1,1.95-.22,3.9-.44,5.86-.66h29.55c-8.1-9.17-14.69-17.78-22.74-25.12-.25-.19-.53-.31-.84-.35-.15-1.62-.92-2.8-2.45-3.44v-.02c-7.22-9.78-15.8-18.38-23.82-27.45-6.34-7.18-12.16-14.86-19.53-21.09-5.8-14.09-12.78-27.7-16.98-42.43,9.95-.38,20.43-2.98,26.69,8.76,1.68,3.15,10.91,2.56,13.7-.05,1.9-.88,1.28-2.57,1.32-4.05,.32-.21,.64-.43,.94-.67,.23-.21,.31-.47,.23-.78,.1-.76,.2-1.52,.3-2.28,5.76,8.06,14.39,7.71,22.87,7.8,0,13.47,0,26.95,.06,40.42,0,1.42-.79,3.49,1.04,4.09,1.66,.54,2.63-1.33,3.52-2.47,10.04-12.83,18.67-26.62,27.44-40.31,3.46-2.59,4.86-6.7,7.37-9.99,2.32-.07,4.65-.14,6.97-.2,1.5,.04,2.99,.07,4.49,.11,6.59,.48,13.18,.96,19.77,1.43-.86,1.71-1.53,3.54-2.6,5.1-14.81,21.54-29.63,43.08-44.6,64.52-2.57,3.68-2.84,6.11,.52,9.8,14.51,15.94,28.66,32.21,42.79,48.5,2.12,2.44,4.44,4.18,7.4,5.22,2.98,3.77,5.59,8.35,4.91,12.8-2.17,14.34-1.7,28.6-.66,42.94,.22,3.02,1.91,7.52-4.2,6.99-.97-1.3-2.35-1.97-3.87-2.21-8.05-1.31-16.11-2.56-24.17-3.83-1.31-1.38-2.91-.87-4.46-.66-.72,0-1.44,0-2.16,0-13.98-.75-27.96-1.5-41.94-2.24-9.44-.12-18.89-.05-28.32-.42-4.72-.19-6.41,1.31-6.4,6.21,.06,33.13,.23,66.27-1.04,99.4-.37,9.65-.09,9.66-9.35,10.8q-10.13-.4-10.4-10.37c-.03-.95-.21-1.89-.32-2.83Zm53.25-125.94c2.45,5.74,4.66,11.05,6.99,16.31,.84,1.89,2.28,3.14,4.59,2.56,1.63-.41,2.71-1.41,2.99-3.13,1.04-6.43-7.13-15.82-14.57-15.74Z"/><path class="h" d="M419.65,462.28c-2.96-1.04-5.28-2.78-7.4-5.22-14.13-16.28-28.28-32.56-42.79-48.5-3.36-3.69-3.09-6.12-.52-9.8,14.97-21.43,29.78-42.98,44.6-64.52,1.07-1.56,1.74-3.39,2.6-5.1,.73,.03,1.46,.06,2.19,.09,5.04,1.13,10.07,2.25,15.11,3.38,.74,1.6,1.48,3.2,2.22,4.81,9.73,28.98,20.03,57.75,34.51,84.78,8.18,15.26,10.96,15.82,25.83,6.7,12.14-7.45,23.21-16.41,34.61-24.9,2.76,7.77,1.59,15.96,2.16,23.92,1.79,25.14,2.37,50.37,4.15,75.51,.64,9.02,.76,18.06,1.4,27.08,.98,13.61,2.45,27.25,1.64,40.95-13.95-1.74-25.29-9.08-36.05-17.32-27.88-21.36-48.52-48.8-65.85-79.02-4.95-8.63-10.5-16.91-17.15-25.06-.42,4.08-.84,8.16-1.26,12.23Z"/><path class="r" d="M136.97,982.53c-1.86-1.35-4.63-.64-6.27-2.61,.73-2.1,2.66-2.2,4.18-2.63,21.78-6.15,37.9-19.99,51.15-37.66,22.13-29.51,34.32-63.52,44.13-98.54,7.8-27.86,12.93-56.27,16.52-84.96,.55-4.38,.61-8.82,.9-13.23,1.9,10.86,.36,9.3,12.77,8.89,8.32-.27,16.58-2.12,24.87-3.26,0,70.83,.01,141.65,.02,212.48,0,1.54,.1,3.09-.01,4.63-.21,2.92,.9,4.28,3.98,4.12,9.79-.51,19.65-.34,29.35-1.55,5.5-.69,11.07,1.77,16.38-.83l.14,13.91c-12.44,2.52-24.85,5.84-37.56,6.06-21.2,.37-42.41,.07-63.61-.41-32.34-.73-64.69-1.33-96.93-4.4Z"/><path class="g" d="M335.07,981.28c-.05-4.64-.09-9.27-.14-13.91,0-5.36,0-10.72,0-16.08,2.74-.04,5.49-.08,8.23-.12,11.17,.01,22.35,.02,33.52,.03q8.15,0,8.15-7.97c.03-65.31,.06-130.62,.09-195.94,1.88,.2,3.76,.38,5.64,.6,11.01,1.34,22.02,2.68,33.03,4.03,2.51,22.16,4.69,44.37,7.59,66.48,5.68,43.3,11.35,86.64,25.26,128.33,2.44,7.31,5.38,14.45,10.38,20.49,4,4.83,5.1,9.82,.99,15.16-3.2,1.25-6.31,2.93-9.63,3.68-26.88,6.13-53.95,3.83-80.97,1.4-14.14-1.27-27.81-6.04-42.14-6.18Z"/><path class="l" d="M335.07,981.28c14.33,.14,28,4.91,42.14,6.18,27.02,2.43,54.1,4.74,80.97-1.4,3.32-.76,6.43-2.43,9.63-3.68,8.7,.8,16.91,3.57,24.94,6.75,3.17,1.26,6.55,3.4,6.61,7.3,.06,3.79-3.48,5.18-6.37,6.73-12.81,6.83-27.09,7.98-41,10.6-15.65,2.95-31.58,3.55-47.34,5.54-5.33,.67-10.76,.95-16.07,1.13-11.53,.4-23.07,1.09-34.58,1.7-24.28,1.27-48.55,1.14-72.81,.7-25.55-.46-51.12-1.55-76.59-3.54-25.39-1.99-50.77-4.69-75.54-11.24-5.63-1.49-10.88-3.81-15.96-6.47-4.67-2.44-4.66-6.84-.12-9.92,4.97-3.36,10.62-5.28,16.38-6.85,2.55-.7,5.29-.74,7.59-2.28,32.24,3.07,64.59,3.67,96.93,4.4,21.2,.48,42.42,.78,63.61,.41,12.71-.22,25.11-3.54,37.56-6.06Z"/><path class="h" d="M423.6,751.92c-11.01-1.34-22.02-2.69-33.03-4.03-1.88-.23-3.76-.4-5.64-.6-.03-62.64-.07-125.29-.08-187.93,0-13.68,.11-27.36,.17-41.05,.72,0,1.44,0,2.16,0,1.35,1.14,2.92,.8,4.46,.66,8.06,1.27,16.12,2.52,24.17,3.83,1.52,.25,2.9,.92,3.87,2.21,2.01,46.26,2.7,92.54,3.29,138.83,.18,13.89,.12,27.78,.17,41.67,.02,4.39,.05,8.78,.07,13.17,.01,3.24,.02,6.47,.03,9.71-.22,7.04-.82,14.09,.34,21.11,0,.8,0,1.61,0,2.41Z"/><path class="v" d="M539.95,571.45c.8-13.7-.67-27.34-1.64-40.95-.65-9.02-.76-18.06-1.4-27.08-1.78-25.14-2.36-50.37-4.15-75.51-.57-7.96,.6-16.14-2.16-23.92,5.96-5.11,11.66-10.58,17.97-15.22,4.98-3.66,7.19-8.84,9.84-13.91,1.78-3.41,3.37-6.96,6.84-9.11,1.26-.78,2.47-2.35,4.07-1.19,1.4,1.01,.23,2.46-.01,3.72-.17,.92-.22,1.86-.41,3.58,3.08-2.18,4.39-4.9,6.28-7.09,2.7-3.13,6.53-7.04,10.1-4.96,4.4,2.56,10.1,5.37,10.34,12.1,.21,5.9-1.98,10.94-5.62,15.38-5.61,6.85-11.37,13.58-17.08,20.35-3.51,4.16-7.42,7.99-12.39,10.24-3.36,1.52-4.52,3.48-4.24,7.06,1.32,17.06,2.46,34.14,3.68,51.21,1.05,14.57,2.13,29.13,3.18,43.7,1.5,20.71,2.93,41.43,4.51,62.14,.36,4.67,.08,8.45-4.72,11.24-5.8,3.36-11.07,7.62-16.55,11.53-2.98,2.13-3.95,1.03-4.17-2.24-.68-10.36-1.51-20.71-2.28-31.07Z"/><path class="t" d="M334.94,951.28c0,5.36,0,10.72,0,16.08-5.31,2.61-10.88,.14-16.38,.83-9.69,1.22-19.56,1.05-29.35,1.55-3.07,.16-4.19-1.2-3.98-4.12,.11-1.54,.01-3.09,.01-4.63,0-70.83-.01-141.65-.02-212.48,.01-27.89,0-55.78,.08-83.68,0-2.85-.57-4.89-2.94-6.91-7.99-6.8-15.75-13.87-23.45-21.01-2.06-1.91-3.85-2.25-6.11-.75-.13-1.53-.25-3.07-.38-4.6,.46-11.19,.92-22.37,1.38-33.56,6.1,.41,8.98,6.03,13.79,8.63,5.17,2.8,9.67,6.88,14.29,10.61,1.69,1.37,3.43,1.55,5.36,1.58,.11,.95,.29,1.89,.32,2.83q.28,9.96,10.4,10.36c0,52.42,.01,104.85,.01,157.28,0,51.85,.07,103.7-.12,155.55-.02,5.1,1.3,6.63,6.43,6.44,10.2-.38,20.42-.05,30.64-.01Z"/><path class="m" d="M252.8,636.18c2.25-1.5,4.05-1.16,6.11,.75,7.69,7.14,15.45,14.21,23.45,21.01,2.37,2.01,2.95,4.06,2.94,6.91-.08,27.89-.07,55.78-.08,83.68-8.29,1.14-16.55,2.99-24.87,3.26-12.41,.41-10.87,1.97-12.77-8.89,1.07-32.82,2.54-65.63,4.6-98.41,2.41-1.22,2.52-2.53,.47-5.98-.55-.82-.34-1.58,.16-2.33Z"/><path class="v" d="M253.8,598.02c-.46,11.19-.92,22.37-1.38,33.56-5.16-1.41-10.35-2.69-15.46-4.27-10.54-3.26-13.96-8.13-14.44-19.21-.5-11.6,1.54-22.88,3.72-34.16,8.26,7.18,16.46,14.43,25.34,20.85,1.18,.85,1.88,1.88,2.22,3.23Z"/><path class="o" d="M190.11,453.64c.26,2.78-.13,5.4-1.87,7.69-7.39-3.06-15.07-1.01-22.61-1.11-1.52-.02-3.16,.47-4.37-.46-9.14-6.98-19.18-12.74-27.89-20.31,.47-1.2,.04-2.72,1.29-3.64,7.94,5.29,15.88,10.58,24.29,16.18,3.79-12.86,9-24.82,11.71-37.6,2.29-2.01,1.49-5.51,3.64-7.59,1,.75,1.32,2.4,2.99,2.27l-.03,3.3,.16,.13c-1.42,.84-1.45,2.14-1.16,3.54l.03-.04c-1.26,.41-1.01,1.5-1.09,2.44-3.55,10.37-7.01,20.77-10.69,31.1-1.17,3.28-.09,4.04,3.02,4,7.52-.08,15.04,.05,22.57,.09Z"/><path class="g" d="M423.6,749.51c-1.16-7.02-.55-14.06-.34-21.11,1.34,7.01,.9,14.06,.34,21.11Z"/><path class="g" d="M423.22,718.69c-.02-4.39-.05-8.78-.07-13.17,1.12,4.38,1.05,8.77,.07,13.17Z"/><path class="t" d="M252.65,638.51c2.04,3.46,1.94,4.77-.47,5.98-.43-2.04-.1-4.02,.47-5.98Z"/><path class="u" d="M425.32,233.19c-1.42,1.32-1.34,2.96-1,4.66-.78,2.37-1.87,4.68-2.27,7.11-2.73,16.43-12.75,27.74-25.66,37.08-.32,.28-.65,.57-.97,.85l-.1,.11c-3.46,.91-6.97,1.2-10.53,.87,4.06-13.5,.99-27.15,.83-40.74-.01-1.15-.24-2.3-.35-3.45-1.4-15.04-1.76-14.04-16.15-19.21-17.94-6.44-35.1-6.27-52.59,.66-4.43,1.76-10.35,1.48-13.46,4.4-3.24,3.05-1.6,9.13-1.88,13.86-.82,13.99-3.23,27.98-.46,42.02-5.36,2.98-8.61-1.41-11.86-3.98-9.58-7.55-16.48-17.54-23.53-27.35,.03-2.09-1.07-3.77-1.99-5.51l.15-.3-.31,.21c-.33-.18-.65-.4-.93-.64,1.38-2.23,.73-4.21-.76-6.08-.68-4.36-1.36-8.72-2.04-13.07,.1-4.51,1.28-9.11-1.15-13.4l.76-6.14c.87-6.41,1.23-12.94,4.85-18.66,5.17-8.16,13.57-9.99,22.18-11.48,2.28-.22,4.55-.44,6.82-.66,6.94,1.34,13.87,2.7,20.82,4,1.68,.32,3.17-.39,3.92-1.83,.91-1.76-.88-2.28-1.92-2.93-4.7-2.95-8.28-7.41-13.34-9.86-.57-1.71-1.42-3.18-3.35-3.65-.05-.56,.04-1.19-.17-1.68-4.09-9.84-2.52-12.89,7.62-16.48,4.44-1.57,9.44-1.11,13.47-3.94,3.2,.32,6.1-.51,8.79-2.22,1.07,.97,2.4,1.1,3.75,1.08,12.93-.21,25.81,.26,38.5,3.01,.79,.13,1.57,.26,2.36,.4,2.85,1.44,5.75,2.7,9.05,2.51,.31,.2,.65,.31,1.02,.32,1.34,2.21,3.53,3.35,5.7,4.52l.07,.15c-.1,.28-.03,.51,.22,.68,.02,1.98,.05,3.97,.07,5.95-1.4,1.14-2.3,2.55-2.34,4.42-1.22,.87-2.23,1.92-2.67,3.41-.87,.11-1.46,.5-1.49,1.47l-.75,.89-1.01,1.03-.2,.17c-3.36,2.5-6.73,5-10.09,7.5-1.2,.89-2.95,1.66-2.05,3.56,.84,1.78,2.62,2.21,4.44,1.77,4.59-1.09,9.16-2.29,13.74-3.44,1.55-.15,3.1-.29,4.66-.44,3.91,.67,7.83,.75,11.74-.02l3.45,.33c1.38,.88,2.88,1.29,4.51,1.16,2.14,.81,4.27,1.62,6.41,2.43,3.75,3.63,7.82,7.28,8.29,12.76,.52,6.08,1.68,12.1,.91,18.33-.97,7.79-1.19,15.67-1.73,23.51Z"/><path class="r" d="M106.9,180.69c-25.83-10.65-51.66-21.3-77.48-31.96-.36-.15-.74-.26-1.06-.46-3.19-2.03-8.99-1.1-9.69-4.78-.45-2.34,3.99-5.59,6.2-8.47,18.45-23.99,36.94-47.95,55.28-72.03,2.22-2.91,3.44-3.84,6.19-.48,16.72,20.46,33.62,40.77,50.44,61.14,.6,.73,1.01,1.63,1.51,2.45-2.87,4.68-5.44,9.57-8.66,14-7.71,10.59-14.14,21.82-18.35,34.26-.87,2.56-1.74,5.04-4.38,6.33Z"/><path class="q" d="M204.35,78.08c.12,.59,.24,1.17,.35,1.76-15.22,5.23-29.12,12.67-41.53,23.13-7.32,6.16-13.4,13.72-21.58,18.86-18.18-21.71-36.35-43.42-55.02-65.72,5.64-2.63,11.15-5.19,16.66-7.76,28.28-13.22,56.58-26.39,84.79-39.74,3.89-1.84,5.46-2,6.18,3.03,3.01,20.96,6.44,41.86,9.71,62.79-1.33,1.4-.99,2.59,.44,3.66Z"/><path class="j" d="M118.48,346.66c-.34,.37-.68,.73-1.02,1.1-.43,.4-.86,.8-1.29,1.2-.75,.75-1.5,1.51-2.25,2.26l-1.2,1.26,.08-.08c-.42,.41-.83,.82-1.25,1.23l.07-.07c-.41,.41-.82,.83-1.23,1.24l.07-.08c-.41,.41-.82,.83-1.23,1.24l.08-.08c-.41,.41-.83,.82-1.24,1.23l.08-.08c-.41,.42-.83,.85-1.24,1.27-11.3,10.73-22.61,21.47-33.93,32.21-13.71-21.61-28.05-44.24-42.4-66.87-5.06-7.98-10.13-15.96-15.19-23.93-1.08-1.7-2.43-3.28,.94-4.14,22.37-5.77,44.71-11.62,67.06-17.44,3.66,.3,7.28,.25,10.75-1.17,1.84-.76,3.1-1.01,3.52,1.75,1.47,9.74,3.96,19.27,6.25,28.85,3.27,13.71,9.98,25.98,14.56,39.11Z"/><path class="i" d="M209.59,76.62c-3.38-20.3-6.9-40.58-10.08-60.92-1.67-10.63-1.4-10.68,9.48-10.68,29.1,0,58.2,.11,87.29-.1,5.03-.04,5.71,1.16,4.23,5.8-6.97,21.82-13.62,43.73-20.38,65.61-.28,.09-.55,.18-.82,.29-8.04-1.26-15.8-3.6-24.19-3.58-15.31,.03-30.45,.98-45.51,3.57Z"/><path class="i" d="M287.69,67.47c5.94-19.29,11.91-38.57,17.82-57.87,1.36-4.46,3.39-1.49,4.93-.42,21.36,14.8,42.66,29.66,63.98,44.51,3.63,2.53,7.14,5.27,10.91,7.56,2.83,1.72,2.44,3.25,.56,5.25-13.67,14.61-27.33,29.23-40.99,43.85-.58,.39-1.15,.79-1.73,1.18l.16,.06c-.93-.19-2.14-.08-2.75-.63-5.9-5.39-11.95-10.49-18.84-14.7-10.19-6.22-19.96-13.12-31.58-16.56-2.73-.81-4.17-1.74-3.05-5.25,.65-2.02,2.2-4.55,.56-6.99Z"/><path class="i" d="M383.42,143.06c-.37-.02-.71-.12-1.02-.32-2.68-2.04-5.22-4.63-9.05-2.51-.79-.13-1.57-.26-2.36-.39-.28-1.03-1.02-1.49-2.01-1.79-11.32-3.4-15.81-13.76-22.38-22,11.01-12.08,22.01-24.17,33.03-36.25,2.85-3.13,6.11-5.98,8.5-9.43,2.75-3.97,4.12-2.2,5.88,.57,7.01,11.06,14.06,22.09,21.08,33.16,11.44,18.05,22.81,36.14,34.34,54.14,1.97,3.07,2.36,4.6-1.92,5.77-11.1,3.05-21.76,7.56-33.04,10.04-2.5,.39-5.21-.82-7.54,.95-1.15-.11-2.3-.22-3.45-.33-3.92-2.74-7.83-2.83-11.74,.02-1.55,.15-3.1,.29-4.66,.44-5.35-.98-6.35-4.76-6.04-9.39l.2-.16c.71,.02,1.04-.33,1.01-1.03,.25-.3,.5-.59,.75-.89,.87-.11,1.52-.44,1.49-1.47,.44-1.49,1.44-2.53,2.67-3.41,2.8-.4,4.54-1.37,2.34-4.42-.02-1.98-.05-3.97-.07-5.95,.15-.09,.29-.18,.44-.27l-.66-.41-.07-.15c-.7-3.03-1.89-5.43-5.71-4.52Z"/><path class="k" d="M118.48,346.66c-4.58-13.13-11.29-25.4-14.56-39.11-2.29-9.58-4.78-19.11-6.25-28.85-.42-2.77-1.68-2.51-3.52-1.75-3.47,1.43-7.09,1.47-10.75,1.17,21.29-6.74,43.01-11.89,64.56-17.69,24.9-6.7,49.76-13.55,74.64-20.31,.31-.09,.72,.19,2.56,.72-5.78,5.51-11.14,10.41-16.26,15.54-29.27,29.36-58.48,58.78-87.72,88.16-.8,.8-1.79,1.41-2.69,2.12Z"/><path class="i" d="M97.59,269.18c-27.14,7.29-54.31,14.47-81.39,21.98-4.04,1.12-4.4-.23-4.7-3.51-2.02-21.69-4.15-43.36-6.37-65.03-.36-3.49,.39-4.9,4.24-4.47,12.83,1.41,25.68,2.56,38.53,3.81,.7,2.33,2.66,1.73,4.26,1.76,3.6,.07,7.2,.03,10.8,.03l-.11-.14c.62,.4,1.22,1.09,1.88,1.15,9.33,.87,18.66,1.71,28.01,2.42,2.75,.21,5.03,.4,4.61,4.14-1.4,12.63-1.35,25.26,.24,37.87Z"/><path class="t" d="M141.59,121.83c8.18-5.14,14.26-12.7,21.58-18.86,12.41-10.46,26.31-17.89,41.53-23.13,4.02,17.26,5.9,34.88,8.95,52.3,1.91,10.94,3.68,21.9,5.51,32.85-.1,.39-.2,.79-.3,1.18-3.26,3.63-4.56,7.9-4.3,12.73,.46,8.43-.92,16.91,1.06,25.31,.43,1.83,1.03,4.3-1.35,5.75-15.52-18.62-31.11-37.18-46.54-55.87-8.81-10.67-18.26-20.84-26.15-32.26Z"/><path class="q" d="M94.19,221.22c-23.22-1.99-46.44-3.98-69.66-5.99-4.99-.43-9.97-1.01-14.96-1.35-3.09-.21-3.74-1.56-3.25-4.51,3.13-18.81,6.14-37.64,9.08-56.48,.52-3.35,1.43-4.74,5.12-3.17,28.02,11.88,56.1,23.62,84.16,35.4,1.19,3.59,.37,7.04-.52,10.55-1.5,5.88-3.59,11.76-3.96,17.74-.29,4.64-1.59,7.04-6.01,7.81Z"/><path class="j" d="M170.66,414.39c-2.72,12.77-7.92,24.74-11.71,37.6-8.41-5.6-16.35-10.89-24.29-16.18-1.27-1.16-2.53-2.32-3.8-3.47,3.31,.51,4.67-.96,5.4-4.22,1.97-8.78,3.46-17.83,6.82-26.08,3.01-7.39,1.52-13.63-.67-20.46-2.25-7.04-8.43-11.18-11.98-17.32-2.62-4.54-6.17-8.77-9.17-13.23,6.25-6.51,12.41-13.12,18.77-19.52,25.5-25.66,51.08-51.25,76.58-76.91,2.69-2.71,5.02-5.77,7.61-8.58,1.11-1.21,2.57-2.62,2.59,.7-5.99,15.65-11.05,31.61-15.85,47.66-.19,.1-.39,.15-.6,.17-1.84,.69-3.64,1.39-1.4,3.64l-.38,1.99c-9.67,2.35-19.31,4.81-29.01,6.97-3,.67-4.63,2.13-5.56,4.96-2.05,6.28-4.53,12.42-6.36,18.76-2.12,7.35-5.83,14.07-7.84,21.49-1.41,5.2-3.6,10.48-10.01,12.27-3.62,1.01-6.59,3.7-6.49,7.83,.15,6.33,.85,12.54,6.7,16.83,5.1,3.74,9.64,8.25,14.87,11.76,5.04,3.38,7.19,7.45,5.77,13.35Z"/><path class="t" d="M106.9,180.69c2.64-1.29,3.52-3.76,4.38-6.33,4.21-12.44,10.63-23.67,18.35-34.26,3.22-4.42,5.79-9.31,8.66-14,9.72,9.66,17.75,20.78,26.54,31.23,18.24,21.68,36.28,43.53,54.4,65.32l-.02-.03,1.16,1.32,1.39,5.11c-36.58-15.25-73.16-30.5-109.73-45.77-1.76-.74-3.42-1.73-5.12-2.6Z"/><path class="k" d="M319.95,137.96c-4.03,2.83-9.03,2.37-13.47,3.94-10.14,3.59-11.71,6.64-7.62,16.48,.21,.5,.12,1.12,.17,1.68-4.32,4.98-8.64,9.96-12.96,14.94-8.6,1.49-17.01,3.32-22.17,11.48-3.62,5.71-3.98,12.24-4.85,18.66-7.79,4.9-12.1,13.51-19.54,19.06-1.15-2.3-.05-3.88,.44-5.47,6.12-19.61,12.37-39.19,18.45-58.82,5.58-18.01,11.01-36.06,16.51-54.09,.48-.57,.97-1.13,1.45-1.7,11.01,1.16,22.13-.5,33.14,1.48,10.56,1.9,21.01,3.79,29.09,11.73-.43,.84-.85,1.68-1.28,2.52-6.6,5.25-11.47,12.17-17.36,18.11Z"/><path class="j" d="M209.59,76.62c15.06-2.59,30.21-3.54,45.51-3.57,8.39-.02,16.15,2.31,24.19,3.58-2.78,9.63-5.56,19.27-8.34,28.9-.28,.05-.56,.08-.85,.09-4.83,1.19-9.66,2.39-14.5,3.56-8.36,2.03-12.18,6.04-12.02,12.73,.17,7.4,4.98,12.18,9.61,17.13,4.97,5.32,4.14,7.76-2.84,9.54-7.96,2.04-16.04,3.9-22.56,9.35-2.56,2.14-3.7-.3-5.36-1.24l-.4,.11-.31-.27c.1-.09,.3-.24,.28-.28-.11-.23-.27-.44-.42-.65-3.67-23.28-7.36-46.56-10.99-69.85-.47-3.02-.67-6.08-1-9.12Z"/><path class="k" d="M177.27,412.37c0-1.1,.02-2.2,.03-3.3,5.89-17.48,11.88-34.92,17.64-52.44,6.66-20.26,13.12-40.59,19.67-60.88,.5-.83,1-1.65,1.5-2.48,.98,1.5,2.13,2.44,4.15,2.39,5.12-.14,10.26-.15,15.38,0,2.04,.06,3.09-1.11,4.27-2.33,.44,.82,.87,1.64,1.31,2.46,.85,13.25,4.17,26.13,6.04,39.22-4.47,2.86-9.72,3.27-14.68,4.45-3.02,.72-4.51,2.09-5.53,4.95-5.54,15.49-11.34,30.89-16.86,46.39-.61,1.71-1.13,3.16-2.69,4.1-11.13,3.16-14.04,7.82-11.88,18.93,.29,1.5,.42,3.03,.62,4.54-1.67-.13-4.29,.36-4.86-.5-3.5-5.3-9.38-3.85-14.12-5.5Z"/><path class="j" d="M396.38,282.04c12.91-9.34,22.93-20.65,25.66-37.08,.4-2.43,1.5-4.74,2.27-7.11,10.61-.03,21.22,.06,31.83-.15,3.48-.07,4.73,.62,4.09,4.46-3.67,21.84-7.13,43.72-10.58,65.6-.36,2.25-.94,3-3.31,2.12-16.23-6-32.51-11.89-48.77-17.81-.56-.93-1.45-1.06-2.42-1v.08c-.65-2.73-1.21-5.45,.16-8.15l.1-.11c.32-.28,.65-.57,.97-.85Z"/><path class="i" d="M121.26,351c3,4.46,6.55,8.69,9.17,13.23,3.55,6.15,9.73,10.28,11.98,17.32,2.18,6.84,3.67,13.07,.67,20.46-3.36,8.26-4.85,17.3-6.82,26.08-.73,3.26-2.09,4.73-5.4,4.22-13.8-9.45-27.66-18.81-41.35-28.4-4.02-2.82-10.87-4.72-10.99-9.09-.09-3.41,5.78-7.07,9.17-10.46,11.15-11.16,22.37-22.25,33.57-33.36Z"/><path class="j" d="M97.59,269.18c-1.58-12.61-1.64-25.24-.24-37.87,.42-3.74-1.86-3.93-4.61-4.14-9.34-.71-18.68-1.55-28.01-2.42-.66-.06-1.25-.75-1.88-1.15,21.49,1.61,42.99,3.07,64.46,4.88,29.16,2.46,58.3,5.19,87.46,7.8,.76,.07,1.51,.2,2.46,1.13-7.51,2.06-15.02,4.15-22.54,6.17-31.42,8.4-62.84,16.78-94.26,25.15-.92,.25-1.89,.3-2.84,.44Z"/><path class="t" d="M94.19,221.22c4.42-.77,5.72-3.17,6.01-7.81,.37-5.97,2.47-11.85,3.96-17.74,.89-3.51,1.71-6.96,.52-10.55,15.68,6.37,31.39,12.67,47.04,19.14,19.92,8.23,39.78,16.6,59.66,24.92,1.35,.57,3.03,.64,4.26,3.23-40.89-3.77-81.17-7.48-121.45-11.19Z"/><path class="i" d="M425.32,233.19c.54-7.84,.77-15.72,1.73-23.51,.77-6.23-.39-12.26-.91-18.33-.47-5.48-4.54-9.13-8.29-12.76,10.55-4.69,21.79-7.35,32.68-11.02,4.25-1.43,3.3,2.21,3.49,3.99,1.39,13.39,2.58,26.8,3.81,40.21,.55,5.94,.85,11.91,1.66,17.81,.45,3.23-.59,4.04-3.6,3.98-10.19-.21-20.38-.25-30.57-.35Z"/><path class="k" d="M222.42,156.68c1.65,.95,2.8,3.38,5.36,1.24,6.52-5.44,14.6-7.31,22.56-9.35,6.98-1.79,7.82-4.23,2.84-9.54-4.62-4.95-9.44-9.72-9.61-17.13-.15-6.7,3.67-10.7,12.02-12.73,4.84-1.17,9.67-2.37,14.5-3.56,.57,2.44-.67,4.54-1.41,6.68-3.81,11.08-7.5,22.24-10.78,33.45-7.62,26-16.2,51.68-23.97,77.77-1.72-1.21-1.8-2.76-2.03-4.26-1.18-7.6-2.08-15.26-3.59-22.79-2.19-10.9-2.4-22.15-5.92-32.8l.02-6.99Z"/><path class="s" d="M222.41,163.67c3.52,10.65,3.72,21.9,5.92,32.8,1.51,7.53,2.42,15.19,3.59,22.79,.23,1.49,.31,3.05,2.03,4.26,7.76-26.09,16.35-51.77,23.97-77.77,3.28-11.2,6.97-22.37,10.78-33.45,.74-2.14,1.98-4.24,1.41-6.68,.28-.01,.57-.04,.85-.09,1.32,.1,2.64,.2,3.96,.3-5.5,18.03-10.92,36.09-16.51,54.09-6.08,19.63-12.33,39.2-18.45,58.82-.49,1.58-1.59,3.16-.44,5.47,7.44-5.55,11.75-14.16,19.54-19.06-.25,2.04-.51,4.09-.76,6.13-5.48,5.76-10.97,11.53-17.56,18.46,7.8-.64,13.07-3.54,18.71-5.05,.68,4.36,1.36,8.72,2.04,13.07-4.83,0-9.67,0-14.5,0,4.93,2.78,9.88,5.01,15.26,6.09,.29,.25,.6,.46,.93,.64l.16,.09c.92,1.74,2.02,3.42,1.99,5.51-7.67-3.11-15.11-6.92-23.52-7.77-1.56-3.65-3.09-7.3-4.68-10.93-1.22-2.8-2.99-5.3-6.43-3.89-3.39,1.38-2.3,4.22-1.34,6.8,.26,.69,.23,1.49,.33,2.24l-.12,.1c-3.19-1.92-4.06-6.24-7.81-7.57-.46-1.7-.92-3.4-1.38-5.11-.39-.44-.77-.88-1.16-1.32l.02,.03c.17-1.58,.35-3.15,.52-4.73,3.85,1.32,4.4,6.17,8.84,8.03-3.3-20.28-6.51-40.03-9.72-59.78,.1-.39,.2-.79,.3-1.18,1.01-.61,1.84-1.66,3.24-1.32Zm15.98,61.5l-.18,.36,.3,.03-.11-.39Zm2.17,4.98l.27,.18,.05-.24-.32,.06Z"/><path class="k" d="M241.8,242.31c8.42,.85,15.86,4.65,23.52,7.77,7.05,9.81,13.95,19.8,23.53,27.35,3.25,2.56,6.5,6.96,11.86,3.98,5,13.72,12.9,25.47,23.87,35.12-1.84,3.72-.85,7.91-1.99,11.75-.1,.76-.2,1.52-.3,2.27l-.38,.34,.16,.44c-.3,.24-.62,.46-.94,.67-17.37-19.52-34.62-39.14-52.16-58.51-7.96-8.8-15.19-18.29-24.09-26.22-1.03-1.65-2.06-3.3-3.09-4.95Z"/><path class="i" d="M433.43,332.62c-5.04-1.13-10.07-2.25-15.11-3.38-1.69-2.21-4.08-2.4-6.6-2.37-5.09,.06-10.19,.06-15.28,.09-.36-1.04-1.24-1.27-2.18-1.41-2.78-4.17-6.11-8.19-3.74-13.76-.35-3.14,1.86-5.98,1.1-9.17-.99-6.04,3.31-4.7,6.62-4.76l.42-.02c.63,.39,1.26,.79,1.89,1.18,0,0,.12-.32,.12-.32,1.09,1.66,2.76,1.56,4.43,1.45l.34-.12,.26,.25c.63,1.04,1.68,.95,2.67,.99,12.01,3.5,23.64,8.1,35.36,12.43,2.53,.93,3.4,2.01,1.25,4.51-4.01,4.67-7.72,9.59-11.56,14.41Z"/><path class="j" d="M338.58,117.34c-8.07-7.94-18.53-9.83-29.09-11.73-11.01-1.98-22.13-.33-33.14-1.48,2.55-8.75,5.1-17.51,7.64-26.26,1.23-3.47,2.46-6.93,3.69-10.4,1.64,2.44,.09,4.97-.56,6.99-1.13,3.51,.31,4.45,3.05,5.25,11.62,3.43,21.4,10.34,31.58,16.56,6.89,4.21,12.94,9.31,18.84,14.7,.6,.55,1.81,.43,2.75,.63-1,2.4-2.61,4.29-4.75,5.74Z"/><path class="k" d="M319.82,336.05c-2.79,2.61-12.02,3.19-13.7,.05-6.25-11.74-16.74-9.14-26.69-8.76-4.36-4.03-5.11-9.94-7.64-14.91-1.61-3.18-2.6-6.67-3.87-10.02,1.76-6.2,2.86-12.53,3.61-18.93,7.49,6.94,13.77,14.99,20.71,22.43,9.29,9.96,17.5,20.91,27.58,30.15Z"/><path class="m" d="M336.23,447.23c-1.95,.22-3.9,.44-5.86,.66-4.53-7.2-6.99-15.33-10.37-23.05-5.24-12-10.15-24.15-15.2-36.23,.37-1.16,.23-3.18,2.35-1.46,7.69,6.22,13.51,14.25,20.48,21.13,3.66,3.62,6.61,8.49,12.1,10.04v.02c-.11,1.81-.04,3.49,2.46,3.44,.31,.05,.59,.16,.84,.35-2.15,5.37-1.05,11-.89,16.45,.14,4.77-.61,8.03-5.92,8.67Z"/><path class="k" d="M391.63,302.62c.75,3.19-1.45,6.03-1.1,9.17-6.25,2.03-2.25,7.93-4.28,11.67-1.09,2.01,2.06,1.87,3.56,2.94-1.68,.85-3.74-.17-4.89,1.41-2.51,3.29-3.91,7.4-7.37,9.99-10.15,1.28-10.77,.8-12.47-9.37-.34-2.06-.8-4.1-1.21-6.14,.09-2.34,.4-4.7-.99-6.83,4.81-5.36,10.27-10.15,14.17-16.31,4.81,1.38,9.41,3.65,14.59,3.46Z"/><path class="j" d="M239.9,293.33c-1.17,1.23-2.23,2.39-4.27,2.33-5.12-.15-10.26-.14-15.38,0-2.02,.06-3.17-.89-4.15-2.39,4.99-15.64,9.98-31.28,14.96-46.92,3.46,6.37,3.13,13.58,4.46,20.41,1.72,8.81,2.94,17.71,4.37,26.57Z"/><path class="s" d="M319.82,336.05c-10.09-9.23-18.29-20.18-27.58-30.15-6.94-7.44-13.22-15.49-20.71-22.43-.45-.6-.9-1.2-1.35-1.8l-1.11-1.13-.03-.03-1.13-1.17h0l-1.16-1.18h.02c-.03-.75-.47-1.08-1.18-1.15h.01c-.22-1.32-.95-2.14-2.3-2.35l.06-.02c-.22-2.27-1.88-3.41-3.56-4.54l-.03-.02c-.38-.39-.77-.77-1.15-1.16h0c-.81-1.01-1.61-2.01-2.42-3.01-.08-.32-.29-.5-.61-.55l-.34-.39c-1.54-2.36-2.52-5.36-6.15-5.27-.99-4.29-4.21-7.82-4.24-12.44,8.91,7.94,16.13,17.43,24.09,26.22,17.54,19.37,34.79,38.99,52.16,58.51-.04,1.48,.59,3.18-1.32,4.05Z"/><path class="k" d="M259.46,304.92c3.12,7.32,6.24,14.65,9.36,21.97-1.91,.06-3.82,.2-5.73,.16-5.18-.1-1.59,2.06-.92,3.47-2.78,3.47-6.98,2.63-10.61,3.5-1.79-12.75-5.21-25.25-5.93-38.17,2.47,2.51,4.85,5.13,7.45,7.5,1.75,1.6,3.67,3.48,6.38,1.57Z"/><path class="j" d="M218.87,166.17c3.21,19.75,6.42,39.5,9.72,59.78-4.44-1.86-4.99-6.72-8.84-8.03-1.82-2.65-3.64-5.31-5.46-7.96,2.37-1.45,1.78-3.91,1.35-5.75-1.99-8.4-.6-16.89-1.06-25.31-.26-4.83,1.04-9.1,4.3-12.73Z"/><path class="j" d="M346.6,116.05c6.57,8.24,11.06,18.6,22.38,22,.99,.3,1.73,.75,2.01,1.79-12.7-2.76-25.58-3.22-38.5-3.01-1.35,.02-2.68-.11-3.75-1.07,1.83-5.03,7.16-7.15,9.66-11.64,2.87-2.55,4.84-6.03,8.21-8.07Z"/><path class="s" d="M322.6,328.27c1.14-3.84,.15-8.03,1.99-11.75,6.75,2.46,13.37,5.47,20.84,4.88,.07,4.52,.14,9.04,.21,13.56-.1,.36-.15,.73-.17,1.1-8.48-.09-17.11,.26-22.87-7.8Z"/><path class="r" d="M361.2,285.17c-4.52,7.08-9.31,11.32-16.66,11.63-7.55,.31-13.16-3.76-17.88-8.99-2.37-2.62,.51-2.6,2.1-2.61,10.35-.05,20.69-.03,32.43-.03Z"/><path class="j" d="M259.46,304.92c-2.72,1.9-4.63,.03-6.38-1.57-2.6-2.38-4.98-4.99-7.45-7.5l.14-.1c.02-1.29,.34-2.67-1.06-3.53-1.72-7.15-3.23-14.34-3.82-21.69,.6-1.38-.18-3.6,2.35-3.78,4.21,9.73,8.43,19.45,12.61,29.19,1.27,2.97,2.42,6,3.62,9Z"/><path class="o" d="M231.07,246.35c-4.99,15.64-9.98,31.28-14.96,46.92-.5,.82-1,1.65-1.5,2.47-1.21-.46-2.42-.93-3.63-1.39,4.8-16.05,9.85-32.01,15.85-47.66,2.01,7.2,2.66-2.4,4.25-.34Z"/><path class="o" d="M345.63,334.97c-.07-4.52-.14-9.04-.21-13.56,6.39-.31,11.68-3.82,17.44-5.95,1.39,2.12,1.08,4.49,.99,6.83-4,7.2-9.85,11.76-18.22,12.68Z"/><path class="j" d="M270.18,281.67c.45,.6,.9,1.2,1.35,1.8-.75,6.39-1.85,12.72-3.6,18.92-2.34-5.33-4.69-10.67-7.03-16,.07-2.3,.36-4.71-2.49-5.74-.44-1.05-.87-2.1-1.3-3.15,.52-2.48,.27-4.62-2.43-5.72l-.15-.26c.53-1.16,.37-2-1.03-2.28-.22-.23-.32-.5-.29-.81,.7-1.15,1.39-2.31,2.09-3.46,0,0,.34,.39,.33,.39-.46,1.03-.36,1.9,.69,2.51,.54,.88,1.39,1.08,2.34,1.05h0c.38,.39,.77,.78,1.15,1.16l.03,.02c-.16,2.57,.43,4.55,3.56,4.54l-.06,.02c-.04,1.57,.7,2.38,2.29,2.34h0c.39,.4,.78,.79,1.18,1.17h-.02c.39,.38,.77,.77,1.16,1.17h0c.38,.39,.75,.78,1.13,1.16l.03,.03c.37,.38,.74,.75,1.11,1.13Z"/><path class="t" d="M251.56,334.01c3.63-.88,7.84-.03,10.61-3.5,4.62,4.95,9.25,9.9,13.88,14.86h-.01c.35,.44,.69,.89,1.04,1.34,2.71,4.25,4.77,8.78,5.94,13.7-6.65-2.06-9.86-8-13.82-12.86-3.67-4.51-8.62-7.5-12.36-11.84-1.31-1.52-3.67-.48-5.51-.87,.07-.28,.15-.55,.23-.83Z"/><path class="t" d="M339.74,418.31c-5.49-1.55-8.44-6.42-12.1-10.04-6.96-6.89-12.78-14.92-20.48-21.13-2.12-1.72-1.98,.3-2.35,1.46-3.41-6-5.84-12.45-8.4-18.84,7.37,6.23,13.19,13.92,19.53,21.09,8.02,9.08,16.6,17.67,23.8,27.45Z"/><path class="s" d="M251.56,334.01c-.09,.27-.16,.55-.23,.83-1.36,.06-2.72,.11-4.07,.17-1.88-13.09-5.2-25.97-6.04-39.22,1.11-.04,2.21-.08,3.32-.12,.41,.02,.83,.05,1.24,.07l-.14,.1c.72,12.92,4.14,25.42,5.93,38.17Z"/><path class="o" d="M284,77.87c-2.55,8.75-5.09,17.51-7.64,26.26-.48,.57-.97,1.13-1.45,1.7-1.32-.1-2.64-.2-3.96-.3,2.78-9.63,5.56-19.27,8.34-28.9,.27-.1,.55-.2,.82-.29,.93,1.45,2.28,1.8,3.89,1.53Z"/><path class="j" d="M391.63,302.62c-5.18,.19-9.78-2.08-14.59-3.46,4.34-8.16,4.35-8.2,12.87-4.95,2.83,1.08,5.56,2.43,8.34,3.66-3.31,.05-7.61-1.29-6.62,4.76Z"/><path class="v" d="M276.05,345.37c-4.63-4.95-9.25-9.9-13.88-14.86-.67-1.41-4.26-3.57,.92-3.46,1.91,.04,3.82-.1,5.73-.16,3.02,5.92,6.49,11.67,7.23,18.48Z"/><path class="s" d="M338.39,124.12c-2.5,4.48-7.83,6.61-9.66,11.64-2.69,1.7-5.59,2.53-8.79,2.21,5.89-5.94,10.76-12.85,17.36-18.11,.48,1.39-.46,3.15,1.09,4.26Z"/><path class="u" d="M310.18,249.06c5.19-8.98,11.62-9.05,20.42-.85-6.89,0-13.22-1.85-20.42,.85Z"/><path class="u" d="M354.25,247.76c2.39-1.56,4.62-3.49,7.2-4.62,5.55-2.44,9.72-.63,12.74,5.6-6.83-2.97-13.43,.23-19.95-1.06l.02,.08Z"/><path class="k" d="M395.3,283c-1.37,2.69-.81,5.42-.14,8.15-3.77,.61-6.67-1.98-10.04-2.87-2.43-.64-1.9-2.78-.35-4.41,3.56,.33,7.07,.04,10.53-.87Z"/><path class="t" d="M255.27,264.97c-.7,1.15-1.39,2.31-2.09,3.46-1.35-2.91-2.71-5.82-4.06-8.73,3.63-.09,4.61,2.92,6.15,5.27Z"/><path class="t" d="M243.23,266.73c-2.52,.18-1.75,2.4-2.35,3.78-1.34-3.72-2.26-7.51-1.9-12.46,2.64,2.96,3.29,5.9,4.24,8.68Z"/><path class="j" d="M62.97,223.75c-3.6,0-7.2,.05-10.8-.03-1.6-.03-3.57,.56-4.26-1.76,5.02,.6,10.18,.02,15.07,1.79Z"/><path class="j" d="M406.92,175c2.33-1.77,5.03-.56,7.54-.95-1.01,.7-2.02,1.41-3.02,2.11-1.64,.13-3.14-.28-4.51-1.16Z"/><path class="t" d="M258.39,280.66c2.86,1.03,2.56,3.44,2.49,5.74-1.47-1.63-2.09-3.64-2.49-5.74Z"/><path class="t" d="M254.66,271.79c2.7,1.1,2.96,3.25,2.43,5.72-1.44-1.64-2.09-3.62-2.43-5.72Z"/><path class="t" d="M285.43,366.2c-2.11-1.38-2.63-3.44-2.44-5.8,1.62,1.59,2.17,3.63,2.44,5.8Z"/><path class="j" d="M405.1,300.16c-1.67,.1-3.33,.21-4.43-1.45,1.61,.06,3.17,.3,4.43,1.45Z"/><path class="k" d="M245.77,295.74c-.41-.02-.83-.05-1.24-.07,.06-1.15,.12-2.31,.18-3.47,1.4,.86,1.09,2.24,1.06,3.54Z"/><path class="t" d="M204.35,78.08c-1.43-1.06-1.77-2.26-.44-3.66,.15,1.22,.29,2.44,.44,3.66Z"/><path class="t" d="M253.47,269.25c1.4,.28,1.57,1.12,1.03,2.28-.35-.76-.69-1.52-1.03-2.28Z"/><path class="k" d="M395.15,291.07c.97-.06,1.86,.06,2.42,1-.96,.04-1.88-.03-2.42-1Z"/><path class="t" d="M286.56,368.53c-1.13-.44-1.3-1.35-1.19-2.41,.94,.53,1.09,1.46,1.19,2.41Z"/><path class="s" d="M229.68,236.53c.27,.42,.54,.83,.79,1.26,.01,.02-.25,.21-.39,.31-.17-.49-.35-.98-.52-1.47l.12-.1Z"/><path class="j" d="M408.38,301.28c-1-.04-2.04,.05-2.67-.99,.89,.33,1.78,.66,2.67,.99Z"/><path class="j" d="M343.18,111.54c.57-.39,1.15-.79,1.73-1.18-.4,.64-.77,1.34-1.73,1.18Z"/><path class="j" d="M400.56,299.02c-.63-.39-1.26-.79-1.89-1.18,.82,.1,1.64,.19,1.89,1.18Z"/><path class="v" d="M277.07,346.71c-.35-.45-.69-.9-1.04-1.35,.35,.45,.69,.9,1.04,1.35Z"/><path class="s" d="M221.58,155.58c.14,.21,.31,.42,.42,.65,.02,.04-.18,.18-.28,.28-.3-.28-.34-.59-.13-.93Z"/><path class="k" d="M112.72,352.49l1.2-1.26c-.4,.42-.8,.84-1.2,1.26Z"/><path class="k" d="M111.56,353.63c.42-.41,.83-.82,1.25-1.23-.41,.41-.83,.82-1.25,1.23Z"/><path class="k" d="M110.4,354.8c.41-.41,.82-.82,1.23-1.24-.41,.41-.82,.82-1.23,1.24Z"/><path class="k" d="M109.24,355.96c.41-.41,.82-.83,1.23-1.24-.41,.41-.82,.83-1.23,1.24Z"/><path class="u" d="M354.23,247.68l.36,.44c-.1-.11-.21-.22-.33-.34-.01-.01-.03-.09-.03-.09Z"/><path class="k" d="M108.08,357.11c.41-.41,.83-.82,1.24-1.23-.41,.41-.83,.82-1.24,1.23Z"/><path class="k" d="M106.92,358.3c.41-.42,.83-.85,1.24-1.27-.41,.42-.83,.85-1.24,1.27Z"/><path class="k" d="M116.17,348.96c.43-.4,.86-.8,1.29-1.2-.43,.4-.86,.8-1.29,1.2Z"/><path class="j" d="M177.27,412.37c4.74,1.65,10.61,.2,14.12,5.5,.57,.86,3.19,.37,4.86,.5,.73,1.92,1.46,3.84,2.19,5.76-1.8,10.11-4.96,19.83-8.32,29.5-7.52-.04-15.04-.18-22.56-.09-3.12,.04-4.19-.73-3.02-4,3.67-10.33,7.14-20.73,10.69-31.1,.93-.56,1.16-1.43,1.09-2.44l-.03,.03c1.54-.8,1.24-2.21,1.16-3.54l-.16-.13Z"/><path class="h" d="M256.46,462.69c-2.02,1.82-1.77,4.09-1.17,6.36,1.14,4.32,.56,8.73,.73,13.09-1.73-.06-3.48,.02-5.18-.21-3.44-.46-5.22-1.98-5.13-6.03,.31-13.04,2.9-25.82,4.08-38.88,3.22,7.01,3.36,14.76,5.26,22.06,.33,1.29,.18,2.7,1.41,3.61Z"/><path class="h" d="M198.43,424.13c-.73-1.92-1.46-3.84-2.19-5.76-.2-1.51-.33-3.04-.62-4.54-2.16-11.11,.75-15.76,11.88-18.93,.32,.46,1.02,1.05,.91,1.36-3.23,9.32-5.04,19.16-9.98,27.87Z"/><path class="s" d="M334.94,951.28c-10.21-.04-20.44-.37-30.64,.01-5.14,.19-6.45-1.34-6.43-6.44,.19-51.85,.12-103.7,.12-155.55,0-52.43,0-104.85-.01-157.28,9.26-1.13,8.98-1.14,9.35-10.79,1.28-33.12,1.11-66.26,1.04-99.4,0-4.9,1.68-6.4,6.4-6.21,9.43,.38,18.88,.31,28.32,.42-.36,5.09-1.01,10.18-1.04,15.27-.09,12.89,.84,25.79,.88,38.64,.37,118.29,.22,236.59,.2,354.88,0,2.1-.15,4.23-.46,6.31-1.02,6.71-1.29,13.38,.51,20-2.74,.04-5.49,.08-8.23,.12Z"/><path class="o" d="M343.17,951.17c-1.79-6.63-1.53-13.3-.51-20,.32-2.08,.46-4.21,.46-6.31,.02-118.29,.17-236.59-.2-354.88-.04-12.85-.97-25.75-.88-38.64,.03-5.09,.68-10.18,1.04-15.27,13.98,.75,27.96,1.5,41.94,2.25-.06,13.68-.18,27.37-.17,41.05,0,62.65,.05,125.29,.08,187.93-.03,65.31-.06,130.62-.09,195.94q0,7.97-8.15,7.97c-11.17,0-22.35-.02-33.52-.03Z"/><path class="f" d="M345.63,334.97c8.38-.92,14.22-5.48,18.22-12.68,.41,2.05,.87,4.09,1.21,6.14,1.7,10.17,2.33,10.65,12.47,9.37-8.77,13.69-17.4,27.48-27.44,40.31-.89,1.14-1.86,3.01-3.52,2.47-1.84-.6-1.04-2.67-1.04-4.09-.07-13.47-.05-26.95-.06-40.42,.01-.37,.07-.74,.17-1.1Z"/><path class="h" d="M336.23,447.23c5.3-.64,6.06-3.9,5.92-8.67-.16-5.46-1.26-11.08,.89-16.45,8.05,7.34,14.65,15.95,22.74,25.12h-29.55Z"/><path class="k" d="M340.5,492.91c7.43-.08,15.61,9.31,14.57,15.74-.28,1.72-1.35,2.72-2.99,3.13-2.31,.58-3.75-.67-4.59-2.56-2.33-5.26-4.54-10.57-6.99-16.31Z"/><path class="j" d="M384.91,327.81c1.16-1.58,3.21-.56,4.89-1.41-1.5-1.07-4.65-.93-3.56-2.94,2.03-3.74-1.97-9.64,4.28-11.67-2.37,5.57,.96,9.59,3.74,13.77-1.2,.22-2.31,.53-2.38,2.05l-6.97,.2Z"/><path class="j" d="M396.44,326.96c5.09-.02,10.19-.02,15.28-.09,2.52-.03,4.91,.15,6.6,2.37-.73-.03-1.46-.06-2.19-.09-6.59-.48-13.18-.96-19.77-1.43,.01-.25,.04-.5,.08-.75Z"/><path class="k" d="M396.44,326.96c-.04,.25-.07,.5-.08,.75-1.5-.04-2.99-.07-4.49-.11,.08-1.52,1.19-1.84,2.39-2.05,.94,.14,1.82,.37,2.18,1.41Z"/><path class="t" d="M342.2,421.76c-2.5,.05-2.57-1.62-2.45-3.44,1.53,.64,2.3,1.82,2.45,3.44Z"/><path class="o" d="M391.65,518.98c-1.54,.14-3.11,.47-4.46-.66,1.55-.21,3.15-.72,4.46,.66Z"/><path class="s" d="M322.07,331.33l-.16-.44,.38-.34c.08,.31,0,.57-.23,.78Z"/><path class="k" d="M170.66,414.39c1.42-5.9-.73-9.96-5.77-13.35-5.23-3.51-9.78-8.03-14.87-11.76-5.85-4.29-6.55-10.5-6.7-16.83-.1-4.13,2.87-6.82,6.49-7.83,6.42-1.79,8.6-7.07,10.01-12.27,2.01-7.42,5.72-14.14,7.84-21.49,1.83-6.34,4.31-12.48,6.36-18.76,.92-2.83,2.55-4.29,5.56-4.96,9.71-2.16,19.35-4.62,29.01-6.97-4.83,15.01-9.65,30.03-14.48,45.04-6.6,20.53-13.21,41.06-19.81,61.59-2.15,2.08-1.35,5.58-3.64,7.59Z"/><path class="s" d="M174.3,406.79c6.6-20.53,13.21-41.06,19.81-61.59,4.83-15.01,9.65-30.03,14.48-45.04,.13-.67,.25-1.33,.38-2,1.28-.9,1.24-2.31,1.4-3.64,.21-.02,.41-.07,.6-.17,1.21,.46,2.42,.92,3.63,1.39-6.55,20.3-13.01,40.62-19.67,60.88-5.76,17.52-11.75,34.96-17.64,52.44-1.67,.13-1.99-1.52-2.99-2.27Z"/><path class="k" d="M177.42,412.5c.08,1.33,.38,2.74-1.16,3.54-.29-1.4-.26-2.7,1.16-3.54Z"/><path class="k" d="M176.29,416c.07,1-.15,1.88-1.09,2.44,.08-.94-.18-2.03,1.09-2.44Z"/><path class="k" d="M302.38,163.72c5.06,2.45,8.64,6.91,13.34,9.86,1.03,.65,2.83,1.17,1.92,2.93-.75,1.44-2.24,2.15-3.92,1.83-6.95-1.3-13.88-2.66-20.82-4,2.65-3.99,5.78-7.56,9.48-10.63Z"/><path class="k" d="M259.44,224.69c-5.64,1.51-10.91,4.41-18.71,5.05,6.6-6.93,12.08-12.7,17.56-18.46,2.43,4.3,1.25,8.9,1.15,13.41Z"/><path class="j" d="M381.04,165.74c-.31,4.63,.7,8.41,6.04,9.39-4.58,1.16-9.15,2.35-13.74,3.44-1.82,.43-3.6,0-4.44-1.77-.9-1.89,.85-2.66,2.05-3.56,3.36-2.51,6.72-5,10.09-7.5Z"/><path class="s" d="M302.38,163.72c-3.7,3.06-6.83,6.63-9.48,10.63-2.27,.22-4.54,.44-6.82,.66,4.32-4.98,8.64-9.96,12.95-14.94,1.93,.47,2.77,1.94,3.35,3.65Z"/><path class="k" d="M262.24,243.84c-5.38-1.07-10.33-3.31-15.26-6.09,4.84,0,9.67,0,14.5,0,1.49,1.87,2.14,3.85,.76,6.08Z"/><path class="j" d="M391.73,174.69c3.91-2.85,7.82-2.76,11.74-.02-3.91,.77-7.82,.69-11.74,.02Z"/><path class="j" d="M373.35,140.23c3.84-2.13,6.37,.47,9.05,2.51-3.3,.19-6.2-1.07-9.05-2.51Z"/><path class="j" d="M383.42,143.06c3.82-.92,5.01,1.49,5.71,4.52-2.17-1.17-4.37-2.3-5.71-4.52Z"/><path class="j" d="M389.49,154.36c2.2,3.05,.46,4.02-2.34,4.42,.04-1.87,.94-3.28,2.34-4.42Z"/><path class="j" d="M384.48,162.19c.03,1.03-.62,1.36-1.49,1.47,.03-.96,.62-1.36,1.49-1.47Z"/><path class="j" d="M389.2,147.73l.66,.41c-.15,.09-.29,.18-.44,.27-.25-.17-.32-.4-.22-.68Z"/><path class="k" d="M396.38,282.04c-.33,.28-.65,.57-.97,.85,.33-.28,.65-.57,.97-.85Z"/><polygon class="k" points="263.33 244.57 263.17 244.48 263.48 244.27 263.33 244.57"/><path class="j" d="M382.25,164.55c.03,.7-.3,1.06-1.01,1.03,.34-.35,.68-.69,1.01-1.03Z"/><path class="k" d="M210.37,294.53c-.16,1.33-.11,2.74-1.4,3.64-2.25-2.25-.45-2.96,1.4-3.64Z"/><path class="f" d="M219.21,222.63c.39,.44,.77,.88,1.16,1.32-.39-.44-.77-.88-1.16-1.32Z"/><polygon class="k" points="238.39 225.17 238.5 225.56 238.2 225.54 238.39 225.17"/><polygon class="k" points="240.56 230.15 240.88 230.09 240.83 230.33 240.56 230.15"/><path class="k" d="M263.37,274.65c-3.12,0-3.72-1.97-3.56-4.54,1.68,1.13,3.34,2.27,3.56,4.54Z"/><path class="k" d="M258.64,268.92c-.95,.03-1.8-.17-2.34-1.05-.03-.65-.05-1.3-.07-1.96,.81,1,1.61,2.01,2.42,3.01Z"/><path class="k" d="M265.61,277.01c-1.6,.04-2.33-.77-2.29-2.34,1.35,.21,2.07,1.03,2.29,2.34Z"/><path class="t" d="M256.23,265.91c.02,.65,.05,1.3,.07,1.96-1.05-.61-1.15-1.48-.69-2.51,.33,.05,.53,.23,.62,.55Z"/><path class="k" d="M269.04,280.51c-.38-.39-.75-.78-1.13-1.17,.38,.39,.75,.78,1.13,1.17Z"/><path class="k" d="M267.92,279.35c-.39-.39-.77-.79-1.16-1.18,.39,.39,.77,.79,1.16,1.18Z"/><path class="k" d="M266.78,278.18c-.39-.39-.78-.78-1.18-1.16,.71,.07,1.15,.4,1.18,1.16Z"/><path class="k" d="M270.18,281.67c-.37-.38-.74-.75-1.11-1.13,.37,.38,.74,.75,1.11,1.13Z"/><path class="k" d="M259.79,270.08c-.38-.39-.77-.77-1.15-1.16,.38,.39,.77,.77,1.15,1.16Z"/></g></g></g></svg>