<?xml version="1.0" encoding="UTF-8"?><svg xmlns="http://www.w3.org/2000/svg" viewBox="0 0 316.54 165.76"><defs><style>.d{fill:#b30916;}.e{opacity:.9;}.f{fill:#811512;}.g{fill:#820613;}.h{fill:#d90724;}</style></defs><g id="a"/><g id="b"><g id="c"><g class="e"><path class="d" d="M150.89,144.69c-.5,.09-.96-.02-1.37-.31-1.19-10.29-6.24-20.88,2.39-30.4,10.19-3.53,20.24,4.84,30.44,.38,3.42,6.63-.57,12.1-3.91,17.95,12.27-1.18,17.21-11.43,12.03-22.44-3.93-8.33-11.89-10.17-19.54-12.59-.81-1.21-1.51-3.39-2.45-3.5-18.69-2.15-36.1,.51-51.62,12.45-6.81,5.24-11.41,12.36-17.87,17.8-9.93,8.36-20.36,4.66-30.84,1.84-.94-1.91-2.62-2.35-4.54-2.3-1.6-.06-3.19-.11-4.79-.17-4.25-11.8-16.65-16.07-23.53-25.44,9.94-1.14,16.34,6,23.11,10.98,12.38,9.1,26.16,12.91,32.31,5.62,5.87-6.96,13.53-12.51,16.68-22.05,3.73-11.32,13.92-18.76,19-30.17,5.41-12.14,39.31-8.5,47.03,4.72,5.4,9.24,13.72,12.43,21.99,15.51,16.81,6.25,28.26-.88,28.79-16.5,1.65-4.3,4.11-8.48,4.78-12.92,1.87-12.41-7.01-19.16-19.76-14.62,3.53,3.68,11.18,3.05,10.55,10.16-4.18,.72-8.35,1.52-12.54,2.15-7.55,1.13-14.85-.54-17.51-7.91-2.21-6.14-6.13-10.74-9.39-15.96,2.15-8.15,5.32-15.54,14.04-18.76,.6,2.59-1.32,6.62,4.43,5.91,5.76-.72,11.64-.54,17.47-.54,25.88-.03,40.99,13.37,43.45,39.02,.76,7.95,4.29,12.33,12.27,12.4,9.78,.09,18.32,4.82,27.44,7.26,5.23,1.4,9.61,2.39,14.36-.36,1.91,1.92,3.28,4.04,2.58,6.93-5.44,14.08-15.65,23.84-28.28,31.48-1.74,1.05-5.33,2.76-3.11,4.96,6.3,6.26-.6,10.24-1.84,15.17-4.37,3.73-4.85,8.72-4.56,13.96-14.04,3.18-28.08,6.36-42.11,9.53-12.91-7.46-8.47-20.27-9.66-31.34,2.47-7.1,8.07-10.06,14.99-10.93,7.73-.97,14.87,.02,18.93,7.87,4,7.73-1.62,12.13-7.01,17.38,8.33,2.17,14.03-2.39,16.61-7.51,3.36-6.67-.19-13.47-5.97-18.35-12.18-10.27-31.02-8.97-45.49,3.08-1.9,.73-3.8,1.47-5.7,2.2-9.8,4.58-15.74,11.57-14.34,23.1l-9.03,.35c-5.12,5.43-9.72,11.89-18.8,9.3-6.01-4.6-12.85-5.36-20.08-4.4Z"/><path class="h" d="M224.19,66.07c-.53,15.62-11.98,22.75-28.79,16.5-8.27-3.08-16.6-6.26-21.99-15.51-7.72-13.22-41.62-16.86-47.03-4.72-5.08,11.41-15.27,18.85-19,30.17-3.15,9.54-10.81,15.09-16.68,22.05-6.15,7.29-19.93,3.48-32.31-5.62-6.78-4.98-13.17-12.12-23.11-10.98-1.43,0-2.86,0-4.29,0-5.16-.03-10.21-.2-9.72-7.52l-.02,.2c.91-.72,1.81-1.43,2.72-2.14,7.67-5.88,14.82-1.15,21.76,1.53,4.26,1.64,7.89,4.9,11.82,7.41,17.45,11.15,26.42,8.48,32.99-11.44,6.23-18.88,16.25-34.21,34.01-43.84,19.07-4.51,35.99-.7,50.45,12.9,1.11,1.04,2.76,1.55,3.78,2.65,13.35,14.5,22.42,16.71,40.99,9.84,1.46-.54,2.95-.98,4.43-1.47Z"/><path class="h" d="M313.77,71.9c-4.75,2.74-9.13,1.76-14.36,.36-9.12-2.44-17.66-7.17-27.44-7.26-7.98-.08-11.51-4.46-12.27-12.4-2.46-25.65-17.57-39.05-43.45-39.02-5.83,0-11.71-.17-17.47,.54-5.75,.72-3.83-3.31-4.43-5.91,25.83-18.07,66-5.08,75.66,26.98,4.5,14.92,11.7,19.6,25.03,20.16,7.45,4.15,15.11,8.07,18.73,16.55Z"/><path class="f" d="M180.31,26.97c3.26,5.22,7.17,9.81,9.39,15.96,2.66,7.37,9.96,9.04,17.51,7.91,4.19-.63,8.36-1.43,12.54-2.15-1.79,13.19-7.63,17.33-19.95,14.11-15.6-4.08-24.07-19.66-19.49-35.82Z"/><path class="f" d="M30.99,97.96c1.43,0,2.86,0,4.29,0,6.88,9.37,19.28,13.64,23.53,25.44-.74,6.15,6.95,9.9,4.7,16.48-5.72-2.32-8.81-7.24-11.99-12.1-4.77-7.29-9.94-14.19-18.35-17.73-10.53-5.4-21.55,.03-33.17-.41,1.16-5.94,5.75-7.07,8.43-9.85,7.74,2.04,15.69,6.76,22.56-1.84Z"/><path class="d" d="M30.99,97.96c-6.87,8.6-14.82,3.88-22.56,1.84,2.6-5.43,6.99-8.4,12.84-9.36-.49,7.33,4.56,7.49,9.72,7.52Z"/><path class="d" d="M23.97,88.5c-.91,.71-1.81,1.43-2.72,2.14,.22-1.58,1.01-2.45,2.72-2.14Z"/><path class="g" d="M283.12,130.44c1.23-4.93,8.13-8.91,1.84-15.17-2.21-2.2,1.38-3.91,3.11-4.96,12.64-7.64,22.84-17.4,28.28-31.48-.21,6.31-.42,12.62-.63,18.92-6.39-.14-2.74,9.37-9.44,9.55-4.27,.12-3.22,2.83-1.23,5.43,2.75,3.61,.99,8.11,1.9,12.12v.89c-8.53,3.65-11.37,10.08-9.29,18.94-1.44,1.6-2.87,3.2-4.31,4.8-5.94-.68-5.35-5.11-5.55-9.3-.18-3.82,1.62-8.8-4.68-9.75Z"/><path class="f" d="M283.12,130.44c6.3,.96,4.5,5.93,4.68,9.75,.2,4.19-.39,8.62,5.55,9.3-17.09,18.32-37.53,19.54-59.75,11.7-3.55-4.03-7.11-8.07-10.66-12.1,.42-8.95-4.19-18.64,3.85-26.49,1.19,11.07-3.25,23.88,9.66,31.34,.34,1.96,.99,4.17,3.19,4.17,14.12,0,28.75,2.06,41.42-6.14,4.5-2.91,2.31-6.31-2.5-7.57-.29-5.25,.19-10.24,4.56-13.96Z"/><path class="f" d="M306.95,124.86c-.91-4.01,.86-8.51-1.9-12.12-1.99-2.6-3.04-5.31,1.23-5.43,6.69-.19,3.05-9.69,9.44-9.55,3.15,11-6.83,17.75-8.77,27.1Z"/><path class="f" d="M297.66,144.7c-2.08-8.86,.76-15.3,9.3-18.94-.47,7.6-4.49,13.47-9.3,18.94Z"/><path class="f" d="M213.14,116.34c1.9-.73,3.8-1.46,5.7-2.2-3.14,12.01-5.42,24.33-12.18,35.09-14.9,17.04-31.04,18.52-50.31,4.62-.6-2.08-1.83-3.61-3.88-4.41-.53-1.58-1.06-3.17-1.59-4.75,7.22-.96,14.07-.2,20.08,4.4,2.65,8.54,9.93,5,14.47,4.16,7.56-1.4,3.1-8.79,4.33-13.46,3.01-.12,6.02-.23,9.04-.34,1.76,3.52-5.56,5.33-1.89,8.81,1.71,1.63,5.15,1.03,5.91-1.32,3.31-10.24,12.52-18.52,10.31-30.59Z"/><path class="g" d="M63.51,139.88c2.25-6.58-5.44-10.33-4.7-16.48,1.6,.06,3.19,.11,4.79,.17,1.14,1.69,2.28,3.39,3.43,5.08,.37-.93,.75-1.86,1.12-2.78,10.48,2.82,20.91,6.52,30.84-1.84,6.46-5.44,11.07-12.56,17.87-17.8,15.52-11.94,32.93-14.6,51.62-12.45,.94,.11,1.64,2.28,2.45,3.5-23.91-2.45-33.32,13.47-40.62,32.06l-.23,.28c-3.19,1.64-5.35,4.14-6.33,7.62-20.87,15.59-42.69,16.54-60.24,2.64Z"/><path class="g" d="M278.56,144.4c4.81,1.26,7.01,4.66,2.5,7.57-12.67,8.2-27.3,6.15-41.42,6.14-2.2,0-2.85-2.21-3.19-4.17,14.04-3.18,28.08-6.36,42.11-9.53Z"/><path class="g" d="M213.14,116.34c2.2,12.07-7,20.35-10.31,30.59-.76,2.35-4.2,2.94-5.91,1.32-3.67-3.48,3.65-5.28,1.89-8.81-1.4-11.54,4.53-18.52,14.33-23.11Z"/><path class="h" d="M151.91,113.98c9.22-10.58,22.97-10.41,30.44,.37-10.2,4.46-20.25-3.9-30.44-.37Z"/><path class="g" d="M189.76,139.79c-1.24,4.67,3.22,12.07-4.33,13.46-4.54,.84-11.82,4.37-14.47-4.16,9.08,2.59,13.68-3.88,18.8-9.3Z"/><path class="f" d="M68.15,125.87c-.37,.93-.75,1.86-1.12,2.78-1.14-1.7-2.28-3.39-3.43-5.08,1.93-.05,3.61,.39,4.54,2.3Z"/></g></g></g></svg>