<?xml version="1.0" encoding="UTF-8"?><svg xmlns="http://www.w3.org/2000/svg" viewBox="0 0 158.21 93.29"><defs><style>.d{fill:#b30916;}.e{opacity:.9;}.f{fill:#811512;}.g{fill:#820613;}.h{fill:#f8f1d6;}.i{fill:#d90724;}</style></defs><g id="a"/><g id="b"><g id="c"><g class="e"><path class="h" d="M157.93,67.22c-.51,.86-1.02,1.71-1.53,2.56,.51-.86,1.02-1.71,1.53-2.56Z"/><g><path class="d" d="M76.93,7.93c5.03,2.99,9.99,6.04,11.16,12.48-.11,.7-.41,1.43-.3,2.1,2.06,12.46-7.69,15.91-15.93,18.75-8.46,2.91-3.19-8.88-8.69-10.3,.42-3.13-.88-3.78-3.57-2.5-7.65,3.64-8.09,11.13-1.25,21.66-1.58,6.34-7.56,8.09-12.02,13.3h39.06c-.71,1.42-1.43,2.85-2.14,4.27v-.02c-5.71,3.97-11.99,5.23-18.83,3.95-7.24-1.35-14.47-2.84-21.77-3.85-6.54-.91-10.43-4.21-10.54-10.85-.09-5-3.13-9.58-6.64-9.63-7.08-.09-12.27-5.34-19.06-5.22-1.38-.64-2.77-1.28-4.15-1.92-5.06-7.93-.76-13.87,4.16-19.68,3.87,.19,5.63,5.83,10.32,3.95,17.44-6.99,34.54-15.37,54.29-12.43,2.82,.42,3.74-2.95,5.88-4.07Z"/><path class="f" d="M2.27,40.15c1.38,.64,2.77,1.28,4.15,1.92-.73,6.13,2.08,12.02,7.55,12.1,9.81,.13,11.08,7.45,13.48,13.32,2.61,6.4,6.51,11.71,10.66,16.92,4.01,5.03,9.29,6.64,14.93,2.75,5.3-3.65,11.59-3.63,17.19-3.82,13.36-.45,16.26-3.15,13.04-15.68v.02c5.16,.79,10.33,1.58,15.51,2.38-6.61,11.92-15.3,20.12-30.36,17.14-5.7-1.13-10.1,2.87-14.87,4.67-15.73,5.94-33.44-7.56-33.53-22.3-.04-6.24-2.3-8.3-7.55-10.34C2.46,55.32-.75,48.53,2.27,40.15Z"/><path class="i" d="M76.93,7.93c-2.14,1.12-3.06,4.49-5.88,4.07-19.75-2.94-36.85,5.43-54.29,12.43-4.69,1.88-6.45-3.76-10.32-3.95C20.7,12.59,34.75,3.99,50.84,.47c8.49-1.86,16.65,2.27,24.78,4.6,.43,.95,.87,1.9,1.3,2.85Z"/><path class="f" d="M151.55,76.22c-.52,0-.85,.26-.99,.75-8.57,2.7-15-.5-20.37-7.15-6.13-7.59-13.7-10.71-23.26-6.78,2.29-6.18,4.59-12.02,12.27-4.76,1.01,.95,3.38,.46,5.12,.63,5.68-1.26,9.85,2.34,14.47,4.5,6.28,6.69,10.68,5.63,16.78-4.04,2.92,.18,2.53,2.39,2.64,4.29-.09,1.18-.18,2.37-.27,3.56-.51,.85-1.02,1.71-1.53,2.56-2.46,1.51-3.81,3.86-4.86,6.43Z"/><path class="g" d="M124.31,58.92c-1.74-.18-4.11,.32-5.12-.63-7.69-7.26-9.99-1.42-12.27,4.76-1.32,.89-2.65,1.78-3.98,2.67-.8,.83-1.6,1.65-2.4,2.48-.59,.62-1.18,1.24-1.77,1.85-5.17-.79-10.34-1.58-15.52-2.38,.71-1.42,1.43-2.85,2.14-4.27h0c3.14,.06,6.31,.18,6.28-4.33l.06-.05c2.86,.09,4.27-1.32,4.31-4.16,1.51-.76,3.04-1.46,4.51-2.29,9.35-5.25,19.82-2.47,23.74,6.34Z"/><path class="f" d="M100.55,68.19c.8-.83,1.6-1.65,2.4-2.48-.8,.83-1.6,1.65-2.4,2.48Z"/><path class="i" d="M124.31,58.92c-3.93-8.81-14.39-11.6-23.74-6.34-1.47,.82-3.01,1.53-4.51,2.29-2.72,.06-4.19,1.4-4.31,4.16l-.06,.05c-3.12-.04-6.11,.09-6.29,4.33h0c-13.02,0-26.04,0-39.06,0,4.47-5.21,10.45-6.97,12.02-13.3,14.07,6.6,27.55,6.39,40.18-3.51,.59-.08,1.14-.29,1.63-.62,3.1,.29,5.13-1.42,6.88-3.65,.6,0,1.18-.13,1.74-.36,18.05-5.07,26.8,8.01,36.71,18.83-2.24,.88-4.48,1.75-6.72,2.63-4.62-2.16-8.79-5.76-14.47-4.5Z"/><path class="f" d="M86.93,43.95c-4.98,2.39-9.69,5.5-15.7,4.54-9.8-1.57-13.44-9.39-8.04-17.55,5.49,1.42,.23,13.21,8.69,10.3,8.23-2.83,17.99-6.29,15.93-18.75-.11-.67,.19-1.4,.3-2.1,8.55,8.3,4.11,15.94-1.16,23.55Z"/><path class="d" d="M138.78,63.42c2.24-.88,4.48-1.75,6.72-2.63,3.18-1.71,6.58-1.88,10.07-1.41-6.1,9.67-10.5,10.73-16.78,4.04Z"/><path class="g" d="M83.27,67.66c3.21,12.54,.32,15.23-13.04,15.68-5.6,.19-11.89,.17-17.19,3.82-5.64,3.88-10.92,2.28-14.93-2.75-4.15-5.21-8.05-10.52-10.66-16.92-2.4-5.88-3.66-13.2-13.48-13.32-5.47-.07-8.28-5.97-7.55-12.1,6.79-.12,11.98,5.13,19.06,5.22,3.51,.05,6.55,4.64,6.64,9.63,.12,6.64,4,9.94,10.54,10.85,7.29,1.01,14.52,2.5,21.77,3.85,6.84,1.27,13.12,.01,18.84-3.95Z"/><path class="d" d="M85.41,63.4c.18-4.23,3.17-4.37,6.29-4.33,.02,4.52-3.15,4.4-6.29,4.33Z"/><path class="d" d="M91.75,59.01c.12-2.75,1.59-4.1,4.31-4.16-.04,2.84-1.46,4.24-4.31,4.16Z"/></g></g></g></g></svg>