<?xml version="1.0" encoding="UTF-8"?><svg xmlns="http://www.w3.org/2000/svg" viewBox="0 0 113.11 69.04"><defs><style>.d{fill:#b30916;}.e{opacity:.91;}.f{fill:#811512;}.g{fill:#820613;}.h{fill:#ea936a;}.i{fill:#d90724;}</style></defs><g id="a"/><g id="b"><g id="c"><g class="e"><path class="d" d="M76.91,28.41c5.14,9.31,7.11,9.79,16.64,4.09,1.38-.82,2.83-1.53,4.25-2.28,1.11,.12,2.09,.45,2.61,1.56-2.88,6.4-8.09,9.66-14.73,11.15-11.74,2.64-15.51-6.39-19.95-13.88-3.82-6.44-13.08-11.47-19.76-9.78-5.11,1.3-11.21,9.81-11.45,15.98l-.28-.58c-.35-.18-.7-.36-1.04-.54l.56,1.04c.84,.47,.81,1.07,.28,1.76-1.05,.62-1.34,1.26-.06,1.95-.08,3.2-.99,6.66,2.82,8.94-.91-11.45,4.92-16.68,14.45-13.35-2.45,.4-5.27-.89-7.87,1.72,3.64,1.8,6.69,6.63,9.67-.17l1.6,1.09c-.06,6.51-4.49,9.9-9.11,13.45-6.68,5.13-17.27,5.73-21.47-1.08-4.31-6.99-10.58-7.68-16.93-9.51-1.65-4.28-6.72-6.97-5.8-12.45-.19-1.76,.66-3.1,1.78-4.31,2.79,2.58,5.47,2.43,8.38,0,3.44-2.87,6.79-5.6,11.98-2.95,2.38,1.22,4.84,.39,6.29-3.25,3.51-8.83,19.3-11.92,24.51-7.47,6.24,5.33,14.82,8.48,17.25,17.73,.61,2.34,3.43,2.61,5.4,1.14Z"/><path class="g" d="M7.13,39.98c6.35,1.84,12.62,2.53,16.93,9.51,4.2,6.81,14.79,6.21,21.47,1.08,4.63-3.55,9.05-6.94,9.11-13.45,3.22,1.43,3.53,4.37,4.08,7.35,1,5.37-2.07,9.68-3.4,14.44l-.17,.17c-9.23,9.76-20.15,12.37-32.77,7.7-.42-.2-.86-.33-1.32-.38-.18-.57-.37-1.15-.56-1.72,1.72-3.14,4.76-2.15,7.41-2.33,4.81-.33,9.75,.68,14.44-1.33-5.93-2.25-12.05-1.3-18.05-1.36-3.24-.03-6.76-.42-7.66-3.36-1.93-6.29-6.46-10.83-9.51-16.32Z"/><path class="i" d="M76.91,28.41c-1.97,1.47-4.79,1.2-5.4-1.14-2.43-9.25-11-12.4-17.25-17.73-5.21-4.45-21-1.35-24.51,7.47-1.45,3.64-3.91,4.47-6.29,3.25-5.19-2.65-8.54,.08-11.98,2.95-2.91,2.43-5.58,2.59-8.38,0,1.33-4.12,3.88-7.1,7.98-8.67,.83,.27,1.37-.03,1.65-.85h0c3.98-.68,9.37,1.58,11.73-1.66,3.34-4.57,7.79-7.48,11.73-11.13v-.02c8.67-1.14,17.33-2.21,25.04,3.52,3.11,2.31,5.37,5.71,9.16,7.15,1.14,1.63,2.29,3.26,3.44,4.89,.29,4.17,3.46,7.6,3.06,11.94Z"/><path class="f" d="M7.13,39.98c3.05,5.49,7.58,10.03,9.51,16.32,.9,2.94,4.42,3.33,7.66,3.36,6,.06,12.12-.9,18.05,1.36-4.69,2.01-9.63,1-14.44,1.33-2.65,.18-5.68-.81-7.41,2.33-.79-.07-1.59-.14-2.38-.2-3.46-3.21-6.17-7.02-6.68-11.72-.34-3.14-1.95-4.73-4.1-6.61C1.71,41.23-2.16,35.5,1.32,27.53c-.92,5.48,4.15,8.17,5.8,12.45Z"/><path class="g" d="M34.52,35.25c.24-6.18,6.34-14.69,11.45-15.98,6.68-1.69,15.94,3.34,19.76,9.78,4.44,7.5,8.21,16.53,19.95,13.88,6.65-1.5,11.86-4.75,14.73-11.15,3.24-.58,6.79,1.21,9.77-1.3,1.83,1.25,2.26,3.19,2.93,5.26-3.04,1.61-7.13-2.09-9.12,2.22l-.14,.17c-2.39,.26-3.6,1.69-3.97,3.96l-.27,.36c-1.42,.32-2.11,1.3-2.37,2.66l-.12,.2c-.36,.52-.73,1.04-1.1,1.57l.02-.03c-.46,.48-.93,.95-1.39,1.43l.02-.02c-.45,.49-.89,.98-1.34,1.46h0c-.48,.43-.97,.87-1.45,1.3-7.78,5.14-15.57,6.5-23.37,.06-2.92-5.2-5.63-10.54-8.83-15.58-4.64-7.31-14.29-8.62-21.18-3.37-1.34,1.02-1.47,3.65-3.98,3.12Z"/><path class="i" d="M110.18,30.47c-2.98,2.52-6.53,.72-9.77,1.3-.52-1.1-1.5-1.43-2.61-1.56,4.17-1.74,8.31-2.54,12.38,.25Z"/><path class="h" d="M93.33,49.71c.45-.49,.89-.97,1.34-1.46-.45,.49-.89,.97-1.34,1.46Z"/><path class="h" d="M94.65,48.27c.46-.48,.93-.95,1.39-1.43"/><path class="h" d="M91.88,51.01c.48-.44,.97-.87,1.45-1.31-.48,.44-.97,.87-1.45,1.31Z"/><path class="h" d="M96.02,46.87c.37-.52,.73-1.04,1.1-1.57"/><path class="i" d="M51.25,34.48c.6,.52,1.2,1.03,1.8,1.55-2.98,6.81-6.02,1.98-9.67,.17,2.6-2.61,5.42-1.32,7.87-1.72Z"/><path class="g" d="M33.75,35.17l-.56-1.04c.35,.18,.69,.36,1.04,.54-.19,.14-.35,.3-.48,.5Z"/><path class="g" d="M34.04,36.93c-.02,.65-.04,1.3-.06,1.95-1.28-.69-.99-1.33,.06-1.95Z"/></g></g></g></svg>