<?xml version="1.0" encoding="UTF-8"?><svg xmlns="http://www.w3.org/2000/svg" viewBox="0 0 148.53 341.83"><defs><style>.d{fill:#b30916;}.e{fill:#d3984e;}.f{fill:#1c1d1f;}.g{fill:#820613;}.h{fill:#f7f7f7;}.i{fill:#bf2826;}</style></defs><g id="a"/><g id="b"><g id="c"><g><path class="d" d="M148.53,254.31c-.79,3.36-1.41,6.77-2.39,10.08-2.36,8.01-6.02,15.36-11.59,21.67-.76,.06-1.09,.46-1.02,1.21l.03-.03c-2.39,.34-4.77,.86-7.17,.97-3.4,.16-6.81,.02-10.22,.01,.22-.5,.39-1.02,.66-1.49,4.09-7.12,6.81-14.8,8.19-22.84,2.4-14.02,2.1-27.99-2.23-41.7-3.43-10.84-8.9-20.46-17.03-28.52-3.09-3.06-6.78-5.31-10.2-7.94,1.55-.08,3.1-.15,4.65-.23,6.92,1.68,13.05,5.07,18.86,9.02,10.52,7.15,18.72,16.37,24.05,27.99,2.48,5.4,4.12,11.06,4.82,16.98,.06,.52-.11,1.14,.58,1.41v13.38Z"/><path class="f" d="M100.22,185.53c-1.55,.08-3.1,.15-4.65,.23-1.64-.26-3.29-.36-4.93-.05l-6.91,.08c-1.03-.23-2.07-.35-3.12-.1-4.15,0-8.29,.02-12.44,.03-1.06-.27-2.12-.19-3.18,.06-2.42-.03-4.84-.06-7.26-.09-1.68-.3-3.34-.11-5.01,.12-1.44-.08-2.87-.15-4.31-.23-.6-5.09-.1-10.2-.26-15.29-.07-2.18,1.42-2.06,2.81-2.06,6.41,0,12.81-.07,19.21,.1,2.2,.06,2.73-.6,2.73-2.73-.06-35.93-.05-71.86-.05-107.79,0-18.48-.03-36.95-.02-55.43,0-1.05-.59-2.44,1.59-2.38,2.24,.06,1.42,1.56,1.43,2.52,.04,17.64,.03,35.27,.03,52.91,0,33.23,0,66.47,0,99.7,0,3.43,.1,6.88-.1,10.3-.14,2.35,.72,2.94,2.95,2.89,6.22-.12,12.44,.09,18.65-.07,2.63-.07,3.43,.85,3.25,3.38-.32,4.62,.39,9.27-.41,13.88Z"/><path class="d" d="M48.41,185.57c1.44,.08,2.87,.15,4.31,.23-2.78,2.21-5.74,4.23-8.31,6.66-14.15,13.38-20.7,30.16-22.01,49.34-.37,5.48,.36,10.9,.15,16.35-.2,.85,.45,1.95-.54,2.54-.5,.3-1.05-.18-1.44-.58-2.9-2.99-5.66-6.14-8.73-8.95-3.05-2.79-4.95-6.47-7.95-9.35-1.57-1.51-2.92-4.54-1.4-7.4,.49-.91,.69-1.93,0-2.89,1.41-6.3,4.22-11.98,7.74-17.33,8.89-13.52,21.19-22.66,36.27-28.21,.6-.22,1.26-.27,1.9-.4Z"/><path class="g" d="M2.5,231.52c.69,.96,.49,1.98,0,2.89-1.53,2.86-.18,5.89,1.4,7.4,3,2.88,4.9,6.57,7.95,9.35,3.07,2.81,5.83,5.96,8.73,8.95,.39,.4,.94,.88,1.44,.58,.99-.59,.34-1.69,.54-2.54,.77,1.61,.76,3.39,1.06,5.09,2.05,11.26,6.24,21.57,13.05,30.82,4.55,6.19,10.24,11.07,16.55,15.32-1.59,.46-3.46-.46-4.86,.95-1-1.39-2.71-1.39-4.09-1.96-21.43-8.98-36.45-23.83-42.44-46.7-2.62-10-2.49-20.16,.66-30.15Z"/><path class="f" d="M48.36,310.34c1.41-1.42,3.27-.5,4.86-.95,1.51,.35,3.03,.38,4.56,.16,2.53-.05,5.07-.09,7.6-.14,.79,.29,1.59,.32,2.4,.13,4.28-.02,8.56-.04,12.84-.06,.92,.24,1.83,.24,2.74-.04,2.56,.03,5.13,.06,7.69,.08,1.37,.27,2.73,.17,4.08-.09,1.76,.06,3.51,.13,5.27,.19,.06,4.43,.14,8.87,.18,13.3,.03,3.85,.01,3.85-3.85,4.17-15.13-.39-30.27-.19-45.4-.1-2.57,.32-3.43-.77-3.23-3.34,.34-4.42-.31-8.88,.25-13.3Z"/><path class="e" d="M51.34,326.98c15.13-.09,30.27-.29,45.4,.1,.27,3.62,2.2,7.03,1.46,11.18-1.56-1.4-.26-3.6-1.96-4.54-.7,1.55,.22,3.32-.73,5.08-1.57-1.83-2.09-3.92-2.81-5.91,0-.42,.11-.92-.49-.99-.12-.02-.29,.3-.43,.47,.02,.57,.05,1.13,.07,1.69-.05,.76-.22,1.53,.39,2.17,0,1.19,0,2.37,0,3.56l-.24,.06-.04,.24c-.48,.4-.98,.59-1.49,.05-.79-3.08-.59-6.4-2.17-9.31,.29,3.12,.09,6.21,.23,9.29l-.2,.65c-.36-.06-.72-.12-1.07-.17,.03-2.59-.4-5.09-1.29-7.88-1.47,2.11-.84,4.1-.78,6.01,.03,.74,.78,1.98-.23,2.09-1.25,.14-.98-1.33-.99-2.14-.04-2.75-.3-5.42-1.94-8.34-.73,3.38,.35,6.21,.34,9.06,0,1.47,.05,2.74-2.01,1.85-.35-3.07-.71-6.14-1.06-9.22-1.31,2.91-.38,5.81-.43,8.69-.31,1.03-1.11,1.15-1.98,.97-1.02-.21-.72-1.13-.83-1.8-.35-2.23-.56-4.5-1.72-6.61-.1,2.14-.26,4.28-.29,6.42-.02,1.66-.75,2.34-2.38,2.08-.14-2.96-.29-5.92-.43-8.88-.68,2.24-.92,4.48-1.22,6.72-.1,.78-.06,1.93-1.16,1.88-1-.05-1.01-1.15-1.1-1.95-.25-2.24,.28-4.53-.41-7.42-1.23,2.64-.75,4.86-.91,6.97-.14,1.81-.8,2.56-2.61,2.01-.01-.17-.08-.31-.22-.41-.18-1.54,.62-3.21-.66-4.92-.29,1.85-.53,3.39-.77,4.94-.24,.07-.48,.14-.71,.21-.15-.12-.29-.24-.44-.35-.21-.6,.81-1.78-.81-1.71-.37-.53-.59-.36-.72,.17-.08,.52-.15,1.04-.23,1.56-.36,.03-.72,.05-1.08,.08-.32-.36-.64-.71-.97-1.07,.49-1.38,1.39-2.7,.52-4.7-.69,1.78-1.25,3.22-1.82,4.66l-1.11,.02c0-.95,0-1.9,0-2.97-1.09,.49-.86,2.05-2.14,2.07-.24-.07-.48-.14-.72-.21,.37-1.63,.73-3.27,1.17-5.2-1.51,1.25-1.5,2.83-2.11,4.12-1.45-1.75-.56-3.6-.11-5.36,.42-1.69,1.13-3.3,.4-5.06Zm9.76,11.16c.69-1.41,.37-2.84,.39-4.78-1.37,1.46-1.35,2.77-1.4,4.06,.08,.6,.37,.9,1.01,.72Z"/><path class="g" d="M100.41,309.62c-1.76-.06-3.51-.13-5.27-.19,4.39-2.9,8.62-5.97,12.29-9.81,3.34-3.49,5.77-7.63,8.75-11.38,3.41,.01,6.82,.15,10.22-.01,2.4-.11,4.78-.63,7.17-.97-4.68,6.62-11.05,11.31-17.83,15.47-4.79,2.94-9.73,5.69-15.33,6.89Z"/><path class="h" d="M87.26,340.58c.36,.06,.72,.12,1.07,.17"/><path class="i" d="M133.53,287.28c-.07-.75,.27-1.16,1.02-1.21-.13,.58-.42,1.03-1.02,1.21Z"/><path class="e" d="M116.18,288.24c-2.97,3.75-5.41,7.89-8.75,11.38-3.67,3.84-7.9,6.91-12.29,9.81-1.35,.26-2.71,.36-4.08,.09,.79-.46,1.57-.95,2.38-1.39,8.59-4.67,15.34-11.22,20.12-19.77,3.86-6.13,6.6-12.71,8.53-19.72,1.86-6.76,2.72-13.64,2.76-20.53,.04-7.46-.81-14.9-2.93-22.18-5.11-17.6-14.22-31.97-31.28-40.22,1.65-.31,3.29-.21,4.93,.05,3.42,2.63,7.11,4.88,10.2,7.94,8.12,8.06,13.6,17.67,17.03,28.52,4.33,13.7,4.63,27.67,2.23,41.7-1.37,8.04-4.1,15.71-8.19,22.84-.27,.47-.44,.99-.66,1.49Z"/><path class="d" d="M68.16,185.72c4.15,0,8.29-.02,12.44-.03,.93,.9,1.68,1.9,2.32,3.05,3.12,5.6,5.24,11.53,6.81,17.76,3.22,12.72,4.39,25.65,4.66,38.69,.13,6.1-.05,12.23-.61,18.3-.7,7.6-1.36,15.25-3.55,22.64-1.92,1.59-4.12,1.21-6.27,.8-3.1-.59-6.18-1.85-9.27-1.83-4.39,.02-8.16-1.89-12.17-2.97-1.76-.48-3.95,.08-5.35-1.63-1.19-5.05-1.8-10.21-2.18-15.34-.66-9.03-.84-18.07-.37-27.16,.64-12.52,2.13-24.85,5.85-36.82,1.72-5.53,3.58-11.07,7.67-15.46Z"/><path class="d" d="M90.63,185.7c17.06,8.25,26.17,22.62,31.28,40.22,2.11,7.28,2.97,14.72,2.93,22.18-.04,6.89-.9,13.78-2.76,20.53-1.93,7.01-4.67,13.59-8.53,19.72-5.97-.02-11.94-.08-17.9-.02-1.52,.02-2.48-.44-2.95-1.88,.12-1.29,.14-2.59,.39-3.85,1.69-8.73,2.7-17.53,2.98-26.41,.39-12.23,.06-24.44-1.7-36.57-.85-5.84-2.02-11.62-3.61-17.33-1.62-5.84-4.41-11.13-7.04-16.51l6.91-.08Z"/><path class="d" d="M57.72,185.68c2.42,.03,4.84,.06,7.26,.09-1.16,2.28-2.45,4.51-3.46,6.85-3.43,7.93-5.44,16.25-6.74,24.79-1.47,9.64-2.44,19.29-2.15,29.04,.17,5.93-.29,11.86,.55,17.78,.68,4.85,1.12,9.73,1.66,14.59-1.27,.83-2.37,.6-3.53-.33-.62-.5-1.16-1.07-2.02-1.37-6.46-2.23-12.36-5.45-18-9.35-1.7-1.18-3.01-3.31-5.45-3.4h0c.02-.64,.14-1.28-.51-1.7-1.98-8.68-1.84-17.39-.65-26.16,1.76-12.98,6.16-24.83,14.21-35.29,5.11-6.65,11.46-11.68,18.83-15.54Z"/><path class="e" d="M57.72,185.68c-7.37,3.86-13.72,8.89-18.83,15.54-8.05,10.46-12.45,22.31-14.21,35.29-1.19,8.77-1.33,17.49,.65,26.16,.02,.61-.14,1.27,.51,1.69h0c1.48,9.8,5.37,18.62,10.89,26.76,5.4,7.98,12.41,14.14,21.05,18.42-1.53,.22-3.05,.2-4.56-.16-6.31-4.25-12-9.13-16.55-15.32-6.81-9.26-11-19.57-13.05-30.82-.31-1.7-.29-3.48-1.06-5.09,.21-5.45-.53-10.86-.15-16.35,1.3-19.19,7.86-35.96,22.01-49.34,2.57-2.43,5.53-4.45,8.31-6.66,1.67-.24,3.33-.42,5.01-.12Z"/><path class="e" d="M83.72,185.79c2.62,5.38,5.42,10.67,7.04,16.51,1.58,5.71,2.76,11.49,3.61,17.33,1.76,12.13,2.09,24.34,1.7,36.57-.28,8.87-1.3,17.68-2.98,26.41-.24,1.26-.26,2.57-.39,3.85-.27,.48-.68,.93-.79,1.44-1.65,7.65-4.47,14.83-8.54,21.52-.91,.29-1.82,.29-2.74,.04,5.5-6.84,7.98-14.92,9.62-23.35,2.19-7.39,2.85-15.03,3.55-22.64,.56-6.07,.73-12.21,.61-18.3-.28-13.03-1.44-25.97-4.66-38.69-1.58-6.23-3.69-12.16-6.81-17.76-.64-1.15-1.39-2.15-2.32-3.05,1.05-.26,2.09-.13,3.12,.1Z"/><path class="e" d="M54.83,278.83c-.54-4.87-.98-9.75-1.66-14.59-.83-5.92-.37-11.86-.55-17.78-.29-9.76,.68-19.41,2.15-29.04,1.3-8.54,3.31-16.85,6.74-24.79,1.01-2.34,2.3-4.57,3.46-6.85,1.06-.24,2.11-.32,3.18-.06-4.09,4.39-5.95,9.93-7.67,15.46-3.73,11.98-5.21,24.3-5.85,36.82-.46,9.09-.29,18.13,.37,27.16,.38,5.13,.99,10.29,2.18,15.34,1.66,10.36,4.59,20.26,10.6,29.04-.81,.19-1.62,.15-2.4-.13-1.14-2.1-2.34-4.16-3.4-6.29-3.82-7.67-5.47-15.98-7.16-24.28Z"/><path class="g" d="M54.83,278.83c1.69,8.3,3.33,16.62,7.16,24.28,1.06,2.13,2.26,4.2,3.4,6.29-2.54,.05-5.07,.09-7.6,.14-8.65-4.28-15.65-10.45-21.05-18.42-5.51-8.14-9.41-16.95-10.89-26.74,2.44,.09,3.75,2.23,5.45,3.4,5.64,3.9,11.54,7.12,18,9.35,.85,.29,1.4,.87,2.02,1.37,1.16,.93,2.26,1.16,3.53,.33Z"/><path class="g" d="M67.79,309.54c-6.02-8.77-8.95-18.67-10.6-29.04,1.4,1.71,3.58,1.16,5.35,1.63,4.01,1.08,7.78,2.99,12.17,2.97,3.09-.01,6.17,1.24,9.27,1.83,2.15,.41,4.35,.79,6.27-.8-1.63,8.43-4.11,16.51-9.62,23.35-4.28,.02-8.56,.04-12.84,.06Z"/><path class="g" d="M83.36,309.43c4.07-6.69,6.89-13.87,8.54-21.52,.11-.51,.52-.96,.79-1.44,.46,1.44,1.43,1.89,2.95,1.88,5.97-.06,11.94,0,17.9,.02-4.78,8.55-11.53,15.09-20.12,19.77-.81,.44-1.59,.92-2.38,1.39-2.56-.03-5.13-.06-7.69-.08Z"/><path class="i" d="M25.85,264.36c-.65-.42-.49-1.08-.51-1.69,.65,.42,.54,1.07,.51,1.69Z"/></g></g></g></svg>