<?xml version="1.0" encoding="UTF-8"?><svg xmlns="http://www.w3.org/2000/svg" viewBox="0 0 101.22 252.06"><defs><style>.d{fill:#b30916;}.e{fill:#d3984e;}.f{fill:#1c1d1f;}.g{fill:#a57c52;}.h{fill:#820613;}</style></defs><g id="a"/><g id="b"><g id="c"><g><path class="d" d="M68.35,145.25c17.75,5.44,33.01,22.51,32.88,41.77-.04,6.11-1.36,11.79-3.34,17.43l-1.61,3.19c-1.23,1.27-1.57,3.18-3.05,4.27-2.55,3.44-6.2,3.41-9.93,3.17-.87-.06-1.75,.06-2.61,.14-.65,.06-.67-.38-.77-.8,1.1-2.65,2.37-5.24,3.27-7.95,3.78-11.34,4.24-22.79,1.05-34.39-3.1-11.26-9.11-20.33-19.1-26.6,1.07-.08,2.14-.15,3.22-.23Z"/><path class="f" d="M68.35,145.25c-1.07,.08-2.14,.15-3.22,.23-.85-.03-1.71-.06-2.56-.09-1.82,.03-3.65,.05-5.47,.08l-1.49-.07c-3.33,0-6.66,0-9.99,0-.48,.04-.96,.07-1.44,.11l-5.48-.11-3.05,.14-2.65-.29c-.04-3.25,0-6.51-.16-9.76-.09-1.77,.75-2.06,2.21-2.02,4.13,.11,8.27,.09,12.4,.26,1.66,.07,2.38-.28,2.27-2.14-.16-2.8-.04-5.62-.03-8.43-.02-1.76-.03-3.53-.05-5.29l-.02-40.13c.25-2.29,.28-4.59-.02-6.88,.03-3.52,.06-7.04,.1-10.55l-.05-5.82c.02-2.99,.03-5.98,.05-8.97,0-1.76,0-3.53-.01-5.29-.03-3.34-.05-6.68-.08-10.02,.31-2.29,.26-4.58,.04-6.88l-.02-8.97c.25-2.29,.28-4.59-.02-6.88,.03-1.84,0-3.69,.11-5.53,.04-.71-.66-1.93,.92-1.94,1.45-.01,1.09,1.11,1.09,1.9,0,8.88-.06,17.77-.06,26.65,.01,28.49,.07,56.98,.06,85.47,0,5.62-.13,11.25-.31,16.87-.06,2.06,.52,2.89,2.78,2.78,4.12-.2,8.27-.05,12.4-.05,.87,0,1.96-.16,1.91,1.14-.12,3.49,.62,7-.15,10.49Z"/><path class="d" d="M32.99,145.24l2.65,.29c-.14,.57-.61,.82-1.05,1.11-5.78,3.78-10.09,8.87-13.32,14.91-2.96,5.52-4.87,11.4-5.76,17.59-.85,5.95-.47,11.92,.03,17.87-2.28-.45-2.67-3.02-4.78-4.08-2.1-1.05-3.55-3.7-5.37-5.59-1.01-1.05-.99-3.18-2.33-3.83-1.73-.85-1.48-2.12-1.5-3.44-.02-1.04,.1-2.09,.15-3.14l-.04,.05c1.55-1.8,2.61-3.78,2.21-6.27,3.26-8.07,8.94-14.1,15.96-19.03,4.05-2.84,8.45-4.96,13.15-6.47Z"/><path class="h" d="M1.71,176.96c-.06,1.05-.17,2.09-.15,3.14,.02,1.32-.23,2.59,1.5,3.44,1.34,.65,1.32,2.78,2.33,3.83,1.82,1.89,3.27,4.53,5.37,5.59,2.11,1.05,2.5,3.62,4.78,4.08,3.02,13.31,8.1,25.33,20.56,32.72l-3.23,.24c-7.79-2.17-14.28-6.51-20.03-12.06-4.6-4.44-7.73-9.88-10.38-15.62-.57-1.95-1.13-3.9-1.7-5.85l-.69-5.7c-.2-3.15,.05-6.29,.27-9.43,.78-1.35,.44-3.05,1.37-4.35Z"/><path class="f" d="M32.87,229.98c1.08-.08,2.15-.16,3.23-.24,.93,.24,1.86,.35,2.81,.16,1.84-.03,3.69-.06,5.54-.1,.49,.25,.99,.41,1.52,.13l9.11-.04c.7,.21,1.37,.13,2.03-.14,1.61,.31,3.24,.23,4.86,.1,1.08,.27,2.16,.23,3.24-.06l3.16,.22c.46,3.46-.12,6.92,.05,10.37,.13,2.43-1.79,1.16-2.74,1.64-10.06-.22-20.11-.22-30.17,0-2.12,.14-2.81-.8-2.67-2.93,.19-3.03,.03-6.08,.02-9.12Z"/><path class="e" d="M35.53,242.03c10.06-.22,20.11-.22,30.17,0,.66,2.16,1.77,4.23,.87,6.72l-.95-3.78-.38,.05v4.59c-1.38-.96-2.33-1.17-2.31,.71,0,.55-.54,.6-.97,.66-1.4-2.03-.5-4.7-2.02-7.35,.2,2.87,.35,5.11,.51,7.35-.32-.03-.64-.06-.96-.08-.3-1.62-.6-3.24-.96-5.2-1.03,1.63-.43,2.92-.38,4.19,.02,.58,.52,1.57-.84,1.3l.07-.11-.08-.11c-.12-2.13-.25-4.25-1.18-6.2-.76,2.14,.1,4.15,.14,6.21-.23,.3-.45,.61-.68,.91-.29-.01-.58-.02-.87-.03-.07-.64-.14-1.29-.21-1.93,.01-1.6,.3-3.25-.85-5.17v4.67c-.04,.26-.08,.52,.27,.62l-.13,.15-.31,1.73-1.43-.02c-.75-1.2-.12-2.83-1.51-3.96l-.23,3.99-.99,.13c-.24-.11-.47-.24-.71-.34q-2.36-1-2.51-4.39c-.02-.43-.09-.86-.16-1.46-.85,1.17-.22,2.42-.66,3.42-.36,.82,.6,2.59-1.05,2.36-1.02-.14-3.03-.42-2.4-2.65,.19-.68,.34-1.53-.27-2.19-.68,.02-.54,.56-.68,.93-.41,1.1,.88,3.37-1.52,3.09-3.66-.42-5.2-2.08-4.8-4.44,.25-1.46,.65-2.9,.98-4.35Z"/><path class="h" d="M68.37,230.01c-1.05-.07-2.11-.15-3.16-.22,3.54-2.42,6.9-5.08,9.63-8.41,1.81-2.22,3.38-4.64,5.06-6.96,.09,.42,.12,.87,.77,.8,.87-.08,1.75-.2,2.61-.14,3.74,.24,7.38,.27,9.93-3.17-4.55,7.27-11.17,12.11-18.74,15.78-1.96,.95-3.91,1.98-6.1,2.32Z"/><path class="g" d="M3.89,170.74c.4,2.49-.66,4.47-2.21,6.27,.21-2.28,1.09-4.31,2.21-6.27Z"/><path class="e" d="M79.91,214.42c-1.68,2.33-3.25,4.75-5.06,6.96-2.73,3.33-6.09,5.99-9.63,8.41-1.07,.29-2.15,.34-3.24,.06,.38-.2,.76-.42,1.14-.61,5.9-3.02,10.42-7.48,13.73-13.2,5.07-6.95,6.78-15.01,7.96-23.31,.92-6.47-.1-12.73-1.66-18.92-2.28-9.08-6.41-17.11-13.68-23.36-2.19-1.88-4.96-2.9-6.9-5.07,.85,.03,1.71,.06,2.56,.09,9.99,6.27,16,15.35,19.1,26.6,3.19,11.6,2.73,23.05-1.05,34.39-.9,2.71-2.17,5.3-3.27,7.95Z"/><path class="d" d="M45.62,145.4h9.99c.24,2.82,2.44,4.74,3.33,7.31,2.2,6.34,3.53,12.8,4.33,19.45,1.64,13.72,1.3,27.32-1.6,40.84-1.08,.4-.65,1.32-.71,2.07v.02c-4.99-1.02-10.09-1.44-15.03-2.89-2.16-.63-4.31-2-6.77-1.33-.55-4.2-1.72-8.33-1.5-12.62v-21.31c.43-9.38,2.02-18.47,6.09-27.05,.68-1.44,2.17-2.63,1.88-4.49Z"/><path class="d" d="M62.57,145.39c1.94,2.17,4.71,3.19,6.9,5.07,7.27,6.25,11.4,14.28,13.68,23.36,1.56,6.19,2.58,12.45,1.66,18.92-1.18,8.3-2.89,16.37-7.96,23.31-1.21,.7-2.04-.62-3.35-.56-3.48,.17-7.08,.72-10.52-.51,.95-6.13,1.94-12.22,2.32-18.45,.79-13.01,.03-25.82-3.08-38.49-1.09-4.45-2.87-8.6-5.12-12.57,1.82-.03,3.65-.05,5.47-.08Z"/><path class="d" d="M38.7,145.4c1.83,.04,3.65,.07,5.48,.11-6.25,11.17-7.61,23.51-8.5,35.94-.59,8.35,.49,16.65,.99,24.96v3.13c-6.96-2.8-13.06-6.51-19.08-10.38l-.02-.85c-.04-.79,.31-1.67-.52-2.28-1-5.23-.83-10.52-.25-15.74,.96-8.57,3.96-16.43,9.18-23.37,1.33-.08,1.48-1.09,1.65-2.08h0c.45,0,.84-.09,1.04-.56h-.01c.76-.25,1.11-.78,1.07-1.58v.02c.4-.16,.52-.5,.52-.9,2.49-2.57,5.82-4.03,8.45-6.41Z"/><path class="e" d="M38.7,145.4c-2.63,2.38-5.97,3.84-8.45,6.41-.4,.17-.5,.52-.53,.91v-.02c-.67,.31-1.14,.76-1.06,1.59h.01c-.5-.11-.82,.11-1.04,.55h0c-.78,.52-1.46,1.11-1.65,2.09-5.22,6.94-8.22,14.81-9.18,23.37-.58,5.22-.75,10.51,.25,15.74,.03,.79-.11,1.63,.52,2.28,0,.28,.02,.57,.02,.85,1.5,7.76,4.6,14.78,9.53,20.98,3.25,4.09,7.43,7.03,11.8,9.76-.95,.19-1.89,.09-2.82-.16-12.46-7.38-17.54-19.4-20.56-32.72-.5-5.96-.87-11.93-.03-17.87,.88-6.19,2.8-12.07,5.76-17.59,3.24-6.04,7.55-11.14,13.32-14.91,.44-.29,.92-.53,1.05-1.11,1.02-.05,2.04-.09,3.05-.14Z"/><path class="e" d="M57.1,145.47c2.25,3.97,4.03,8.12,5.12,12.57,3.11,12.67,3.87,25.48,3.08,38.49-.38,6.23-1.36,12.32-2.32,18.45-1.78,5-3.03,10.2-5.86,14.77-.66,.27-1.34,.35-2.03,.14,.42-.66,.86-1.31,1.25-1.98,2.28-4.01,4.28-8.12,4.63-12.82v-.02c.77-.51,.45-1.39,.71-2.07,2.9-13.52,3.24-27.12,1.6-40.84-.8-6.65-2.13-13.12-4.33-19.45-.89-2.57-3.09-4.49-3.33-7.31,.5,.02,.99,.04,1.49,.07Z"/><path class="e" d="M36.67,206.41c-.5-8.31-1.59-16.61-.99-24.96,.89-12.43,2.25-24.77,8.5-35.94,.48-.04,.96-.07,1.44-.11,.29,1.86-1.19,3.05-1.88,4.49-4.07,8.58-5.66,17.68-6.09,27.05-.99,3.42-.52,6.93-.5,10.39,.02,3.64-.52,7.32,.5,10.92-.22,4.29,.95,8.42,1.5,12.62,1.1,6.78,3.32,13.15,6.82,19.06-.53,.28-1.03,.12-1.52-.13-2.04-3.38-3.57-6.97-4.8-10.72-1.36-4.15-1.66-8.53-2.99-12.67Z"/><path class="h" d="M36.67,206.41c1.32,4.14,1.63,8.52,2.99,12.67,1.23,3.76,2.76,7.34,4.8,10.72-1.85,.03-3.69,.06-5.54,.1-4.36-2.73-8.55-5.67-11.8-9.76-4.93-6.21-8.03-13.23-9.53-20.98,6.02,3.86,12.12,7.58,19.08,10.38v-3.13Z"/><path class="h" d="M45.97,229.93c-3.51-5.91-5.73-12.29-6.82-19.06,2.46-.67,4.61,.7,6.77,1.33,4.94,1.45,10.04,1.87,15.04,2.89-.35,4.7-2.35,8.81-4.63,12.82-.39,.68-.83,1.32-1.25,1.98-3.04,.01-6.07,.03-9.11,.04Z"/><path class="h" d="M57.11,229.75c2.83-4.58,4.09-9.78,5.86-14.77,3.44,1.23,7.04,.68,10.52,.51,1.31-.07,2.14,1.25,3.35,.56-3.31,5.71-7.83,10.18-13.73,13.2-.38,.2-.76,.41-1.14,.61-1.62,.12-3.25,.21-4.86-.1Z"/><path class="g" d="M37.65,198.26c-1.02-3.6-.47-7.28-.5-10.92-.02-3.46-.48-6.97,.5-10.39,0,7.1,0,14.21,0,21.31Z"/><path class="g" d="M61.67,213c-.25,.68,.06,1.57-.71,2.07,.07-.75-.36-1.67,.71-2.07Z"/><path class="g" d="M25.98,156.92c.19-.98,.87-1.57,1.65-2.08-.17,1-.32,2.01-1.65,2.08Z"/><path class="g" d="M28.66,154.28c-.08-.82,.39-1.28,1.07-1.59,.04,.8-.31,1.33-1.07,1.59Z"/><path class="g" d="M17.56,198.31c-.63-.66-.49-1.49-.52-2.28,.83,.61,.48,1.49,.52,2.28Z"/><path class="g" d="M29.71,152.71c.03-.39,.14-.73,.53-.91,0,.41-.12,.74-.53,.91Z"/><path class="g" d="M27.63,154.83c.21-.43,.54-.66,1.04-.56-.19,.47-.59,.57-1.04,.56Z"/></g></g></g></svg>