<?xml version="1.0" encoding="UTF-8"?><svg xmlns="http://www.w3.org/2000/svg" viewBox="0 0 76.25 349.95"><defs><style>.d{fill:#b30916;}.e{fill:#d3984e;}.f{fill:#1c1d1f;}.g{fill:#faaf4a;}.h{fill:#8b6239;}.i{fill:#820613;}.j{fill:#f7f7f7;}.k{fill:#bf2826;}</style></defs><g id="a"/><g id="b"><g id="c"><g><path class="d" d="M70.14,183.48c3.88,4.9,6.3,10.26,5.74,16.56-21.84,0-43.67,.02-65.51,.03-.38,0-.77-.02-1.15,0-1.17,.05-1.75-.39-1.78-1.59-.07-3.92-.67-7.82-.66-11.76,.01-2.52,.72-3.23,3.38-3.22,19.83,.1,39.65,.05,59.48,.04,.17,.01,.34,0,.5-.06Z"/><path class="d" d="M75.88,202.32c.07,.18,.06,.35-.02,.52-.81,.75-.49,1.72-.5,2.6-.04,4.84-.03,9.68-.04,14.53-6.56,.03-13.13,.07-19.69,.1-3.81-2.52-5.62-2.51-9.43,0-1.61-.05-3.21-.1-4.82-.15-.07-.53,.34-.8,.67-1.13,3.63-3.66,3.61-4.32-.22-8.01-2.77-2.67-4.57-2.81-7.04-.54-4.13,3.8-4.28,4.83-1.25,8.07,.47,.5,1.43,.92,.92,1.77-.35,.58-1.15,.53-1.83,.53-.96,0-2,.08-2.74-.56-3.23-2.76-6.41-2.06-9.63-.02-2.91-.04-5.82-.07-8.73-.11-.96-4.17-2.02-8.32-2.84-12.51-.66-3.4,.02-4.03,3.65-4.03,5.84,0,11.69-.09,17.53,.04,3.07,.07,6.27-.78,9.21,.97,.53,.32,1.74,.28,2.21-.09,1.61-1.29,3.44-.89,5.21-.9,6.32-.04,12.65-.01,18.97-.01h6.28v-.57H.06c-.08-.17-.08-.34,0-.51,25.27,0,50.54,.02,75.82,.03Z"/><path class="i" d="M74.74,268.37c0,4.3-2.56,7.41-5.26,10.45-21,0-42.01,0-63.01,0C2,273.72-.24,267.86,.03,261.17c25.31,0,50.63,0,75.94-.01l-.04,.64c-13.31,0-26.63,0-40.49,0,6.24,5.45,13.14,7.69,20.64,8.84,4.78,.73,9.46,.19,14.21,.09,2.29-.05,3.52-.58,4.44-2.35Z"/><path class="f" d="M36.67,.08c2.31-.36,3.02,.44,3.01,2.78-.09,28.56-.06,57.13-.05,85.69,0,1.19,.07,2.37,.11,3.56,0,1.47,0,2.94,0,4.41v26.43c0,1.65,0,3.31,0,4.96v2.75c-.04,10.63-.04,21.26-.14,31.89-.01,1.36,.63,1.44,1.72,1.43,3.35-.02,6.7,.09,10.05,.02,2.67-.05,3.87,1.08,3.81,3.63-.06,2.11,.02,4.22,.04,6.33-11.47,.03-22.95,.05-34.43,.08,.07-2.29,.13-4.58,.2-6.87,.07-2.21,1.13-3.37,3.58-3.28,3.16,.11,6.33-.03,9.48,.19,2.27,.16,2.67-.7,2.66-2.66-.11-14.86-.13-29.72-.13-44.58,0-13.39,.06-26.79,.08-40.18,0-1.27,.2-2.57-.28-3.82,.32-2.4,.27-4.79,.03-7.19,.69-6.56,.09-13.14,.2-19.71,.21-11.88,.07-23.77,.05-35.66,0-1.18-.18-2.35-.28-3.53,.3-1.66,.31-3.31,0-4.97,.25-.38,.2-.75-.04-1.11l.34-.6Z"/><path class="i" d="M75.91,241.4c.02,5.88,.03,11.76,.05,17.65-25.31-.01-50.62-.02-75.93-.03,.01-5.87,.02-11.74,.03-17.61,6.72-.04,13.44-.07,20.16-.11,.13,.15,.26,.3,.38,.45-1.28,.59-1.33,1.37-.47,2.39,3.11,3.72,4.71,8.41,8.78,11.63,1.33,1.05,2.03,2.69,4.13,2.69,13.31,0,26.61-.04,39.92,.03,1.95,0,2.45-.69,2.4-2.42-.1-3.94-.11-7.88,0-11.82,.05-1.82-.63-2.37-2.49-2.35-5.84,.06-11.68-.03-17.52-.06l.33-.45h20.21Z"/><path class="d" d="M20.78,174.05c11.48-.03,22.95-.05,34.43-.08,4.66,1.02,8.57,3.34,12.02,6.43-.35,1.36-1.51,.87-2.36,.87-18.82,.01-37.65,0-56.47-.02,3.11-4,7.64-5.77,12.39-7.2Z"/><path class="i" d="M67.3,281.4c-3.54,2.98-7.5,5.23-12.13,6.28-11.43,0-22.86,0-34.29,0-4.82-1.04-8.84-3.41-12.28-6.74,.44-.44,1-.45,1.59-.45,18.36,0,36.71,0,55.07,.01,.79,0,1.81-.33,2.05,.9Z"/><path class="f" d="M20.87,287.68c11.43,0,22.86,0,34.29,0,0,2.26-.05,4.53,0,6.79,.04,1.66-.62,2.78-2.33,3.26-9.91-.03-19.82-.06-29.73-.08-1.72-.55-2.24-1.8-2.23-3.41,.02-2.19,0-4.37-.02-6.56Z"/><path class="d" d="M74.74,268.37c-.92,1.77-2.15,2.3-4.44,2.35-4.74,.1-9.43,.64-14.21-.09-7.5-1.14-14.41-3.38-20.64-8.84,13.86,0,27.17,0,40.49,0,.29,2.31-.03,4.51-1.19,6.58Z"/><path class="e" d="M23.11,297.64c9.91,.03,19.82,.06,29.73,.08,.3,1.97,1.35,3.81,1.16,5.86-.06,.66-.1,2.03-.31,1.85-.89-.82-2.83,1.51-2.94-.95,0-.21-.29-.4-.57-.75-.89,1.39,.3,3.15-1.02,4.35-1.43-1-.39-2.54-1.2-3.57-1.18,.91,.32,2.82-1.42,3.51-.25-2.34-.5-4.67-.83-7.68-.42,2.15-.71,3.66-1.16,5.95-.52-2.61-.23-4.63-1.56-6.37-1.38,3.02,.69,5.47,.76,8.13-.15,1.1-.97,1.15-1.86,1.1-.25-2.63-.51-5.25-.76-7.88l-.17,.02v7.88c-.64-.04-1.28-.08-1.92-.11-.43-2.47,.28-5.07-.89-7.49-.72,2.51,.57,5.2-.9,7.59-.37,0-.74-.01-1.11-.02-.07-1.91-.13-3.82-.2-5.72,0-.15,.02-.29,.02-.35l-.91,5.55c-.38,.17-.77,.34-1.15,.51-.13-1.36-.25-2.73-.38-4.09l-.56,.04c-.11,1.34-.23,2.67-.34,4.01-2.48,.17-1.27-1.9-1.87-2.87-1.1,.18-.41,1.54-1.5,1.88v-4.35c-.77,.93-.59,1.76-.59,2.52,.01,1.67-.91,2.35-2.27,1.49-1.12-.71-2.34-1.15-3.45-1.79-1.97-1.15-.41-2.82-.41-4.24,0-1.36,.36-2.71,.56-4.07Z"/><path class="i" d="M.04,239.72c0-5.88,0-11.75-.01-17.63,3.83,0,7.66,.01,11.49,.02,.22,1.12,.88,2.12,1.26,3.18,.88,2.47,1.28,5.1,2.45,7.43,1.12,2.23,1.99,4.45,2.03,6.93-5.74,.02-11.48,.04-17.22,.06Z"/><path class="i" d="M.06,202.8H71.73v.57h-6.27c-6.32,0-12.65-.02-18.97,.01-1.77,.01-3.59-.39-5.21,.9-.46,.37-1.67,.41-2.21,.09-2.94-1.76-6.14-.9-9.21-.97-5.84-.13-11.69-.04-17.53-.04-3.63,0-4.32,.64-3.65,4.03,.82,4.19,1.88,8.34,2.84,12.51-3.84,0-7.67,.01-11.51,.02,.02-5.71,.03-11.42,.05-17.13Z"/><path class="e" d="M.04,259.02c25.31,.01,50.62,.02,75.93,.03,.4,.7,.35,1.4,0,2.11-25.31,0-50.63,0-75.94,.01,0-.72,0-1.43,.01-2.15Z"/><path class="i" d="M69.65,183.53c-19.83,0-39.65,.06-59.48-.04-2.65-.01-3.37,.7-3.38,3.22-.02,3.95,.58,7.84,.66,11.76,.02,1.2,.61,1.64,1.78,1.59,.38-.02,.77,0,1.15,0,21.84,0,43.67-.02,65.51-.03v.58c-24.04,0-48.09,.01-72.14,.03-1.23,0-2.5-.2-3.65,.45-.47-6.87,1.73-12.89,6.36-18.12,20.17,0,40.34,0,60.5,.02,.91,0,1.94-.32,2.68,.53Z"/><path class="e" d="M.09,201.1c1.15-.66,2.42-.45,3.65-.45,24.05-.02,48.1-.02,72.15-.03,0,.57-.01,1.13-.02,1.7-25.27,0-50.54-.02-75.82-.03,.01-.4,.02-.79,.03-1.19Z"/><path class="e" d="M69.65,183.53c-.75-.85-1.77-.53-2.68-.53-20.17-.02-40.34-.02-60.5-.02,.42-.81,.89-1.57,1.94-1.74,18.82,.01,37.65,.03,56.47,.02,.85,0,2.01,.49,2.36-.87,1.06,.96,2.39,1.67,2.92,3.08-.16,.05-.33,.07-.5,.05Z"/><path class="e" d="M67.3,281.4c-.24-1.22-1.26-.9-2.05-.9-18.36-.01-36.71,0-55.07-.01-.59,0-1.15,.02-1.59,.45-.89-.54-1.75-1.1-2.13-2.11,21,0,42.01,0,63.01,0-.54,1-1.15,1.95-2.17,2.57Z"/><path class="e" d="M40.63,346.52c-1.31,1.06-.78,4.07-3.81,3.3-.54-1.27-1.07-2.53-1.61-3.8-.2-3.85-.17-7.68,1.63-11.27,.86,.23,1.71,.41,2.45-.29,.72,2.56,1.78,5.03,2.02,7.7-.23,1.45-.45,2.9-.68,4.35Z"/><path class="e" d="M.01,219.93c3.84,0,7.67-.01,11.51-.02,2.91,.04,5.82,.07,8.73,.11-.33,.88-.67,1.76-1,2.63-2.5-1.2-5.15-.35-7.73-.55-3.83,0-7.66-.01-11.49-.02,0-.72-.01-1.44-.02-2.16Z"/><path class="e" d="M55.62,220.05c6.56-.03,13.13-.07,19.69-.1,.21,0,.42-.02,.63-.03,0,.71,0,1.43-.01,2.14-.2,0-.4,0-.6,.01-6.16,0-12.32,0-18.48,0l-1.23-2.04Z"/><path class="e" d="M.04,239.72c5.74-.02,11.48-.04,17.22-.06,1.02,.25,1.64-.14,1.92-1.08l1.05,2.72c-6.72,.04-13.44,.07-20.16,.11,0-.56-.02-1.12-.03-1.68Z"/><path class="e" d="M75.91,241.4c-6.74,0-13.47,0-20.21,0,.38-.55,.76-1.1,1.14-1.65,6.17-.02,12.35-.05,18.52-.07l.58,.07-.03,1.66Z"/><path class="f" d="M37.27,309.15c1.47-2.39,.18-5.08,.9-7.59,1.18,2.42,.46,5.02,.89,7.49-.05,4.47-.1,8.94-.15,13.4-.46-.08-.8,.05-.94,.51l-.56-.18c.03-.11,0-.2-.09-.27l-.05-13.37Z"/><path class="h" d="M37.22,330.18c-3.6-1.79-3.97-4.32-.96-6.68,.28,.53,.26,.97-.16,1.49-1.18,1.49,.45,1.87,1.24,2.45,.79,.58,1.69,1.3,2.77,.27,.97-.93,.75-1.87,.04-2.69-.51-.59-.76-.95,.08-1.37,2.66,2.63,2.26,4.63-1.28,6.48-.58,.01-1.15,.03-1.73,.05Z"/><path class="h" d="M40.22,323.66c-.83,.42-.59,.77-.08,1.37,.71,.82,.93,1.76-.04,2.69-1.08,1.03-1.97,.31-2.77-.27-.79-.58-2.42-.96-1.24-2.45,.42-.53,.44-.96,.16-1.49,.32-.2,.63-.4,.94-.61l.21-.11c.19,.06,.38,.12,.56,.18,.34,.49,.86,.46,1.37,.42,.29,.09,.59,.18,.88,.27Z"/><path class="f" d="M37.22,330.18c.58-.02,1.15-.03,1.73-.05-.34,1.48,1.13,2.82,.35,4.33-.74,.7-1.59,.52-2.45,.29-.63-1.58,.38-3.04,.38-4.58Z"/><path class="h" d="M75.95,239.74c-.19-.02-.39-.05-.58-.07-.01-5.86-.02-11.73-.04-17.59,.2,0,.4,0,.6-.01,0,5.89,.01,11.78,.02,17.67Z"/><path class="h" d="M75.94,219.93c-.21,0-.42,.02-.63,.03,.01-4.84,0-9.68,.04-14.52,0-.88-.31-1.85,.5-2.6,.41,5.7,.11,11.4,.08,17.09Z"/><path class="h" d="M39.34,323.39c-.52,.04-1.03,.07-1.37-.42,.14-.46,.48-.59,.94-.51,.14,.31,.29,.62,.43,.93Z"/><path class="k" d="M37.41,322.79l-.21,.11-.07-.23,.18-.16c.1,.07,.13,.16,.09,.28Z"/><path class="j" d="M56.84,239.74c-.38,.55-.76,1.1-1.14,1.65-.11,.15-.22,.3-.33,.45-2.92,2.33-5.84,2.81-8.77,.02-.35-.75-1.67-1-1.2-2.16,1.01,.21,1.54,1.05,2.29,1.6,2.24,1.64,5.08,1.48,6.99-.42,1.7-1.69,1.71-4.55-.03-6.49-1.05-1.17-2.85-2.19-3.07-3.47-.29-1.64,2.08-2.31,3.1-3.58,1.79-2.22,1.68-5.22-.34-6.98-1.89-1.65-4.95-1.58-7.07,.17-.51,.42-1.06,.82-1.44,1.34-1.4,1.92-2.51,1.63-4.23,.1-1.96-1.75-1.68-2.84,.16-4.29,1.31-1.04,2.76-2.2,1.46-4.16-3.12-4.7-5.85-4.83-9.64-.72-2.26,2.45-.08,3.74,1.11,5.38,.53,.73,1.93,1.05,1.01,2.44-1.99,3-3.41,3.23-6.02,.79-.41-.38-.79-.81-1.24-1.15-2.19-1.65-5.1-1.42-6.98,.53-1.84,1.91-1.84,4.37-.02,6.46,1.03,1.18,3.05,1.91,3.08,3.45,.04,1.56-2.02,2.27-3.01,3.47-1.89,2.28-1.84,5.14,.15,6.96,2.09,1.91,4.88,1.89,7.22-.07,.58-.48,1.17-.97,1.64-1.54,1.19-1.47,2.33-1.77,3.65-.15,1.03,1.25,2.98,2.06,.67,4.09-3.19,2.8-3.02,3.74-.02,6.7,2.41,2.39,3.85,2.43,6.28,.19,3.37-3.12,3.43-3.66,.66-6.4-2.46-2.43-2.23-3.22,1.37-4.81-.38,.85-.96,1.54-1.71,2.15-.62,.51-.24,.94,.38,1.2,.26,.27,.51,.55,.77,.81,1.26,1.27,2.87,2.63,1.8,4.49-1.32,2.29-3,4.48-5.95,5.13-.74,.16-1.51,0-2.22-.36-5.1-2.64-5.71-6.07-1.79-10.12,.12-.13,.16-.33,.24-.49q-1.87-3.26-4.98-.24c-3.01,2.46-6.04,2.12-9.08,.04-.13-.15-.26-.3-.38-.45-.35-.91-.7-1.81-1.05-2.72-.06-.35-.11-.69-.17-1.04l.13-1.39c.72-1.38,1.54-2.7,2.84-3.65,1.59-1.17,1.57-2.26,.02-3.4-2.21-1.64-3.13-3.78-2.76-6.43,.33-.88,.67-1.76,1-2.63,3.21-2.04,6.4-2.74,9.63,.02,.74,.63,1.78,.55,2.74,.56,.68,0,1.49,.05,1.83-.53,.51-.86-.45-1.28-.92-1.77-3.03-3.24-2.88-4.27,1.25-8.07,2.47-2.27,4.27-2.13,7.04,.54,3.83,3.69,3.85,4.35,.22,8.01-.32,.33-.73,.6-.67,1.13,2.8,3.24,2.09,2.97,4.82,.15,3.8-2.52,5.61-2.52,9.43,0,.41,.68,.82,1.36,1.23,2.04,.47,2.93-.43,5.38-2.89,7.22-1.35,1.02-1.52,1.96-.06,2.99,2.64,1.87,3.43,4.43,2.94,7.44Z"/><path class="e" d="M46.2,220.06c-2.73,2.82-2.02,3.09-4.82-.15,1.61,.05,3.21,.1,4.82,.15Z"/><path class="d" d="M20.62,241.74c3.03,2.08,6.06,2.43,9.08-.04,1.66,.08,3.32,.16,4.98,.24-.08,.17-.11,.36-.24,.49-3.91,4.06-3.3,7.48,1.79,10.12,.71,.37,1.47,.52,2.22,.36,2.95-.65,4.63-2.83,5.95-5.13,1.07-1.86-.54-3.22-1.8-4.49-.26-.26-.51-.54-.77-.81,1.44-1.3,3.19-.46,4.79-.64,2.93,2.78,5.86,2.31,8.77-.02,5.84,.03,11.68,.12,17.51,.06,1.86-.02,2.54,.53,2.49,2.35-.11,3.94-.1,7.88,0,11.82,.04,1.73-.45,2.43-2.4,2.42-13.31-.07-26.61-.04-39.92-.03-2.1,0-2.79-1.63-4.13-2.69-4.07-3.22-5.67-7.91-8.78-11.63-.86-1.02-.8-1.8,.47-2.39Z"/><path class="d" d="M19.25,222.66c-.37,2.65,.55,4.79,2.76,6.43,1.55,1.15,1.57,2.24-.02,3.4-1.29,.95-2.11,2.27-2.84,3.65-.16-.19-.41-.53-.58-.23-.36,.61-.22,1.21,.45,1.62,.06,.35,.11,.69,.17,1.04-.28,.94-.91,1.33-1.92,1.08-.04-2.48-.91-4.7-2.03-6.93-1.17-2.33-1.57-4.97-2.45-7.43-.38-1.07-1.03-2.06-1.26-3.18,2.57,.2,5.23-.65,7.73,.55Z"/><path class="d" d="M56.84,239.74c.49-3.01-.3-5.56-2.94-7.44-1.46-1.04-1.29-1.98,.06-2.99,2.45-1.84,3.36-4.29,2.89-7.22,6.16,0,12.32,0,18.48,0,.01,5.86,.02,11.73,.04,17.59-6.17,.02-12.35,.05-18.52,.07Z"/><path class="g" d="M43.15,239.15c-3.6,1.58-3.83,2.37-1.37,4.81,2.77,2.74,2.71,3.28-.66,6.4-2.43,2.24-3.87,2.2-6.28-.19-3-2.97-3.16-3.91,.02-6.7,2.31-2.03,.35-2.84-.67-4.09-1.32-1.62-2.46-1.33-3.65,.15-.46,.58-1.06,1.06-1.64,1.54-2.35,1.96-5.13,1.98-7.22,.07-1.99-1.82-2.05-4.68-.15-6.96,1-1.2,3.05-1.92,3.01-3.47-.04-1.53-2.05-2.26-3.08-3.45-1.82-2.08-1.82-4.55,.02-6.46,1.88-1.95,4.79-2.18,6.98-.53,.45,.34,.83,.76,1.24,1.15,2.61,2.43,4.03,2.21,6.02-.79,.92-1.39-.48-1.71-1.01-2.44-1.19-1.63-3.37-2.93-1.11-5.38,3.79-4.11,6.52-3.98,9.64,.72,1.3,1.96-.15,3.12-1.46,4.16-1.84,1.45-2.12,2.55-.16,4.29,1.71,1.53,2.82,1.82,4.23-.1,.38-.52,.93-.92,1.44-1.34,2.12-1.76,5.18-1.82,7.07-.17,2.02,1.76,2.13,4.76,.34,6.98-1.02,1.26-3.39,1.94-3.1,3.58,.22,1.28,2.03,2.29,3.07,3.47,1.73,1.94,1.72,4.8,.03,6.49-1.91,1.9-4.75,2.06-6.99,.42-.75-.55-1.28-1.39-2.29-1.6l.03,.04c-1.29-1.95-1.49-1.99-2.34-.55l.04-.04Zm4.65-4.86l-.58,.53c-1.11,.62-2.36,1.2-.81,2.59,.9,.81,1.75,1.68,2.69,2.44,1.34,1.09,2.63,.8,3.81-.29,1.85-1.71,1.18-3.68-1.8-5.28-1.11-2.26-2.21-2-3.31,.01Zm-8.75-11.62l.04,.04c-.45-1.23-1.16-1.32-2.08-.43-.67,.65-1.3,1.34-2,1.94-.76,.65-1.14,1.42-.21,2.03,1.26,.83,1.83,3.12,3.65,2.44,1.35-.5,2.83-1.94,3.21-3.24,.34-1.14-1.29-2.2-2.61-2.79Zm-16.03,2.17l-.04-.04c-.36,2.27,1.87,2.95,3.11,3.79,1.37,.93,2.22-1.14,3.26-1.93,.62-.47,1.59-1.11,.74-2-1.15-1.2-2.34-2.47-3.78-3.28-1.52-.85-2.95-.14-3.79,1.35-.46,.8-1.45,1.8,.51,2.1Zm7.34,11.15c-.98-1.31-2.02-2.81-3.87-3.23-1.05-.23-4.41,3.88-4.23,5.08,.28,1.78,1.55,2.68,3.37,2.68,1.19,0,4.82-3.53,4.72-4.53Zm23.59-11.79c.07-1.42-1.58-3.11-3.04-3.11-1.13,0-5.56,3.52-5.18,4.24,.81,1.54,2.13,2.81,3.77,3.54,.79,.35,4.39-3.59,4.44-4.67Zm-9.98,10.26c1.1-1.09,2.69-1.99,3.5-3.56,.28-.54-2.94-3.86-3.55-3.61-1.63,.69-3.24,1.55-3.92,3.29-.24,.61,2.97,3.84,3.97,3.87Zm-5.79-1.89c-1.62,.94-3.55,2.01-3.67,3.59-.12,1.6,1.86,2.73,3.3,3.68,.52,.34,4.15-2.78,3.96-3.48-.49-1.79-2.29-2.52-3.59-3.79Zm-2.1-2.14c-1.32-.86-1.98-2.67-3.77-3.21-.7-.21-4.06,3.19-3.74,3.73,.89,1.49,2.16,2.73,3.77,3.5,.53,.25,3.81-3.2,3.73-4.02Zm5.33-15.45c-.67-1.48-1.74-2.86-3.09-3.05-1.73-.24-3.14,1.56-3.37,2.78-.26,1.42,1.55,2.93,2.92,3.1,1.62,.2,2.35-1.76,3.54-2.82Zm.15,31.72c-1.18-1.21-1.98-3.01-3.67-2.88-1.46,.11-3.09,1.66-3.02,2.88,.08,1.32,1.64,2.98,3.2,3.02,1.65,.04,2.3-1.91,3.49-3.01Z"/><path class="e" d="M46.61,241.86c-1.6,.18-3.35-.66-4.79,.64-.62-.26-1-.69-.38-1.2,.75-.61,1.33-1.29,1.71-2.15l-.04,.04,2.34,.55-.03-.04c-.48,1.16,.85,1.41,1.2,2.16Z"/><path class="e" d="M34.67,241.95c-1.66-.08-3.32-.16-4.98-.24q3.1-3.02,4.98,.24Z"/><path class="h" d="M19.02,237.53c-.67-.41-.81-1.01-.45-1.62,.18-.3,.43,.03,.58,.23-.04,.46-.09,.93-.13,1.39Z"/><path class="j" d="M30.36,236c.1,1-3.53,4.52-4.72,4.53-1.82,0-3.09-.89-3.37-2.68-.19-1.2,3.18-5.32,4.23-5.08,1.85,.42,2.89,1.92,3.87,3.23Zm-1.16,.34c-.68-1.05-1.52-2.55-2.56-2.31-1.6,.37-2.87,1.76-3.26,3.44-.22,.96,.24,1.89,1.55,1.71,1.88-.26,3.23-1.32,4.28-2.84Z"/><path class="j" d="M53.95,224.21c-.05,1.08-3.65,5.02-4.44,4.67-1.64-.72-2.96-2-3.77-3.54-.38-.73,4.05-4.24,5.18-4.24,1.46,0,3.11,1.68,3.04,3.11Zm-1.03-.34c-.16-1.03-.82-1.71-2.04-1.75-.97-.03-4.05,2.62-3.76,3.31,.42,1.02,1.24,1.86,2.36,2.19,.76,.22,3.47-2.74,3.45-3.75Z"/><path class="j" d="M23.02,224.85c-1.96-.3-.97-1.3-.51-2.1,.85-1.49,2.28-2.2,3.79-1.35,1.44,.8,2.63,2.08,3.78,3.28,.85,.89-.12,1.53-.74,2-1.04,.79-1.88,2.86-3.26,1.93-1.24-.84-3.47-1.53-3.11-3.79,.84,.72,1.73,1.39,2.5,2.18,.75,.77,1.45,.91,2.1,.04,.5-.66,2.02-1.13,1.18-2.13-.96-1.15-1.86-2.84-3.69-2.73-1.4,.09-2.42,1.04-2.06,2.67Z"/><path class="j" d="M43.98,234.47c-1-.03-4.21-3.26-3.97-3.87,.68-1.74,2.29-2.6,3.92-3.29,.61-.26,3.83,3.06,3.55,3.61-.82,1.57-2.4,2.47-3.5,3.56Zm-.25-1.24c1.06-.59,2.36-1.22,2.38-2.44,.01-1.06-1.16-2.13-2.21-2.2-1.28-.07-2.34,1.16-2.44,2.26-.09,1.06,1.19,1.72,2.27,2.37Z"/><path class="j" d="M38.19,232.58c1.3,1.28,3.1,2,3.59,3.79,.19,.7-3.44,3.82-3.96,3.48-1.44-.95-3.42-2.08-3.3-3.68,.12-1.59,2.05-2.65,3.67-3.59Zm-.15,6.24c1.02-.74,2.32-1.42,2.34-2.56,.02-1.02-1.16-2.09-2.23-2.18-1.15-.09-2.28,1.06-2.41,2.01-.18,1.22,1.26,1.85,2.3,2.73Z"/><path class="j" d="M36.09,230.44c.08,.82-3.21,4.27-3.73,4.02-1.62-.77-2.89-2-3.77-3.5-.32-.54,3.03-3.94,3.74-3.73,1.79,.54,2.45,2.35,3.77,3.21Zm-4.02-2.14c-.65,1.07-2.4,1.38-2.06,2.7,.25,.99,1.28,2.28,2.57,2.05,.95-.17,2.19-1.14,2.08-2.26-.12-1.14-1.34-1.77-2.58-2.5Z"/><path class="j" d="M39.05,222.68c1.32,.59,2.95,1.65,2.61,2.79-.39,1.3-1.86,2.74-3.21,3.24-1.82,.67-2.4-1.62-3.65-2.44-.93-.62-.55-1.38,.21-2.03,.71-.61,1.33-1.29,2-1.94,.92-.89,1.63-.8,2.08,.43-.88,.35-1.77,.5-2.54,1.27-1.04,1.03-1.17,1.7,0,2.63,.86,.69,1.53,1.8,2.69,.33,.69-.87,2.15-1.51,.48-2.78-.41-.31-1.26-.66-.66-1.48Z"/><path class="j" d="M41.42,214.99c-1.19,1.06-1.92,3.03-3.54,2.82-1.37-.17-3.18-1.68-2.92-3.1,.23-1.23,1.64-3.03,3.37-2.78,1.36,.19,2.42,1.58,3.09,3.05Zm-1.47-.09c-.46-.88-.88-1.83-1.99-1.74-.88,.07-1.65,.83-1.69,1.62-.06,.97,.84,1.77,1.75,1.84,1.03,.08,1.47-.94,1.93-1.72Z"/><path class="j" d="M41.57,246.71c-1.19,1.1-1.84,3.05-3.49,3.01-1.56-.04-3.12-1.7-3.2-3.02-.07-1.21,1.56-2.77,3.02-2.88,1.7-.12,2.49,1.67,3.67,2.88Zm-3.59,1.9c1.05-.22,1.86-.93,1.98-1.75,.12-.87-.8-1.71-1.66-1.86-1.17-.2-2.03,.84-2.12,1.72-.09,.83,.99,1.41,1.8,1.88Z"/><path class="j" d="M51.11,234.29c2.97,1.6,3.65,3.57,1.8,5.28-1.18,1.09-2.48,1.38-3.81,.29-.94-.77-1.79-1.63-2.69-2.44-1.55-1.39-.3-1.97,.81-2.59,.13,.1,.26,.19,.39,.29-1.57,2.41,1.16,2.83,2.14,3.94,.74,.84,1.98,.69,2.72-.32,1.18-1.62-.24-2.47-1.21-3.45-.19-.2-.33-.44-.5-.67,.11-.11,.22-.22,.33-.33Z"/><path class="j" d="M47.8,234.3c1.09-2.01,2.2-2.27,3.31-.01-.11,.11-.22,.22-.33,.33-.91-.94-1.8-.78-2.68,.04-.1-.12-.19-.23-.29-.35Z"/><path class="j" d="M45.45,239.74l-2.34-.55c.85-1.44,1.05-1.4,2.34,.55Z"/><path class="j" d="M47.22,234.82c.19-.18,.39-.35,.58-.52,.1,.12,.19,.24,.29,.35-.16,.15-.32,.31-.48,.46-.13-.1-.26-.19-.39-.29Z"/><path class="i" d="M29.2,236.34c-1.05,1.52-2.4,2.58-4.28,2.84-1.3,.18-1.77-.75-1.55-1.71,.39-1.68,1.67-3.07,3.26-3.44,1.04-.24,1.88,1.25,2.56,2.31Z"/><path class="i" d="M52.92,223.87c.01,1.01-2.69,3.98-3.45,3.75-1.11-.33-1.94-1.17-2.36-2.19-.28-.69,2.79-3.35,3.76-3.31,1.22,.04,1.89,.72,2.04,1.75Z"/><path class="i" d="M23.02,224.85c-.36-1.63,.66-2.59,2.06-2.67,1.82-.11,2.72,1.58,3.69,2.73,.84,1-.68,1.46-1.18,2.13-.66,.87-1.36,.73-2.1-.04-.77-.79-1.66-1.46-2.5-2.18l.04,.04Z"/><path class="i" d="M43.72,233.23c-1.08-.65-2.37-1.31-2.27-2.37,.1-1.1,1.16-2.34,2.44-2.26,1.04,.06,2.22,1.13,2.21,2.2-.01,1.21-1.31,1.84-2.38,2.44Z"/><path class="i" d="M38.04,238.82c-1.04-.88-2.48-1.51-2.3-2.73,.14-.95,1.26-2.1,2.41-2.01,1.07,.09,2.25,1.16,2.23,2.18-.02,1.13-1.32,1.82-2.34,2.56Z"/><path class="i" d="M32.07,228.29c1.24,.72,2.46,1.36,2.58,2.5,.11,1.11-1.13,2.09-2.08,2.26-1.29,.23-2.31-1.07-2.57-2.05-.34-1.32,1.41-1.63,2.06-2.7Z"/><path class="i" d="M39.05,222.68c-.6,.82,.25,1.17,.66,1.48,1.67,1.27,.21,1.91-.48,2.78-1.16,1.47-1.83,.35-2.69-.33-1.16-.93-1.03-1.59,0-2.63,.77-.77,1.66-.92,2.54-1.27l-.04-.04Z"/><path class="i" d="M39.94,214.9c-.47,.78-.91,1.8-1.93,1.72-.92-.07-1.81-.87-1.75-1.84,.05-.79,.81-1.55,1.69-1.62,1.11-.09,1.53,.86,1.99,1.74Z"/><path class="i" d="M37.98,248.61c-.81-.47-1.89-1.05-1.8-1.88,.09-.88,.95-1.92,2.12-1.72,.86,.15,1.78,.98,1.66,1.86-.11,.81-.93,1.52-1.98,1.75Z"/><path class="i" d="M47.61,235.11c.16-.15,.32-.31,.48-.46,.88-.82,1.78-.98,2.68-.04,.16,.22,.3,.47,.5,.67,.96,.98,2.38,1.84,1.21,3.45-.74,1.02-1.98,1.16-2.72,.32-.99-1.11-3.71-1.53-2.14-3.94Z"/></g></g></g></svg>